<svg width="16" height="14" viewBox="0 0 16 14" fill="none" xmlns="http://www.w3.org/2000/svg">
<g filter="url(#filter0_g_85_1416)">
<path d="M4.53226 1.77547C4.63335 1.85538 4.6749 2.01829 4.6739 2.14587C4.67438 2.18676 4.58736 2.21658 4.58414 2.24683C4.57792 2.30592 4.63883 2.32293 4.62675 2.38577C4.6221 2.40635 4.48871 2.46099 4.48644 2.48055C4.47465 2.58685 4.5474 2.64112 4.5657 2.73518C4.64942 3.18801 4.80322 3.57831 4.95553 3.98317C5.0048 4.11482 4.97702 4.32978 5.09718 4.42653C5.11139 4.43789 5.21547 4.3672 5.22604 4.36489C5.38849 4.33049 5.1601 4.44103 5.14721 4.48638C5.09732 4.66722 5.15835 4.79675 5.26379 4.88214C5.30881 4.91799 5.49743 4.74675 5.40335 4.86315C5.39704 4.8711 5.27514 4.92639 5.27016 4.94609C5.25909 4.99065 5.31127 5.03286 5.31512 5.06033C5.32198 5.11364 5.3273 5.12005 5.34977 5.16126C5.37955 5.21827 5.36136 5.31753 5.42232 5.36087C5.43567 5.36992 5.54306 5.28345 5.57491 5.29149C5.60671 5.29956 5.62834 5.35822 5.61146 5.3926C5.59456 5.42699 5.49804 5.4747 5.47886 5.49053C5.31666 5.62368 5.60008 5.53677 5.61076 5.54064C5.80048 5.61993 5.73598 5.82741 5.81956 5.95972C5.88329 6.05993 5.99692 6.13753 6.05173 6.23569C6.11655 6.35283 6.11728 6.48819 6.20045 6.58898C6.20907 6.59966 6.33325 6.4967 6.344 6.50947C6.45772 6.64464 6.5425 6.79742 6.55601 7.00186C6.55738 7.02263 6.42964 7.0864 6.42425 7.11216C6.39297 7.2674 6.27488 7.57519 6.80316 7.25612C6.82769 7.32837 6.86097 7.41217 6.80333 7.53911C6.76639 7.62098 6.62065 7.68404 6.70406 7.68403C6.7227 7.68408 6.81887 7.58892 6.83874 7.59515C6.92289 7.62215 6.93908 7.71175 7.03806 7.72257C7.05841 7.72454 7.14877 7.64474 7.16806 7.63404C7.32477 7.54791 7.13726 7.77631 7.12989 7.80027C7.0718 7.97537 7.16538 7.98874 7.22062 8.05669C7.23342 8.07251 7.33833 7.947 7.35482 7.95814C7.43947 8.01813 7.49938 8.1033 7.51463 8.22263C7.51781 8.2495 7.40481 8.33091 7.40136 8.34875C7.38866 8.42747 7.58208 8.25285 7.57293 8.32354C7.57131 8.33826 7.48397 8.41778 7.47599 8.42814C7.3513 8.59127 7.5717 8.40382 7.58074 8.4038C7.70216 8.40136 7.53329 8.65627 7.62647 8.68435C7.63755 8.6872 7.72208 8.5621 7.74673 8.57651C7.91039 8.67051 8.02569 8.81984 8.10301 9.02305C8.11499 9.05431 8.03338 9.13378 8.02665 9.14597C7.92547 9.33931 8.10907 9.11443 8.12224 9.11034C8.22276 9.08495 8.15227 9.32858 8.37531 9.06121C8.57221 9.32139 8.86777 9.24588 9.06139 9.5966C9.0643 9.60079 9.03105 9.7396 9.03737 9.74743C9.10217 9.82686 9.12788 9.68548 9.18216 9.48502C9.18957 9.44426 9.1965 9.40081 9.20174 9.35578C9.20299 9.28788 9.20541 9.61533 9.21456 9.63917C9.22609 9.72733 9.21983 9.93962 9.22412 9.95664C9.279 10.0891 9.22646 9.38873 9.23194 9.3876C9.23286 9.38864 9.24996 9.51664 9.25385 9.52903C9.26743 9.56769 9.26499 9.51597 9.28141 9.55786C9.31689 9.65533 9.43118 9.97839 9.41556 9.77422C9.4116 9.74821 9.2756 9.37474 9.3015 9.38463C9.31214 9.38942 9.35494 9.36107 9.38103 9.37516C9.40746 9.38963 9.46296 9.50565 9.46643 9.51006C9.60004 9.62759 9.62018 9.69744 9.7886 9.88739C9.96346 10.0712 9.6169 9.5853 9.58853 9.52397C9.56008 9.46307 9.67866 9.54916 9.71853 9.57952C9.75795 9.61045 9.79617 9.68401 9.82202 9.69872C9.99598 9.78966 9.66067 9.44849 9.61678 9.36206C9.50535 9.16297 9.8306 9.46483 9.89992 9.45808C9.91812 9.45667 9.83959 9.39256 9.8416 9.37738C9.84942 9.319 9.97083 9.39208 9.91743 9.26321C9.91008 9.24076 9.73878 9.0336 9.90374 9.14109C9.92772 9.15637 10.0033 9.23758 10.0359 9.23756C10.0846 9.23782 10.1417 9.20672 10.1355 9.15527C10.1308 9.11748 9.96985 9.0281 10.0343 9.03759C10.0632 9.04158 10.1296 9.12906 10.1774 9.13048C10.2246 9.13274 10.2627 9.07472 10.2758 9.0506C10.2887 9.0267 10.1689 8.95714 10.1627 8.94987C10.1275 8.90808 10.1026 8.82896 10.1052 8.82545C10.2167 8.63958 10.5246 8.58426 10.5726 8.34592C10.5764 8.32741 10.4443 8.26587 10.4436 8.2623C10.4194 8.18156 10.7325 8.41252 10.8661 8.43894C10.6061 8.2997 10.6648 8.3044 10.6571 8.2515C10.6532 8.22592 10.5479 8.18053 10.5385 8.17323C10.4011 8.06352 10.6074 8.15292 10.6503 8.16982C10.8081 8.23242 10.6436 8.11804 10.7493 8.15921C10.8545 8.19961 10.985 8.30701 11.0034 8.2683C10.9158 8.2082 10.658 8.10548 10.6334 8.05676C10.5386 7.87617 10.8286 7.78185 10.8906 7.70469C10.9518 7.63006 10.9473 7.59378 11.0054 7.55987C11.1106 7.49785 10.9096 7.44464 10.8504 7.34928C10.7906 7.25511 11.2362 7.4911 11.3384 7.52802C11.4405 7.56482 11.3432 7.50977 11.4019 7.52428C11.4607 7.53872 11.5177 7.59117 11.5489 7.57643C11.5802 7.56148 11.4341 7.41684 11.3344 7.36256C11.1232 7.24733 10.8805 7.17406 10.9886 7.14823C10.995 7.14677 11.1109 7.21185 11.1292 7.20352C11.2711 7.13434 11.3251 7.02431 11.4547 6.94771C11.4727 6.93726 11.603 7.0076 11.615 7.0021C11.7409 6.94453 11.4977 6.88252 11.2631 6.72771C11.5981 6.87812 11.8176 6.93523 11.8486 6.86433C11.8673 6.82185 11.7155 6.76939 11.6217 6.69987C11.5933 6.67901 11.7076 6.68959 11.6397 6.65624C11.4178 6.54728 11.1502 6.47365 11.2807 6.44226C11.2868 6.441 11.4084 6.50055 11.4203 6.49257C11.4981 6.44093 11.2612 6.33871 11.2613 6.25173C11.2613 6.18365 11.4487 6.13295 11.4982 6.07289C11.8844 6.21861 11.8205 6.1192 11.5631 5.99461C11.5905 5.95384 11.593 5.89999 11.6457 5.87C11.6637 5.85962 11.7725 5.90999 11.7854 5.9125C11.9864 5.95207 11.733 5.83864 11.7262 5.82537C11.6642 5.68537 11.8928 5.66763 11.7338 5.49979C11.7281 5.49376 11.459 5.39473 11.6661 5.43603C11.6804 5.43894 11.7923 5.51462 11.8181 5.47048C11.8439 5.42671 12.0201 5.38565 11.9163 5.27672C11.8914 5.25037 11.6839 5.13678 11.8673 5.16147C11.8921 5.16488 11.9687 5.1954 12.0142 5.20346C12.1594 5.22873 11.8877 5.12725 12.1294 5.18014C12.3712 5.23275 12.5627 5.24034 12.4234 5.11884C12.4194 5.11511 12.206 5.02863 12.2163 5.00843C12.2329 4.97617 12.2939 4.94232 12.3036 4.9064C12.3082 4.88919 12.1687 4.85719 12.1672 4.85346C12.1263 4.71696 12.2732 4.67251 12.3632 4.56554C12.3801 4.54587 12.213 4.42599 12.3731 4.42702C12.5485 4.42763 13.2053 4.67577 13.0788 4.51456C13.0285 4.44907 12.1916 4.14594 12.6566 4.19378C12.5915 4.00629 12.8581 3.9259 12.7434 3.72367C12.7384 3.71458 12.5047 3.62849 12.5123 3.61289C12.5241 3.58977 12.6397 3.60577 12.6517 3.59021C12.7045 3.52611 12.6255 3.43511 12.6587 3.36608C12.671 3.34025 12.7849 3.37881 12.7994 3.34801C12.8139 3.31722 12.6659 3.25822 12.7503 3.23371C12.8144 3.21624 13.1363 3.2569 13.1838 3.2195C12.8747 3.14433 12.8886 3.11453 12.8192 3.04208C12.8057 3.02817 12.6953 3.01411 12.6834 3.00626C12.6323 2.97389 12.7258 2.97655 12.6695 2.94447C12.6559 2.93673 12.5501 2.91238 12.533 2.90473C12.3836 2.84053 12.6341 2.83971 12.6777 2.8397C12.8433 2.83924 12.7088 2.79272 12.7766 2.77991C12.8445 2.76698 12.9138 2.82313 12.9581 2.80033C13.0495 2.7552 13.0505 2.66369 13.0682 2.59833C13.0746 2.57227 12.9288 2.5627 12.9264 2.55832C12.9003 2.49949 13.0622 2.47165 12.7834 2.38943C13.5257 2.47969 12.7183 2.34228 12.8773 2.29522C12.8901 2.2917 13.2403 2.33853 13.2877 2.37029C13.3351 2.40234 13.2201 2.42058 13.2936 2.46924C13.311 2.48008 13.6279 2.58798 13.6462 2.59926C13.7909 2.67869 13.2711 2.58653 13.2421 2.58373C12.9296 2.55282 13.269 2.67517 13.2899 2.69584C13.3863 2.78935 13.3024 2.82774 13.3693 2.90016C13.4123 2.94749 13.7493 3.02494 13.7323 3.0527C13.6752 3.14905 13.1993 3.06672 13.5854 3.25237C13.6676 3.29217 14.0401 3.35907 13.7341 3.36212C13.7149 3.36181 13.4373 3.35397 13.5978 3.42139C13.618 3.43012 13.7251 3.45599 13.7329 3.46299C13.7831 3.50951 13.6926 3.51037 13.7245 3.55622C13.7565 3.60212 13.8062 3.6612 13.7594 3.69412C13.7313 3.71396 13.5241 3.69621 13.4727 3.69435C13.3243 3.69032 13.545 3.78462 13.3701 3.76074C13.1945 3.73647 12.9459 3.62977 12.8221 3.65336C13.0984 3.72787 13.3812 3.80694 13.6586 3.88329C13.6171 4.00156 13.4965 4.09295 13.4759 4.21447C13.4736 4.22972 13.626 4.25577 13.6273 4.27328C13.6322 4.34702 13.5096 4.37745 13.5325 4.45645C13.5505 4.51854 13.69 4.62232 13.7128 4.69047C13.3886 4.63296 13.4706 4.74789 13.4243 4.79799C13.4082 4.8158 13.3248 4.7893 13.2931 4.79583C13.1753 4.82104 13.4601 4.87854 13.4991 4.90708C13.6649 5.02995 13.0367 4.84496 13.0285 4.92696C13.0279 4.93106 13.3456 5.08508 13.3643 5.09813C13.4861 5.18384 13.246 5.06929 13.2129 5.08882C13.1524 5.12453 13.0622 5.13381 13.141 5.22331C13.1645 5.24945 13.3586 5.35703 13.1876 5.33924C13.1652 5.33691 13.0561 5.29923 13.0485 5.30069C12.9208 5.32998 13.2651 5.44319 13.3701 5.51751C13.4749 5.59202 13.2186 5.57072 13.1463 5.55943C12.9593 5.53087 13.0781 5.51168 13.0612 5.50436C12.8604 5.41758 12.8828 5.46979 12.855 5.49501C12.5161 5.38804 12.5221 5.43751 12.8276 5.52159C12.861 5.53068 12.8376 5.49613 12.855 5.49501C13.1772 5.63147 13.2033 5.6948 12.8765 5.64417C12.7234 5.62028 12.5625 5.54027 12.5991 5.63554C12.6156 5.67847 12.8517 5.74418 12.9047 5.79561C13.0254 5.91341 12.7787 5.92838 12.7879 6.01066C12.7913 6.04067 12.9265 6.05998 12.933 6.08209C12.9508 6.14114 12.8415 6.14862 12.8734 6.21259C12.8764 6.21846 13.0122 6.25524 13.0086 6.27046C12.9843 6.38691 12.8647 6.45279 12.8194 6.56714C12.7977 6.62237 12.8324 6.74944 12.7957 6.8017C12.7329 6.89264 12.495 6.94081 12.5073 7.04348C12.5146 7.11047 12.6496 7.15066 12.7286 7.21027C12.8817 7.3262 12.541 7.28241 12.489 7.27371C12.4874 7.27332 12.4763 7.21317 12.3993 7.21119C12.2544 7.16898 12.4887 7.27289 12.489 7.27371C12.4554 7.26839 12.3865 7.35136 12.4033 7.38051C12.4125 7.39642 12.5375 7.44208 12.5399 7.44944C12.596 7.62315 12.571 7.76633 12.456 7.87172C12.4525 7.87292 12.3183 7.80894 12.3118 7.81246C12.2182 7.85999 12.3626 7.98171 12.432 8.08918C12.501 8.19746 12.4443 8.23313 12.1963 8.16052C12.2033 8.22101 12.0696 8.23874 11.9898 8.24616C11.9101 8.25351 12.1672 8.38626 12.1706 8.39234C12.2817 8.58114 12.1019 8.56993 12.0228 8.66621C11.9856 8.71036 11.9657 8.83711 11.9624 8.90876C11.9601 8.96611 11.8859 8.96006 11.9008 9.02213C11.9027 9.03051 12.0181 9.08807 12.0215 9.0922C12.1296 9.21435 11.868 9.03696 11.8138 9.0186C11.6168 8.9511 11.5102 8.91833 11.5595 9.02466C11.571 9.04872 11.938 9.31921 11.9451 9.35893C11.954 9.40943 11.8223 9.31308 11.8353 9.36761C11.8363 9.3722 11.9224 9.4237 11.9056 9.44269C11.8299 9.52964 11.7073 9.61324 11.6472 9.71984C11.6385 9.73443 11.7824 9.80555 11.7718 9.82844C11.7214 9.93624 11.6334 10.0486 11.5021 10.0972C11.4692 10.1091 11.3923 10.0265 11.3622 10.0113C11.1821 9.91737 11.3736 10.1437 11.3715 10.155C11.3324 10.4247 11.0152 10.3879 10.9091 10.6568C10.9057 10.6706 11.014 10.9911 10.7982 10.8218C10.7828 10.8115 10.5722 10.6306 10.6503 10.8063C10.6547 10.8176 10.7688 10.9077 10.7113 10.9335C10.6546 10.9589 10.612 11.1044 10.4487 11.0236C10.3939 11.0001 10.2079 10.7952 10.2312 11.029C10.2416 11.042 10.3009 11.5615 10.1052 11.2743C10.0733 11.2266 9.94861 10.8923 9.90637 11.1045C9.89638 11.1459 9.96502 11.2068 9.9207 11.2752C9.84297 11.3832 9.68199 11.3283 9.56492 11.508C9.54867 11.5397 9.45372 11.7988 9.33999 11.6193C9.32364 11.5911 9.34438 11.4702 9.29599 11.459C9.17744 11.4304 9.05777 11.431 8.93593 11.417C8.87235 11.4102 8.8088 11.3983 8.75504 11.3478C8.71591 11.3108 8.77425 11.1247 8.74161 11.0653C8.70884 11.006 8.63797 10.9384 8.57429 11.0131C8.50843 11.0874 8.47922 11.3993 8.4017 11.4038C8.05488 11.4188 7.83243 11.1271 7.60515 10.9771C7.57014 10.954 7.54902 11.0681 7.49282 11.0401C7.28651 10.9411 6.90856 10.8135 6.90797 10.5168C6.90856 10.2817 7.13456 10.2732 7.0979 10.1493C7.0821 10.0913 6.8196 10.3414 6.80225 10.342C6.63705 10.3571 6.67318 10.1798 6.56319 10.1489C6.54038 10.1424 6.46064 10.266 6.44206 10.259C6.37738 10.236 6.37104 10.143 6.31864 10.1109C6.29485 10.0967 6.22304 10.1816 6.2103 10.1581C6.17885 10.1025 6.1727 10.0322 6.20496 9.91841C6.208 9.90813 6.32853 9.83243 6.30202 9.79957C6.25856 9.7463 6.27249 9.61518 6.14226 9.63365C6.10355 9.63965 5.9194 9.81471 6.01163 9.65761C6.03081 9.62465 6.26031 9.42349 6.03063 9.56445C5.99301 9.58858 5.66611 9.75994 5.80159 9.56865C5.83723 9.51835 5.99994 9.32655 5.95285 9.33304C5.94571 9.33448 5.85481 9.43732 5.82961 9.42937C5.74191 9.39893 5.6992 9.32879 5.61335 9.29504C5.59023 9.2862 5.50493 9.40335 5.47368 9.38696C5.38734 9.34174 5.34165 9.2317 5.3213 9.13744C5.31383 9.10231 5.41816 9.04504 5.42649 9.03514C5.56316 8.87543 5.33334 9.03567 5.31276 9.0362C5.18855 9.03808 5.25375 8.90946 5.18344 8.87647C5.1643 8.86711 5.0681 8.96028 5.0564 8.96462C4.94039 9.0049 5.14687 8.88041 5.1521 8.84436C5.16749 8.74301 5.11156 8.6881 5.05498 8.64183C5.03404 8.62495 4.92886 8.74186 4.91139 8.72547C4.80542 8.62989 4.73242 8.50603 4.72286 8.34708C4.72133 8.31705 4.82717 8.26047 4.84616 8.24034C4.97945 8.10017 4.7388 8.20926 4.71148 8.21343C4.58773 8.23397 4.66122 8.15565 4.61738 8.12737C4.40032 7.98862 4.29568 7.70798 4.21255 7.50115C4.1028 7.23088 4.08276 6.98617 3.91757 6.77334C3.90722 6.75974 3.78127 6.85707 3.77059 6.84636C3.63894 6.70445 3.59545 6.51192 3.46051 6.3735C3.4496 6.36185 3.3319 6.45755 3.31001 6.44135C3.26419 6.40867 3.23827 6.34849 3.2536 6.27984C3.26084 6.24652 3.38893 6.21054 3.39399 6.17838C3.40597 6.10326 3.3842 6.04463 3.33296 6.00419C3.31092 5.98722 3.19765 6.09776 3.17932 6.06965C3.05231 5.88066 2.91884 5.69979 2.98141 5.40637C2.9856 5.38601 3.25048 5.22092 3.18219 5.22152C3.10557 5.26182 3.01693 5.31189 2.9358 5.35633C2.73389 5.09937 2.67131 4.76397 2.53159 4.47894C2.52557 4.46676 2.39266 4.56766 2.38029 4.54454C2.30933 4.41226 2.19813 4.30709 2.26802 4.09672C2.27474 4.07595 2.53181 3.94004 2.47188 3.92334C2.46089 3.92018 2.39379 3.88037 2.33051 3.89675C2.32109 3.89943 2.20909 3.97694 2.19511 3.96035C2.1172 3.86497 2.0788 3.73603 2.09159 3.59408C2.09388 3.57103 2.22857 3.51508 2.23125 3.49799C2.2454 3.37069 2.10117 3.34359 2.16367 3.19495C2.20676 3.09667 2.43091 2.98434 2.62183 2.82593C2.6487 2.80345 2.63302 2.76824 2.7528 2.69008C3.05375 2.49307 3.39728 2.29946 3.71694 2.08769C3.78577 2.04196 3.67938 2.04043 3.86632 1.96252C3.87886 1.95732 3.95787 1.95833 4.02101 1.93163C4.06468 1.91318 4.18054 1.82415 4.23963 1.80561C4.29876 1.78725 4.20448 1.86645 4.27813 1.85167C4.35262 1.83665 4.48722 1.73955 4.53226 1.77547ZM11.6315 8.28021C11.4902 8.2517 11.9414 8.48732 11.852 8.39427C11.8471 8.38949 11.6385 8.2815 11.6315 8.28021ZM13.126 3.99146C12.8969 3.97857 13.2062 4.09831 13.3825 4.11101C13.5588 4.1233 13.1956 3.9951 13.126 3.99146ZM13.0959 3.45985C12.9103 3.47217 13.6076 3.65845 13.4815 3.56165C13.4744 3.55608 13.1066 3.45909 13.0959 3.45985ZM2.76472 2.92449C2.77028 2.9206 2.76145 2.89341 2.75507 2.89582C2.60928 2.96719 2.62727 3.0219 2.76472 2.92449ZM13.0374 2.93298C12.9381 2.92992 13.0368 3.00461 13.16 3.01007C13.2593 3.0137 13.161 2.93679 13.0374 2.93298ZM10.0743 9.63505C10.0686 9.63007 10.0486 9.6398 10.0786 9.67046C10.1751 9.76924 10.1706 9.71934 10.0743 9.63505ZM13.1783 2.08121C13.1367 2.22505 12.5377 2.18947 12.6185 2.08993C12.633 2.07086 12.802 2.15653 12.8585 2.13669C12.9623 2.09377 12.5936 2.01791 12.7957 1.99236C12.8332 1.98186 13.1826 2.06905 13.1791 2.08153C13.1789 2.08142 13.1786 2.08132 13.1783 2.08121ZM11.0761 8.02389C11.0698 8.02152 11.0508 8.04481 11.0564 8.04845C11.1931 8.13617 11.2318 8.08856 11.0761 8.02389ZM8.96674 9.71894C8.9682 9.70479 8.91311 9.67748 8.90805 9.68959C8.80643 9.93666 8.9344 9.99691 8.96674 9.71894ZM11.509 6.07565C11.3677 5.98932 11.3626 5.94787 11.5629 5.99467C11.5418 6.02043 11.5293 6.04957 11.509 6.07565Z" fill="#B59652"/>
</g>
<defs>
<filter id="filter0_g_85_1416" x="0.728052" y="0.40626" width="14.4863" height="12.6371" filterUnits="userSpaceOnUse" color-interpolation-filters="sRGB">
<feFlood flood-opacity="0" result="BackgroundImageFix"/>
<feBlend mode="normal" in="SourceGraphic" in2="BackgroundImageFix" result="shape"/>
<feTurbulence type="fractalNoise" baseFrequency="2.9383604526519775 2.9383604526519775" numOctaves="3" seed="5566" />
<feDisplacementMap in="shape" scale="2.7226066589355469" xChannelSelector="R" yChannelSelector="G" result="displacedImage" width="100%" height="100%" />
<feMerge result="effect1_texture_85_1416">
<feMergeNode in="displacedImage"/>
</feMerge>
</filter>
</defs>
</svg>
