<svg width="24" height="24" viewBox="0 0 24 24" fill="none" xmlns="http://www.w3.org/2000/svg">
<path fill-rule="evenodd" clip-rule="evenodd" d="M4.91608 11.9999C4.91608 11.2205 5.04553 10.4732 5.27659 9.77233L1.2323 6.68408C0.444086 8.28439 0 10.0876 0 11.9999C0 13.9105 0.443539 15.7127 1.23066 17.3119L5.27277 14.2176C5.0439 13.52 4.91608 12.7755 4.91608 11.9999Z" fill="#FBBC05"/>
<path fill-rule="evenodd" clip-rule="evenodd" d="M12.0151 4.90891C13.7084 4.90891 15.2379 5.50889 16.4396 6.49067L19.9355 2.99989C17.8052 1.14541 15.074 0 12.0151 0C7.2662 0 3.18476 2.71572 1.23035 6.68376L5.27464 9.77201C6.20651 6.94339 8.86283 4.90891 12.0151 4.90891Z" fill="#EB4335"/>
<path fill-rule="evenodd" clip-rule="evenodd" d="M12.0151 19.0911C8.86283 19.0911 6.20651 17.0567 5.27464 14.228L1.23035 17.3157C3.18476 21.2843 7.2662 24 12.0151 24C14.9462 24 17.7445 22.9593 19.8448 21.0094L16.0059 18.0417C14.9227 18.724 13.5588 19.0911 12.0151 19.0911Z" fill="#34A853"/>
<path fill-rule="evenodd" clip-rule="evenodd" d="M23.4878 12.0005C23.4878 11.2914 23.3786 10.5278 23.2147 9.81873H12.017V14.4549H18.4625C18.1402 16.0356 17.263 17.2508 16.0077 18.0417L19.8466 21.0094C22.0529 18.9619 23.4878 15.9118 23.4878 12.0005Z" fill="#4285F4"/>
</svg>
