<svg width="45" height="45" viewBox="0 0 45 45" fill="none" xmlns="http://www.w3.org/2000/svg">
<g filter="url(#filter0_g_85_1215)">
<path d="M43.6462 23.2964C43.6488 24.0628 43.4845 25.0547 43.2846 25.791C43.2226 26.0213 43.1554 25.8867 43.1077 26.0436C43.0138 26.3483 42.9946 26.6505 42.8817 26.9473C42.8437 27.0453 42.7347 26.8865 42.6981 26.9894C42.4978 27.5512 42.3794 28.1009 42.1619 28.6637C41.09 31.4241 39.561 33.9316 37.5268 36.081C36.8564 36.7931 35.9131 37.512 35.1715 38.1846C35.085 38.2636 35.218 38.3171 35.2072 38.3392C35.0316 38.683 34.9647 38.4119 34.7645 38.5255C33.9684 38.9757 33.1352 39.5191 32.4076 39.9946C32.0976 40.1964 32.5432 40.2299 32.1484 40.2915C32.1212 40.2958 32.1384 40.1339 32.043 40.1706C31.8273 40.255 31.4545 40.4772 31.2901 40.5467C30.974 40.6804 30.924 40.7056 30.6301 40.8401C30.2263 41.0224 29.718 41.164 29.2855 41.3584C29.193 41.4004 29.367 41.4812 29.2227 41.5596C29.0786 41.6389 28.6685 41.7695 28.5202 41.7832C28.3723 41.7978 28.398 41.6764 28.3661 41.6609C28.1044 41.5293 27.7194 41.943 27.6571 41.9667C26.5675 42.3981 25.5442 42.4291 24.4702 42.5595C23.6569 42.658 22.7865 42.7603 22 42.7529C21.9935 42.7528 21.987 42.7528 21.9805 42.7527C21.0384 42.7403 20.2549 42.6146 19.3508 42.5139C19.2555 42.5028 19.3467 42.6766 19.2296 42.663C17.9845 42.5166 16.7606 42.2213 15.6113 41.7355C15.4962 41.6865 15.6921 41.6021 15.5805 41.5452C14.8888 41.205 13.9207 40.5033 13.2562 40.8634C12.7969 40.6253 12.2488 40.314 11.9094 39.9797C11.6916 39.7643 12.0163 39.7741 11.6716 39.6498C11.594 39.6211 11.6173 39.791 11.5056 39.7386C11.0342 39.5169 10.5829 39.173 10.1233 38.9343C10.0295 38.886 9.98322 39.0006 9.94634 39.0011C9.63778 38.9989 9.47514 38.5139 9.41819 38.4426C8.97011 37.8986 8.55197 37.6259 8.08178 37.1922C7.9733 37.0911 7.99286 37.3292 7.88413 37.2355C7.32167 36.7464 6.79177 36.1781 6.36905 35.5818C6.27554 35.4489 6.47702 35.4711 6.43799 35.4031C6.26735 35.1055 6.01913 35.2139 5.85722 34.9239C5.82321 34.8629 5.93967 34.8196 5.94196 34.8017C5.98005 34.5234 5.65028 34.5672 5.61397 34.5302C5.1569 34.0727 5.16849 33.5647 4.80171 33.079C4.7575 33.0202 4.72156 33.2407 4.60473 33.0697C3.82582 31.9297 3.20008 30.5887 2.832 29.2758C2.77461 29.0714 2.93289 29.1734 2.94106 29.1559C3.06805 28.8794 2.75063 28.8491 2.71712 28.787C2.46174 28.2986 2.54997 27.748 2.12013 27.4845C1.72036 25.6733 1.37299 23.8437 1.4869 22C1.51505 21.5448 1.57097 21.1007 1.66116 20.6545C1.66662 20.626 1.80549 20.6867 1.81578 20.63C1.94705 19.9499 1.71768 20.0694 1.49847 19.576C1.4438 19.4499 1.8149 19.1415 1.84346 19.1159C1.94689 19.017 2.14031 19.1625 2.16258 19.1278C2.34058 18.8451 1.63812 18.7858 1.71122 18.362C1.7147 18.3491 1.83203 18.4268 1.85091 18.3939C1.90996 18.292 1.87963 18.1747 1.94391 18.077C2.09307 17.8536 2.44241 17.84 2.33173 17.433C2.31795 17.381 1.91116 17.3622 2.02054 16.9956C2.06189 16.8501 2.23433 16.1962 2.31643 16.0251C2.39598 15.8529 2.48079 16.0141 2.49004 16.0027C2.80229 15.5735 2.8128 15.7772 3.12857 15.6216C3.44432 15.4705 2.85903 15.3401 2.83012 15.2211C2.80091 15.1018 3.0602 14.8041 3.13846 14.7388C3.21618 14.6726 3.25187 14.8062 3.30622 14.7421C3.66632 14.321 3.11671 14.4172 3.0949 14.2186C3.04792 13.7457 3.58715 13.6242 3.78623 13.3073C3.84074 13.2208 3.71389 13.2521 3.74504 13.1659C3.87169 12.8246 4.09181 12.6963 4.17595 12.2763C4.18892 12.2085 4.12092 11.7839 4.39993 11.6956C4.43964 11.6836 4.49086 11.8136 4.59007 11.6942C4.73782 11.5159 4.97562 11.1792 5.08 10.954C5.15707 10.7873 4.8903 10.8614 5.06458 10.701C5.1423 10.6303 5.12549 10.8458 5.26383 10.7091C5.40072 10.5725 5.67624 10.1751 5.78405 10.0258C5.8906 9.87608 5.72038 9.8743 5.72172 9.85686C5.73243 9.75218 5.89775 9.42836 5.91809 9.40389C6.89589 8.13547 8.09469 7.25606 9.23602 6.22911C9.32641 6.14858 9.17263 6.08606 9.18548 6.0726C9.47358 5.76518 9.45721 6.27099 9.76201 6.19646C9.54855 5.98933 9.71465 5.92577 9.9289 5.72607C10.0322 5.62987 9.90319 5.58343 9.90649 5.56642C9.97322 5.30187 10.2245 5.39874 10.2808 5.4149C10.4902 5.47304 10.4999 5.22447 10.6414 5.26456C10.7812 5.30496 10.6977 5.56114 10.9247 5.40572C10.9309 5.27468 10.6051 5.16051 10.7574 5.00533C11.332 4.40442 12.7651 3.8601 13.3592 3.62022C13.9514 3.36938 14.1384 3.27501 14.4992 3.1699C15.1539 2.98917 14.8505 2.88799 15.2176 2.65606C15.5902 2.42838 15.5552 2.97367 15.6471 3.05644C15.7368 3.14047 15.7623 3.01471 15.8501 3.04876C15.9372 3.08312 15.8113 3.201 15.9793 3.17039C16.1465 3.13871 16.5341 2.82377 16.5642 2.69905C16.6245 2.434 16.3496 2.24621 16.8211 2.21196C16.8481 2.21034 16.7982 2.36012 16.8998 2.34752C17.7003 2.24504 18.5198 2.09204 19.3198 2.07688C19.4296 2.0751 19.3522 2.23382 19.4159 2.23457C20.0794 2.24894 19.8172 2.03158 20.1551 1.7211C20.1078 2.09512 20.3251 2.29532 20.8186 2.26721C21.1171 2.2521 21.0558 2.09538 21.246 1.97452C21.3033 1.938 21.519 2.04197 21.5559 1.96604C21.6792 1.71806 21.4698 1.44211 22 1.54855C22.0002 1.5486 22.0004 1.54864 22.0007 1.54869C22.0089 1.55053 22.0049 1.56849 22 1.59133C21.9935 1.62137 21.9852 1.65987 22 1.68124C22.0059 1.68972 22.0154 1.6955 22.03 1.69702C22.5439 1.7545 22.6093 1.49744 23.1719 1.49433C23.6159 1.49171 24.3779 1.72188 24.8639 1.81942C24.7977 2.22596 25.2627 2.19937 25.4998 1.95329C25.8151 2.01961 26.1582 2.07153 26.4541 2.17822C26.5555 2.2148 26.4605 2.31591 26.4709 2.33146C26.6251 2.5741 26.8222 2.33777 26.8927 2.34401C27.6503 2.42509 28.171 2.80415 28.9122 2.85217C28.9382 2.85386 29.0765 2.59824 29.1852 2.86242C29.1914 2.88026 28.9241 2.91884 29.2364 3.04749C29.5505 3.17639 30.0726 3.55912 30.5495 3.63731C30.6642 3.65512 31.0273 3.57052 31.1524 3.83789C31.1686 3.87377 31.1017 3.93204 31.1203 3.99276C31.18 4.18676 31.3832 3.96554 31.4156 4.26137C31.4476 4.55747 31.6542 4.87718 32.1352 4.96616C32.1502 4.96935 32.3623 4.82825 32.4862 4.90863C32.6832 5.03627 32.9366 5.25589 33.1392 5.39081C33.2364 5.45537 33.2544 5.2955 33.2727 5.30468C33.9724 5.68572 34.3509 6.12917 34.959 6.71301C35.0696 6.81915 35.5356 6.96803 35.651 7.28673C35.7741 7.63496 35.0569 7.91044 35.6931 8.3013C35.9427 8.45689 36.8611 8.12595 36.8832 8.84459C37.6692 9.5638 38.0685 10.482 38.773 11.2774C38.8046 11.3131 39.0952 11.3084 39.1522 11.4071C39.2361 11.5534 39.184 11.6919 39.2383 11.7981C39.4622 12.2446 39.7677 12.5989 39.9705 13.0386C40.047 13.2055 39.9116 13.2009 39.9999 13.3994C40.0868 13.5972 40.2921 13.6634 40.3419 13.9652C40.3787 14.1943 40.167 14.5215 40.2382 14.8035C40.5376 14.6968 40.6077 14.8862 40.8097 15.1966C40.8485 15.2562 40.9274 15.1487 40.9512 15.1751C41.0505 15.2824 41.0048 15.4301 41.1046 15.5309C41.1287 15.5556 41.2321 15.5224 41.2576 15.5408C41.4799 15.6978 41.3537 16.1166 41.3294 16.1858C41.2414 16.4558 41.4064 16.5212 41.3926 16.7118C41.3778 16.9011 41.2317 16.6642 41.2483 16.875C41.2821 17.3092 41.4214 17.8415 41.4965 18.2688C41.5272 18.4393 41.6479 18.2967 41.6556 18.3204C41.7585 18.6701 41.6605 19.0537 41.9737 19.2118C41.2661 19.5596 42.078 19.4174 41.9851 19.9557C41.9771 19.9977 41.6309 20.0828 41.5636 19.9351C41.4964 19.7876 41.5791 19.5423 41.4702 19.3418C41.445 19.2929 41.0766 19.0587 41.0504 19.0245C40.8487 18.7507 41.3596 18.6198 41.3857 18.598C41.6624 18.3589 41.2437 18.0755 41.2004 17.9918C41.0032 17.5989 40.9909 17.2361 40.8209 16.9139C40.7098 16.7041 40.3709 16.7777 40.3316 16.6048C40.1975 16.0356 40.5835 15.6718 39.9974 15.2878C39.8709 15.2064 39.5632 15.4522 39.6845 14.9491C39.6929 14.9183 39.8243 14.5194 39.592 14.4171C39.563 14.4045 39.4622 14.4489 39.4417 14.4248C39.3059 14.2634 39.3305 14.1044 39.1988 13.9225C39.0672 13.7412 38.8945 13.5319 38.8123 13.2927C38.763 13.1488 38.8514 12.8804 38.8597 12.7913C38.8863 12.5383 38.5694 12.4625 38.6559 12.2638C38.7408 12.0614 39.1042 12.1493 39.0229 11.7904C38.771 11.9266 38.5044 12.0531 38.248 12.1851C37.8761 11.5516 37.5404 10.8995 37.075 10.3201C37.0172 10.2487 36.9534 10.4171 36.8885 10.3437C36.6153 10.0356 36.4679 9.68769 36.1498 9.39572C35.9029 9.17028 35.5364 9.01814 35.2663 8.805C35.3513 8.42434 34.9008 8.14297 34.6423 7.87365C34.5515 7.77872 34.6159 7.71916 34.5642 7.63581C34.3656 7.32377 34.3023 7.65236 34.1999 7.62439C33.7618 7.51039 34.1508 6.98076 33.7463 6.68677C33.7243 6.66989 33.2598 6.75692 33.2129 6.75021C32.9069 6.7021 33.248 6.62499 33.1224 6.50224C32.8922 6.27954 32.7545 6.08295 32.3858 5.96461C32.2773 5.9299 31.9441 5.97568 31.8522 5.72359C31.84 5.69041 31.9128 5.59965 31.8972 5.58228C31.6055 5.27649 31.412 5.58612 31.1543 5.58142C30.8971 5.57722 30.7053 5.19383 30.6721 5.09634C30.5882 4.84365 30.8382 5.092 30.8553 5.08103C31.0643 4.94489 30.8151 4.85513 30.6433 4.74877C30.7773 4.41775 30.5097 4.31028 30.464 4.64028C30.4593 4.67629 30.6145 4.71593 30.6433 4.74877C30.3277 4.9805 30.0448 4.89148 29.8687 4.4553C29.785 4.25164 29.9968 4.14644 29.5192 4.01412C29.3026 3.95612 29.2889 4.21505 29.0851 4.20496C28.6217 4.18289 28.1632 3.77759 27.7128 3.67617C27.5515 3.63998 27.6652 3.8152 27.5542 3.79532C27.2607 3.74408 27.0345 3.5763 26.7309 3.55164C26.7037 3.54969 26.7325 3.70169 26.6429 3.6808C25.9633 3.52732 25.3818 3.32029 24.6553 3.21458C24.3047 3.16196 23.6678 3.17314 23.3046 3.13525C22.8956 3.09019 22.4347 2.98328 22 2.9345C21.7606 2.90731 21.5342 2.89741 21.3405 2.92166C20.986 2.96686 21.0717 3.105 20.9253 3.20816C20.6466 3.4073 20.111 3.12282 20.0335 3.08042C20.0313 3.07843 20.3317 3.01668 20.1627 2.96035C20.0534 2.8201 20.0368 3.07947 20.0335 3.08042C19.9839 3.04975 19.3709 3.09135 19.2556 3.13787C19.1926 3.16181 19.2482 3.28802 19.2152 3.29804C18.4282 3.53463 17.6545 3.73468 16.8489 3.8986C16.8343 3.89997 16.8147 3.751 16.7806 3.75608C16.3029 3.82486 16.0632 4.09512 15.7335 4.32557C15.4034 4.55728 15.1085 4.63566 14.7964 4.4881C14.5351 4.62935 14.1001 4.69985 13.8478 4.74457C13.595 4.78905 13.6915 5.06551 13.675 5.07972C13.1595 5.54181 12.7473 5.57914 12.1377 5.91931C11.8474 6.07965 11.3236 6.47711 11.0539 6.71294C10.8404 6.8981 10.6636 6.9459 10.4842 7.13945C10.46 7.16558 10.567 7.24555 10.5616 7.25603C10.4305 7.55442 10.3443 7.22226 10.2623 7.21525C9.96492 7.19126 9.78605 7.19417 9.56148 7.51274C9.5084 7.58696 9.61925 8.09262 9.52433 8.21498C9.39873 8.375 9.34434 8.20395 9.21653 8.37701C9.20562 8.39178 9.27674 8.46208 9.17978 8.54817C8.73088 8.94881 8.23349 9.38662 7.83252 9.87078C7.77763 9.93654 7.96955 9.95656 7.89298 10.0528C7.5339 10.5044 7.14629 10.9998 6.76416 11.4198C6.66965 11.5231 6.62754 11.3884 6.58313 11.3945C6.31108 11.4357 6.40664 11.8191 6.38861 11.8575C5.94907 12.797 5.33664 13.3668 5.01125 14.3845C4.99246 14.4416 5.10502 14.9642 4.78607 15.0442C4.76485 15.049 4.43695 15.131 4.54983 15.3606C4.55711 15.3747 4.73131 15.3116 4.64329 15.5042C4.55491 15.6982 4.53145 16.0453 4.2953 16.2747C4.22095 16.3464 3.89251 16.4775 4.02433 16.8052C4.03211 16.8294 4.39415 17.3632 4.03038 17.4235C3.97081 17.4333 3.62663 17.3207 3.72846 17.6868C3.74889 17.7564 3.85253 17.6635 3.86405 17.8359C3.88262 18.099 3.72013 18.4091 3.8236 18.7424C3.84165 18.8014 4.04337 19.0648 3.83352 19.2173C3.80062 19.2413 3.69018 19.1692 3.66257 19.2634C3.53091 19.7128 3.55739 20.2069 3.44179 20.6707C3.40137 20.8363 3.21347 20.7375 3.15108 20.9119C3.08837 21.0867 3.02477 21.442 3.11052 21.6305C3.19618 21.8174 3.50721 21.621 3.52936 21.8947C3.53233 21.9298 3.53515 21.9649 3.53783 22C3.62593 23.1438 3.55829 24.2884 3.74444 25.4292C3.77337 25.6023 3.85386 25.4394 3.90605 25.6908C4.08753 26.6303 4.66766 28.1517 4.77764 29.0008C4.86046 29.689 4.40241 28.9659 4.53227 29.4713C4.59799 29.7184 5.03754 29.8145 5.07242 29.8622C5.42165 30.3369 5.46606 30.7651 5.76661 31.1986C5.8288 31.2873 5.90283 31.1235 5.95421 31.1991C6.13053 31.4556 6.24533 31.7684 6.41688 32.0126C6.49417 32.1217 6.57381 32.0403 6.63378 32.1469C6.77905 32.401 6.88822 32.6397 6.97311 32.9333C6.98109 32.9603 6.76434 32.8978 6.88987 33.0785C7.09311 33.3694 7.2864 33.7848 7.6322 34.0313C7.73549 34.1042 7.93009 33.9427 7.96761 34.2533C7.97593 34.3178 7.70061 34.469 8.10056 34.5207C8.1684 34.5325 8.76867 34.6589 8.77872 34.993C8.78107 35.0816 8.72373 35.3781 8.85683 35.4531C8.87535 35.4624 8.91403 35.3096 9.00975 35.3842C9.34538 35.6482 9.66512 35.9578 10.0257 36.206C10.122 36.2716 10.0809 36.053 10.2209 36.1533C10.6052 36.4287 11.0497 36.8139 11.4037 37.115C11.534 37.2264 11.3706 37.2548 11.3733 37.2723C11.4212 37.5579 11.6787 37.3936 11.7421 37.4164C12.1386 37.5628 12.3357 37.8395 12.6824 38.0024C12.7778 38.0472 12.7803 37.8945 12.8043 37.8948C13.0484 37.9014 12.7902 38.029 12.8964 38.1199C13.1949 38.375 13.5815 38.5657 13.9405 38.7198C14.072 38.7758 13.9944 38.5673 14.111 38.6186C14.8023 38.9186 15.5217 39.2223 16.1945 39.534C16.3216 39.593 16.2015 39.6787 16.2207 39.7136C16.3553 39.9581 16.7158 39.7958 16.7863 39.7902C17.1117 39.767 17.199 39.8991 17.4667 39.9471C18.7694 40.1845 20.3746 40.459 21.6301 40.5174C21.755 40.5241 21.8783 40.5298 22 40.5346C23.4597 40.5862 24.6735 40.5476 26.0824 40.2125C26.1791 40.1891 26.0467 40.0567 26.129 40.0345C27.1883 39.7537 28.2391 39.4781 29.2341 39.005C29.3156 38.9664 29.1377 38.8796 29.2655 38.813C29.5273 38.6754 29.8661 38.5271 30.1548 38.4365C30.2955 38.392 30.1778 38.5948 30.3189 38.5471C30.6479 38.4356 30.9795 38.2688 31.2739 38.0705C31.3986 37.9859 31.1261 37.967 31.2929 37.8676C32.4271 37.1826 33.448 36.3952 34.5718 35.6299C34.6484 35.5775 34.922 35.7496 35.0252 35.5679C34.976 35.4951 34.9049 35.4223 34.8454 35.3512C36.2051 33.9729 37.4635 32.496 38.4046 30.7794C38.4438 30.7074 38.2317 30.7542 38.3062 30.615C38.7368 29.805 39.0493 28.9817 39.516 28.1506C39.5616 28.0678 39.8217 28.2092 39.8689 27.93C39.8779 27.881 39.9683 27.4682 39.9371 27.3471C39.9321 27.3305 39.7807 27.3642 39.8147 27.2352C40.0143 26.4833 40.2217 25.702 40.4252 24.9443C40.4582 24.8216 40.5802 24.9771 40.6049 24.8893C40.7792 24.2665 40.739 23.562 40.8995 22.9536C41.006 22.5469 41.2485 22.7084 41.501 22.4907C41.5369 22.4597 41.5467 22.1959 41.6894 22.1831C42.0494 22.1497 42.4418 22.2869 42.8258 22.2365C42.9092 22.2258 42.821 21.846 43.0201 22.0713C43.0338 22.0871 43.0974 22.364 43.1632 22.4338C43.209 22.4825 43.3562 22.3991 43.414 22.4984C43.4715 22.5981 43.3468 22.702 43.4108 22.8663C43.4748 23.0318 43.645 22.9653 43.6462 23.2964ZM12.7103 4.981C12.4385 4.97219 12.6585 5.43237 12.8162 5.20605C12.8235 5.19461 12.7241 4.98123 12.7103 4.981ZM37.8431 10.6872C37.8462 10.3062 37.4546 10.3371 37.4431 10.6115C37.4287 10.8833 37.841 10.8018 37.8431 10.6872ZM39.6142 13.3256C39.6105 12.9222 38.944 13.2047 39.243 13.4748C39.2601 13.4906 39.6142 13.349 39.6142 13.3256ZM41.5172 23.5418C41.5244 23.5392 41.5448 23.3501 41.5382 23.345C41.3842 23.234 41.344 23.6088 41.5172 23.5418ZM40.9496 16.2132C41.0108 16.0764 40.8027 15.7983 40.7304 15.9699C40.6726 16.1067 40.8742 16.3823 40.9496 16.2132ZM4.01468 13.4055C4.00612 13.4055 3.94064 13.5277 3.98073 13.5434C4.1095 13.5935 4.15649 13.4045 4.01468 13.4055ZM41.8117 21.557C41.8173 20.7639 42.3697 20.215 42.3539 21.119C42.3491 21.2804 42.1475 20.7806 42.1037 20.9883C42.0235 21.3621 42.4042 21.6042 42.2045 21.9929C42.1687 22.0607 41.8112 21.6005 41.8108 21.5556C41.8111 21.556 41.8114 21.5565 41.8117 21.557ZM12.296 4.51143C12.2884 4.50767 12.1174 4.59657 12.1168 4.60484C12.1066 4.79604 12.4481 4.61848 12.296 4.51143ZM1.77276 21.184C1.75683 21.1938 1.73069 21.6454 1.74486 21.6607C2.00265 21.8977 2.05503 20.9971 1.77276 21.184ZM24.8701 1.83141C25.1032 1.69984 25.3661 1.72248 25.4988 1.95292C25.2914 1.90596 25.0791 1.87097 24.8701 1.83141Z" fill="#B59652"/>
</g>
<g filter="url(#filter1_g_85_1215)">
<path d="M30.7633 33.1365C30.7633 33.1365 29.4164 30.5515 28.934 28.4471C28.3328 25.4551 33.3656 21.3375 30.5353 18.0681C30.0685 17.6589 31.4791 15.4014 31.1366 14.8092C30.9077 15.4668 30.1357 16.524 30.1357 16.524C30.1357 16.524 30.1002 13.3431 29.4717 12.6429C29.6289 13.8941 29.5353 15.1802 29.5353 15.1802C29.5353 15.1802 28.5779 12.4431 27.6197 12.0358C28.6115 13.0031 28.5635 14.495 28.5635 14.495C28.5635 14.495 26.9621 11.4358 24.7314 11.4926C26.36 12.3786 26.7605 13.6371 26.7605 13.6371C26.7605 13.6371 16.2109 12.2078 18.1265 8.14693C16.6396 8.51889 16.6396 12.6075 16.6396 12.6075C16.6396 12.6075 15.1809 10.1483 17.6115 7.06061C12.5505 10.2342 14.4942 15.9245 14.4942 15.9245C14.4942 15.9245 13.4079 15.8387 12.8357 11.8355C11.7213 16.7538 14.8376 19.3265 14.8376 19.3265C14.8376 19.3265 13.6077 21.4992 14.2944 22.5287C14.9811 23.5568 13.3788 25.8748 13.4079 26.6178C13.437 27.3607 14.6096 27.2753 14.6096 27.2753C14.6096 27.2753 14.1509 28.5052 15.1527 28.6478C14.9238 28.7332 14.5242 29.5342 15.6677 29.9921C15.3243 30.0775 14.6386 34.0803 19.556 31.5643C21.3853 32.5071 22.3862 36.9394 22.3862 36.9394L30.7633 33.1365Z" fill="#B59652"/>
</g>
<defs>
<filter id="filter0_g_85_1215" x="0.10354" y="0.133005" width="44.904" height="43.9816" filterUnits="userSpaceOnUse" color-interpolation-filters="sRGB">
<feFlood flood-opacity="0" result="BackgroundImageFix"/>
<feBlend mode="normal" in="SourceGraphic" in2="BackgroundImageFix" result="shape"/>
<feTurbulence type="fractalNoise" baseFrequency="2.9383604526519775 2.9383604526519775" numOctaves="3" seed="5566" />
<feDisplacementMap in="shape" scale="2.7226066589355469" xChannelSelector="R" yChannelSelector="G" result="displacedImage" width="100%" height="100%" />
<feMerge result="effect1_texture_85_1215">
<feMergeNode in="displacedImage"/>
</feMerge>
</filter>
<filter id="filter1_g_85_1215" x="11.2337" y="5.6993" width="21.5329" height="32.6014" filterUnits="userSpaceOnUse" color-interpolation-filters="sRGB">
<feFlood flood-opacity="0" result="BackgroundImageFix"/>
<feBlend mode="normal" in="SourceGraphic" in2="BackgroundImageFix" result="shape"/>
<feTurbulence type="fractalNoise" baseFrequency="2.9383604526519775 2.9383604526519775" numOctaves="3" seed="944" />
<feDisplacementMap in="shape" scale="2.7226066589355469" xChannelSelector="R" yChannelSelector="G" result="displacedImage" width="100%" height="100%" />
<feMerge result="effect1_texture_85_1215">
<feMergeNode in="displacedImage"/>
</feMerge>
</filter>
</defs>
</svg>
