<svg width="54" height="56" viewBox="0 0 54 56" fill="none" xmlns="http://www.w3.org/2000/svg">
<g filter="url(#filter0_g_129_408)">
<path d="M26.6861 8.72168C25.9227 8.7912 24.9109 8.695 24.1456 8.58552C23.9052 8.55157 24.0206 8.36222 23.8537 8.3311C23.5275 8.27106 23.2327 8.37662 22.9135 8.31065C22.8073 8.28801 22.9186 7.98633 22.807 7.96945C22.2153 7.88311 21.6736 7.99887 21.1163 8.02304C21.1003 8.02337 21.0843 8.02363 21.0681 8.0238C20.3133 8.02617 19.3862 8.25317 18.356 8.54807C17.2586 8.84972 16.1339 9.33859 15.1346 9.93531C14.407 10.378 13.7323 10.7801 13.1066 11.2115C12.4036 11.6898 11.5005 12.2137 10.8341 12.9149C10.7499 13.0039 10.6765 13.0944 10.612 13.1898C10.5563 13.2738 10.7898 13.3991 10.7935 13.4271C10.8622 13.8488 10.5234 13.4434 10.3505 13.5534C9.70885 13.971 9.3944 14.6346 9.12481 15.6377C9.10435 15.7085 9.08328 15.7821 9.06433 15.8514C8.94921 16.2691 9.58265 16.0532 9.15734 16.3519C9.12843 16.3724 8.91271 16.1723 8.84307 16.2697C8.68506 16.4928 8.54591 16.9719 8.45046 17.1509C8.26539 17.4952 8.24388 17.5555 8.105 17.8927C7.91361 18.3516 7.56797 18.8491 7.44521 19.3531C7.42019 19.4603 7.73331 19.4239 7.71828 19.6017C7.70251 19.7734 7.54797 20.1544 7.45958 20.2488C7.45598 20.2525 7.45239 20.256 7.44882 20.2593C7.3546 20.3487 7.1544 20.247 7.09998 20.2537C6.63388 20.3268 7.11583 20.9542 7.12255 21.0148C7.16361 22.0957 6.84096 23.0849 6.60605 24.2071C6.58048 24.3201 6.55968 24.4393 6.54511 24.5632C6.44969 25.382 6.54829 26.3307 6.56174 27.1637C6.5801 28.1432 6.50129 29.076 6.69396 29.8764C6.71352 29.949 7.01626 29.796 7.03745 29.8666C7.04312 29.8848 7.04811 29.8993 7.05161 29.908C7.46076 31.1663 7.85909 32.4683 8.08257 33.8421C8.1054 33.9837 7.773 33.9012 7.77928 34.0479C7.7919 34.3033 7.79164 34.6072 7.81518 34.9127C7.86428 35.6518 8.11162 36.4151 9.08096 36.4222C9.23591 36.967 9.44839 37.6269 9.41192 38.1996C9.38915 38.5696 8.97285 38.3936 9.25615 38.7197C9.31966 38.793 9.52736 38.5739 9.60402 38.6935C9.78259 38.9717 9.91514 39.2873 10.0623 39.6126C10.1725 39.8561 10.2869 40.0808 10.4406 40.2631C10.5117 40.3462 10.724 40.2143 10.7766 40.2215C11.2006 40.2798 10.8455 40.8722 10.8568 40.9714C10.885 41.4394 11.0866 41.7193 11.3194 41.9271C11.4593 42.0534 11.6129 42.1741 11.7808 42.3198C11.8992 42.4221 11.9723 42.0487 12.0932 42.1369C12.7268 42.5969 13.4547 43.2146 13.9905 43.8932C14.1119 44.0462 13.792 44.1411 13.8388 44.2238C14.0454 44.5855 14.4735 44.2516 14.676 44.5976C14.7178 44.6691 14.5194 44.8159 14.5118 44.8453C14.3925 45.3066 14.9423 45.0117 14.9947 45.0436C15.0639 45.0836 15.1258 45.1291 15.1816 45.1789C15.209 45.2033 15.2345 45.2285 15.2586 45.2545C15.6329 45.6585 15.6378 46.2572 16.1073 46.5888C16.1739 46.6345 16.2487 46.2873 16.4217 46.4277C17.0024 46.8966 17.5241 47.3114 18.0666 47.6153C18.5703 47.9067 19.2306 48.1299 19.9454 48.3428C20.1691 48.4087 19.9782 48.6175 19.9886 48.6475C20.175 49.118 20.4035 48.5435 20.483 48.5299C20.6014 48.5127 20.7177 48.5184 20.8328 48.5356C21.3343 48.6106 21.753 48.8963 22.1723 48.3725C22.9953 48.5709 23.7834 48.6755 24.6012 48.7307C26.3112 48.8439 28.0678 48.7962 29.8283 49.1921C29.8616 49.1988 29.8084 49.4933 29.875 49.5052C30.6728 49.6509 30.5103 49.1983 31.0122 48.6245C31.1365 48.4804 31.5611 49.1374 31.6002 49.1849C31.7361 49.3611 31.6214 49.8026 31.6659 49.836C32.0403 50.0962 31.9144 48.6586 32.3894 48.633C32.4048 48.6346 32.3554 48.9032 32.3977 48.9274C32.5277 49.0032 32.6439 48.8906 32.7697 48.974C32.9319 49.0844 33.0568 49.3566 33.1998 49.4873C33.306 49.5852 33.4358 49.601 33.5854 49.4017C33.628 49.34 33.4324 48.5493 33.8033 48.518C33.9524 48.5112 34.6193 48.3262 34.8268 48.3132C35.0331 48.3055 34.9801 48.5975 34.9967 48.6044C35.6299 48.7696 35.4759 48.969 35.917 49.3648C36.3657 49.7526 35.8773 48.6232 35.9382 48.4558C35.9987 48.2896 36.4866 48.4123 36.6201 48.4665C36.7525 48.5221 36.6939 48.7251 36.8004 48.7441C37.5089 48.8595 36.8218 48.0796 36.9326 47.8246C36.9719 47.7316 37.0217 47.6693 37.0784 47.6306C37.3872 47.4193 37.9404 47.9007 38.308 47.8184C38.4249 47.7922 38.2525 47.6426 38.3396 47.5821C38.6836 47.3447 39.0299 47.4966 39.3449 47.0592C39.397 46.9877 39.5037 46.3305 39.9009 46.5846C39.9576 46.6216 39.9661 46.8691 40.1481 46.8378C40.2299 46.8238 40.3279 46.7993 40.431 46.7668C40.6586 46.6979 40.9131 46.5666 41.0515 46.423C41.1969 46.2709 40.8072 46.0697 41.0809 46.0391C41.2033 46.0241 41.14 46.3209 41.3638 46.2746C41.5883 46.23 42.0426 45.91 42.209 45.7794C42.376 45.65 42.1161 45.4876 42.1189 45.4622C42.1383 45.3144 42.3769 44.9673 42.4049 44.9458C42.8688 44.5823 43.3512 44.2534 43.8493 43.9355C44.7817 43.3431 45.7722 42.6613 46.2351 41.7053C46.2842 41.5963 45.9843 41.518 45.9891 41.4999C45.9923 41.4826 45.9962 41.4678 46.0009 41.455C46.1462 41.0974 46.6366 41.7368 47.0117 41.5764C46.4546 41.3314 46.646 41.2106 46.7403 40.8861C46.7848 40.7297 46.5361 40.6991 46.5215 40.6751C46.3106 40.3064 46.7908 40.3724 46.8947 40.3746C47.2749 40.3862 46.9756 40.0592 47.2286 40.0613C47.4819 40.0579 47.6918 40.4264 47.8194 40.1261C47.6548 39.9595 47.0442 39.9436 47.0503 39.6959C47.0553 39.3798 47.1593 39.0318 47.2685 38.6805C47.2741 38.6621 47.2797 38.6438 47.2855 38.6255C47.5357 37.8415 47.9161 37.0623 48.02 36.6072C48.1837 35.9075 48.1629 35.6692 48.285 35.2574C48.4949 34.5068 48.0498 34.7484 47.8901 34.2674C47.7258 33.7845 48.7458 34.0707 48.9721 34.014C49.198 33.9567 48.9732 33.8688 49.0994 33.7901C49.2257 33.7099 49.3681 33.9042 49.4235 33.7025C49.4422 33.633 49.4114 33.525 49.3533 33.4025C49.2405 33.1725 49.0234 32.9074 48.8712 32.8576C48.382 32.6957 47.8592 32.9256 48.0531 32.4065C48.0645 32.3761 48.3347 32.4814 48.3646 32.3644C48.5929 31.4488 48.6099 30.4813 48.7933 29.5554C48.8189 29.428 49.1221 29.5412 49.1404 29.4669C49.3314 28.6918 48.8215 28.9705 48.2515 28.5514C49.0071 28.6412 49.468 28.4036 49.4667 27.8148C49.4659 27.4616 49.1367 27.5254 48.9016 27.3004C48.8307 27.2322 49.0539 26.9808 48.8982 26.937C48.3891 26.7945 47.8253 27.0376 48.0422 26.4311C48.0525 26.4046 48.3313 26.4842 48.3467 26.3928C48.447 25.7995 47.9156 25.7375 47.8384 25.101C47.798 24.7709 47.9175 24.2618 48.0119 23.795C48.0598 23.5575 48.0993 23.3352 48.1077 23.148C48.9575 23.1245 48.7324 22.5802 48.1308 22.4202C48.1266 22.0596 48.0537 21.6793 48.0865 21.3272C48.0971 21.2038 48.3515 21.2478 48.3757 21.2291C48.7549 20.9363 48.1649 20.8657 48.1301 20.7957C47.7754 20.025 48.0031 19.2645 47.3114 18.6602C47.2863 18.6376 46.7219 18.8138 47.0402 18.4462C47.0626 18.4217 47.4138 18.5844 47.2886 18.2054C47.2455 18.0728 47.2188 17.8828 47.1943 17.6672C47.1742 17.3324 47.0613 16.9149 46.7405 16.7222C46.6195 16.6428 46.0695 16.6655 46.233 16.2564C46.2549 16.2001 46.4131 16.1301 46.4604 16.0353C46.6043 15.7256 46.0827 16.0245 46.3593 15.5616C46.6361 15.0988 46.6295 14.5027 45.9821 14.3475C45.9794 14.3468 45.9688 14.3507 45.9522 14.3578C45.8488 14.4008 45.5202 14.5662 45.4197 14.4609C45.233 14.2636 45.0095 13.9306 44.788 13.7479C44.6822 13.6606 44.5605 13.9418 44.5389 13.9306C43.8592 13.5459 43.4996 13.0687 42.9356 12.5404C42.8361 12.4479 42.7305 12.3539 42.6163 12.2592C42.4757 12.1413 41.8256 12.1991 41.6983 11.7461C41.5559 11.249 42.6577 10.2363 41.7125 10.056C41.3283 9.98145 40.0018 11.3122 39.9342 10.1731C39.801 10.125 39.6734 10.0702 39.55 10.0106C38.5736 9.53842 37.9087 8.66684 36.803 8.32947C36.7472 8.31228 36.3287 8.65332 36.2223 8.58137C36.0633 8.47271 36.0923 8.21389 35.9783 8.13092C35.8403 8.02855 35.6923 7.95115 35.5404 7.88999C35.169 7.74006 34.783 7.6522 34.4367 7.44934C34.2509 7.34084 34.4304 7.15629 34.2103 7.02671C33.9907 6.89718 33.6881 7.10532 33.4561 6.80337C33.281 6.57378 33.3713 5.86799 33.1152 5.63515C32.7831 6.19852 32.5833 6.0728 32.1313 6.00669C32.044 5.99396 32.0034 6.23454 31.9559 6.23853C31.7595 6.25855 31.7315 6.02121 31.5368 6.05159C31.4895 6.05857 31.3709 6.24791 31.3253 6.26407C31.1471 6.32985 31.0289 6.22963 30.9544 6.09068C30.8774 5.9318 30.8496 5.71576 30.8415 5.65541C30.7804 5.23336 30.5251 5.42543 30.4069 5.21549C30.2829 5.00438 30.636 5.00169 30.4524 4.81872C30.0666 4.4371 29.423 4.21036 28.9136 4.05321C28.7091 3.99156 28.7686 4.319 28.7373 4.31679C28.5143 4.29494 28.3129 4.17932 28.1165 4.15493C27.9375 4.14202 27.7687 4.19128 27.6203 4.45792C27.5308 2.91088 27.3516 4.53707 26.8127 4.22489C26.8083 4.22242 26.8037 4.21983 26.7992 4.21712C26.7611 4.1933 26.7358 3.64106 26.8603 3.43319C26.8796 3.40159 26.9023 3.37801 26.9286 3.3656C27.1319 3.27166 27.4059 3.5243 27.6922 3.39576C27.7613 3.36469 28.2161 2.74449 28.2434 2.70581C28.265 2.68771 28.2834 2.67503 28.2989 2.66714L28.3834 2.68001C28.7973 2.61547 28.6254 3.56262 28.6309 3.61961C28.7029 4.29518 29.3175 3.72022 29.4616 3.71873C30.0687 3.68536 30.4431 4.0223 30.929 4.08529C31.2465 4.13012 31.6186 3.5245 31.8311 3.6707C32.0109 3.79603 32.124 3.95916 32.2093 4.12395C32.3811 4.55147 32.4131 5.02057 33.1524 4.71239C33.3661 4.62354 33.6292 3.88102 33.7581 4.65554C33.7648 4.70389 33.8216 5.37482 34.1827 5.16733C34.228 5.1411 34.3346 4.94129 34.375 4.94142C34.6438 4.94617 34.7009 5.18063 34.9751 5.22646C35.249 5.27211 35.591 5.3032 35.8274 5.50947C35.97 5.63359 35.9915 6.11705 36.0244 6.24925C36.0608 6.40112 36.1559 6.44109 36.2568 6.46041C36.4357 6.50339 36.6162 6.50096 36.6048 6.74139C36.5776 7.14161 36.0297 7.46273 36.284 7.8773C36.5925 7.37594 36.9293 6.87317 37.2526 6.37676C38.1137 6.90955 38.7449 7.5648 39.5089 8.01172C39.6031 8.06625 39.677 7.73932 39.7816 7.79029C40.0762 7.93433 40.2784 8.16307 40.5177 8.34388C40.6542 8.44366 40.7995 8.53419 40.9697 8.60043C41.3695 8.75459 41.9389 8.70669 42.3607 8.86626C42.2392 9.58108 42.9126 9.72938 43.2834 10.0391C43.4129 10.1469 43.3067 10.2925 43.3752 10.4062C43.6348 10.832 43.7818 10.2189 43.9374 10.2082C44.1909 10.1927 44.2495 10.351 44.2513 10.5689C44.2635 10.9325 44.1156 11.4482 44.4521 11.6646C44.4784 11.6807 45.2474 11.3561 45.3244 11.3597C45.8041 11.3598 45.223 11.5961 45.3766 11.7821C45.6558 12.1248 45.7713 12.4395 46.292 12.6182C46.4422 12.6674 47.0207 12.5887 46.9957 13.0498C46.9921 13.1097 46.8103 13.2638 46.8227 13.2955C46.8441 13.3458 46.8677 13.3876 46.8932 13.4218C47.1444 13.7659 47.6332 13.3564 48.0159 13.436C48.4412 13.5273 48.3945 14.294 48.3367 14.4683C48.2021 14.9279 48.0745 14.3931 48.0338 14.4063C47.5735 14.5485 47.8694 14.7901 48.0062 15.0493C47.4385 15.5086 47.6822 15.7927 48.1476 15.3182C48.1977 15.264 48.0131 15.115 48.0062 15.0493C48.7326 14.83 49.1214 15.2424 48.7687 16.0311C48.5929 16.3971 48.183 16.33 48.5722 16.9411C48.6686 17.1049 48.8495 17.0887 49.0321 17.0913C49.163 17.0755 49.2904 17.0618 49.3702 17.1131C49.7861 17.3606 49.6821 18.3061 49.9277 18.8969C50.0198 19.1143 50.2197 18.8161 50.292 18.9659C50.4843 19.371 50.3672 19.7868 50.5494 20.1819C50.5661 20.2175 50.8327 20.0723 50.8602 20.2017C51.072 21.2006 50.9612 22.0478 51.0064 23.021C51.0146 23.208 51.0491 23.4487 51.0843 23.7096C51.1369 24.0772 51.1964 24.4742 51.1833 24.75C51.1476 25.547 50.7442 26.528 50.8543 27.2027C50.9249 27.6432 51.2121 27.5438 51.4107 27.7309C51.7958 28.0936 51.1179 28.7478 51.0125 28.8351C51.0091 28.8377 50.9386 28.4575 50.7918 28.6616C50.484 28.7815 51.0111 28.8307 51.0125 28.8351C50.9449 28.8926 50.8823 29.6531 50.9372 29.8049C50.9674 29.8869 51.2407 29.8408 51.2513 29.8836C51.4958 30.904 51.5596 31.9328 51.4019 32.9937C51.3958 33.0126 51.091 32.9751 51.0805 33.0194C51.0397 33.1813 51.0343 33.3315 51.0522 33.4692C51.1013 33.8561 51.3308 34.183 51.4689 34.5801C51.6565 35.1179 51.5412 35.5529 50.9848 35.8107C51.008 36.2234 50.6934 36.782 50.4944 37.0883C50.2966 37.3939 50.869 37.5539 50.875 37.5867C51.0249 38.4237 50.7181 38.8627 50.4652 39.4444C50.4575 39.462 50.4499 39.4798 50.4422 39.4978C50.3877 39.6431 50.3309 39.7922 50.2736 39.9482C50.0912 40.4744 49.7719 41.4155 49.6028 41.8854C49.4718 42.2638 49.2407 42.4004 49.1587 42.7419C49.1475 42.788 49.4028 42.8728 49.4051 42.89C49.5048 43.3725 49.0216 42.9038 48.8832 42.9164C48.8246 42.9213 48.7691 42.9261 48.7167 42.9316C48.2568 43.0819 48.0113 43.188 47.8349 43.7083C47.7948 43.8375 48.257 44.7441 48.122 44.9735C47.953 45.2616 47.7915 44.9448 47.6227 45.2378C47.6078 45.2623 47.7601 45.4031 47.61 45.5408C47.1343 45.9767 46.6015 46.3614 46.0645 46.745C45.8639 46.8848 45.6593 47.0379 45.462 47.2017C45.3754 47.2724 45.6907 47.4407 45.5685 47.5473C44.9936 48.0485 44.2747 48.5814 43.4814 48.9209C43.2849 49.0035 43.2697 48.7395 43.1947 48.7073C42.7469 48.5095 42.7169 49.2249 42.6567 49.272C42.4205 49.471 42.1629 49.6384 41.8821 49.7813C41.0066 50.2361 40.058 50.341 39.0795 50.9953C39.0388 51.0234 38.9064 51.3596 38.6929 51.5063C38.5694 51.5921 38.4173 51.6115 38.2477 51.4594C38.2153 51.4331 37.7631 51.0095 37.682 51.4532C37.6764 51.4811 37.9399 51.6899 37.6529 51.769C37.368 51.847 36.9726 52.1983 36.4663 52.0294C36.3028 51.9774 35.847 51.5372 35.575 52.0776C35.5735 52.1135 35.1592 53.267 34.751 52.6352C34.6833 52.5298 34.5915 51.8049 34.1301 52.2683C34.0361 52.3572 34.2575 52.4906 33.9879 52.6348C33.8454 52.7094 33.6736 52.7433 33.4842 52.766C33.1844 52.8038 32.893 52.809 32.6277 53.0413C32.5585 53.1036 32.2721 53.6204 32.0098 53.2512C31.9686 53.1934 32.0312 52.9439 31.8995 52.9221C31.2852 52.8163 30.6533 53.0014 30.0363 52.8448C29.8168 52.7897 29.9193 52.3889 29.6921 52.2867C29.4636 52.1846 29.0095 52.0886 28.775 52.2727C28.5398 52.457 28.8046 53.0901 28.4477 53.1435C27.0895 53.3421 25.7398 53.0704 24.3217 52.8717C24.1129 52.842 23.903 52.8136 23.6919 52.7884C23.448 52.7584 23.631 53.004 23.2682 52.9735C22.4059 52.9062 21.1858 52.8 20.3538 52.6429C19.8602 52.5527 19.2365 52.4018 18.7939 52.1473C17.8096 51.5706 19.18 51.533 18.4249 51.2241C18.0775 51.0768 17.4335 51.655 17.3108 51.6377C16.931 51.6007 16.5909 51.48 16.2809 51.3168C15.7445 51.0311 15.3487 50.6461 14.8488 50.359C14.6911 50.2673 14.6548 50.6142 14.5206 50.531C14.0608 50.2461 13.7696 49.8114 13.4407 49.5444C13.293 49.4248 13.1629 49.6156 13.0494 49.486C12.7782 49.1784 12.5983 48.8717 12.4834 48.4637C12.4729 48.4265 12.8324 48.378 12.6394 48.1774C12.6073 48.1441 12.5756 48.1083 12.5439 48.0705C12.5211 48.0432 12.4984 48.015 12.4757 47.9861C12.2443 47.6874 12.0114 47.3173 11.5993 47.185C11.4497 47.1382 11.0979 47.5232 11.113 47.0541C11.1165 46.9571 11.5899 46.5364 10.9676 46.7134C10.8608 46.7385 9.95074 46.9238 10.0211 46.374C10.0392 46.2283 10.2072 45.7029 10.0136 45.6497C9.98616 45.644 9.88666 45.9247 9.75138 45.8501C9.36011 45.6287 8.94529 45.2872 8.47065 44.8941C8.34764 44.789 8.22876 44.6834 8.11232 44.5784C7.93279 44.414 7.95849 44.8814 7.69502 44.6211C6.96434 43.892 6.49847 42.8709 6.28277 42.1738C6.20248 41.9153 6.49873 41.9855 6.51421 41.9564C6.77825 41.506 6.18907 41.5841 6.12072 41.5089C6.05945 41.4408 6.00994 41.3725 5.97016 41.3069C5.76577 40.9878 5.79218 40.5792 5.57424 40.2177C5.50344 40.0984 5.28862 40.2944 5.25552 40.2787C4.92528 40.1088 5.46123 40.1143 5.44189 39.9276C5.38887 39.4024 5.15498 38.887 4.9328 38.4139C4.8508 38.24 4.63302 38.5566 4.56273 38.3984C4.2554 37.7158 3.99174 36.9781 3.81999 36.2105C3.76739 35.9599 3.7231 35.7068 3.68951 35.4533C3.66664 35.2766 3.93345 35.3046 3.9751 35.2524C4.26758 34.8908 3.64449 34.7052 3.56934 34.6397C3.22674 34.3422 3.38434 34.1297 3.23739 33.8121C2.89419 33.0727 2.59469 32.213 2.34225 31.3005C1.94414 29.6213 2.02431 28.8121 1.9955 27.8181C2.00181 26.2962 2.12988 25.0378 2.4157 23.5364C2.53268 23.0088 2.61897 22.3944 2.68678 21.6974C2.69977 21.5684 2.36024 21.6569 2.36744 21.5445C2.43548 20.7562 2.5244 19.9972 2.8466 18.8848C3.12954 18.0016 3.3708 17.4417 3.5812 16.7799C3.61823 16.6672 3.26852 16.7117 3.31827 16.5275C3.41857 16.1484 3.61468 15.7075 3.84723 15.3934C3.96001 15.2402 4.11342 15.5683 4.222 15.4119C4.47482 15.0489 4.66522 14.6321 4.76865 14.2248C4.81096 14.0534 4.42227 14.1866 4.4995 13.9739C4.50781 13.9505 4.51595 13.9275 4.52393 13.9049C4.79651 12.8618 5.87512 10.4753 7.34112 9.41697C7.63486 9.1918 7.94611 8.97767 8.27688 8.78053C8.39254 8.71195 8.90866 9.10765 9.03153 8.83327C8.92866 8.68654 8.78881 8.53072 8.66941 8.38231C9.79503 7.28802 11.2014 6.39471 12.3266 5.72207C13.4314 5.04163 14.5598 4.50802 15.7406 4.03295C15.8546 3.98752 15.5274 3.7543 15.7505 3.66417C16.0062 3.56168 16.2632 3.46074 16.5262 3.36507C17.4005 3.04911 18.4051 2.67029 19.7048 2.68686C19.8651 2.69097 19.8941 3.28763 20.3177 3.12915C20.3342 3.12308 20.378 3.1099 20.4387 3.09205C20.6266 3.03112 20.9986 2.91549 21.1041 2.80246C21.1225 2.78083 20.986 2.51472 21.1727 2.48661C22.259 2.33014 23.3685 2.33963 24.4097 2.48827C24.5773 2.51298 24.405 2.81359 24.5246 2.83385C25.3655 2.97569 26.2749 2.75564 27.0727 3.05123C27.6081 3.2519 27.387 3.75834 27.6464 4.27633C27.6794 4.34876 28.0119 4.3797 28.012 4.67552C27.9991 5.41615 27.7962 6.21415 27.8021 7.00489C27.8037 7.09005 27.9011 7.09354 27.9457 7.12463C27.9905 7.15581 27.996 7.21353 27.9165 7.41206C27.9183 7.43865 27.647 7.55643 27.5727 7.69254C27.52 7.7861 27.5882 8.08935 27.4867 8.20737C27.3889 8.3256 27.2902 8.06982 27.1231 8.20828C26.9521 8.34883 27.0136 8.69074 26.6861 8.72168ZM49.5698 38.3987C49.2228 38.6103 50.2269 38.9095 50.0609 38.5398C50.0517 38.5215 49.587 38.3875 49.5698 38.3987ZM38.3097 8.21577C38.3703 8.80303 38.9441 8.36307 38.9201 7.92502C38.8965 7.4874 38.2908 8.03739 38.3097 8.21577ZM34.7535 6.57888C34.9683 7.0983 35.6998 5.80489 35.1614 5.86622C35.1303 5.8693 34.7411 6.54871 34.7535 6.57888ZM26.3502 4.37896C26.3556 4.39283 26.5843 4.41086 26.5913 4.39736C26.7228 4.06744 26.2571 4.03133 26.3502 4.37896ZM31.3195 5.05146C31.3257 5.15365 31.4088 5.21451 31.5032 5.23057C31.6299 5.25003 31.778 5.17879 31.7754 5.00578C31.7747 4.95509 31.7546 4.91492 31.7232 4.88577C31.5918 4.7673 31.303 4.81165 31.3195 5.05146ZM38.5282 48.2797C38.5177 48.2674 38.3628 48.3213 38.4015 48.4005C38.5272 48.6555 38.7037 48.4885 38.5282 48.2797ZM24.9415 3.6229C25.9018 3.68064 26.4442 4.91938 25.4276 4.76846C25.2417 4.74198 25.831 4.38075 25.5956 4.26817C25.1612 4.06311 24.8711 4.83339 24.4261 4.42071C24.3455 4.34518 24.8867 3.61675 24.9432 3.62119C24.9426 3.62176 24.9421 3.62233 24.9415 3.6229ZM48.3098 38.2553C48.2951 38.2575 48.227 38.473 48.2389 38.4815C48.5308 38.6827 48.6688 38.2462 48.3098 38.2553ZM29.2335 49.4893C29.2205 49.4604 28.6995 49.4391 28.6828 49.466C28.4145 50.0127 29.4742 50.0576 29.2335 49.4893ZM48.1299 23.1383C47.7842 22.9138 47.7269 22.6412 48.1305 22.4213C48.1267 22.6567 48.1385 22.8969 48.1299 23.1383ZM20.0484 14.8371C20.4346 15.0054 20.6234 15.3097 20.7142 15.5798C20.7417 15.6634 20.5848 15.7701 20.5969 15.8332C20.618 15.9541 20.7482 15.9558 20.7534 16.0844C20.7543 16.1275 20.5162 16.3042 20.5214 16.3442C20.5494 16.5601 20.7129 16.6278 20.7797 16.799C20.9021 17.1167 21.0251 17.4137 21.1486 17.7071C21.3032 18.1224 21.4779 18.5063 21.6414 18.8966C21.7295 19.1053 21.6542 19.473 21.8756 19.5967C21.9016 19.611 22.1083 19.4558 22.1288 19.4483C22.4438 19.3347 21.9946 19.5996 21.965 19.6804C21.8485 20.0002 21.9508 20.2003 22.14 20.3091C22.2211 20.3548 22.6059 20.0066 22.4099 20.2329C22.3967 20.2483 22.1555 20.3797 22.1432 20.4146C22.116 20.4934 22.2099 20.5485 22.2132 20.5936C22.2183 20.6812 22.2275 20.6904 22.264 20.7528C22.312 20.8396 22.2607 21.0118 22.3701 21.0674C22.3941 21.0789 22.6144 20.9022 22.6741 20.9068C22.7338 20.9115 22.7652 21.0048 22.7267 21.0675C22.6882 21.1302 22.4948 21.2375 22.4552 21.2695C22.1206 21.5389 22.6783 21.3135 22.6983 21.3176C23.0476 21.4022 22.8815 21.7692 23.012 21.9734C23.1111 22.1272 23.3105 22.2347 23.39 22.3893C23.4853 22.5764 23.449 22.8041 23.5791 22.9613C23.5925 22.9779 23.8585 22.7808 23.8753 22.8006C24.0546 23.0127 24.1693 23.2618 24.126 23.609C24.1212 23.6436 23.8583 23.7703 23.8388 23.8142C23.727 24.0823 23.3904 24.6172 24.5007 24.0092C24.5059 24.0418 24.5114 24.0752 24.5129 24.1102C24.5128 24.1966 24.4922 24.3041 24.377 24.4618C24.2756 24.6025 23.985 24.7382 24.1371 24.72C24.171 24.7159 24.3842 24.5385 24.4177 24.5439C24.5576 24.5657 24.5511 24.7078 24.725 24.6995C24.7608 24.6974 24.9537 24.5417 24.9925 24.5189C25.3057 24.3334 24.8828 24.7619 24.8608 24.8038C24.6916 25.1109 24.8563 25.1101 24.9327 25.2121C24.9504 25.236 25.1811 24.9935 25.2069 25.0083C25.3373 25.0874 25.4148 25.2178 25.4044 25.425C25.4016 25.4717 25.1724 25.6413 25.1606 25.6737C25.112 25.8149 25.5148 25.4616 25.4751 25.5886C25.4674 25.615 25.285 25.7754 25.2674 25.7955C24.9907 26.1122 25.4466 25.7313 25.4629 25.7294C25.6814 25.6996 25.2959 26.1912 25.4508 26.2234C25.4696 26.2266 25.6636 25.986 25.7027 26.0079C25.9646 26.1518 26.1237 26.4222 26.1705 26.8013C26.1781 26.86 25.9972 27.0068 25.9799 27.0295C25.7122 27.3874 26.1396 26.9717 26.1656 26.9651C26.3606 26.9256 26.1066 27.3697 26.6421 26.8978C26.8461 27.4144 27.4841 27.4397 27.4559 28.25C27.456 28.2598 27.2571 28.4756 27.2582 28.4942C27.2695 28.7199 27.5423 28.3536 27.9805 27.9944C28.0906 27.9042 27.7153 28.4683 27.6889 28.5105C27.5908 28.6657 27.2889 28.9817 27.2727 29.0141C27.1481 29.2707 28.071 28.1617 28.1434 28.2223C28.1441 28.2261 27.9632 28.4209 27.9523 28.4462C27.9176 28.5255 28.0043 28.4605 27.9639 28.5461C27.8698 28.7435 27.4328 29.292 27.7607 29.0349C27.8031 29.0013 28.3182 28.3652 28.3583 28.4496C28.374 28.4839 28.4974 28.5697 28.4957 28.6377C28.4937 28.7054 28.3014 28.8881 28.2963 28.8988C28.1579 29.2384 28.0317 29.321 27.7415 29.7518C27.4522 30.1808 28.2328 29.2343 28.339 29.1448C28.4451 29.0557 28.3227 29.3291 28.2735 29.4185C28.2243 29.508 28.0965 29.6194 28.0737 29.6743C27.9255 30.0338 28.508 29.2442 28.6645 29.1216C28.9179 28.9232 28.7486 29.207 28.6179 29.4452C28.5577 29.5555 28.5058 29.6561 28.5081 29.6951C28.51 29.7284 28.6303 29.5586 28.6586 29.5573C28.7687 29.5541 28.6217 29.802 28.8617 29.6649C28.9006 29.6424 29.3149 29.2772 29.09 29.6134C29.0575 29.6617 28.8948 29.8208 28.888 29.882C28.8774 29.9734 28.9165 30.0726 29.0081 30.0517C29.076 30.0362 29.2845 29.7226 29.2481 29.8447C29.2318 29.899 29.0563 30.0361 29.0374 30.1245C29.0184 30.2126 29.1077 30.2774 29.1445 30.2994C29.1812 30.3211 29.3499 30.0923 29.365 30.0801C29.4523 30.0111 29.6028 29.961 29.6082 29.9661C29.9036 30.1779 29.836 30.7554 30.2023 30.8708C30.2308 30.8803 30.4164 30.6454 30.4228 30.6445C30.5768 30.6143 29.9913 31.1565 29.8623 31.398C30.2601 30.9403 30.2159 31.0481 30.3097 31.0429C30.3552 31.0401 30.4993 30.8539 30.5175 30.838C30.7915 30.6047 30.508 30.9694 30.4511 31.045C30.2422 31.3234 30.542 31.0423 30.4025 31.2285C30.2639 31.4132 29.9991 31.6334 30.0487 31.6724C30.2076 31.5235 30.5532 31.0711 30.651 31.0356C31.0207 30.9011 30.9737 31.4617 31.0494 31.595C31.1254 31.7285 31.1874 31.7315 31.1964 31.8473C31.2119 32.0562 31.4586 31.7106 31.661 31.6365C31.8636 31.5628 31.1186 32.2836 30.9758 32.455C30.8328 32.626 31.0008 32.4696 30.9289 32.5699C30.8569 32.6701 30.7269 32.7555 30.7235 32.8155C30.7199 32.8753 31.0697 32.6616 31.2405 32.5028C31.6021 32.1662 31.9237 31.7577 31.8747 31.9623C31.8716 31.9743 31.6692 32.1575 31.667 32.1935C31.6546 32.4717 31.7821 32.6132 31.7824 32.8732C31.7822 32.9093 31.554 33.1098 31.5514 33.1332C31.5224 33.3765 31.8424 32.9748 32.3013 32.6306C31.7567 33.154 31.4642 33.5143 31.5408 33.597C31.5505 33.6076 31.5682 33.6051 31.592 33.5934C31.6819 33.551 31.854 33.3784 32.0079 33.2729C32.0664 33.2323 31.9423 33.4278 32.0571 33.3231C32.4317 32.9802 32.796 32.5432 32.7176 32.7817C32.7137 32.7928 32.5101 32.982 32.5107 33.0059C32.514 33.1613 32.889 32.7861 33.0145 32.8147C33.1136 32.8378 33.0159 33.1843 33.0623 33.2936C32.5047 33.9338 32.7133 33.8567 33.1216 33.4352C33.1585 33.4977 33.2365 33.5194 33.2368 33.624C33.2371 33.6598 33.0703 33.841 33.0558 33.8634C32.8287 34.2157 33.2114 33.7927 33.2366 33.7843C33.4975 33.7153 33.3395 34.1387 33.7198 33.8974C33.7336 33.8888 34.0948 33.4227 33.8692 33.7917C33.8537 33.8172 33.651 34.0005 33.6978 34.0615C33.7437 34.122 33.6705 34.4608 33.9159 34.3013C33.9752 34.2631 34.3068 33.9122 34.1291 34.2452C34.1049 34.2904 33.9999 34.4232 33.9529 34.5053C33.8036 34.7674 34.1659 34.2938 33.901 34.727C33.6362 35.1602 33.4804 35.5151 33.7705 35.293C33.7792 35.2867 34.0744 34.917 34.0973 34.9426C34.1337 34.9837 34.1381 35.1079 34.1854 35.138C34.2081 35.1522 34.365 34.9038 34.3719 34.9021C34.6144 34.8737 34.5671 35.1618 34.6553 35.3675C34.6706 35.4053 34.992 35.1454 34.858 35.4403C34.7104 35.7625 33.7845 36.8677 34.1198 36.6914C34.2511 36.619 35.4418 35.2297 34.9568 36.0527C35.2841 36.0196 35.1601 36.5068 35.5215 36.4385C35.5345 36.4398 35.5441 36.4376 35.554 36.4351C35.5719 36.4306 35.9234 36.0595 35.9389 36.0814C35.9613 36.1146 35.8252 36.3114 35.8364 36.341C35.8786 36.4692 36.0891 36.3789 36.1535 36.4732C36.1783 36.5086 36.0104 36.6896 36.04 36.7318C36.0703 36.7743 36.3016 36.5444 36.2545 36.7082C36.2182 36.8328 35.8397 37.38 35.8468 37.485C36.2591 36.977 36.2874 37.0173 36.4598 36.9335C36.4929 36.917 36.6211 36.728 36.644 36.7109C36.7403 36.6375 36.6451 36.8027 36.7464 36.7196C36.7707 36.6997 36.9082 36.5236 36.9357 36.4972C37.1733 36.2653 36.9261 36.7088 36.8851 36.7874C36.7266 37.0841 36.9201 36.8658 36.8741 36.9942C36.8297 37.1237 36.6841 37.2202 36.6767 37.3129C36.6633 37.506 36.798 37.5547 36.8888 37.6209C36.926 37.6462 37.0513 37.3737 37.0603 37.3714C37.1191 37.3588 37.1227 37.4446 37.1664 37.4479L37.1689 37.4501L37.1859 37.4504C37.2249 37.4279 37.2175 37.3249 37.0203 37.1338C37.5573 37.6849 37.6059 37.5729 37.4564 37.4493C37.3208 37.3082 37.0216 37.1392 37.1776 37.1677C37.2011 37.1756 37.8806 37.4363 37.9501 37.5411C38.0109 37.6556 37.7828 37.6296 37.7859 37.8697C37.7841 37.8982 37.8637 38.0837 37.839 38.3185C37.8245 38.5516 37.6653 38.808 37.6143 38.8411C37.5802 38.8666 37.5449 38.8878 37.5095 38.905L36.6229 38.8875L36.4946 38.7781C36.2916 38.8876 36.7654 38.0141 36.7892 37.9627C37.0612 37.3781 36.6117 37.9621 36.5549 37.9859C36.3228 38.1129 36.3255 37.928 36.1514 38.0065C36.0379 38.0563 35.6088 38.6232 35.5794 38.574C35.4804 38.4093 36.0559 37.5995 35.4066 38.1823C35.268 38.3063 34.8059 38.9321 35.0999 38.3843C35.118 38.3495 35.4064 37.8638 35.1475 38.1089C35.1148 38.1397 34.9718 38.3154 34.9537 38.3252C34.8353 38.3874 34.9228 38.2258 34.8252 38.2574C34.7272 38.2887 34.5941 38.3459 34.5951 38.2471C34.5957 38.1879 34.8281 37.8325 34.8806 37.7418C35.032 37.4808 34.6799 37.8227 34.8865 37.5259C35.0939 37.2273 35.4913 36.8423 35.5782 36.6104C35.2006 37.0616 34.8101 37.5224 34.429 37.9752C34.3983 37.943 34.3749 37.9028 34.3544 37.859L34.3195 37.8296C34.2732 37.7088 34.2514 37.558 34.1484 37.4988C34.1311 37.4896 33.946 37.7468 33.9225 37.7435C33.8257 37.7293 33.9075 37.5059 33.7804 37.5201C33.6816 37.5324 33.416 37.7504 33.3083 37.7743C33.6816 37.212 33.4536 37.3262 33.4252 37.2285C33.415 37.1944 33.5236 37.051 33.5418 36.9915C33.6073 36.7701 33.2838 37.271 33.2112 37.3338C32.9022 37.6026 33.6906 36.5107 33.579 36.4708C33.5732 36.4681 33.0936 37.0073 33.0596 37.0379C32.8376 37.2373 33.1972 36.8291 33.1956 36.7626C33.1925 36.6409 33.2503 36.4714 33.0562 36.5911C32.9991 36.6268 32.6883 36.9547 32.8482 36.6436C32.8692 36.6029 33.0101 36.4119 33.0138 36.3975C33.0691 36.1523 32.6332 36.7572 32.4399 36.9293C32.2464 37.1013 32.4736 36.6308 32.5457 36.4999C32.7315 36.1607 32.6711 36.388 32.6951 36.3589C32.981 36.0125 32.8838 36.0377 32.8658 35.978C33.2878 35.381 33.2071 35.3767 32.8455 35.9185C32.8062 35.9778 32.8774 35.9451 32.8658 35.978C32.4112 36.5345 32.2922 36.5618 32.6181 35.9697C32.7711 35.6924 33.0181 35.4195 32.842 35.4563C32.7621 35.4724 32.4797 35.8896 32.358 35.9702C32.0788 36.1529 32.2403 35.6865 32.1017 35.6726C32.0506 35.6671 31.9157 35.9111 31.8746 35.9145C31.7647 35.9239 31.8363 35.7171 31.7068 35.7492C31.6947 35.7523 31.5291 35.9891 31.5065 35.9758C31.3311 35.8782 31.3153 35.6252 31.1626 35.4866C31.0883 35.4196 30.8478 35.4188 30.7915 35.3238C30.6916 35.1602 30.8222 34.705 30.6456 34.6735C30.5632 34.6572 30.4439 34.7629 30.3209 34.8645C30.2718 34.9067 30.2222 34.9484 30.1751 34.9817C29.8598 35.2052 30.2576 34.6386 30.3199 34.5516C30.322 34.5488 30.4195 34.5496 30.4972 34.4181C30.6986 34.1833 30.3213 34.5512 30.3199 34.5516C30.3603 34.4955 30.3066 34.3508 30.248 34.3707C30.2161 34.3817 30.031 34.583 30.018 34.585C29.7141 34.63 29.5334 34.5522 29.4844 34.3291C29.4858 34.3228 29.7003 34.1048 29.7009 34.0928C29.7143 33.9179 29.4053 34.1405 29.1876 34.2405C28.9694 34.3399 28.969 34.2378 29.2873 33.8169C29.1922 33.8185 29.2774 33.581 29.3309 33.4387C29.3843 33.2962 28.9746 33.728 28.963 33.7333C28.5932 33.9046 28.7576 33.5931 28.6728 33.4442C28.6333 33.3727 28.4616 33.3336 28.3556 33.3257C28.2714 33.3204 28.335 33.19 28.2297 33.2154C28.2156 33.2187 28.0449 33.4216 28.0362 33.4275C27.7742 33.6184 28.2307 33.1577 28.2975 33.0621C28.5402 32.7147 28.6651 32.5257 28.4677 32.6149C28.4223 32.6352 27.7578 33.2924 27.6945 33.3092C27.6131 33.3294 27.8485 33.0913 27.7573 33.1187C27.7497 33.1208 27.6135 33.2757 27.5965 33.2484C27.516 33.1244 27.4776 32.9305 27.3519 32.848C27.3353 32.8361 27.1393 33.0994 27.1117 33.0863C26.9827 33.0249 26.8768 32.9166 26.8755 32.7127C26.8758 32.6617 27.0415 32.5022 27.0806 32.4461C27.3166 32.106 26.8773 32.5167 26.8622 32.5187C26.5028 32.5726 26.6807 32.083 26.3772 32.0711C26.3646 32.0707 26.3511 32.0712 26.3367 32.0726C26.3165 32.0752 25.8216 32.4957 26.1414 32.0461C26.1626 32.0161 26.4911 31.5571 26.2107 31.8236C26.1932 31.8402 26.0281 32.08 26.0084 32.0245C25.9886 31.9691 25.8008 32.0635 25.9523 31.775C26 31.684 26.3213 31.221 25.9813 31.5193C25.9579 31.5404 25.2262 32.2462 25.6477 31.6889C25.7172 31.5972 26.1982 31.0369 25.8922 31.2741C25.8331 31.3202 25.7483 31.4642 25.6508 31.5165C25.501 31.5975 25.5647 31.3924 25.2934 31.5938C25.2455 31.6296 24.8779 31.9751 25.088 31.6546C25.1209 31.6044 25.2906 31.4251 25.2897 31.3882C25.2864 31.212 25.0857 31.2581 25.1051 31.0507C25.1117 30.9776 25.3865 30.6881 25.4222 30.5783C25.4578 30.4684 25.4571 30.3328 25.3036 30.4411C25.1498 30.5493 24.7756 31.065 24.6891 31.0579C24.3129 31.0262 24.3235 30.5421 24.1255 30.2938C24.0961 30.2568 23.9742 30.4526 23.9197 30.4099C23.7194 30.2552 23.2407 30.107 23.4048 29.5977C23.5384 29.1922 23.9047 29.1328 23.9137 28.9249C23.9183 28.826 23.3575 29.3116 23.3293 29.3168C23.051 29.3774 23.1982 29.0644 23.0253 29.0349C22.9894 29.0287 22.8001 29.2624 22.7716 29.2545C22.6721 29.2292 22.7008 29.0689 22.6236 29.0257C22.5886 29.0067 22.4307 29.1722 22.4184 29.1345C22.3871 29.0463 22.4028 28.9246 22.5002 28.7167C22.5092 28.6979 22.7487 28.5368 22.7136 28.485C22.6561 28.4015 22.7252 28.167 22.4869 28.2308C22.4154 28.2502 22.0298 28.6028 22.2443 28.303C22.2891 28.2402 22.7663 27.8327 22.307 28.1332C22.2319 28.1846 21.5851 28.5589 21.888 28.1897C21.9677 28.0925 22.3216 27.7175 22.2333 27.739C22.2198 27.7431 22.0235 27.945 21.9794 27.936C21.8276 27.9009 21.7643 27.7802 21.6122 27.734C21.5711 27.7219 21.3811 27.9479 21.3264 27.9232C21.1749 27.8549 21.1144 27.6601 21.0959 27.4866C21.0897 27.4224 21.3037 27.3063 21.322 27.2872C21.6227 26.9795 21.1433 27.2981 21.1031 27.3004C20.862 27.3134 21.0196 27.0713 20.8896 27.0117C20.8542 26.9946 20.6446 27.1727 20.6207 27.1812C20.3834 27.2589 20.817 27.02 20.8355 26.9519C20.8842 26.7795 20.8097 26.6779 20.7213 26.5939C20.7132 26.5871 20.705 26.5804 20.6967 26.5739C20.6646 26.549 20.4222 26.759 20.3963 26.7343C20.2365 26.5895 20.1517 26.4006 20.1972 26.1458C20.2067 26.0983 20.4249 25.9855 20.4681 25.9494C20.7714 25.6976 20.2812 25.9206 20.2289 25.9329C19.9911 25.9911 20.1587 25.8513 20.0875 25.8144C19.7384 25.639 19.6446 25.2212 19.5545 24.9127C19.4361 24.5116 19.4676 24.1256 19.2128 23.8375C19.1969 23.8191 18.9353 24.0141 18.9181 24.0005C18.708 23.8164 18.6738 23.5264 18.4506 23.353C18.4328 23.3385 18.1902 23.5317 18.1529 23.5141C18.0746 23.479 18.0397 23.3938 18.0832 23.2795C18.1039 23.2241 18.3521 23.1203 18.3684 23.0674C18.4068 22.944 18.3768 22.8571 18.2891 22.8129C18.2512 22.7944 18.0161 23.0118 17.9876 22.9746C17.7873 22.7237 17.5723 22.4949 17.7364 22.004C17.7479 21.9706 18.2707 21.5986 18.1423 21.6278C17.9924 21.7237 17.8184 21.8402 17.6593 21.9446C17.3207 21.6225 17.2538 21.1301 17.03 20.76C17.0207 20.7447 16.7627 20.9681 16.7436 20.9399C16.7367 20.9298 16.7295 20.9199 16.7221 20.9103C16.6434 20.8104 16.5231 20.7586 16.6772 20.4514C16.693 20.4191 17.1518 20.0355 17.0524 20.059C17.0344 20.0632 16.9284 20.0638 16.8207 20.1385C16.8048 20.15 16.6054 20.3456 16.5859 20.3362C16.476 20.2782 16.4426 20.1536 16.4871 19.9626C16.4946 19.9314 16.7086 19.7244 16.7149 19.6996C16.756 19.5223 16.5407 19.6411 16.7225 19.4407C16.8547 19.3106 17.1282 18.8749 17.3898 18.4421C17.4162 18.3764 17.4831 18.3958 17.6016 18.1247C17.8246 17.4179 18.2069 16.6979 18.4608 15.9502C18.4812 15.8696 18.364 15.8119 18.1079 15.7363C17.9648 15.6951 17.784 15.6715 17.7529 15.6298C17.714 15.59 17.8864 15.5057 18.1847 15.4567C18.22 15.4455 18.5026 15.4752 18.6375 15.4749C18.794 15.4781 18.9084 15.4613 18.9699 15.4144C19.0597 15.3528 19.1135 15.0426 19.2696 14.9862C19.4276 14.9322 19.3764 15.1939 19.544 15.1301C19.7088 15.0635 19.8743 14.7626 20.0484 14.8371ZM29.5662 32.7997C29.7196 32.5526 29.0069 33.3194 29.2185 33.1736C29.2296 33.1657 29.5588 32.812 29.5662 32.7997ZM34.793 36.9737C35.0371 36.5759 34.569 37.0699 34.3764 37.3734C34.1822 37.6752 34.7182 37.0937 34.793 36.9737ZM35.5861 37.1965C35.7528 36.862 34.7963 37.9973 35.0583 37.8245C35.0733 37.8149 35.5765 37.216 35.5861 37.1965ZM17.5529 18.3828C17.561 18.3714 17.5447 18.3419 17.5359 18.3526C17.3258 18.6105 17.3494 18.6622 17.5529 18.3828ZM36.409 37.3851C36.5089 37.209 36.3062 37.3454 36.1806 37.5639C36.0802 37.7402 36.2862 37.6055 36.409 37.3851ZM28.1779 30.085C28.1873 30.0726 28.1723 30.0413 28.1155 30.1087C27.9327 30.3261 28.0183 30.2938 28.1779 30.085ZM37.818 36.9871C37.7091 37.1842 36.5139 36.8882 36.6887 36.7848C36.7213 36.7607 37.0473 36.9545 37.1645 36.9458C37.3811 36.919 36.6478 36.677 37.0687 36.6944C37.1459 36.6973 37.827 36.9764 37.8196 36.9879C37.8191 36.9877 37.8186 36.9874 37.818 36.9871ZM30.3928 31.8517C30.4014 31.8408 30.3776 31.8013 30.3676 31.8107C30.1257 32.0398 30.173 32.1192 30.3928 31.8517ZM27.181 28.3919C27.1983 28.3679 27.1391 28.281 27.1189 28.2995C26.725 28.6778 26.8449 28.8557 27.181 28.3919ZM33.0488 33.3118C33.3016 33.0884 33.3646 33.0904 33.1217 33.4348C33.1014 33.3884 33.0695 33.3569 33.0488 33.3118ZM36.3997 20.9691C36.4673 21.0298 36.2892 21.0609 36.1122 21.0479C36.0566 21.0444 35.9401 20.8988 35.8951 20.8911C35.8059 20.8779 35.8354 20.977 35.7346 20.9566C35.701 20.9488 35.5082 20.7258 35.4776 20.7225C35.3084 20.7089 35.2893 20.8357 35.1642 20.8756C34.5485 21.0711 34.0673 21.4323 33.5631 21.792C33.3963 21.9116 33.0357 21.9149 32.9839 22.149C32.9784 22.1762 33.1808 22.3367 33.1937 22.3542C33.3896 22.6238 33.0158 22.2605 32.9326 22.25C32.8784 22.2434 32.8287 22.2419 32.7833 22.2449C32.5521 22.2612 32.4359 22.3883 32.3964 22.5586C32.3767 22.6459 32.8127 22.9263 32.545 22.795C32.5268 22.7862 32.3347 22.5899 32.2986 22.5866C32.2171 22.5796 32.1928 22.6811 32.1517 22.6948C32.0713 22.7205 32.0658 22.7309 32.0176 22.7807C31.9502 22.847 31.7742 22.8405 31.7544 22.9567C31.7508 22.9821 31.98 23.1467 31.9932 23.2039C32.0067 23.2607 31.9281 23.3138 31.8583 23.2928C31.7883 23.272 31.6315 23.1161 31.59 23.0867C31.2404 22.8376 31.6143 23.3076 31.6164 23.3273C31.6401 23.6769 31.249 23.6109 31.0958 23.7862C30.9812 23.9183 30.94 24.1332 30.8187 24.2478C30.6733 24.3837 30.4474 24.4101 30.3396 24.5722C30.3279 24.5892 30.5916 24.7893 30.5779 24.8104C30.4321 25.0343 30.2324 25.2071 29.8911 25.2582C29.8567 25.2631 29.6612 25.0463 29.6138 25.0398C29.3287 25.0035 28.7287 24.82 29.616 25.7226C29.5082 25.7709 29.3806 25.8394 29.1256 25.7447C28.9611 25.6841 28.7632 25.4307 28.8142 25.5771C28.8254 25.6099 29.0487 25.7746 29.0495 25.8104C29.0525 25.9609 28.9058 25.9923 28.9427 26.1674C28.9504 26.2039 29.1413 26.362 29.1708 26.3961C29.4083 26.6737 28.9001 26.3476 28.8548 26.3335C28.516 26.2297 28.5406 26.3956 28.4465 26.4921C28.4245 26.5144 28.7001 26.7046 28.688 26.7339C28.6209 26.8841 28.4944 26.9865 28.2811 27.0076C28.2332 27.0116 28.0392 26.8024 28.0053 26.7948C27.8586 26.7637 28.2538 27.1255 28.1216 27.1016C28.0943 27.097 27.9157 26.9324 27.8938 26.917C27.5502 26.6747 27.9748 27.0902 27.9779 27.1067C28.0245 27.3268 27.5009 26.9864 27.4808 27.1445C27.4791 27.1636 27.7352 27.3367 27.7161 27.3781C27.5904 27.6553 27.3287 27.8326 26.9542 27.8959C26.897 27.9053 26.7407 27.7327 26.7172 27.7165C26.3484 27.4645 26.7834 27.8724 26.7914 27.8977C26.8407 28.0901 26.389 27.8519 26.8836 28.3663C26.4197 28.5658 26.3923 29.1204 25.7732 29.1649C25.7253 29.1727 25.6741 29.1776 25.6194 29.1794C25.6096 29.1801 25.3818 28.9952 25.3634 28.9973C25.14 29.0205 25.5218 29.2709 25.9006 29.6933C25.9948 29.8005 25.4129 29.4529 25.3701 29.4275C25.2111 29.3358 24.8826 29.0475 24.8497 29.0325C24.5905 28.9154 25.7338 29.7956 25.6732 29.8733C25.6695 29.8741 25.469 29.6995 25.4433 29.6895C25.3628 29.6576 25.4301 29.7426 25.3431 29.705C25.1421 29.6178 24.5849 29.1921 24.8499 29.5132C24.8843 29.5549 25.5305 30.0576 25.445 30.101C25.411 30.1175 25.3231 30.2456 25.2546 30.2444C25.1862 30.2434 25.0036 30.0508 24.9928 30.0459C24.6531 29.9077 24.5708 29.781 24.1424 29.4878C23.7167 29.1942 24.6579 29.9811 24.7466 30.088C24.835 30.1948 24.563 30.0693 24.4746 30.0183C24.3861 29.9675 24.2762 29.8386 24.222 29.8146C23.8679 29.6572 24.6457 30.2549 24.7655 30.4136C25.047 30.7912 24.3187 30.2405 24.1978 30.2411C24.1647 30.2416 24.3305 30.3673 24.331 30.3955C24.3305 30.5058 24.0899 30.348 24.2175 30.5928C24.2388 30.6321 24.5847 31.0629 24.2594 30.8225C24.2127 30.7876 24.0615 30.6176 24.0011 30.6074C23.9107 30.5919 23.8118 30.6234 23.8279 30.7154C23.8398 30.7836 24.1401 31.0107 24.0209 30.9667C23.9679 30.9468 23.8409 30.764 23.7547 30.7391C23.6688 30.7139 23.6002 30.797 23.5766 30.8312C23.5532 30.8655 23.7694 31.0501 23.7806 31.0659C23.8437 31.1575 23.8832 31.3109 23.8778 31.3157C23.6458 31.594 23.0821 31.4688 22.9411 31.8137C22.9296 31.8405 23.1451 32.0484 23.1454 32.0548C23.1625 32.2091 22.678 31.5754 22.4519 31.4219C22.8684 31.8627 22.7667 31.807 22.7643 31.8993C22.7634 31.9442 22.9341 32.1063 22.9483 32.1259C23.1547 32.4203 22.8206 32.1015 22.7512 32.0372C22.4956 31.8012 22.7468 32.1264 22.5758 31.9686C22.4062 31.812 22.2118 31.5281 22.1698 31.572C22.3029 31.7443 22.7176 32.1341 22.7448 32.2335C22.795 32.4169 22.692 32.4844 22.5575 32.5122C22.4149 32.5425 22.2386 32.5277 22.1685 32.5582C22.032 32.6174 22.0239 32.6777 21.9104 32.673C21.7049 32.6642 22.0233 32.9449 22.079 33.1518C22.1343 33.3588 21.4908 32.5462 21.3349 32.3867C21.1796 32.2268 21.3189 32.4092 21.2267 32.3272C21.1347 32.245 21.0618 32.108 21.0035 32.0977C20.9455 32.0872 21.1264 32.4537 21.2674 32.6394C21.5666 33.0324 21.939 33.395 21.7434 33.3229C21.732 33.3185 21.5696 33.0991 21.5348 33.0926C21.2644 33.0478 21.1161 33.1556 20.8628 33.1249C20.8278 33.1203 20.6508 32.8735 20.6283 32.8681C20.3933 32.8112 20.7592 33.1713 21.0572 33.6609C20.5914 33.0664 20.2642 32.7376 20.1773 32.8027C20.1248 32.8418 20.342 33.0902 20.4552 33.2977C20.4893 33.3603 20.3103 33.2139 20.4013 33.3397C20.6982 33.7516 21.0901 34.1647 20.8575 34.0619C20.8468 34.0568 20.6853 33.8305 20.6612 33.8284C20.5045 33.8132 20.8253 34.2356 20.7682 34.3631C20.7235 34.4631 20.3879 34.3158 20.2696 34.3411C19.7494 33.6703 19.7897 33.8852 20.1142 34.3741C20.0435 34.3985 20.0027 34.4715 19.8993 34.4488C19.8638 34.4412 19.7269 34.2364 19.7084 34.2171C19.4198 33.9133 19.7409 34.3846 19.7421 34.4117C19.741 34.685 19.3749 34.4202 19.4999 34.8527C19.5046 34.8681 19.8482 35.3475 19.5578 35.0268C19.538 35.0045 19.4202 34.7579 19.3483 34.7853C19.2758 34.813 18.9772 34.6401 19.055 34.9213C19.0643 34.9554 19.1272 35.0797 19.154 35.1602C19.1828 35.2382 19.1781 35.2724 19.0494 35.1363C19.0143 35.0992 18.9191 34.9592 18.8558 34.889C18.6524 34.6665 18.9974 35.1527 18.6643 34.7698C18.3315 34.3867 18.0312 34.1387 18.164 34.4795C18.1675 34.4897 18.4427 34.8744 18.4135 34.8883C18.3663 34.9104 18.2476 34.8804 18.2081 34.9173C18.1894 34.935 18.3899 35.1498 18.3899 35.1568C18.3669 35.3903 18.1069 35.2696 17.8927 35.3076C17.8527 35.3144 18.0473 35.6768 17.7876 35.485C17.5027 35.2756 16.5944 34.1554 16.6988 34.5234C16.7404 34.6707 17.9031 36.0828 17.1794 35.4608C17.1624 35.7919 16.6846 35.5692 16.7285 35.9709C16.7305 35.9887 17.0337 36.4001 17.0094 36.4113C16.9731 36.427 16.8051 36.2567 16.7749 36.2613C16.6448 36.2756 16.6934 36.4979 16.588 36.5394C16.5484 36.5553 16.4097 36.3512 16.3638 36.3688C16.3185 36.3861 16.4863 36.6659 16.3403 36.5786C16.2652 36.5329 16.0441 36.2828 15.8833 36.1162L15.8464 36.1446C15.7615 36.0747 15.6893 36.0243 15.6545 36.0215C16.0768 36.5213 16.0316 36.5416 16.0874 36.7237C16.0986 36.7588 16.2632 36.917 16.2765 36.9421C16.3352 37.0473 16.1886 36.9257 16.2564 37.0372C16.2727 37.064 16.4254 37.2271 16.4477 37.2579C16.645 37.5239 16.249 37.2083 16.1766 37.1569C15.9075 36.9559 16.0973 37.1774 15.9778 37.1128C15.8568 37.0499 15.7794 36.8943 15.6897 36.8732C15.5023 36.8313 15.4404 36.9543 15.3671 37.0262C15.3649 37.0284 15.3644 37.0315 15.3652 37.0353C15.3751 37.0809 15.5861 37.2258 15.5873 37.2338C15.5965 37.3408 15.2938 37.2134 15.7404 37.6075C14.482 36.7252 15.8305 37.7345 15.5213 37.6375C15.4964 37.6296 14.8976 37.2179 14.8334 37.1246C14.7697 37.0307 14.9865 37.119 14.886 36.9764C14.8611 36.9444 14.3701 36.4665 14.3463 36.4302C14.1516 36.1566 15.0047 36.8289 15.0527 36.8641C15.2592 37.008 15.3056 37.0169 15.2859 36.9691C15.2545 36.8951 15.0637 36.68 15.0503 36.6482C14.9492 36.4103 15.1282 36.4413 15.0735 36.2588C15.0392 36.1401 14.537 35.6368 14.5921 35.6121C14.7811 35.5261 15.4888 36.2224 15.0377 35.4719C14.9435 35.3107 14.4049 34.7481 14.9126 35.1179C14.9274 35.1289 15.0315 35.2128 15.1184 35.2693L15.2251 35.1874C15.306 35.2688 15.3682 35.3116 15.2716 35.1487C15.2487 35.1102 15.1155 34.927 15.1084 34.9086C15.0632 34.7893 15.1889 34.9208 15.1678 34.8285C15.1465 34.7364 15.1032 34.6072 15.1851 34.6406C15.2339 34.6607 15.5247 34.9685 15.6007 35.04C15.8188 35.2466 15.5445 34.8406 15.7923 35.1035C16.0433 35.366 16.3503 35.8258 16.5573 35.9583C16.1839 35.5036 15.8027 35.0351 15.4272 34.5777C15.5473 34.5048 15.7832 34.552 15.8844 34.4274C15.8965 34.4116 15.6715 34.1883 15.6789 34.1654C15.7108 34.0697 15.9202 34.1847 15.9319 34.0532C15.9401 33.9505 15.7775 33.6459 15.7821 33.528C16.2706 33.9941 16.2091 33.7417 16.3198 33.7254C16.3582 33.7195 16.4763 33.8551 16.5326 33.8836C16.742 33.9877 16.3163 33.57 16.2725 33.4837C16.0878 33.1136 16.9847 34.1182 17.0542 34.0137C17.0575 34.009 16.6506 33.4119 16.6311 33.3698C16.498 33.1 16.8028 33.5517 16.872 33.5625C16.9988 33.5819 17.1518 33.6773 17.0949 33.4517C17.0771 33.3857 16.8518 32.992 17.1148 33.2249C17.1491 33.2554 17.2941 33.4434 17.3075 33.4504C17.5365 33.5642 17.0774 32.977 16.9768 32.7354C16.8773 32.493 17.2745 32.8382 17.3788 32.9455C17.6515 33.2209 17.4437 33.1017 17.464 33.1337C17.7071 33.5117 17.7176 33.407 17.7837 33.4054C18.2243 33.9887 18.2545 33.9124 17.8505 33.4014C17.8061 33.3458 17.8122 33.4258 17.7837 33.4054C17.6161 33.1437 17.5253 32.9707 17.5146 32.8979C17.4914 32.8087 17.6024 32.8947 17.8611 33.1772C18.0745 33.4103 18.2637 33.7258 18.2717 33.5538C18.2754 33.4761 17.9621 33.0816 17.915 32.9459C17.8069 32.6367 18.1872 32.9391 18.2235 32.8194C18.2364 32.7762 18.0428 32.5769 18.0458 32.5399C18.053 32.4409 18.2235 32.5713 18.2119 32.4471C18.2106 32.4356 18.0248 32.2145 18.0387 32.1994C18.1403 32.0801 18.3587 32.1453 18.4889 32.0504C18.5518 32.0045 18.5624 31.7939 18.6449 31.7692C18.7866 31.7256 19.1839 31.9445 19.2132 31.7894C19.2329 31.6893 19.0373 31.4765 18.9387 31.3033C18.7468 30.9682 19.2664 31.4245 19.3461 31.4957C19.3488 31.4981 19.34 31.5934 19.4619 31.6849C19.6743 31.9097 19.3464 31.4972 19.3461 31.4957C19.3972 31.5422 19.5428 31.5067 19.5279 31.4472C19.5197 31.4148 19.3386 31.2099 19.3376 31.197C19.318 30.895 19.4073 30.7286 19.6273 30.7083C19.6333 30.7104 19.8287 30.9456 19.8404 30.9477C20.0089 30.9822 19.816 30.6545 19.735 30.4308C19.6541 30.2069 19.7534 30.2188 20.1383 30.5794C20.1438 30.4866 20.3676 30.5985 20.502 30.6674C20.6365 30.7363 20.2464 30.2868 20.2421 30.2748C20.1594 30.0502 20.2262 30.0281 20.3267 30.0335C20.3976 30.0358 20.4835 30.0522 20.5462 30.0248C20.6198 29.9937 20.6714 29.8305 20.6866 29.7286C20.6977 29.6475 20.8199 29.7248 20.802 29.6202C20.7997 29.6062 20.6148 29.4162 20.6096 29.4071C20.442 29.1306 20.8577 29.6283 20.9458 29.7046C21.2659 29.9818 21.4404 30.1258 21.3666 29.9243C21.3501 29.8778 20.7548 29.1576 20.7416 29.0953C20.7259 29.0152 20.9424 29.2706 20.9202 29.1804C20.9185 29.1729 20.7768 29.023 20.8032 29.0107C20.9239 28.9514 21.1073 28.9424 21.1863 28.8366C21.1976 28.8228 20.9532 28.6041 20.9655 28.5805C21.0233 28.47 21.1213 28.3896 21.3096 28.4167C21.3567 28.424 21.5078 28.597 21.5606 28.6403C21.8812 28.9013 21.4911 28.4447 21.4885 28.431C21.4238 28.0848 21.9254 28.3409 21.8754 28.0114C21.8727 27.9919 21.4491 27.5037 21.8864 27.8389C21.9153 27.8615 22.3641 28.2029 22.097 27.9239C22.0802 27.9066 21.8464 27.7342 21.8957 27.7225C21.9452 27.7104 21.8409 27.5352 22.1201 27.6979C22.2076 27.7496 22.6662 28.0762 22.3585 27.7469C22.3379 27.7229 21.6106 27.0157 22.1677 27.4366C22.2594 27.5058 22.8276 27.9776 22.5765 27.6864C22.5275 27.6304 22.3854 27.5441 22.3262 27.4538C22.2341 27.3157 22.4306 27.3868 22.2104 27.1349C22.1716 27.0901 21.8045 26.7463 22.1262 26.9523C22.1766 26.9845 22.3643 27.1447 22.3979 27.1465C22.5591 27.1549 22.4871 26.9775 22.6803 27.0042C22.7485 27.0132 23.0571 27.266 23.1644 27.3007C23.2058 27.314 23.2501 27.3224 23.2819 27.3195C23.3389 27.3066 23.3651 27.2645 23.2955 27.171C23.1821 27.0191 22.6423 26.6795 22.6492 26.5866C22.684 26.178 23.1687 26.1714 23.4005 25.9743C23.4353 25.9447 23.2372 25.8279 23.2745 25.7757C23.4159 25.5766 23.5156 25.1255 24.015 25.2829C24.4163 25.4072 24.5081 25.7548 24.709 25.7609C24.8052 25.7634 24.2821 25.2386 24.274 25.2122C24.1857 24.9513 24.4973 25.0899 24.5031 24.9285C24.5043 24.895 24.2599 24.7203 24.2635 24.6938C24.2749 24.6005 24.4258 24.6297 24.4548 24.5583C24.4671 24.526 24.2896 24.3818 24.3226 24.3704C24.4003 24.3407 24.513 24.3569 24.7207 24.444C24.7396 24.4519 24.9275 24.6695 24.9697 24.6366C25.0377 24.5826 25.2671 24.6401 25.1649 24.4244C25.1341 24.3597 24.7393 24.0175 25.0533 24.2058C25.119 24.2451 25.5826 24.668 25.2204 24.2581C25.1607 24.1895 24.6861 23.6206 25.0819 23.8834C25.186 23.9526 25.6004 24.2582 25.5624 24.1789C25.5558 24.1669 25.3312 23.9976 25.3296 23.9576C25.3274 23.8204 25.4182 23.7614 25.4211 23.624C25.4214 23.5871 25.1747 23.4282 25.1822 23.3792C25.2017 23.2449 25.35 23.187 25.493 23.1613C25.5455 23.1529 25.7083 23.3322 25.73 23.3471C26.0822 23.5911 25.6675 23.1922 25.6526 23.1582C25.5662 22.952 25.82 23.0718 25.8263 22.9559C25.8284 22.9246 25.6104 22.7577 25.5952 22.7379C25.4494 22.542 25.7947 22.8947 25.8571 22.9057C26.033 22.9379 26.0844 22.8456 26.1198 22.7519C26.1322 22.7176 25.868 22.5371 25.8818 22.5088C25.9593 22.337 26.1081 22.2134 26.356 22.1964C26.4033 22.1933 26.5733 22.3705 26.62 22.4021C26.9455 22.6239 26.5913 22.2189 26.5639 22.1732C26.4376 21.9655 26.6189 22.0868 26.6313 22.0116C26.6905 21.6395 27.0543 21.4428 27.3193 21.2759C27.6609 21.0605 28.0367 20.9863 28.2353 20.67C28.2482 20.6499 27.9885 20.4524 27.9965 20.4324C28.1112 20.1839 28.3775 20.0744 28.4803 19.8161C28.4892 19.7952 28.2374 19.6142 28.2439 19.5738C28.2557 19.4896 28.3282 19.4329 28.4491 19.4449C28.5077 19.4502 28.6752 19.6605 28.7302 19.6623C28.8586 19.6669 28.9332 19.6156 28.9521 19.5196C28.9596 19.4783 28.6872 19.3099 28.7154 19.2725C28.8074 19.1451 28.8939 19.0154 29.0214 18.9193C29.1555 18.8169 29.3308 18.7524 29.5955 18.7663C29.6317 18.7679 30.1234 19.1802 30.0636 19.0625C29.9333 18.9412 29.7771 18.8018 29.6364 18.6738C29.8762 18.2518 30.3609 18.0482 30.7161 17.7162C30.7312 17.702 30.4579 17.4969 30.4859 17.4682C30.6468 17.3025 30.735 17.0712 31.1472 17.1293C31.1877 17.1348 31.6106 17.5574 31.5934 17.4449C31.5905 17.4241 31.6072 17.2921 31.5328 17.1824C31.5215 17.166 31.3072 16.9861 31.3263 16.9547C31.4381 16.7791 31.6393 16.6663 31.9183 16.6333C31.9632 16.6289 32.1429 16.8686 32.1765 16.8675C32.4176 16.8548 32.4046 16.5537 32.7878 16.5863C33.0548 16.605 33.3216 17.05 33.6971 17.4017C33.7409 17.4552 33.9001 17.3692 34.0531 17.6251C34.3748 18.2917 34.7826 18.992 35.1454 19.6923C35.1772 19.7666 35.1249 19.8161 34.8486 19.9276C34.6889 19.9913 34.4296 20.0287 34.3843 20.0688C34.3228 20.1088 34.6052 20.1955 34.9561 20.1973C35.0201 20.1974 35.2794 20.1391 35.3798 20.1418C35.5004 20.1386 35.5729 20.171 35.6274 20.2189C35.703 20.284 35.8273 20.5612 35.9457 20.6297C36.0599 20.7005 35.9393 20.4771 36.0427 20.5798C36.1471 20.6841 36.3623 20.9478 36.3997 20.9691ZM21.1057 30.9721C21.3352 31.1502 20.6404 30.3671 20.7671 30.59C20.774 30.6017 21.0944 30.9634 21.1057 30.9721ZM16.3036 35.1451C16.6571 35.4493 16.2421 34.9099 15.9725 34.6723C15.7045 34.4336 16.1971 35.0522 16.3036 35.1451ZM16.0103 35.8243C16.2934 36.0657 15.3856 34.891 15.515 35.1704C15.5222 35.1862 15.9941 35.8101 16.0103 35.8243ZM33.5216 17.7281C33.5306 17.7387 33.5794 17.7139 33.5713 17.7028C33.3759 17.432 33.2744 17.4851 33.5216 17.7281ZM15.6525 36.6008C15.8119 36.7254 15.7065 36.5054 15.5093 36.3485C15.3487 36.224 15.4517 36.448 15.6525 36.6008ZM23.8182 29.899C23.8303 29.9089 23.8611 29.8958 23.7953 29.8371C23.5835 29.6479 23.6151 29.7323 23.8182 29.899ZM14.8621 37.6114C15.0126 37.487 16.0784 38.1023 15.8624 38.1734C15.8226 38.1874 15.5794 37.8939 15.4637 37.8675C15.2512 37.8221 15.8619 38.2942 15.4724 38.1346C15.4012 38.1054 14.8512 37.6171 14.8609 37.6102C14.8613 37.6106 14.8617 37.611 14.8621 37.6114ZM21.9685 31.8873C21.9731 31.8917 21.9842 31.8902 21.994 31.8861C22.0054 31.8813 22.015 31.8732 22.0105 31.8673C21.8987 31.7245 21.8236 31.6705 21.818 31.6905C21.8133 31.7072 21.8571 31.7757 21.9685 31.8873ZM25.4588 28.9158C25.4832 28.9322 25.561 28.8744 25.5419 28.8548C25.1397 28.4855 24.974 28.6104 25.4588 28.9158ZM20.2543 34.3243C20.4225 34.6171 20.4012 34.6835 20.1146 34.3743C20.1654 34.3632 20.2045 34.3371 20.2543 34.3243Z" fill="#001117"/>
</g>
<defs>
<filter id="filter0_g_129_408" x="-0.0045166" y="0.372986" width="53.5569" height="55.0101" filterUnits="userSpaceOnUse" color-interpolation-filters="sRGB">
<feFlood flood-opacity="0" result="BackgroundImageFix"/>
<feBlend mode="normal" in="SourceGraphic" in2="BackgroundImageFix" result="shape"/>
<feTurbulence type="fractalNoise" baseFrequency="0.5 0.5" numOctaves="3" seed="5566" />
<feDisplacementMap in="shape" scale="4" xChannelSelector="R" yChannelSelector="G" result="displacedImage" width="100%" height="100%" />
<feMerge result="effect1_texture_129_408">
<feMergeNode in="displacedImage"/>
</feMerge>
</filter>
</defs>
</svg>
