<svg width="46" height="36" viewBox="0 0 46 36" fill="none" xmlns="http://www.w3.org/2000/svg">
<g filter="url(#filter0_g_114_411)">
<path d="M40.6285 21.1752C40.41 21.2663 40.1235 21.1688 39.9058 21.035C39.8375 20.9935 39.8721 20.808 39.825 20.771C39.7329 20.6989 39.6471 20.7898 39.556 20.7039C39.5258 20.6745 39.5634 20.3806 39.5318 20.3566C39.3584 20.2267 39.1944 20.3015 39.0188 20.2391C38.1538 19.9309 37.3035 19.8205 36.4279 19.6866C36.1392 19.6427 35.7882 19.376 35.49 19.4927C35.4552 19.5065 35.476 19.7645 35.4694 19.7858C35.3655 20.1112 35.4 19.5905 35.3322 19.5213C35.063 19.2481 34.7636 19.2244 34.5046 19.3239C34.3943 19.367 34.5048 19.8794 34.3939 19.5918C34.3862 19.5724 34.4141 19.2984 34.3839 19.2692C34.3154 19.2035 34.1853 19.2525 34.1322 19.2308C34.0298 19.1876 34.0129 19.1903 33.916 19.1872C33.7836 19.1805 33.6262 19.0444 33.4841 19.1064C33.4538 19.1205 33.4939 19.4013 33.4456 19.4491C33.3972 19.4968 33.2692 19.473 33.226 19.4068C33.1828 19.3406 33.2012 19.1199 33.1936 19.0693C33.1307 18.6423 32.9826 19.2337 32.9636 19.2483C32.6161 19.4975 32.3182 19.1606 31.9921 19.1616C31.7445 19.163 31.4798 19.2742 31.2442 19.259C30.9635 19.2397 30.7257 19.0875 30.453 19.1137C30.4242 19.1161 30.458 19.4463 30.4228 19.4499C30.0494 19.4884 29.6786 19.4524 29.3069 19.2295C29.2696 19.2068 29.3176 18.917 29.2804 18.877C29.0523 18.6388 28.6915 18.0665 28.556 19.3286C28.4015 19.2793 28.214 19.2284 28.0758 18.974C27.9866 18.8103 28.0732 18.4945 27.9637 18.6292C27.939 18.6592 27.9712 18.9358 27.9341 18.9599C27.7782 19.0611 27.6079 18.9712 27.4537 19.1141C27.4224 19.1438 27.4309 19.3917 27.422 19.4363C27.3474 19.7977 27.223 19.2003 27.1959 19.1569C26.9895 18.8332 26.8388 18.9605 26.6465 18.9526C26.6019 18.9507 26.6546 19.2835 26.6117 19.2936C26.389 19.3413 26.1583 19.3127 25.9403 19.165C25.8918 19.1313 25.9364 18.8478 25.9132 18.8172C25.811 18.6858 25.7883 19.2213 25.6903 19.1056C25.6697 19.0819 25.6813 18.8392 25.6775 18.8125C25.6185 18.394 25.5673 18.987 25.5521 19.0001C25.3602 19.1789 25.2375 18.5599 25.0521 18.6476C25.0299 18.6587 25.0799 18.9658 25.0176 18.9783C24.6022 19.0631 24.1628 18.9787 23.7517 18.733C23.6877 18.6952 23.7334 18.4645 23.7293 18.4361C23.6638 17.9917 23.6213 18.5871 23.6005 18.6096C23.4361 18.771 23.2824 18.2716 23.1707 18.9808C22.4742 18.7347 21.781 19.133 21.0902 18.4976C21.0815 18.4903 21.0972 18.197 21.0797 18.1836C20.8687 18.0189 20.9092 18.4747 20.7696 19.0321C20.7345 19.1721 20.6275 18.4991 20.618 18.4498C20.5836 18.268 20.6193 17.8317 20.6078 17.7965C20.5122 17.5201 20.5278 18.9628 20.3989 18.9633C20.3949 18.9609 20.4118 18.6953 20.401 18.6689C20.3674 18.586 20.334 18.6916 20.3012 18.6002C20.2259 18.3886 20.1991 17.6876 20.0841 18.0956C20.0695 18.1485 20.0918 18.9669 19.9767 18.9283C19.9308 18.9122 19.7277 18.9262 19.6708 18.8732C19.614 18.8202 19.653 18.5565 19.6489 18.545C19.4958 18.1963 19.5538 18.0518 19.4771 17.5355C19.4004 17.0211 19.4216 18.2479 19.3904 18.3848C19.359 18.5214 19.2467 18.2336 19.2191 18.1336C19.1915 18.0335 19.2259 17.866 19.2014 17.8093C19.0388 17.4393 19.13 18.4183 19.0765 18.613C18.9501 19.074 18.8517 18.1642 18.7361 18.0751C18.7048 18.051 18.7303 18.2582 18.7024 18.2776C18.5921 18.3516 18.5257 18.0677 18.4001 18.328C18.3796 18.3704 18.2781 18.9174 18.2124 18.516C18.2031 18.4581 18.2295 18.2314 18.1825 18.1806C18.1122 18.1044 17.9856 18.0548 17.9101 18.1306C17.8543 18.1867 17.9182 18.5603 17.848 18.4442C17.8168 18.3924 17.8746 18.1738 17.816 18.0947C17.7577 18.0156 17.6087 18.0252 17.552 18.0328C17.4954 18.0405 17.5263 18.3239 17.5218 18.343C17.4941 18.4523 17.3854 18.589 17.3758 18.5886C16.8915 18.6232 16.4449 18.1456 15.9733 18.3036C15.9363 18.3156 15.961 18.6145 15.9553 18.6194C15.8286 18.7446 15.9285 17.9501 15.84 17.6841C15.8528 18.2905 15.8006 18.1807 15.7113 18.2473C15.6683 18.2798 15.6918 18.5146 15.6878 18.5386C15.6241 18.8953 15.5797 18.4346 15.5682 18.3404C15.526 17.9937 15.48 18.4033 15.4513 18.1716C15.4226 17.9417 15.4887 17.6007 15.4031 17.6051C15.3791 17.8222 15.4426 18.3894 15.3776 18.4814C15.1325 18.8291 14.6748 18.3841 14.4777 18.3378C14.281 18.2916 14.2174 18.3317 14.1028 18.2532C13.8957 18.1114 13.9716 18.5323 13.843 18.7249C13.7141 18.9175 13.7768 17.882 13.7582 17.6594C13.7401 17.4368 13.7202 17.6659 13.6975 17.5436C13.675 17.4213 13.7238 17.2699 13.6708 17.224C13.6177 17.1781 13.4725 17.574 13.4537 17.8068C13.4139 18.2999 13.4793 18.8175 13.3388 18.6356C13.3308 18.6248 13.357 18.3525 13.3261 18.325C13.0803 18.1154 12.8251 18.1024 12.5797 17.917C12.5459 17.8911 12.5761 17.5882 12.5565 17.5696C12.3519 17.3759 12.425 17.8866 12.3129 18.454C12.3381 17.699 12.2761 17.237 12.1208 17.2325C12.0275 17.2296 12.0436 17.5594 11.9832 17.7918C11.9651 17.8619 11.8991 17.6354 11.8871 17.7905C11.8477 18.2975 11.9099 18.865 11.7498 18.639C11.7428 18.6283 11.7651 18.3508 11.7409 18.334C11.584 18.224 11.5653 18.7543 11.3957 18.8185C11.2628 18.8689 11.0265 18.5455 10.8752 18.4929C10.8783 17.644 10.7354 17.8384 10.6774 18.4237C10.5792 18.3997 10.4732 18.4328 10.3783 18.3519C10.3456 18.3243 10.367 18.0786 10.3629 18.052C10.2998 17.6354 10.2571 18.2048 10.2359 18.2272C10.0062 18.4442 9.81897 18.0126 9.59973 18.4344C9.59194 18.4496 9.57934 19.0393 9.52073 18.6087C9.51693 18.579 9.58935 18.3107 9.48621 18.29C9.38306 18.2692 9.1886 17.9531 9.0454 18.2263C9.01074 18.2921 8.92309 18.7708 8.85273 18.3968C8.84337 18.346 8.85362 18.1769 8.84009 18.0828C8.79635 17.7829 8.77248 18.3789 8.72107 17.8726C8.66967 17.3662 8.56274 16.987 8.41831 17.3364C8.41372 17.3465 8.37952 17.8189 8.33411 17.8115C8.26161 17.7991 8.15869 17.7007 8.08298 17.7038C8.04674 17.7054 8.06994 17.9988 8.06364 18.0041C7.81992 18.1685 7.64647 17.907 7.38538 17.7935C7.33752 17.7721 7.19998 18.1721 7.10732 17.8559C7.00558 17.5097 7.11014 16.0696 6.87628 16.4127C6.78196 16.5499 6.66254 18.377 6.49304 17.4304C6.1643 17.6649 5.86028 17.1805 5.53062 17.5154C5.5158 17.5302 5.46892 18.0401 5.43407 18.0332C5.38233 18.0219 5.35393 17.7836 5.31698 17.7679C5.16219 17.6961 5.02051 17.9 4.87126 17.8683C4.81459 17.8568 4.83441 17.6103 4.76682 17.5966C4.69927 17.583 4.65424 17.9075 4.5627 17.7508C4.49358 17.6313 4.42445 16.9681 4.3327 16.8907C4.3292 17.545 4.26618 17.5315 4.15417 17.7042C4.13264 17.7377 4.15573 17.9654 4.14554 17.993C4.10409 18.1104 4.06574 17.9217 4.02637 18.0494C4.01679 18.0801 4.01636 18.3035 4.00852 18.3412C3.94196 18.6703 3.83231 18.1677 3.81348 18.0802C3.7413 17.7479 3.70757 18.0385 3.65221 17.9076C3.59694 17.7767 3.67958 17.6132 3.61502 17.5338C3.48118 17.3695 3.30924 17.4056 3.1733 17.3953C3.11908 17.3926 3.15607 17.6909 3.14831 17.6974C3.03617 17.773 2.92276 17.4558 2.86058 18.0499C2.78283 16.5138 2.79296 18.1989 2.63266 17.8914C2.62004 17.8665 2.60398 17.1401 2.65245 17.0334C2.70092 16.9269 2.77444 17.154 2.84169 16.9877C2.85762 16.9487 2.94886 16.268 2.9613 16.2268C3.05881 15.9046 3.07264 16.9901 3.07779 17.0497C3.13631 17.6931 3.24779 16.9598 3.27715 16.9091C3.41148 16.6769 3.52558 16.8296 3.63793 16.6639C3.7114 16.5568 3.71859 15.8457 3.77629 15.8675C3.96808 15.9394 4.03502 16.9313 4.21576 16.0713C4.25451 15.8879 4.216 15.1107 4.35487 15.7218C4.36359 15.7603 4.46668 16.3194 4.52625 15.9658C4.53373 15.9212 4.5335 15.6947 4.54336 15.6757C4.60948 15.5526 4.65358 15.733 4.72561 15.6466C4.79764 15.5602 4.88424 15.4314 4.96647 15.5082C5.01604 15.5541 5.07962 15.9761 5.10334 16.0794C5.17033 16.377 5.24216 15.8891 5.28366 16.2495C5.32551 16.6117 5.24369 17.1617 5.35344 17.3958C5.3575 16.8073 5.36683 16.2034 5.37337 15.6116C5.61386 15.6323 5.8505 15.8226 6.0918 15.7966C6.12171 15.7928 6.09112 15.4764 6.12319 15.4642C6.25849 15.4139 6.37668 15.6394 6.51699 15.5496C6.6256 15.4789 6.74471 15.144 6.85828 15.0596C6.92765 15.7329 7.09618 15.5043 7.21861 15.5659C7.2615 15.5871 7.25862 15.767 7.28913 15.8256C7.40419 16.0426 7.35026 15.4476 7.38181 15.354C7.51715 14.9543 7.52873 16.3011 7.68828 16.2678C7.69674 16.2665 7.80006 15.5486 7.8143 15.5039C7.90472 15.2124 7.82927 15.7538 7.88586 15.8068C7.98919 15.9038 8.06098 16.0752 8.18221 15.8649C8.21756 15.8027 8.30236 15.3552 8.37101 15.7013C8.38004 15.7466 8.37505 15.9839 8.38231 15.9978C8.51389 16.2295 8.51734 15.4838 8.59253 15.2313C8.66774 14.9789 8.78387 15.4936 8.80751 15.6419C8.86934 16.0257 8.76013 15.8059 8.75677 15.8436C8.71744 16.2917 8.80215 16.2146 8.86687 16.2524C8.87625 16.9835 8.96674 16.9396 8.93396 16.2888C8.93024 16.2177 8.87986 16.2858 8.86687 16.2524C8.92368 15.5352 9.02316 15.4433 9.13302 16.1136C9.18446 16.4277 9.13583 16.794 9.29206 16.66C9.36297 16.5995 9.33557 16.0962 9.39814 15.9589C9.54109 15.6458 9.72684 16.1154 9.87421 16.0414C9.9277 16.0145 9.87559 15.739 9.91215 15.7111C10.0092 15.6363 10.0947 15.8431 10.1921 15.7372C10.201 15.7272 10.1794 15.4388 10.2097 15.4351C10.4394 15.4016 10.6394 15.5864 10.8792 15.5915C10.995 15.5938 11.2022 15.4348 11.3222 15.4667C11.5303 15.5205 11.7862 15.9399 11.9639 15.838C12.0798 15.7728 12.0544 15.4843 12.104 15.2877C12.1999 14.9067 12.3695 15.5892 12.3924 15.6949C12.3931 15.6984 12.2933 15.7664 12.3465 15.9145C12.3775 16.2231 12.3912 15.6962 12.3924 15.6949C12.4074 15.7632 12.6066 15.8287 12.6462 15.7735C12.6677 15.7434 12.6556 15.47 12.6668 15.4595C12.9333 15.2149 13.2002 15.1454 13.4704 15.2732C13.4751 15.2787 13.468 15.5845 13.4791 15.5936C13.6356 15.7296 13.7357 15.3556 13.8648 15.1335C13.9938 14.9115 14.0961 14.9859 14.1724 15.5107C14.2698 15.4447 14.4094 15.6767 14.4898 15.8175C14.5701 15.9583 14.5813 15.3632 14.5884 15.3514C14.8089 14.9748 14.9364 15.3155 15.1652 15.3685C15.274 15.3947 15.4897 15.3084 15.6075 15.2433C15.7006 15.1909 15.7566 15.3303 15.8424 15.2412C15.854 15.2292 15.8423 14.9643 15.8458 14.954C15.9415 14.637 15.8955 15.2848 15.9153 15.4005C15.987 15.8213 16.0312 16.0453 16.1538 15.8474C16.1821 15.8021 16.2644 14.8693 16.316 14.8148C16.383 14.7456 16.3577 15.0799 16.4278 14.9989C16.4338 14.9923 16.4326 14.786 16.4759 14.7951C16.6769 14.8346 16.896 14.9546 17.1049 14.934C17.1334 14.9319 17.0969 14.6048 17.1381 14.5964C17.3315 14.5577 17.5435 14.5698 17.732 14.7229C17.7784 14.7616 17.7493 14.9907 17.7594 15.0587C17.8212 15.4703 17.9088 14.8723 17.9233 14.8609C18.2683 14.5736 18.5324 15.1147 18.8841 14.8571C18.9032 14.8419 19.0506 14.2009 19.1163 14.7507C19.1208 14.7873 19.1859 15.3497 19.2434 14.9652C19.2469 14.9411 19.2064 14.6515 19.2771 14.681C19.3479 14.7105 19.4617 14.5171 19.5589 14.8353C19.5897 14.9355 19.6625 15.4966 19.7543 15.0493C19.7603 15.0181 19.902 14.0068 19.9526 14.7045C19.9608 14.8194 19.9522 15.5578 20.0618 15.1792C20.0827 15.1058 20.0447 14.9411 20.0999 14.8383C20.1844 14.6798 20.2964 14.8775 20.4002 14.5486C20.4183 14.4904 20.4955 13.9892 20.5573 14.3696C20.567 14.4292 20.5486 14.6757 20.5813 14.7033C20.7367 14.8356 20.8993 14.6707 21.0571 14.8413C21.1129 14.9012 21.0844 15.2997 21.1426 15.4065C21.2009 15.5133 21.3182 15.616 21.3792 15.4338C21.4401 15.2517 21.3735 14.6165 21.4649 14.5657C21.8619 14.3449 22.2552 14.7175 22.6516 14.772C22.7104 14.7802 22.6617 14.5529 22.7483 14.5486C23.0678 14.5317 23.6194 14.3186 23.8966 14.8015C24.1187 15.1883 23.8392 15.4828 24.0089 15.6402C24.0908 15.7153 24.1794 14.9769 24.1992 14.9536C24.3923 14.7175 24.5266 15.0446 24.7004 14.9442C24.7363 14.9234 24.7011 14.6241 24.7316 14.6097C24.836 14.5578 24.9457 14.6914 25.0454 14.6669C25.0901 14.6553 25.0819 14.4267 25.1231 14.4443C25.2216 14.4839 25.3087 14.58 25.4047 14.7943C25.4134 14.8138 25.3544 15.0981 25.4273 15.1087C25.5452 15.125 25.6916 15.3364 25.8273 15.1181C25.8676 15.0525 25.8692 14.53 25.9557 14.8908C25.9739 14.9662 25.9507 15.5935 26.0515 15.0515C26.0685 14.9614 26.2379 14.2303 26.321 14.7015C26.3429 14.8256 26.3989 15.3389 26.4473 15.2582C26.4539 15.2454 26.4275 14.9648 26.4677 14.9374C26.6091 14.8458 26.7573 14.8757 26.9025 14.7879C26.9413 14.7638 26.8835 14.4734 26.9414 14.4469C27.1004 14.3735 27.2989 14.4474 27.4543 14.5383C27.5117 14.5724 27.472 14.8129 27.4762 14.8391C27.5433 15.2649 27.5829 14.6902 27.6052 14.6567C27.7436 14.456 27.8491 14.726 27.9767 14.6546C28.0119 14.6356 27.9869 14.3615 27.9939 14.3371C28.0666 14.0984 28.0125 14.5905 28.0585 14.6447C28.1874 14.7983 28.3312 14.7763 28.4615 14.7413C28.5094 14.728 28.4556 14.4103 28.4986 14.402C28.753 14.3473 29.0174 14.3777 29.2656 14.5529C29.3124 14.5864 29.283 14.8311 29.2927 14.887C29.3599 15.2779 29.4583 14.7447 29.4809 14.6939C29.5839 14.4619 29.6239 14.6783 29.7148 14.6379C30.159 14.4368 30.7074 14.5801 31.1267 14.6686C31.673 14.7826 32.097 15.0153 32.618 14.9549C32.6511 14.9514 32.6177 14.6259 32.6462 14.6187C33.0148 14.5402 33.3776 14.6674 33.7469 14.5734C33.7772 14.5662 33.7335 14.2577 33.7821 14.2359C33.8819 14.1889 34.0083 14.2057 34.1091 14.3042C34.1583 14.3517 34.0923 14.6165 34.1418 14.6588C34.2572 14.7581 34.3808 14.7801 34.4992 14.7306C34.5496 14.7089 34.4736 14.3933 34.5391 14.3897C34.9853 14.3584 35.4236 14.304 35.8746 14.7127C35.9055 14.7407 35.9327 15.3821 35.9984 15.2591C36.0033 15.0811 36.0031 14.8717 36.0052 14.6815C36.6549 14.579 37.2979 14.8013 37.9494 14.8357C37.9769 14.8371 37.9294 14.4972 37.9826 14.4982C38.2904 14.5032 38.5893 14.4091 38.9041 14.7468C38.9353 14.7799 38.9193 15.3777 39.0114 15.2873C39.0276 15.2708 39.1662 15.1911 39.2021 15.0613C39.207 15.0417 39.1817 14.7627 39.2263 14.7545C39.486 14.7122 39.758 14.7759 40.0172 14.9464C40.059 14.9744 40.0145 15.2716 40.0443 15.2941C40.2556 15.4519 40.4855 15.226 40.6874 15.4958C40.8226 15.6775 40.7726 16.1911 40.8444 16.6968C40.8546 16.7681 40.9383 16.7794 40.9426 17.0736C40.9537 17.8134 40.9132 18.6234 40.9298 19.4119C40.9333 19.5818 41.0454 19.3988 40.979 19.8093C40.9744 19.8367 40.8931 19.9729 40.8731 20.1122C40.8592 20.2084 40.8843 20.5076 40.8559 20.6308C40.8274 20.754 40.7962 20.5032 40.749 20.6479C40.7019 20.7945 40.7226 21.1349 40.6285 21.1752ZM14.8516 16.4468C14.926 16.7327 14.937 15.6858 14.8565 15.9363C14.8526 15.9496 14.8477 16.4328 14.8516 16.4468ZM5.84915 16.6122C5.94642 17.0739 6.01298 16.395 5.94436 16.0384C5.87575 15.6822 5.81951 16.4722 5.84915 16.6122ZM4.84046 16.9493C4.95415 17.3133 4.97205 15.8289 4.85028 16.129C4.8432 16.1459 4.83381 16.9281 4.84046 16.9493ZM40.5113 16.8408C40.5123 16.8547 40.5725 16.8682 40.5739 16.8544C40.606 16.522 40.4856 16.4951 40.5113 16.8408ZM3.83952 17.3163C3.875 17.5171 3.97719 17.2853 3.93309 17.0356C3.8976 16.8347 3.79532 17.0665 3.83952 17.3163ZM18.7329 17.5641C18.7341 17.5797 18.7772 17.5937 18.7764 17.5056C18.7735 17.2216 18.7134 17.3017 18.7329 17.5641ZM2.13829 17.3334C2.38964 17.3893 2.54203 18.6155 2.26832 18.4771C2.21874 18.4521 2.37515 18.0861 2.31206 17.9755C2.19662 17.7741 2.11997 18.544 2.00216 18.1315C1.98083 18.056 2.12396 17.3275 2.13874 17.3317C2.13859 17.3322 2.13844 17.3328 2.13829 17.3334ZM14.8944 17.7042C14.8959 17.7181 14.9556 17.7312 14.9571 17.7175C14.9894 17.3851 14.8691 17.3585 14.8944 17.7042ZM21.25 18.2114C21.2533 18.2409 21.3919 18.2684 21.3964 18.2413C21.4687 17.6978 21.1885 17.6404 21.25 18.2114ZM10.8728 18.4703C10.8076 18.8046 10.7297 18.844 10.6777 18.4241C10.7425 18.4464 10.8077 18.4497 10.8728 18.4703ZM24.6681 2.00003C24.8242 1.99827 24.904 2.17354 24.9303 2.3556C24.9388 2.41231 24.8158 2.55259 24.8168 2.59857C24.8191 2.68829 24.9121 2.64245 24.9059 2.74311C24.9033 2.77721 24.7165 3.00514 24.7177 3.03539C24.7252 3.19944 24.8461 3.19286 24.8934 3.30251C25.1266 3.84302 25.4665 4.21672 25.8048 4.61813C25.9166 4.75029 25.9297 5.08549 26.1382 5.08946C26.1627 5.08971 26.3012 4.87174 26.3165 4.85655C26.5529 4.62488 26.2371 5.03944 26.2295 5.11866C26.2002 5.4319 26.3285 5.55113 26.5086 5.55603C26.5857 5.5575 26.8279 5.10146 26.7152 5.37375C26.7077 5.39222 26.5369 5.60702 26.5344 5.64099C26.5292 5.71761 26.619 5.7209 26.6317 5.75636C26.6555 5.82585 26.6651 5.82924 26.7092 5.86408C26.7682 5.91365 26.7646 6.07754 26.8677 6.07411C26.8901 6.07271 27.0325 5.82958 27.083 5.8066C27.1333 5.7837 27.1804 5.84585 27.1628 5.9144C27.1452 5.98298 27.0096 6.15743 26.9841 6.20137C26.7684 6.57168 27.1787 6.13719 27.1962 6.13157C27.5042 6.04349 27.4519 6.41844 27.6071 6.52636C27.7254 6.60771 27.9149 6.60495 28.0179 6.69596C28.14 6.80527 28.1653 7.00905 28.3097 7.07854C28.3247 7.08613 28.4986 6.80476 28.5173 6.81349C28.7165 6.90652 28.8717 7.05956 28.9199 7.36585C28.9246 7.39681 28.7351 7.61797 28.7298 7.66307C28.7011 7.93401 28.5432 8.52253 29.3331 7.53504C29.378 7.62686 29.4377 7.73104 29.357 7.98526C29.3052 8.14894 29.0825 8.37847 29.2119 8.30471C29.2409 8.28837 29.3847 8.05139 29.4161 8.04401C29.5483 8.01313 29.5774 8.14345 29.7327 8.07794C29.7646 8.06409 29.903 7.85848 29.9329 7.82493C30.1761 7.55415 29.8916 8.08438 29.8795 8.12893C29.7913 8.46258 29.9361 8.4086 30.0227 8.47916C30.0428 8.49565 30.2091 8.20573 30.2353 8.21181C30.3683 8.24701 30.4613 8.34731 30.4798 8.54084C30.4835 8.58454 30.2993 8.80166 30.2927 8.83441C30.2656 8.97601 30.5843 8.5454 30.5642 8.67274C30.5604 8.69902 30.4153 8.89374 30.4018 8.91681C30.1892 9.27885 30.5544 8.81081 30.5691 8.80515C30.763 8.72278 30.4653 9.27013 30.6037 9.26022C30.6206 9.25852 30.7734 8.99057 30.8102 9.00116C31.056 9.07026 31.2158 9.28573 31.2697 9.62379C31.2783 9.67601 31.124 9.84956 31.1095 9.87417C30.8851 10.2596 31.2476 9.78659 31.2704 9.77519C31.4412 9.69795 31.227 10.1577 31.6877 9.61469C31.8766 10.0482 32.4344 9.95346 32.3968 10.7035C32.3967 10.7125 32.2206 10.9472 32.2212 10.964C32.2266 11.169 32.4695 10.7826 32.8562 10.3731C32.9533 10.2703 32.6171 10.8566 32.5933 10.9001C32.5051 11.0603 32.2373 11.4053 32.2225 11.438C32.1089 11.696 32.9311 10.5104 32.9925 10.553C32.993 10.5563 32.8323 10.7679 32.8222 10.7931C32.7905 10.8721 32.867 10.7969 32.83 10.8827C32.7441 11.0808 32.3538 11.6634 32.6429 11.3679C32.6803 11.3294 33.1402 10.6524 33.1726 10.7224C33.1851 10.7508 33.2895 10.807 33.286 10.8694C33.2825 10.9317 33.1124 11.1345 33.1077 11.1452C32.9799 11.4816 32.8692 11.5805 32.6088 12.0285C32.3495 12.4749 33.0447 11.4641 33.1383 11.3624C33.2316 11.2612 33.1195 11.534 33.0751 11.6251C33.0306 11.7161 32.9179 11.8418 32.897 11.8963C32.7615 12.2532 33.281 11.4219 33.4184 11.2804C33.7434 10.9453 33.267 11.7225 33.2706 11.834C33.2716 11.8641 33.3786 11.6861 33.4029 11.6795C33.4979 11.6557 33.3661 11.9101 33.5753 11.739C33.6095 11.7112 33.9721 11.2975 33.7725 11.6478C33.7436 11.6983 33.6007 11.8749 33.5938 11.9322C33.5833 12.018 33.6149 12.1007 33.6943 12.0639C33.753 12.0366 33.9375 11.7096 33.904 11.828C33.889 11.8808 33.736 12.0403 33.7183 12.1246C33.7005 12.2087 33.7767 12.2506 33.8079 12.2633C33.8392 12.2759 33.9874 12.0337 34.0006 12.0196C34.0766 11.9393 34.2067 11.8637 34.2111 11.8672C34.4607 12.0004 34.3979 12.54 34.7125 12.5679C34.737 12.5704 34.8971 12.3177 34.9026 12.3155C35.0347 12.2553 34.5305 12.8721 34.4196 13.1192C34.7621 12.6188 34.7238 12.726 34.8044 12.7013C34.8435 12.6891 34.9674 12.4891 34.983 12.4708C35.2183 12.2002 34.9746 12.5919 34.9258 12.6729C34.7465 12.9705 35.0038 12.6508 34.8842 12.8499C34.7656 13.0476 34.5383 13.3045 34.5814 13.3295C34.7176 13.1599 35.0136 12.6746 35.0973 12.621C35.4135 12.4182 35.3747 12.9349 35.4416 13.0385C35.5084 13.1418 35.5616 13.1302 35.5708 13.2326C35.5875 13.4177 35.7935 13.0481 35.9652 12.9333C36.1371 12.8187 35.512 13.6451 35.3928 13.8334C35.2735 14.0215 35.4146 13.8407 35.355 13.9484C35.2954 14.0559 35.1852 14.1635 35.184 14.2188C35.1828 14.274 35.4793 13.9985 35.622 13.8143C35.9244 13.4241 36.191 12.9788 36.1531 13.1744C36.1507 13.1859 35.9817 13.4 35.9805 13.4328C35.9766 13.6862 36.0902 13.782 36.1 14.0155C36.1011 14.0479 35.9126 14.2857 35.9113 14.3074C35.897 14.5341 36.1559 14.0918 36.5353 13.665C36.0893 14.2744 35.8531 14.673 35.9241 14.7284C35.9667 14.7619 36.1487 14.4867 36.311 14.3167C36.3598 14.2654 36.261 14.4727 36.3558 14.3498C36.666 13.9481 36.9628 13.4631 36.9088 13.7013C36.906 13.7124 36.7358 13.932 36.7377 13.9539C36.7488 14.0962 37.0626 13.6685 37.1799 13.6725C37.2719 13.6756 37.1981 14.0189 37.2397 14.1124C36.7501 14.8059 36.9297 14.6945 37.2937 14.2349C37.3265 14.2873 37.3958 14.2956 37.3943 14.3934C37.394 14.4269 37.2425 14.6208 37.2292 14.6439C37.0196 15.0058 37.3673 14.5541 37.3901 14.5429C37.6239 14.442 37.4645 14.8575 37.8111 14.5854C37.8235 14.5756 38.1685 14.0973 37.9487 14.4692C37.9335 14.4947 37.7449 14.6901 37.7819 14.7414C37.8188 14.7928 37.7293 15.1163 37.9544 14.9405C38.0086 14.8982 38.3254 14.5357 38.1438 14.8652C38.119 14.9099 38.0169 15.0448 37.9692 15.1264C37.8176 15.3863 38.1716 14.9066 37.9048 15.338C37.6381 15.7694 37.4708 16.1153 37.7402 15.8776C37.7482 15.8709 38.036 15.4957 38.0533 15.517C38.0806 15.5512 38.0728 15.6661 38.1105 15.6888C38.1286 15.6995 38.2863 15.4518 38.2923 15.4495C38.5025 15.3962 38.4344 15.668 38.493 15.8479C38.5034 15.8814 38.7986 15.5999 38.6607 15.8896C38.51 16.2067 37.6324 17.3502 37.9406 17.1474C38.0642 17.0666 39.1713 15.6115 38.7075 16.4425C38.9983 16.3602 38.8639 16.8579 39.2129 16.6937C39.2285 16.6865 39.5439 16.2849 39.5564 16.3022C39.5745 16.3287 39.4509 16.5332 39.4594 16.5584C39.4916 16.6687 39.676 16.5491 39.7286 16.6248C39.7488 16.6531 39.5977 16.8481 39.6219 16.8819C39.6461 16.9155 39.8541 16.665 39.8074 16.8238C39.7715 16.9445 39.4229 17.5103 39.422 17.6041C39.7998 17.07 39.822 17.102 39.9744 16.998C40.0039 16.9778 40.1238 16.7838 40.1445 16.7646C40.2317 16.6824 40.1414 16.8496 40.2335 16.7582C40.2557 16.7363 40.3844 16.5536 40.4097 16.5254C40.6305 16.2784 40.3935 16.7261 40.3522 16.804C40.1953 17.1 40.3784 16.8734 40.3294 16.999C40.2804 17.1245 40.1472 17.2307 40.1321 17.3172C40.1012 17.4962 40.2035 17.524 40.2621 17.5777C40.2862 17.598 40.4402 17.3417 40.4476 17.3389C40.5443 17.3144 40.4157 17.6118 40.7867 17.1464C39.9405 18.4292 40.9045 17.0471 40.8037 17.3521C40.7954 17.3767 40.3854 17.9763 40.3011 18.0474C40.2168 18.1184 40.3125 17.9082 40.185 18.0218C40.1551 18.0484 39.7204 18.5749 39.6908 18.6045C39.4593 18.8356 40.0768 17.9429 40.1087 17.8924C40.4508 17.3464 39.9763 17.9093 39.9333 17.9409C39.7361 18.0861 39.7697 17.9232 39.6211 18.0213C39.5247 18.0845 39.1125 18.6638 39.0976 18.6268C39.048 18.504 39.5865 17.6701 39.0063 18.3136C38.8825 18.4507 38.4539 19.0994 38.7394 18.5531C38.7574 18.5187 39.0299 18.0269 38.7984 18.2964C38.7692 18.3304 38.6391 18.5158 38.6235 18.5281C38.5213 18.6067 38.6042 18.4444 38.5203 18.4911C38.4365 18.5378 38.3213 18.6143 38.3265 18.5241C38.3294 18.47 38.5418 18.1035 38.59 18.0111C38.7293 17.7452 38.4147 18.1205 38.6022 17.8118C38.7906 17.5015 39.1457 17.0787 39.2282 16.8507C38.8879 17.3308 38.5362 17.8218 38.1929 18.3038C38.0907 18.2067 38.0879 17.9722 37.9585 17.913C37.9421 17.9061 37.7747 18.1752 37.7525 18.1745C37.6594 18.1705 37.733 17.9466 37.6148 17.9733C37.5226 17.995 37.2735 18.2293 37.1712 18.2605C37.5254 17.6865 37.314 17.8173 37.2913 17.7261C37.2832 17.6945 37.3879 17.5483 37.4072 17.4901C37.4774 17.2742 37.1609 17.779 37.0921 17.8451C36.7981 18.127 37.5669 17.0212 37.4721 16.9953C37.4673 16.9935 37.0056 17.5464 36.9731 17.5783C36.7626 17.7867 37.1097 17.3688 37.1133 17.3066C37.1201 17.1928 37.1846 17.0286 37.0062 17.1603C36.9536 17.1994 36.6561 17.5373 36.8225 17.2312C36.8443 17.1911 36.9831 16.9986 36.9876 16.9848C37.0584 16.7515 36.6281 17.3603 36.4472 17.5419C36.2664 17.7234 36.5072 17.2635 36.5813 17.1343C36.7726 16.7997 36.6981 17.0159 36.7213 16.9862C36.9977 16.6326 36.9131 16.6675 36.9042 16.615C37.3201 16.0137 37.2519 16.0194 36.8932 16.5629C36.8541 16.6223 36.9172 16.5833 36.9042 16.615C36.4648 17.1829 36.3648 17.2249 36.6981 16.6399C36.8543 16.3657 37.088 16.0822 36.9368 16.1398C36.8684 16.1656 36.592 16.5866 36.4834 16.678C36.2356 16.8866 36.4174 16.4405 36.305 16.4519C36.2642 16.456 36.1305 16.6988 36.0971 16.7094C36.0081 16.7383 36.0864 16.5406 35.9793 16.5948C35.9694 16.6 35.8138 16.8432 35.7973 16.8361C35.6691 16.7869 35.6804 16.5691 35.5696 16.485C35.516 16.4444 35.3263 16.5056 35.2877 16.4394C35.2199 16.3261 35.3397 15.8976 35.1968 15.9217C35.1043 15.9364 34.9505 16.181 34.814 16.3252C34.5494 16.6051 34.8614 15.9901 34.9113 15.896C34.913 15.8929 34.9994 15.8705 35.0593 15.7316C35.222 15.4688 34.9126 15.8953 34.9113 15.896C34.9434 15.8351 34.8866 15.7151 34.8361 15.7471C34.8086 15.7646 34.6571 15.9922 34.6457 15.9971C34.3787 16.1084 34.2122 16.0763 34.1575 15.8817C34.1584 15.8756 34.3376 15.6278 34.3375 15.6166C34.3415 15.4532 34.0789 15.7258 33.8901 15.8645C33.7012 16.0031 33.6955 15.9082 33.961 15.4533C33.8769 15.4749 33.944 15.2385 33.9869 15.0965C34.0297 14.9546 33.6822 15.4378 33.6721 15.445C33.3509 15.6796 33.4863 15.3584 33.4083 15.2388C33.3718 15.1811 33.2198 15.1798 33.1265 15.1938C33.0522 15.2056 33.1058 15.0728 33.0138 15.1172C33.0015 15.1231 32.8547 15.3438 32.8471 15.351C32.6195 15.5785 33.0137 15.0638 33.0709 14.9625C33.2788 14.5944 33.3866 14.3963 33.2147 14.5174C33.1752 14.5451 32.5999 15.2808 32.5441 15.3082C32.4725 15.3425 32.6767 15.0774 32.5969 15.1203C32.5902 15.1237 32.4722 15.2929 32.4569 15.271C32.3843 15.1717 32.3493 15.0004 32.2384 14.9477C32.2237 14.9399 32.0529 15.2198 32.0286 15.2128C31.9145 15.1801 31.8209 15.0995 31.8195 14.9114C31.8198 14.8642 31.9653 14.6865 31.9996 14.6275C32.2069 14.2702 31.8215 14.7302 31.8081 14.7347C31.4792 14.8548 31.6651 14.324 31.3502 14.4176C31.3324 14.4236 30.8939 14.899 31.1788 14.4272C31.1977 14.3958 31.4903 13.9139 31.2419 14.2094C31.2264 14.2279 31.0791 14.4783 31.0625 14.4306C31.0459 14.3829 30.8807 14.5032 31.0175 14.2105C31.0605 14.1182 31.3486 13.6349 31.0479 13.9702C31.0271 13.9938 30.3784 14.774 30.7556 14.1862C30.8178 14.0895 31.2464 13.4882 30.9767 13.7615C30.9246 13.8145 30.8479 13.962 30.7626 14.0277C30.6314 14.1292 30.692 13.9301 30.4536 14.1646C30.4115 14.2062 30.0868 14.5906 30.2762 14.2587C30.3058 14.2067 30.4563 14.0112 30.4566 13.9777C30.459 13.8176 30.2871 13.8983 30.3103 13.7062C30.3183 13.6385 30.5609 13.322 30.5947 13.2152C30.6285 13.1084 30.6318 12.9853 30.4982 13.114C30.3645 13.2427 30.031 13.7846 29.9584 13.7957C29.6432 13.844 29.6708 13.408 29.5141 13.2313C29.4909 13.205 29.3834 13.4073 29.3398 13.3819C29.1785 13.2892 28.7944 13.2797 28.9405 12.7922C29.0575 12.4017 29.3594 12.2539 29.3694 12.0686C29.3738 11.9798 28.9072 12.5545 28.8844 12.5669C28.657 12.6957 28.7814 12.3833 28.6413 12.4075C28.6123 12.4126 28.4569 12.6692 28.4341 12.6708C28.3548 12.6785 28.3795 12.5326 28.3182 12.5194C28.2903 12.514 28.1628 12.7038 28.1534 12.6756C28.1294 12.6104 28.1433 12.5027 28.221 12.2954C28.228 12.2766 28.4195 12.0636 28.391 12.0306C28.3444 11.978 28.3965 11.7562 28.2067 11.8896C28.1498 11.9299 27.8487 12.3568 28.0151 12.0328C28.0498 11.9651 28.4214 11.4595 28.062 11.8694C28.0022 11.9374 27.5015 12.4792 27.733 12.0659C27.7939 11.9571 28.0625 11.5184 27.9932 11.5683C27.9826 11.5766 27.8338 11.815 27.799 11.824C27.6793 11.8518 27.6262 11.7779 27.5068 11.8014C27.4745 11.8081 27.335 12.065 27.2923 12.0674C27.1747 12.0745 27.123 11.9478 27.1015 11.8216C27.0939 11.7746 27.251 11.591 27.2641 11.5682C27.4771 11.1975 27.1279 11.6545 27.098 11.6745C26.917 11.7925 27.0222 11.5365 26.9206 11.5524C26.893 11.5562 26.7473 11.7887 26.7299 11.8064C26.5581 11.9775 26.8668 11.5929 26.8761 11.5332C26.9033 11.3645 26.8224 11.3347 26.7405 11.3198C26.7101 11.3147 26.553 11.5926 26.5278 11.5851C26.3757 11.5451 26.2677 11.432 26.2507 11.206C26.2478 11.1629 26.4024 10.9725 26.4299 10.9236C26.6229 10.5813 26.2696 10.9848 26.2296 11.0188C26.0474 11.1743 26.1529 10.9839 26.0865 10.9867C25.7602 11.0031 25.5824 10.7031 25.4345 10.4909C25.2408 10.2156 25.1735 9.8838 24.8916 9.75958C24.8739 9.75144 24.7026 10.0289 24.6849 10.0253C24.465 9.96662 24.366 9.74162 24.1368 9.69545C24.1183 9.69119 23.9616 9.95821 23.926 9.95985C23.8517 9.965 23.8014 9.90915 23.8102 9.79492C23.8141 9.73968 23.9977 9.54504 23.9985 9.49387C24.0009 9.37421 23.9549 9.31503 23.8703 9.31602C23.8339 9.317 23.6885 9.60055 23.6553 9.58169C23.4257 9.45855 23.1865 9.35692 23.2075 8.87224C23.209 8.83897 23.5649 8.30515 23.463 8.38388C23.3583 8.52786 23.238 8.69927 23.1276 8.85421C22.7605 8.72151 22.5833 8.32525 22.2941 8.07996C22.2818 8.06968 22.109 8.36355 22.0843 8.34506C21.9412 8.23835 21.7453 8.21575 21.7901 7.83444C21.7943 7.797 22.1456 7.31319 22.05 7.35649C22.0328 7.36457 21.9212 7.38359 21.8296 7.47783C21.816 7.49223 21.6676 7.72898 21.6417 7.72074C21.4942 7.66887 21.4017 7.52605 21.3768 7.30016C21.3731 7.26326 21.5651 7.03497 21.5639 7.00658C21.5544 6.80707 21.3155 6.91527 21.3748 6.6272C21.4151 6.4335 21.7342 6.0299 21.9908 5.59225C22.027 5.53049 21.9938 5.49334 22.1609 5.2512C22.581 4.64223 23.0659 3.99298 23.5114 3.34228C23.6074 3.20214 23.449 3.31445 23.7165 3.00076C23.7345 2.97984 23.8513 2.89547 23.9409 2.78823C24.0028 2.71411 24.1629 2.46095 24.2473 2.36961C24.3315 2.27836 24.2022 2.49397 24.3078 2.39123C24.4144 2.28702 24.6003 2.00163 24.6681 2.00003ZM34.1771 14.461C34.3061 14.2024 33.699 15.0552 33.8812 14.8771C33.8907 14.8675 34.1708 14.4738 34.1771 14.461ZM38.5425 17.3265C38.7618 16.9163 38.3399 17.4496 38.1674 17.7643C37.9952 18.0786 38.4761 17.4509 38.5425 17.3265ZM39.2148 17.387C39.3702 17.0512 38.5082 18.2598 38.7385 18.0549C38.7516 18.0433 39.2058 17.4065 39.2148 17.387ZM22.2316 5.58548C22.2391 5.57376 22.2184 5.54262 22.2098 5.55341C22.0034 5.81476 22.0451 5.87684 22.2316 5.58548ZM39.9006 17.4203C39.9992 17.2442 39.8175 17.3998 39.6948 17.6188C39.5962 17.795 39.778 17.6394 39.9006 17.4203ZM32.9783 12.2531C32.9867 12.24 32.9743 12.2141 32.924 12.2865C32.7621 12.5199 32.8367 12.4743 32.9783 12.2531ZM40.7174 17.9734C40.6303 17.8439 41.263 16.7898 41.3133 16.9943C41.3225 17.0313 41.0378 17.2786 41.0042 17.3901C40.9432 17.5934 41.4222 16.989 41.2409 17.3658C41.2076 17.4347 40.7208 17.983 40.7162 17.9747C40.7166 17.9743 40.717 17.9738 40.7174 17.9734ZM34.8797 13.418C34.8869 13.4061 34.8661 13.3755 34.8576 13.3862C34.6511 13.6474 34.6929 13.7093 34.8797 13.418ZM32.1564 10.8845C32.1718 10.8593 32.1219 10.7905 32.1042 10.8112C31.7574 11.2318 31.8573 11.3721 32.1564 10.8845ZM37.2278 14.1317C37.4509 13.8799 37.5105 13.8737 37.2938 14.2345C37.2759 14.1947 37.2469 14.1703 37.2278 14.1317ZM43.3021 20.3081C43.2797 20.4594 43.0969 20.5043 42.9157 20.4962C42.8593 20.494 42.7418 20.3491 42.6969 20.3417C42.6093 20.3273 42.6395 20.4257 42.5426 20.4011C42.5098 20.3923 42.3169 20.1696 42.2873 20.1652C42.1266 20.1422 42.1144 20.2603 42.0004 20.2859C41.4387 20.4118 41.0227 20.6717 40.58 20.925C40.4343 21.0087 40.1062 20.9596 40.0701 21.1606C40.0661 21.1843 40.2568 21.3584 40.2692 21.3761C40.458 21.6475 40.1035 21.2656 40.0277 21.2436C39.7275 21.1574 39.5917 21.2596 39.5592 21.4329C39.5458 21.5072 39.952 21.8256 39.7046 21.6664C39.6878 21.6557 39.5052 21.4509 39.4725 21.4422C39.3988 21.423 39.3818 21.5093 39.3453 21.5151C39.274 21.5252 39.2693 21.5339 39.2286 21.5702C39.1712 21.6181 39.0124 21.5844 38.9998 21.6847C38.9977 21.7067 39.2122 21.8893 39.2268 21.9423C39.2413 21.9953 39.1736 22.0294 39.1096 21.9997C39.0456 21.97 38.8969 21.8067 38.8581 21.7739C38.5312 21.497 38.8905 21.974 38.8932 21.9919C38.9314 22.3062 38.5747 22.1864 38.4458 22.3167C38.3484 22.4161 38.3219 22.6 38.2174 22.6828C38.0923 22.7807 37.8901 22.7677 37.8003 22.8945C37.7906 22.9077 38.0374 23.1278 38.026 23.1443C37.9048 23.3199 37.732 23.4418 37.4266 23.4319C37.3958 23.4307 37.2099 23.2067 37.1669 23.1932C36.9078 23.1154 36.3597 22.8542 37.1983 23.8004C37.1021 23.827 36.9915 23.8655 36.7567 23.7406C36.6055 23.6602 36.4166 23.4025 36.4684 23.5413C36.4798 23.5723 36.6881 23.7551 36.6904 23.7869C36.7001 23.9204 36.5688 23.9245 36.6086 24.0869C36.6171 24.1203 36.7957 24.2922 36.8238 24.3272C37.0496 24.6125 36.5778 24.2395 36.5363 24.2195C36.2254 24.0727 36.2556 24.2227 36.1735 24.2935C36.1544 24.3098 36.4107 24.5242 36.4008 24.5484C36.346 24.6706 36.2341 24.7421 36.043 24.7243C35.9999 24.7198 35.8172 24.5016 35.7863 24.4892C35.6528 24.4369 36.0225 24.8245 35.9017 24.7817C35.8767 24.7731 35.7097 24.5969 35.6894 24.5795C35.37 24.307 35.7689 24.7467 35.7721 24.762C35.8223 24.9647 35.3359 24.5758 35.3242 24.7115C35.3232 24.7281 35.5603 24.9254 35.5443 24.959C35.4391 25.1841 35.2049 25.299 34.8677 25.2887C34.8156 25.2874 34.6706 25.1061 34.6489 25.0876C34.3086 24.7995 34.7128 25.2373 34.7204 25.2615C34.7691 25.441 34.355 25.149 34.8121 25.6948C34.3612 25.7976 34.3673 26.3547 33.6435 26.18C33.6348 26.1783 33.4338 25.9647 33.4173 25.9621C33.217 25.9296 33.5554 26.2357 33.8941 26.6854C33.9791 26.7983 33.4607 26.365 33.422 26.3338C33.2798 26.219 32.9855 25.8963 32.956 25.876C32.7226 25.7185 33.749 26.7325 33.6981 26.7841C33.6948 26.784 33.5137 26.5895 33.4908 26.5751C33.4188 26.5298 33.4801 26.6177 33.4024 26.5661C33.2229 26.4465 32.7166 25.9614 32.9594 26.2956C32.991 26.3388 33.5786 26.9087 33.5055 26.9271C33.4759 26.9339 33.4051 27.0246 33.345 27.0097C33.2849 26.9948 33.1139 26.7928 33.1042 26.7864C32.7968 26.6006 32.7177 26.4754 32.3221 26.1408C31.9279 25.8076 32.8038 26.6666 32.8882 26.7758C32.9723 26.8848 32.7242 26.726 32.6425 26.6663C32.5608 26.6065 32.4559 26.4743 32.4062 26.444C32.0799 26.247 32.8084 26.9029 32.9248 27.0619C33.2006 27.4381 32.5181 26.8339 32.4091 26.8169C32.3797 26.8123 32.5363 26.9486 32.539 26.9734C32.5474 27.0696 32.3203 26.8953 32.4545 27.1292C32.4763 27.1674 32.8227 27.5945 32.5128 27.3368C32.4681 27.2995 32.3183 27.1287 32.2637 27.1115C32.1819 27.0855 32.0965 27.1008 32.1201 27.1844C32.1376 27.2462 32.4272 27.485 32.3172 27.4308C32.2682 27.4066 32.1366 27.2291 32.0574 27.1964C31.9783 27.1636 31.9258 27.2297 31.9086 27.2575C31.8916 27.2855 32.1043 27.4736 32.1159 27.4889C32.1823 27.5772 32.2357 27.717 32.2316 27.7206C32.0636 27.9375 31.5484 27.7773 31.4727 28.0765C31.4665 28.0997 31.6876 28.3012 31.6888 28.3069C31.727 28.4458 31.2049 27.8443 30.9817 27.6914C31.4156 28.1151 31.3172 28.0582 31.3287 28.1407C31.3347 28.1808 31.51 28.3376 31.5254 28.3561C31.7523 28.6336 31.4089 28.3256 31.3377 28.2635C31.0758 28.0351 31.3472 28.343 31.1719 28.1906C30.9979 28.0394 30.7831 27.7721 30.7522 27.8092C30.8961 27.9722 31.3225 28.3481 31.3617 28.4389C31.5101 28.7823 31.0135 28.6494 30.9025 28.6951C30.7916 28.7406 30.7947 28.7942 30.6937 28.7843C30.5111 28.7663 30.8388 29.0337 30.924 29.221C31.0089 29.4085 30.3016 28.6513 30.1368 28.5013C29.9722 28.3512 30.1263 28.521 30.0308 28.4435C29.9354 28.366 29.8478 28.2396 29.7942 28.2282C29.7407 28.2168 29.9629 28.5545 30.12 28.7265C30.4529 29.091 30.8449 29.431 30.6604 29.3583C30.6496 29.3538 30.4675 29.1509 30.4357 29.1437C30.1898 29.0931 30.0792 29.1854 29.8506 29.1518C29.8188 29.1469 29.6166 28.9207 29.5957 28.9155C29.3774 28.8598 29.7677 29.1919 30.1243 29.6376C29.6004 29.0937 29.2491 28.7917 29.1842 28.8502C29.1451 28.8852 29.3846 29.112 29.525 29.3004C29.5674 29.3571 29.381 29.2232 29.4859 29.3377C29.8287 29.7118 30.2547 30.0884 30.0313 29.9922C30.0209 29.9874 29.8336 29.7823 29.8121 29.7801C29.6719 29.7646 30.0394 30.147 30.0175 30.2598C30.0003 30.3483 29.6777 30.2136 29.5804 30.2365C28.9814 29.635 29.062 29.8292 29.4529 30.2662C29.3969 30.2882 29.3781 30.3538 29.2832 30.3343C29.2507 30.3278 29.0854 30.1455 29.065 30.1283C28.7453 29.8588 29.131 30.2785 29.1384 30.3027C29.2005 30.5474 28.821 30.3166 29.0321 30.702C29.0397 30.7159 29.4517 31.1379 29.124 30.8567C29.1015 30.8372 28.9405 30.6187 28.8849 30.645C28.8292 30.6713 28.5283 30.5251 28.6647 30.7752C28.6974 30.8355 29.0011 31.2088 28.7086 30.9723C28.669 30.9401 28.5535 30.8165 28.4815 30.7553C28.2521 30.5606 28.6641 30.9916 28.2856 30.654C27.9071 30.3164 27.5965 30.0907 27.7861 30.3952C27.7915 30.4042 28.1119 30.7518 28.0886 30.7646C28.0511 30.7847 27.9406 30.756 27.9127 30.7882C27.8994 30.8038 28.1161 31.002 28.1174 31.0083C28.1367 31.2214 27.8829 31.1054 27.6989 31.1289C27.6647 31.1328 27.8929 31.4704 27.6325 31.2836C27.3472 31.0792 26.3705 30.0193 26.5201 30.3549C26.5797 30.4894 27.8241 31.8288 27.0874 31.2268C27.1226 31.5233 26.6592 31.3016 26.765 31.6694C26.7696 31.6858 27.1116 32.065 27.0928 32.0739C27.0643 32.0865 26.8845 31.9293 26.8587 31.9329C26.7464 31.9436 26.8343 32.1441 26.7525 32.181C26.7219 32.1954 26.5555 32.0132 26.5189 32.0304C26.4825 32.0476 26.694 32.295 26.5468 32.2206C26.4349 32.1636 25.9384 31.722 25.8473 31.7038C26.3085 32.1678 26.2739 32.1834 26.3515 32.35C26.3667 32.3822 26.5369 32.5341 26.5523 32.5576C26.6188 32.6571 26.4701 32.5389 26.5448 32.6449C26.5627 32.6704 26.7205 32.8286 26.7441 32.8583C26.9503 33.1174 26.5513 32.8056 26.482 32.7512C26.2183 32.5449 26.4104 32.7638 26.2958 32.6933C26.1813 32.6227 26.0985 32.4742 26.0167 32.4437C25.8474 32.3808 25.8046 32.4746 25.7433 32.5214C25.7198 32.541 25.9454 32.7372 25.9469 32.7449C25.9558 32.843 25.6864 32.6637 26.0818 33.1085C24.9648 32.0533 26.1603 33.2407 25.8791 33.087C25.8565 33.0744 25.3365 32.5672 25.2804 32.4725C25.2243 32.3779 25.4141 32.5093 25.3233 32.365C25.302 32.3311 24.857 31.8135 24.8328 31.7794C24.6436 31.5128 25.4167 32.2748 25.4609 32.315C25.9391 32.7467 25.4649 32.1838 25.4407 32.1363C25.33 31.9188 25.4833 31.9814 25.4107 31.8195C25.3642 31.7146 24.8643 31.209 24.9026 31.2014C25.0297 31.1761 25.7577 31.8508 25.2213 31.1709C25.107 31.0258 24.5422 30.4915 25.0295 30.8684C25.0602 30.8922 25.4965 31.2465 25.2701 30.9728C25.2416 30.9383 25.0813 30.7783 25.0718 30.7609C25.0111 30.6476 25.1562 30.7577 25.1237 30.6679C25.0912 30.5782 25.0345 30.4527 25.1215 30.4743C25.1737 30.4871 25.4974 30.7602 25.5798 30.8238C25.8169 31.0077 25.5004 30.6341 25.7717 30.8724C26.0445 31.1119 26.4009 31.5334 26.61 31.6552C26.1956 31.2375 25.7722 30.8068 25.3564 30.3857C25.4666 30.3048 25.6952 30.3453 25.7727 30.231C25.7819 30.2164 25.546 30.0049 25.5501 29.9835C25.5684 29.8942 25.7748 30.0067 25.7671 29.8874C25.7602 29.7942 25.5707 29.51 25.5562 29.4052C26.0599 29.8538 25.9652 29.6252 26.0574 29.62C26.0895 29.618 26.2155 29.7463 26.2691 29.7757C26.4683 29.8834 26.0261 29.4841 25.9724 29.4053C25.7436 29.0689 26.7005 30.0167 26.7404 29.9297C26.7429 29.9254 26.2763 29.3767 26.2503 29.3395C26.0801 29.0974 26.433 29.5102 26.493 29.5252C26.6026 29.5527 26.7523 29.6454 26.6518 29.4485C26.6219 29.3904 26.3392 29.0403 26.6112 29.2578C26.6468 29.2862 26.8126 29.456 26.8253 29.463C27.0414 29.5745 26.5156 29.0459 26.3669 28.8374C26.2183 28.629 26.6284 28.9468 26.7427 29.0423C27.0386 29.2891 26.8398 29.1771 26.8651 29.2051C27.1664 29.5376 27.1455 29.4494 27.198 29.4504C27.7186 29.9637 27.7236 29.8967 27.2503 29.4494C27.1986 29.4007 27.2267 29.4689 27.198 29.4504C26.7133 28.9207 26.6879 28.8162 27.2056 29.2465C27.4481 29.4482 27.6878 29.7265 27.6552 29.5697C27.6406 29.4987 27.2737 29.1536 27.2016 29.0317C27.037 28.7535 27.4428 29.0117 27.4491 28.9008C27.4513 28.8606 27.2358 28.6865 27.2306 28.6522C27.2163 28.5608 27.3965 28.673 27.3603 28.5594C27.3568 28.5488 27.1443 28.3535 27.1537 28.3388C27.2213 28.2238 27.4314 28.275 27.5304 28.1833C27.5781 28.1389 27.5479 27.9441 27.6182 27.919C27.7389 27.8743 28.1372 28.0692 28.1358 27.9265C28.1357 27.8343 27.9216 27.6404 27.8024 27.4817C27.571 27.1742 28.1211 27.5894 28.2049 27.655C28.2076 27.6572 28.2161 27.745 28.3419 27.8285C28.5724 28.0344 28.2054 27.6564 28.2049 27.655C28.2591 27.6973 28.3846 27.6645 28.3613 27.6097C28.3486 27.5799 28.1505 27.3914 28.1475 27.3795C28.0804 27.1006 28.1374 26.9454 28.3351 26.9284C28.3409 26.9304 28.5543 27.1495 28.5652 27.1515C28.7235 27.1855 28.4988 26.8812 28.3931 26.6729C28.2874 26.4647 28.3806 26.4766 28.7821 26.8174C28.7741 26.7319 28.9937 26.8405 29.1252 26.9081C29.2566 26.9758 28.8403 26.5505 28.8348 26.5393C28.6561 26.1854 28.9477 26.3756 29.0761 26.3222C29.1379 26.2975 29.1626 26.1507 29.1634 26.0579C29.1633 25.9838 29.2842 26.0602 29.2552 25.963C29.2514 25.95 29.0594 25.7673 29.0535 25.7586C28.8674 25.4964 29.3072 25.9728 29.3969 26.0467C29.7228 26.3158 29.8989 26.4566 29.8076 26.268C29.7868 26.2247 29.16 25.5324 29.1419 25.4733C29.1196 25.3977 29.346 25.6442 29.3166 25.5591C29.3143 25.552 29.1679 25.4066 29.1916 25.3958C29.2994 25.3439 29.4713 25.3417 29.5397 25.244C29.5496 25.2313 29.3038 25.0145 29.3143 24.9922C29.3637 24.8879 29.4565 24.8122 29.6397 24.8456C29.6855 24.8545 29.836 25.0281 29.8881 25.0722C30.2036 25.3386 29.8157 24.8809 29.8133 24.8671C29.7473 24.5268 30.2349 24.8045 30.1925 24.4825C30.1894 24.4642 29.7947 23.9524 30.2096 24.315C30.2372 24.3391 30.6608 24.711 30.4117 24.4162C30.3961 24.3978 30.1752 24.2091 30.2242 24.2019C30.2732 24.1946 30.1817 24.0126 30.4453 24.1989C30.5284 24.2576 30.954 24.6254 30.6743 24.2727C30.6546 24.2482 29.9958 23.4768 30.5093 23.95C30.5938 24.028 31.1125 24.5535 30.8883 24.2423C30.8447 24.1821 30.7132 24.0807 30.6624 23.9861C30.5839 23.8404 30.7682 23.9357 30.5769 23.6619C30.543 23.6135 30.2192 23.2284 30.5128 23.4728C30.5588 23.5111 30.7258 23.6927 30.7583 23.6993C30.9136 23.7311 30.8616 23.5498 31.0449 23.6077C31.1095 23.6279 31.3799 23.9211 31.4786 23.9734C31.5773 24.0258 31.6965 24.0518 31.592 23.8988C31.4874 23.7457 31.0118 23.3231 31.0121 23.2508C31.0138 22.9369 31.4336 23.0441 31.6297 22.9251C31.6588 22.9075 31.4788 22.7661 31.5101 22.7286C31.6252 22.5897 31.6937 22.2198 32.1453 22.4511C32.5071 22.6364 32.6043 22.9557 32.783 22.9995C32.8687 23.0201 32.3817 22.4627 32.3732 22.4384C32.2829 22.1947 32.5676 22.3726 32.5657 22.2326C32.5653 22.2036 32.3396 22.0059 32.3416 21.9836C32.3464 21.9054 32.4844 21.9563 32.5068 21.8994C32.5163 21.8734 32.3514 21.715 32.3802 21.7111C32.4474 21.7 32.5499 21.7333 32.7396 21.8466C32.7569 21.8569 32.9345 22.0815 32.9709 22.06C33.0293 22.0246 33.237 22.1159 33.1366 21.9076C33.1061 21.8452 32.7374 21.4752 33.0269 21.6959C33.0874 21.742 33.5218 22.1947 33.1785 21.7714C33.1216 21.701 32.6719 21.1167 33.0382 21.4169C33.1346 21.4959 33.5198 21.8366 33.482 21.7603C33.4755 21.7486 33.2667 21.5607 33.2633 21.5254C33.2547 21.4044 33.3348 21.3667 33.3304 21.2468C33.3288 21.2144 33.1005 21.032 33.1047 20.9903C33.116 20.8752 33.2472 20.8486 33.3732 20.8511C33.4201 20.8524 33.5744 21.0382 33.5946 21.055C33.9223 21.3295 33.5317 20.9073 33.5169 20.8748C33.43 20.6779 33.6628 20.8269 33.663 20.7256C33.6636 20.6982 33.4599 20.5144 33.4454 20.4943C33.3055 20.2966 33.6319 20.6661 33.6886 20.6862C33.8484 20.7435 33.89 20.6708 33.917 20.5943C33.9267 20.5658 33.6806 20.3626 33.6919 20.3397C33.7543 20.1998 33.8809 20.1162 34.1034 20.1414C34.1457 20.1466 34.307 20.3313 34.3504 20.3669C34.6535 20.6167 34.3156 20.2005 34.2886 20.1556C34.1655 19.9506 34.3344 20.0877 34.342 20.0231C34.3764 19.7043 34.6957 19.5877 34.9249 19.4837C35.2226 19.3471 35.5557 19.3432 35.72 19.0934C35.7307 19.0777 35.4872 18.8609 35.4935 18.8444C35.5845 18.6425 35.8186 18.5882 35.8989 18.375C35.9059 18.3579 35.6703 18.157 35.6742 18.1223C35.6807 18.0494 35.7428 18.0111 35.8525 18.0406C35.9056 18.0547 36.0666 18.2681 36.1163 18.2784C36.2323 18.3028 36.297 18.2692 36.3091 18.1871C36.3137 18.1517 36.0604 17.9588 36.0838 17.9302C36.2391 17.7307 36.3748 17.5181 36.843 17.6278C36.8751 17.6353 37.3394 18.0781 37.2786 17.965C37.1547 17.8372 37.0065 17.6892 36.8729 17.5538C37.0586 17.2232 37.4714 17.1248 37.7546 16.8902C37.7665 16.8803 37.5073 16.6588 37.5291 16.6383C37.655 16.5196 37.7072 16.3342 38.0712 16.4479C38.107 16.4589 38.5233 16.888 38.496 16.7875C38.4908 16.7694 38.4895 16.6579 38.412 16.5519C38.4001 16.5361 38.1927 16.3488 38.2047 16.3253C38.2779 16.1922 38.4311 16.1291 38.6547 16.1466C38.6911 16.1498 38.8836 16.3777 38.9114 16.3818C39.1069 16.4093 39.0385 16.1582 39.3096 16.2688C39.4917 16.3435 39.8351 16.7266 40.2212 17.0556C40.2757 17.102 40.3169 17.0767 40.5267 17.283C41.0542 17.8017 41.6108 18.3906 42.175 18.9416C42.2965 19.0603 42.2117 18.8864 42.4755 19.203C42.4931 19.2242 42.5571 19.3528 42.6476 19.4592C42.7102 19.5329 42.9317 19.7344 43.0075 19.8329C43.0833 19.9312 42.8935 19.7663 42.9772 19.8874C43.0621 20.0098 43.311 20.2422 43.3021 20.3081ZM29.714 27.2094C29.9456 27.3819 29.2098 26.6373 29.3549 26.8464C29.3628 26.8574 29.7025 27.201 29.714 27.2094ZM26.253 30.9042C26.6181 31.192 26.1645 30.6855 25.8851 30.4606C25.6059 30.236 26.1422 30.817 26.253 30.9042ZM26.0905 31.5434C26.3931 31.7557 25.3505 30.6989 25.5143 30.9595C25.5235 30.9743 26.0729 31.5311 26.0905 31.5434ZM40.1906 17.2898C40.2008 17.2992 40.2343 17.2849 40.2252 17.2746C40.0028 17.0268 39.936 17.0556 40.1906 17.2898ZM25.9522 32.2007C26.1083 32.3286 25.985 32.1241 25.7909 31.9651C25.6347 31.8371 25.758 32.0417 25.9522 32.2007ZM32.0466 26.4568C32.0581 26.4673 32.0851 26.4601 32.0224 26.3981C31.8204 26.1985 31.8533 26.279 32.0466 26.4568ZM25.2881 32.8889C25.4275 32.8286 26.3552 33.6351 26.1485 33.646C26.1111 33.648 25.9145 33.3271 25.8112 33.274C25.6229 33.1774 26.1369 33.7523 25.7983 33.5074C25.7365 33.4625 25.2782 32.8905 25.2871 32.8876C25.2874 32.888 25.2878 32.8885 25.2881 32.8889ZM30.6201 28.0814C30.6305 28.0906 30.6635 28.0762 30.6543 28.0659C30.4322 27.818 30.3656 27.847 30.6201 28.0814ZM33.5046 25.9141C33.5268 25.9336 33.6014 25.8981 33.584 25.8771C33.2284 25.464 33.0765 25.5348 33.5046 25.9141ZM29.5634 30.2215C29.7739 30.4838 29.7708 30.5426 29.4533 30.2663C29.4948 30.2564 29.523 30.2328 29.5634 30.2215Z" fill="#B59652"/>
</g>
<defs>
<filter id="filter0_g_114_411" x="0" y="0" width="45.3027" height="35.646" filterUnits="userSpaceOnUse" color-interpolation-filters="sRGB">
<feFlood flood-opacity="0" result="BackgroundImageFix"/>
<feBlend mode="normal" in="SourceGraphic" in2="BackgroundImageFix" result="shape"/>
<feTurbulence type="fractalNoise" baseFrequency="0.5 0.5" numOctaves="3" seed="5566" />
<feDisplacementMap in="shape" scale="4" xChannelSelector="R" yChannelSelector="G" result="displacedImage" width="100%" height="100%" />
<feMerge result="effect1_texture_114_411">
<feMergeNode in="displacedImage"/>
</feMerge>
</filter>
</defs>
</svg>
