<svg width="37" height="37" viewBox="0 0 37 37" fill="none" xmlns="http://www.w3.org/2000/svg">
<rect width="36.6588" height="36.4764" rx="8" fill="#070707"/>
<g clip-path="url(#clip0_114_732)">
<path d="M28.8899 23.7091L25.3673 27.4638C25.2908 27.5454 25.1981 27.6104 25.0952 27.6548C24.9922 27.6993 24.8812 27.7222 24.7689 27.7221H8.07008C7.9904 27.7221 7.91246 27.699 7.84583 27.6555C7.7792 27.6121 7.72678 27.5503 7.69502 27.4777C7.66327 27.4051 7.65354 27.3248 7.66706 27.2467C7.68057 27.1687 7.71673 27.0963 7.77108 27.0384L11.2963 23.2837C11.3727 23.2023 11.465 23.1374 11.5677 23.093C11.6703 23.0486 11.781 23.0255 11.8929 23.0254H28.5909C28.6705 23.0254 28.7485 23.0485 28.8151 23.0919C28.8817 23.1353 28.9342 23.1972 28.9659 23.2698C28.9977 23.3424 29.0074 23.4227 28.9939 23.5007C28.9804 23.5788 28.9442 23.6512 28.8899 23.7091ZM25.3673 16.1482C25.2908 16.0666 25.1981 16.0016 25.0952 15.9571C24.9922 15.9127 24.8812 15.8898 24.7689 15.8899H8.07008C7.9904 15.8899 7.91246 15.913 7.84583 15.9564C7.7792 15.9999 7.72678 16.0617 7.69502 16.1343C7.66327 16.2069 7.65354 16.2872 7.66706 16.3653C7.68057 16.4433 7.71673 16.5157 7.77108 16.5736L11.2963 20.3283C11.3727 20.4097 11.465 20.4745 11.5677 20.519C11.6703 20.5634 11.781 20.5865 11.8929 20.5866H28.5909C28.6705 20.5866 28.7485 20.5635 28.8151 20.5201C28.8817 20.4767 28.9342 20.4148 28.9659 20.3422C28.9977 20.2696 29.0074 20.1893 28.9939 20.1113C28.9804 20.0332 28.9442 19.9608 28.8899 19.9029L25.3673 16.1482ZM8.07008 13.4512H24.7689C24.8812 13.4512 24.9922 13.4283 25.0952 13.3839C25.1981 13.3394 25.2908 13.2744 25.3673 13.1928L28.8899 9.43814C28.9442 9.38024 28.9804 9.30782 28.9939 9.22977C29.0074 9.15173 28.9977 9.07146 28.9659 8.99884C28.9342 8.92621 28.8817 8.86439 28.8151 8.82096C28.7485 8.77753 28.6705 8.7544 28.5909 8.75439H11.8929C11.781 8.75458 11.6703 8.77761 11.5677 8.82204C11.465 8.86648 11.3727 8.93137 11.2963 9.01272L7.77199 12.7674C7.71769 12.8253 7.68155 12.8976 7.668 12.9756C7.65446 13.0535 7.6641 13.1337 7.69575 13.2063C7.7274 13.2789 7.77967 13.3407 7.84617 13.3842C7.91266 13.4277 7.99048 13.451 8.07008 13.4512Z" fill="url(#paint0_linear_114_732)"/>
</g>
<defs>
<linearGradient id="paint0_linear_114_732" x1="9.46237" y1="28.1742" x2="26.8535" y2="8.44846" gradientUnits="userSpaceOnUse">
<stop offset="0.08" stop-color="#9945FF"/>
<stop offset="0.3" stop-color="#8752F3"/>
<stop offset="0.5" stop-color="#5497D5"/>
<stop offset="0.6" stop-color="#43B4CA"/>
<stop offset="0.72" stop-color="#28E0B9"/>
<stop offset="0.97" stop-color="#19FB9B"/>
</linearGradient>
<clipPath id="clip0_114_732">
<rect width="21.3387" height="18.9677" fill="white" transform="translate(7.66016 8.75427)"/>
</clipPath>
</defs>
</svg>
