<svg width="22" height="19" viewBox="0 0 22 19" fill="none" xmlns="http://www.w3.org/2000/svg">
<path d="M21.2287 14.9547L17.7062 18.7094C17.6296 18.791 17.537 18.856 17.434 18.9004C17.3311 18.9449 17.22 18.9678 17.1078 18.9677H0.408947C0.329268 18.9677 0.251326 18.9446 0.184696 18.9012C0.118066 18.8577 0.0656514 18.7959 0.0338918 18.7233C0.00213224 18.6507 -0.00758856 18.5704 0.00592374 18.4923C0.019436 18.4143 0.0555929 18.3419 0.109952 18.284L3.63519 14.5293C3.71157 14.4479 3.80392 14.383 3.90655 14.3386C4.00918 14.2942 4.11988 14.2711 4.23182 14.271H20.9297C21.0094 14.271 21.0874 14.2941 21.154 14.3375C21.2206 14.3809 21.273 14.4428 21.3048 14.5154C21.3365 14.588 21.3463 14.6683 21.3328 14.7463C21.3192 14.8244 21.2831 14.8968 21.2287 14.9547ZM17.7062 7.39379C17.6296 7.31223 17.537 7.24721 17.434 7.20275C17.3311 7.15833 17.22 7.13542 17.1078 7.13548H0.408947C0.329268 7.13548 0.251326 7.15862 0.184696 7.20204C0.118066 7.24546 0.0656514 7.30728 0.0338918 7.37992C0.00213224 7.45253 -0.00758856 7.53282 0.00592374 7.61086C0.019436 7.68889 0.0555929 7.76132 0.109952 7.8192L3.63519 11.5739C3.71157 11.6553 3.80392 11.7202 3.90655 11.7646C4.00918 11.809 4.11988 11.8321 4.23182 11.8322H20.9297C21.0094 11.8322 21.0874 11.8091 21.154 11.7657C21.2206 11.7223 21.273 11.6604 21.3048 11.5878C21.3365 11.5152 21.3463 11.4349 21.3328 11.3569C21.3192 11.2788 21.2831 11.2064 21.2287 11.1485L17.7062 7.39379ZM0.408947 4.69676H17.1078C17.22 4.69682 17.3311 4.67391 17.434 4.62949C17.537 4.58503 17.6296 4.52001 17.7062 4.43845L21.2287 0.683742C21.2831 0.625843 21.3192 0.553422 21.3328 0.475378C21.3463 0.397335 21.3365 0.317069 21.3048 0.244442C21.273 0.171815 21.2206 0.109991 21.154 0.0665642C21.0874 0.0231383 21.0094 2.67433e-06 20.9297 0H4.23182C4.11988 0.000189332 4.00918 0.0232137 3.90655 0.0676475C3.80392 0.112081 3.71157 0.176979 3.63519 0.258322L0.11086 4.01304C0.056554 4.07086 0.0204133 4.1432 0.00687032 4.22118C-0.00667263 4.29912 0.00297103 4.37932 0.0346188 4.4519C0.0662661 4.52451 0.118542 4.58634 0.185035 4.62984C0.251527 4.67332 0.329348 4.69658 0.408947 4.69676Z" fill="url(#paint0_linear_8_6043)"/>
<defs>
<linearGradient id="paint0_linear_8_6043" x1="1.80123" y1="19.4198" x2="19.1924" y2="-0.305938" gradientUnits="userSpaceOnUse">
<stop offset="0.08" stop-color="#9945FF"/>
<stop offset="0.3" stop-color="#8752F3"/>
<stop offset="0.5" stop-color="#5497D5"/>
<stop offset="0.6" stop-color="#43B4CA"/>
<stop offset="0.72" stop-color="#28E0B9"/>
<stop offset="0.97" stop-color="#19FB9B"/>
</linearGradient>
</defs>
</svg>
