<svg width="25" height="23" viewBox="0 0 25 23" fill="none" xmlns="http://www.w3.org/2000/svg">
<path d="M24.8712 18.1338L20.7443 22.6868C20.6545 22.7857 20.546 22.8645 20.4254 22.9184C20.3048 22.9723 20.1747 23.0001 20.0431 23H0.479115C0.385764 23 0.294449 22.9719 0.216386 22.9193C0.138324 22.8666 0.076916 22.7917 0.0397069 22.7036C0.0024981 22.6155 -0.00889062 22.5182 0.00694014 22.4236C0.0227709 22.3289 0.0651316 22.2411 0.128817 22.1709L4.25892 17.618C4.3484 17.5194 4.4566 17.4407 4.57684 17.3868C4.69708 17.3329 4.82677 17.305 4.95792 17.3048H24.5209C24.6142 17.3048 24.7056 17.3328 24.7836 17.3855C24.8617 17.4381 24.9231 17.5131 24.9603 17.6012C24.9975 17.6892 25.0089 17.7866 24.9931 17.8812C24.9772 17.9758 24.9349 18.0637 24.8712 18.1338ZM20.7443 8.96562C20.6545 8.86672 20.546 8.78787 20.4254 8.73396C20.3048 8.68009 20.1747 8.65231 20.0431 8.65238H0.479115C0.385764 8.65238 0.294449 8.68045 0.216386 8.7331C0.138324 8.78575 0.076916 8.86071 0.0397069 8.9488C0.0024981 9.03684 -0.00889062 9.1342 0.00694014 9.22882C0.0227709 9.32345 0.0651316 9.41128 0.128817 9.48146L4.25892 14.0344C4.3484 14.133 4.4566 14.2117 4.57684 14.2656C4.69708 14.3195 4.82677 14.3474 4.95792 14.3476H24.5209C24.6142 14.3476 24.7056 14.3195 24.7836 14.2669C24.8617 14.2143 24.9231 14.1393 24.9603 14.0512C24.9975 13.9632 25.0089 13.8658 24.9931 13.7712C24.9772 13.6766 24.9349 13.5887 24.8712 13.5185L20.7443 8.96562ZM0.479115 5.69523H20.0431C20.1747 5.6953 20.3048 5.66752 20.4254 5.61365C20.546 5.55975 20.6545 5.4809 20.7443 5.382L24.8712 0.829096C24.9349 0.758889 24.9772 0.671072 24.9931 0.576437C25.0089 0.481803 24.9975 0.384474 24.9603 0.296407C24.9231 0.208341 24.8617 0.133373 24.7836 0.0807149C24.7056 0.0280572 24.6142 3.24285e-06 24.5209 0H4.95792C4.82677 0.000229581 4.69708 0.0281486 4.57684 0.0820284C4.4566 0.135908 4.3484 0.214602 4.25892 0.313238L0.129882 4.86615C0.0662576 4.93627 0.0239158 5.02399 0.00804914 5.11854C-0.00781753 5.21306 0.00348081 5.3103 0.0405587 5.39832C0.0776361 5.48636 0.138882 5.56133 0.216783 5.61408C0.294685 5.6668 0.385858 5.69502 0.479115 5.69523Z" fill="url(#paint0_linear_8_5236)"/>
<defs>
<linearGradient id="paint0_linear_8_5236" x1="2.11029" y1="23.5482" x2="23.2773" y2="0.351602" gradientUnits="userSpaceOnUse">
<stop offset="0.08" stop-color="#9945FF"/>
<stop offset="0.3" stop-color="#8752F3"/>
<stop offset="0.5" stop-color="#5497D5"/>
<stop offset="0.6" stop-color="#43B4CA"/>
<stop offset="0.72" stop-color="#28E0B9"/>
<stop offset="0.97" stop-color="#19FB9B"/>
</linearGradient>
</defs>
</svg>
