<svg width="34" height="17" viewBox="0 0 34 17" fill="none" xmlns="http://www.w3.org/2000/svg">
<g filter="url(#filter0_g_8_5325)">
<path d="M2.34124 2.03285C2.542 1.94409 2.80431 2.04834 2.9934 2.18938C3.05329 2.23314 3.01516 2.41737 3.05585 2.45598C3.13534 2.53129 3.21587 2.44371 3.29198 2.53334C3.31715 2.56396 3.2702 2.85593 3.29669 2.88131C3.44138 3.01831 3.58922 2.95157 3.73695 3.02346C4.46725 3.37857 5.17212 3.55953 5.89126 3.78858C6.12856 3.86385 6.38231 4.16945 6.64712 4.09255C6.67822 4.08332 6.70051 3.82574 6.7093 3.80559C6.84684 3.49763 6.73754 4.00764 6.78295 4.08486C6.96356 4.39005 7.20396 4.45491 7.43528 4.39543C7.5339 4.36943 7.53386 3.84872 7.57471 4.14845C7.57758 4.16873 7.5053 4.43398 7.52496 4.46727C7.56951 4.54217 7.68516 4.51395 7.72482 4.5436C7.80081 4.60203 7.81514 4.60199 7.89395 4.62051C8.00143 4.64824 8.10308 4.8075 8.23134 4.77066C8.25899 4.76202 8.28294 4.48021 8.33249 4.44169C8.38208 4.40321 8.48312 4.44885 8.50479 4.52122C8.5265 4.5936 8.46502 4.80615 8.46067 4.85695C8.42165 5.28522 8.66713 4.73357 8.68658 4.72295C9.0264 4.54296 9.1956 4.92892 9.4598 4.99367C9.66118 5.04231 9.90489 4.99097 10.0933 5.0582C10.3173 5.13933 10.4684 5.34079 10.6952 5.38133C10.7191 5.38595 10.7866 5.06151 10.8163 5.06662C11.1334 5.12181 11.4286 5.25432 11.6569 5.56854C11.6797 5.60032 11.5466 5.86109 11.5634 5.90913C11.6709 6.1977 11.7443 6.83375 12.2977 5.69409C12.4047 5.78705 12.5399 5.89451 12.5538 6.17436C12.5627 6.35451 12.3762 6.61968 12.5125 6.52961C12.5433 6.50972 12.6224 6.2433 12.6609 6.23301C12.8244 6.19048 12.9213 6.32897 13.1023 6.25214C13.1393 6.23585 13.2319 6.0059 13.257 5.96819C13.4642 5.66431 13.3224 6.25544 13.3247 6.30421C13.3545 6.67321 13.5238 6.61223 13.6713 6.69312C13.7057 6.7122 13.8105 6.39282 13.8494 6.40075C14.049 6.44583 14.2228 6.56815 14.3233 6.7916C14.345 6.84186 14.1739 7.07139 14.1769 7.10797C14.1804 7.14672 14.1995 7.14824 14.2269 7.13071L14.1046 7.07222C14.1782 7.00713 14.3078 6.75381 14.33 6.85705C14.3365 6.88526 14.2365 7.10664 14.2293 7.13248C14.1156 7.53796 14.3769 7.00412 14.3931 6.99661C14.6037 6.88915 14.4609 7.49945 14.6313 7.47441C14.6519 7.47086 14.7311 7.17141 14.7821 7.17881C15.1228 7.22658 15.4156 7.43835 15.6257 7.79066C15.6585 7.84507 15.5368 8.04446 15.529 8.07198C15.408 8.50277 15.6662 7.96519 15.6901 7.95081C15.8729 7.85161 15.7958 8.35996 16.1487 7.73838C16.5685 8.17784 17.2285 8.01934 17.4959 8.81461C17.4996 8.82405 17.3773 9.09086 17.3851 9.10854C17.4782 9.32432 17.6207 8.89023 17.9331 8.4155C18.0115 8.29629 17.8368 8.9517 17.8253 9.00026C17.7824 9.17901 17.5921 9.57263 17.5874 9.6087C17.5542 9.89352 18.0843 8.55162 18.179 8.58942C18.181 8.59285 18.069 8.83401 18.0671 8.86171C18.0608 8.94857 18.1248 8.86063 18.1148 8.95516C18.0909 9.17362 17.8488 9.83194 18.086 9.48758C18.1165 9.44275 18.4057 8.67698 18.4755 8.74667C18.5028 8.77504 18.6575 8.82187 18.6794 8.88773C18.7015 8.95357 18.5751 9.18709 18.5738 9.19887C18.5573 9.56775 18.4611 9.68496 18.327 10.1873C18.1938 10.6879 18.6311 9.54153 18.7046 9.42339C18.778 9.30563 18.7549 9.60599 18.7386 9.70709C18.7222 9.80821 18.6351 9.95397 18.6324 10.0138C18.6172 10.4056 18.909 9.46833 19.0199 9.30277C19.2815 8.91036 19.0203 9.78519 19.0742 9.90198C19.0886 9.93347 19.1451 9.73309 19.1728 9.72309C19.2812 9.68597 19.2274 9.9697 19.4141 9.7629C19.4447 9.72926 19.7163 9.24785 19.6203 9.64107C19.6064 9.69773 19.5053 9.90174 19.5219 9.96256C19.5466 10.0538 19.6228 10.136 19.7056 10.0865C19.7668 10.0499 19.8528 9.68285 19.8631 9.81096C19.8676 9.86813 19.7472 10.0561 19.7623 10.1465C19.7773 10.2369 19.892 10.2701 19.9367 10.2789C19.9814 10.2875 20.0583 10.0136 20.0684 9.99704C20.1275 9.90246 20.2555 9.80455 20.2624 9.80748C20.6307 9.90849 20.7972 10.4777 21.2023 10.4526C21.2337 10.4509 21.3145 10.1626 21.3203 10.1594C21.455 10.074 21.1184 10.7979 21.0969 11.0721C21.2874 10.4963 21.2895 10.6134 21.3781 10.5737C21.4209 10.5541 21.4801 10.3261 21.4909 10.3045C21.6547 9.98373 21.5372 10.4304 21.5153 10.5225C21.4343 10.8612 21.6013 10.4855 21.5477 10.712C21.4951 10.937 21.3352 11.2428 21.4012 11.2606C21.489 11.0612 21.6245 10.5081 21.7022 10.4374C21.9943 10.1698 22.1913 10.7029 22.3263 10.7939C22.4583 10.8843 22.5184 10.8608 22.5812 10.9623C22.6948 11.1455 22.761 10.7256 22.9107 10.5695C23.0608 10.4134 22.7192 11.392 22.6695 11.6096C22.6202 11.827 22.7007 11.612 22.6834 11.7345C22.6663 11.8569 22.5853 11.9908 22.6138 12.0471C22.6427 12.1035 22.8659 11.7561 22.944 11.5363C23.1102 11.071 23.2044 10.5596 23.2577 10.764C23.2609 10.7761 23.1667 11.0324 23.1825 11.0655C23.3112 11.3199 23.4998 11.3845 23.6412 11.612C23.6605 11.6437 23.5624 11.9313 23.573 11.9531C23.6834 12.1809 23.7539 11.6718 23.9732 11.1416C23.774 11.8701 23.7125 12.331 23.8352 12.3647C23.9085 12.385 23.9703 12.0607 24.0699 11.8452C24.0996 11.7801 24.101 12.0127 24.1445 11.8635C24.2861 11.3756 24.3638 10.8117 24.4323 11.0582C24.4352 11.0698 24.3593 11.3373 24.3738 11.3577C24.4676 11.4905 24.5929 10.9751 24.7279 10.9369C24.8322 10.9066 24.9456 11.2568 25.0491 11.3275C24.9032 12.1639 25.0506 11.9914 25.1844 11.4197C25.2544 11.455 25.3366 11.4336 25.3957 11.5232C25.4166 11.5539 25.3676 11.7953 25.3671 11.822C25.3617 12.2417 25.4691 11.6812 25.487 11.661C25.5559 11.5943 25.61 11.6028 25.6611 11.6261L25.6364 11.624C25.7408 11.6646 25.8387 11.7608 25.9667 11.4909C25.9738 11.476 26.0155 10.8878 26.0377 11.3201C26.0391 11.3499 25.9681 11.6148 26.0477 11.6398C26.1273 11.6649 26.2662 11.9883 26.3914 11.7203C26.4217 11.6558 26.5115 11.1806 26.5505 11.5565C26.5557 11.6076 26.5406 11.7762 26.5474 11.8707C26.5697 12.1717 26.6126 11.577 26.6333 12.0845C26.6543 12.5921 26.726 12.9744 26.855 12.6294C26.8591 12.6194 26.9028 12.1482 26.9386 12.1569C26.9958 12.1712 27.0747 12.2722 27.1351 12.271C27.164 12.2703 27.1545 11.9765 27.1597 11.9713C27.3579 11.8128 27.4878 12.0779 27.6933 12.1963C27.7311 12.2185 27.8491 11.821 27.916 12.1387C27.9901 12.4864 27.8781 13.9247 28.0734 13.5853C28.1532 13.4495 28.2783 11.6243 28.3987 12.5729C28.6644 12.3423 28.9017 12.8296 29.1685 12.4971C29.1805 12.4823 29.2226 11.9728 29.25 11.98C29.291 11.9916 29.3117 12.2301 29.341 12.246C29.4642 12.3188 29.5783 12.1156 29.6969 12.148C29.742 12.1598 29.7248 12.4062 29.7787 12.4202C29.8327 12.4341 29.8701 12.1098 29.9422 12.2668C29.9967 12.3865 30.0494 13.05 30.1224 13.1276C30.1277 12.4734 30.1778 12.4871 30.2679 12.3146C30.2852 12.2812 30.2675 12.0534 30.2757 12.0259C30.309 11.9086 30.339 12.0974 30.3707 11.9697C30.3784 11.9391 30.3794 11.7157 30.3857 11.678C30.4396 11.3491 30.5255 11.8519 30.5403 11.9394C30.5971 12.2719 30.6246 11.9813 30.6685 12.1123C30.7124 12.2432 30.6461 12.4067 30.6975 12.4862C30.8038 12.6506 30.9413 12.6147 31.0497 12.6251C31.093 12.6278 31.0637 12.3295 31.0699 12.323C31.1595 12.2475 31.2496 12.5648 31.2996 11.9707C31.361 13.5068 31.3535 11.8217 31.4812 12.1293C31.4912 12.1541 31.5039 12.8805 31.4651 12.9872C31.4264 13.0937 31.3679 12.8666 31.3141 13.0328C31.3014 13.0718 31.2281 13.7525 31.2181 13.7937C31.14 14.1159 31.1298 13.0304 31.1257 12.9708C31.0795 12.3273 30.9898 13.0605 30.9663 13.1112C30.8589 13.3432 30.7676 13.1904 30.6777 13.356C30.6186 13.463 30.6114 14.174 30.5652 14.1522C30.4115 14.0799 30.3608 13.0878 30.2132 13.9474C30.1815 14.1307 30.2095 14.908 30.1002 14.2965C30.0933 14.2579 30.0128 13.6986 29.9634 14.052C29.9571 14.0965 29.9563 14.323 29.9483 14.342C29.8944 14.4648 29.8601 14.2842 29.8015 14.3703C29.7429 14.4564 29.6723 14.5849 29.6065 14.5076C29.5666 14.4615 29.5181 14.0392 29.4998 13.9357C29.448 13.6377 29.3867 14.1253 29.3559 13.7646C29.3251 13.4022 29.3949 12.8526 29.309 12.6179C29.301 13.2063 29.2886 13.8102 29.2785 14.4019C29.0841 14.3796 28.8947 14.1874 28.699 14.211C28.6747 14.2145 28.6955 14.5311 28.6693 14.543C28.5591 14.5919 28.4656 14.3651 28.3504 14.4531C28.2607 14.5224 28.1584 14.8557 28.0633 14.9384C28.019 14.2642 27.8771 14.49 27.7785 14.4264C27.744 14.4044 27.7501 14.2246 27.7264 14.1654C27.6374 13.9464 27.6679 14.5422 27.6399 14.6352C27.5196 15.0322 27.5418 13.6855 27.4121 13.7155C27.4056 13.7166 27.3015 14.432 27.2884 14.4763C27.2058 14.7657 27.283 14.2262 27.2382 14.1719C27.1568 14.0726 27.1026 13.8994 26.9971 14.1065C26.9665 14.1678 26.8809 14.6127 26.8363 14.2648C26.8304 14.2193 26.8427 13.9823 26.8373 13.9682C26.738 13.7329 26.7078 14.4778 26.6358 14.7278C26.5638 14.9778 26.4863 14.4596 26.4733 14.3106C26.438 13.925 26.5191 14.1483 26.5234 14.1108C26.5738 13.6643 26.501 13.7386 26.4497 13.6985C26.4728 12.9678 26.3976 13.0085 26.3963 13.6599C26.3964 13.7311 26.4406 13.6647 26.4497 13.6985C26.3738 14.4133 26.2842 14.5014 26.2251 13.8276C26.1972 13.5118 26.2541 13.1479 26.1205 13.2756C26.0599 13.3331 26.0574 13.837 25.9983 13.9715C25.863 14.2781 25.734 13.8007 25.6074 13.8671C25.5611 13.8912 25.5879 14.1689 25.5555 14.1948C25.5254 14.2191 25.4987 14.2092 25.473 14.1903L25.3862 14.1828C25.3333 14.1448 25.2864 14.0756 25.2186 14.1367C25.209 14.1456 25.1947 14.4345 25.1651 14.4345C24.936 14.4398 24.7779 14.2294 24.5599 14.1874C24.4562 14.1677 24.2358 14.2889 24.1356 14.2364C23.9559 14.1466 23.8237 13.6888 23.6486 13.7531C23.5334 13.7935 23.491 14.0797 23.4025 14.2608C23.2301 14.6118 23.2416 13.9119 23.2489 13.8048C23.2493 13.8013 23.3508 13.7562 23.3408 13.6013C23.3886 13.2952 23.2503 13.8037 23.2489 13.8048C23.2513 13.7352 23.1009 13.6296 23.0538 13.6742C23.0282 13.6987 22.9697 13.9659 22.9576 13.9737C22.6672 14.151 22.4202 14.1551 22.2292 13.967C22.2268 13.9606 22.3175 13.6685 22.3108 13.657C22.2203 13.4894 22.0316 13.8235 21.8603 14.0039C21.6898 14.1844 21.6246 14.0866 21.7175 13.5659C21.6173 13.6041 21.5744 13.3473 21.5528 13.1926C21.5314 13.038 21.3407 13.6018 21.3312 13.6112C21.0348 13.9114 21.0383 13.554 20.8712 13.4423C20.791 13.3879 20.5934 13.4119 20.4776 13.4408C20.386 13.4647 20.3867 13.3173 20.2899 13.378C20.2768 13.386 20.1987 13.6394 20.1925 13.6481C20.0116 13.9207 20.2623 13.3221 20.2849 13.2074C20.3676 12.7905 20.4083 12.5673 20.2463 12.7199C20.2093 12.7549 19.8309 13.6103 19.7717 13.647C19.6954 13.6932 19.8283 13.3857 19.7457 13.442C19.7387 13.4465 19.6698 13.641 19.6387 13.6201C19.4925 13.5254 19.362 13.3498 19.1915 13.3086C19.1684 13.3022 19.0834 13.6196 19.048 13.6154C18.8815 13.5949 18.7213 13.5218 18.6283 13.3227C18.6059 13.2728 18.7099 13.0672 18.7262 13.0007C18.8245 12.5978 18.5447 13.131 18.5292 13.1373C18.1589 13.3034 18.1517 12.7201 17.7888 12.8546C17.7689 12.863 17.4212 13.4151 17.5727 12.8838C17.5826 12.8484 17.7398 12.3058 17.5546 12.6461C17.543 12.6673 17.4674 12.9489 17.4242 12.9C17.381 12.8512 17.2229 12.9965 17.2668 12.6715C17.2805 12.5691 17.4336 12.0261 17.1982 12.4136C17.1823 12.4409 16.6981 13.3364 16.9197 12.6735C16.9563 12.5644 17.2379 11.8818 17.0143 12.2C16.9712 12.2617 16.9384 12.426 16.8584 12.5047C16.7353 12.6261 16.7249 12.4086 16.5231 12.6818C16.4876 12.7303 16.2413 13.1713 16.3375 12.7998C16.3526 12.7417 16.459 12.5188 16.4448 12.4833C16.3779 12.3134 16.1934 12.4163 16.1397 12.2102C16.1205 12.1377 16.2924 11.7774 16.2893 11.6608C16.2862 11.5442 16.2376 11.4134 16.1233 11.5634C16.0088 11.7134 15.818 12.3216 15.7304 12.3407C15.3501 12.4234 15.1991 11.9584 14.9267 11.7871C14.8863 11.7616 14.8357 11.9866 14.77 11.9642C14.527 11.8823 14.0399 11.9117 14.0206 11.3815C14.0049 10.9566 14.3223 10.7689 14.2576 10.572C14.226 10.4778 13.88 11.1339 13.8567 11.1495C13.6253 11.3096 13.6513 10.9666 13.4863 11.0074C13.4522 11.0159 13.3643 11.3034 13.3366 11.3076C13.2408 11.3244 13.2112 11.1679 13.1294 11.1608C13.0924 11.1583 13.0119 11.3723 12.9886 11.3438C12.9319 11.2779 12.9053 11.1632 12.916 10.9362C12.917 10.9156 13.0674 10.6698 13.0182 10.6383C12.9383 10.5882 12.9111 10.349 12.7307 10.5114C12.7186 10.5224 12.6993 10.5553 12.6774 10.5957L12.381 10.454C12.2924 10.5851 12.1638 10.8011 12.2631 10.5365C12.2899 10.4653 12.6014 9.92045 12.2883 10.3675C12.2345 10.4407 11.8056 11.0406 11.979 10.6001C12.0246 10.484 12.2266 10.0107 12.1617 10.0684C12.1523 10.078 12.0405 10.3359 12.0057 10.349C11.8855 10.391 11.8144 10.3231 11.6937 10.3633C11.6614 10.3746 11.5702 10.6526 11.5266 10.6615C11.4063 10.686 11.3264 10.5688 11.2711 10.4455C11.251 10.3996 11.3702 10.1892 11.3783 10.1641C11.507 9.75579 11.2544 10.2728 11.2287 10.2983C11.0688 10.4482 11.1101 10.173 11.0043 10.207C10.9756 10.2158 10.8878 10.476 10.8744 10.4969C10.7412 10.7005 10.9583 10.2575 10.9507 10.1959C10.9297 10.0219 10.8311 10.0068 10.7365 10.0082C10.7016 10.0091 10.622 10.3188 10.5926 10.3164C10.4178 10.3084 10.2641 10.2205 10.1626 10.0001C10.1435 9.95801 10.2421 9.73321 10.254 9.67821C10.3366 9.29312 10.0989 9.77564 10.0688 9.81916C9.92853 10.0167 9.97129 9.80296 9.89894 9.82173C9.54764 9.91783 9.22828 9.67281 8.96598 9.50886C8.62593 9.29707 8.38493 8.99658 8.00391 8.97025C7.97983 8.96832 7.93015 9.29089 7.90864 9.29335C7.63538 9.31103 7.40802 9.13221 7.1292 9.17238C7.10654 9.17514 7.0767 9.48382 7.03861 9.49849C6.96012 9.53073 6.87584 9.49726 6.82374 9.38709C6.79813 9.33391 6.89388 9.08258 6.8668 9.03432C6.80365 8.92133 6.71931 8.88341 6.6262 8.91692C6.58657 8.93187 6.58457 9.25213 6.53777 9.24744C6.21767 9.22203 5.90395 9.22621 5.64111 8.77511C5.62313 8.74415 5.6947 8.10644 5.62907 8.22134C5.60044 8.39706 5.57125 8.6044 5.54299 8.79255C5.06512 8.82835 4.63161 8.55345 4.16455 8.4758C4.14494 8.47262 4.14775 8.81413 4.10996 8.80973C3.89133 8.78478 3.67503 8.86201 3.47351 8.51011C3.4534 8.47569 3.50402 7.87982 3.43107 7.96577C3.41811 7.98143 3.31281 8.0549 3.27989 8.18305C3.27533 8.2024 3.2771 8.48201 3.24506 8.48832C3.0566 8.51999 2.86953 8.44769 2.69112 8.27119C2.66245 8.24218 2.7038 7.9462 2.68325 7.92296C2.53465 7.76029 2.36628 7.98257 2.22391 7.71121C2.12786 7.52857 2.16858 7.01529 2.11753 6.5093C2.11018 6.43789 2.04682 6.42636 2.04401 6.13218C2.03644 5.3924 2.07135 4.58245 2.05974 3.7939C2.05718 3.62402 1.96094 3.8069 2.01812 3.3965C2.02205 3.36901 2.09289 3.23295 2.11129 3.09383C2.12408 2.99763 2.10306 2.69833 2.12914 2.57523C2.15548 2.45226 2.1818 2.70322 2.2254 2.55882C2.26936 2.41268 2.2538 2.07206 2.34124 2.03285ZM21.4589 12.501C21.4902 12.2104 21.1541 13.2019 21.2961 12.9849C21.3034 12.9732 21.4575 12.5153 21.4589 12.501ZM28.9043 13.3977C28.8313 12.9351 28.7702 13.6134 28.8212 13.9706C28.8726 14.3274 28.9267 13.5379 28.9043 13.3977ZM29.7162 13.0672C29.6276 12.7026 29.604 14.1869 29.7037 13.8874C29.7095 13.8705 29.7214 13.0883 29.7162 13.0672ZM2.37436 6.36824C2.37379 6.35431 2.32828 6.34003 2.32685 6.3538C2.29778 6.68585 2.3877 6.71415 2.37436 6.36824ZM30.5179 12.7033C30.4901 12.5024 30.4078 12.734 30.4424 12.9838C30.4705 13.1847 30.5526 12.9531 30.5179 12.7033ZM18.8904 10.3788C18.8952 10.3639 18.8682 10.3383 18.8367 10.4206C18.7353 10.6859 18.8095 10.6289 18.8904 10.3788ZM31.8753 12.6873C31.675 12.6314 31.5534 11.4052 31.7717 11.5436C31.8113 11.5686 31.6865 11.9346 31.7368 12.0451C31.8289 12.2466 31.8899 11.4766 31.9839 11.8892C32.001 11.9647 31.8868 12.6932 31.875 12.689C31.8751 12.6884 31.8752 12.6879 31.8753 12.6873ZM21.8179 11.2954C21.8211 11.2819 21.7801 11.2546 21.7747 11.2673C21.6459 11.5747 21.7293 11.6302 21.8179 11.2954ZM17.2702 9.03162C17.2789 9.00333 17.1873 8.93606 17.1736 8.95984C16.9144 9.44099 17.0996 9.57871 17.2702 9.03162ZM25.0471 11.3501C25.1506 11.0286 25.2105 10.9984 25.1843 11.4193C25.1393 11.3897 25.0912 11.3785 25.0471 11.3501Z" fill="#4C422C"/>
</g>
<defs>
<filter id="filter0_g_8_5325" x="0" y="0" width="33.9856" height="16.9384" filterUnits="userSpaceOnUse" color-interpolation-filters="sRGB">
<feFlood flood-opacity="0" result="BackgroundImageFix"/>
<feBlend mode="normal" in="SourceGraphic" in2="BackgroundImageFix" result="shape"/>
<feTurbulence type="fractalNoise" baseFrequency="0.5 0.5" numOctaves="3" seed="5566" />
<feDisplacementMap in="shape" scale="4" xChannelSelector="R" yChannelSelector="G" result="displacedImage" width="100%" height="100%" />
<feMerge result="effect1_texture_8_5325">
<feMergeNode in="displacedImage"/>
</feMerge>
</filter>
</defs>
</svg>
