<svg width="50" height="50" viewBox="0 0 50 50" fill="none" xmlns="http://www.w3.org/2000/svg">
<g filter="url(#filter0_g_8_5296)">
<path d="M47.7969 12.9766C47.585 13.2074 47.2014 13.3212 46.8769 13.3586C46.7763 13.3702 46.7215 13.1869 46.648 13.1876C46.5031 13.19 46.4487 13.3284 46.2996 13.3175C46.2496 13.3132 46.1421 13.0351 46.0931 13.0363C45.8226 13.0469 45.6711 13.2254 45.4358 13.2949C44.274 13.6387 43.247 14.1487 42.2193 14.6871C41.8814 14.8641 41.3491 14.9129 41.1039 15.2386C41.0757 15.2766 41.2505 15.4683 41.2562 15.4905C41.3422 15.8316 41.068 15.3867 40.9557 15.3841C40.5113 15.3746 40.1839 15.5989 39.9859 15.8881C39.9023 16.0117 40.3368 16.3185 40.0446 16.1859C40.0246 16.1772 39.8788 15.9425 39.83 15.9448C39.719 15.9507 39.6206 16.0965 39.554 16.1246C39.4244 16.1777 39.4095 16.1941 39.312 16.274C39.1778 16.3812 38.9333 16.4157 38.8377 16.5865C38.818 16.6234 39.0452 16.7963 39.0314 16.8735C39.0261 16.9035 39.002 16.936 38.9696 16.9639C38.9151 17.0111 38.8398 17.0471 38.7858 17.0419C38.6973 17.0334 38.5662 16.8541 38.5241 16.8241C38.1708 16.5691 38.4233 17.1411 38.4145 17.1692C38.2336 17.6763 37.7053 17.7084 37.3806 18.0144C37.1324 18.2493 36.9449 18.5791 36.7005 18.7897C36.4069 19.0414 36.0659 19.156 35.8132 19.4339C35.7865 19.4628 36.048 19.6696 36.0159 19.7053C35.6702 20.0893 35.2833 20.412 34.7583 20.6099C34.706 20.6291 34.5515 20.3751 34.4872 20.3818C34.0958 20.4291 33.3387 20.3671 34.0867 21.4005C33.9004 21.5131 33.6799 21.6572 33.3656 21.6086C33.1627 21.578 33.0276 21.2684 33.0136 21.4706C33.0103 21.5158 33.2352 21.6827 33.2157 21.7355C33.1358 21.9552 32.9006 22.0598 32.8509 22.3085C32.8404 22.3604 33.0224 22.529 33.0448 22.5696C33.223 22.9009 32.6831 22.5936 32.6265 22.5883C32.1944 22.5586 32.1363 22.794 31.9404 22.9749C31.8954 23.0162 32.1799 23.2035 32.145 23.2517C31.9561 23.5036 31.709 23.7053 31.3875 23.8122C31.3154 23.8354 31.1623 23.5887 31.1178 23.5894C30.9243 23.5943 31.2772 23.9981 31.0962 24.0125C31.0588 24.0157 30.9016 23.83 30.8793 23.8146C30.5288 23.5715 30.891 24.0461 30.8851 24.07C30.8134 24.388 30.2617 24.0596 30.1345 24.3014C30.1191 24.3313 30.3825 24.5048 30.3263 24.5753C29.9898 24.9943 29.5575 25.3329 28.9209 25.5763C28.8634 25.5922 28.8051 25.6068 28.7459 25.6202C28.6541 25.6415 28.5658 25.4196 28.5445 25.4C28.2072 25.097 28.5167 25.6092 28.5077 25.6439C28.4281 25.9053 27.9572 25.6365 28.2695 26.2909C27.3705 26.6716 26.8928 27.5717 25.7632 27.691C25.7493 27.6931 25.5771 27.4547 25.5501 27.4599C25.2224 27.5206 25.5582 27.8338 25.7741 28.3816C25.8285 28.519 25.2812 28.1012 25.239 28.0725C25.0849 27.965 24.8389 27.6014 24.8039 27.5849C24.5237 27.4608 25.4782 28.5429 25.3458 28.6572C25.3401 28.659 25.1844 28.4426 25.156 28.4322C25.0673 28.3992 25.1014 28.5091 25.0076 28.4692C24.7916 28.3763 24.3043 27.8708 24.4523 28.2826C24.472 28.3357 25.0315 28.9336 24.8876 29.0076C24.8296 29.0367 24.6309 29.2292 24.5372 29.2411C24.4439 29.2527 24.3097 29.0195 24.298 29.0145C23.9099 28.8916 23.8743 28.7304 23.4529 28.4138C23.032 28.0994 23.8675 28.9982 23.9262 29.1292C23.9845 29.2599 23.6784 29.147 23.5836 29.0975C23.4888 29.0479 23.4126 28.8914 23.3497 28.8716C22.935 28.7458 23.6815 29.3916 23.7563 29.5859C23.9356 30.0441 23.2273 29.4575 23.0491 29.4983C23.0011 29.5092 23.1659 29.6395 23.1506 29.6794C23.0886 29.8353 22.8284 29.688 22.8769 29.9958C22.8852 30.0457 23.15 30.5445 22.813 30.3088C22.7645 30.2747 22.6382 30.083 22.5563 30.0891C22.4345 30.0972 22.2708 30.1804 22.2465 30.3061C22.2284 30.399 22.546 30.6143 22.397 30.5939C22.3305 30.5848 22.2405 30.3704 22.1274 30.3673C22.0137 30.3646 21.8707 30.5105 21.8186 30.5694C21.7663 30.6287 21.9911 30.8066 21.9994 30.8249C22.0458 30.9311 22.0304 31.1325 22.0208 31.1411C21.5609 31.6191 20.7864 31.6977 20.4327 32.2631C20.4053 32.3065 20.6378 32.4972 20.6357 32.5061C20.598 32.7179 20.1414 32.0532 19.8678 31.9489C20.3042 32.3703 20.1776 32.3405 20.1361 32.4745C20.1163 32.5396 20.3043 32.6841 20.3173 32.7051C20.505 33.0208 20.1395 32.7343 20.0622 32.6783C19.7773 32.4724 20.0194 32.8092 19.8287 32.6722C19.6387 32.5367 19.4624 32.2312 19.3825 32.3169C19.5128 32.4935 19.9735 32.8353 19.9768 32.9618C19.9769 32.965 19.9769 32.9682 19.977 32.9714C19.9678 33.4547 19.2031 33.5843 18.9743 33.7377C18.7436 33.8934 18.7064 33.983 18.5362 34.0352C18.2287 34.1285 18.5934 34.3637 18.5923 34.6277C18.5908 34.8918 17.9519 34.0719 17.7818 33.926C17.6123 33.7797 17.7477 33.9665 17.6417 33.8978C17.536 33.829 17.4827 33.6722 17.398 33.6879C17.3132 33.7038 17.4343 34.1299 17.5718 34.3195C17.864 34.7205 18.2805 35.0411 18.0131 35.0391C17.9975 35.0387 17.8409 34.813 17.7906 34.8216C17.3966 34.8972 17.1258 35.124 16.7489 35.2126C16.6968 35.2244 16.5259 34.9709 16.4933 34.9752C16.153 35.0197 16.5696 35.3322 16.831 35.8594C16.3548 35.2724 15.9823 34.9857 15.8204 35.1237C15.7223 35.207 15.9578 35.4388 16.0494 35.6683C16.0773 35.7373 15.859 35.6282 15.9495 35.7552C16.245 36.1708 16.6863 36.5381 16.3697 36.5166C16.3552 36.5151 16.1946 36.2867 16.1581 36.2965C15.9238 36.357 16.2537 36.7731 16.1214 36.9757C16.0166 37.1356 15.5568 37.11 15.3662 37.208C14.8082 36.5683 14.7873 36.846 15.1155 37.337C14.9985 37.4083 14.9094 37.5311 14.7584 37.5566C14.7064 37.5657 14.5658 37.3619 14.544 37.3458C14.2028 37.0913 14.5353 37.5574 14.5281 37.5936C14.4353 37.9653 13.9547 37.8143 14.0087 38.3304C14.0108 38.3489 14.3895 38.8012 14.0432 38.5329C14.0195 38.5143 13.9161 38.2472 13.7958 38.3264C13.6748 38.4061 13.2646 38.348 13.2995 38.6833C13.3078 38.764 13.5369 39.2013 13.2147 38.9877C13.1711 38.9586 13.0689 38.823 12.9921 38.7654C12.7474 38.5821 13.1208 39.0477 12.7302 38.7179C12.3399 38.3878 11.9742 38.2063 12.0605 38.5987C12.0625 38.6105 12.3435 38.9932 12.2917 39.0298C12.2081 39.0885 12.0379 39.1095 11.9621 39.1822C11.926 39.217 12.1466 39.4131 12.1437 39.4229C12.004 39.771 11.652 39.7374 11.3088 39.897C11.2889 39.9062 11.2879 39.9544 11.2863 40.0118L11.3027 39.9942C11.3191 40.1179 11.3415 40.2828 11.117 40.2175C10.7582 40.1139 9.71463 39.1103 9.78196 39.5816C9.80743 39.7723 11.1525 41.0192 10.2599 40.6273C10.1688 41.131 9.5297 41.173 9.52063 41.7377C9.52016 41.7628 9.88629 42.1237 9.85148 42.1578C9.7991 42.2079 9.58569 42.0946 9.54228 42.1255C9.35532 42.2516 9.3972 42.5314 9.24474 42.6753C9.18728 42.7302 9.01006 42.5568 8.94175 42.6216C8.87375 42.6863 9.08973 42.9365 8.88803 42.9384C8.73467 42.9392 8.15815 42.5981 8.02067 42.645C8.52598 43.0605 8.46144 43.1191 8.49653 43.3482C8.50347 43.3925 8.6995 43.5127 8.7118 43.5411C8.76549 43.6605 8.5859 43.5814 8.64897 43.7053C8.66397 43.7352 8.83507 43.8789 8.8569 43.9115C8.99461 44.1149 8.78321 44.0679 8.62267 44.0102L8.61328 44.0209C8.55062 43.9966 8.49576 43.971 8.47238 43.96C8.15814 43.812 8.34087 44.0426 8.19132 44.0111C8.04306 43.9779 8.00191 43.7827 7.88365 43.7926C7.6403 43.8117 7.50767 43.9932 7.36739 44.1004C7.3127 44.1439 7.54245 44.3397 7.53918 44.3511C7.46488 44.5141 7.1608 44.3453 7.4275 44.8831C6.47175 43.6746 7.4351 45.0634 7.05696 44.93C7.02644 44.9187 6.65871 44.2924 6.65117 44.1737C6.6412 44.0565 6.83297 44.2047 6.80325 44.0234C6.80076 43.9782 6.47492 43.3739 6.45401 43.3375C6.31861 43.0358 7.01074 43.8705 7.05494 43.9117C7.52173 44.362 7.15409 43.7084 7.13843 43.653C7.09385 43.3784 7.2946 43.3911 7.27063 43.1747C7.25527 43.0343 6.73683 42.5473 6.79945 42.511C6.82795 42.4941 6.86767 42.4901 6.91373 42.4939L6.88146 42.5308C7.17564 42.5457 7.73122 42.8782 7.28728 42.2478C7.17763 42.092 6.54323 41.6407 7.13069 41.8865C7.16731 41.9026 7.68832 42.1471 7.46134 41.8645C7.43264 41.8289 7.25537 41.688 7.24853 41.666C7.20601 41.5219 7.38334 41.5886 7.37421 41.4605C7.36506 41.3324 7.33364 41.1634 7.46126 41.1242C7.53778 41.1005 7.92379 41.2911 8.02523 41.3287C8.31628 41.4387 7.98861 41.0642 8.30891 41.2386C8.63127 41.4134 8.99968 41.8371 9.27726 41.8595C8.81321 41.4976 8.34114 41.1207 7.87632 40.7543C8.09072 40.5079 8.43938 40.3627 8.62239 40.0793C8.64463 40.0438 8.36705 39.8862 8.38449 39.8431C8.45921 39.6621 8.73925 39.6669 8.78885 39.455C8.82645 39.29 8.66471 38.9515 8.69859 38.7705C9.2909 39.1057 9.2584 38.7761 9.41619 38.6761C9.47094 38.6412 9.60936 38.7561 9.68246 38.7583C9.70861 38.7589 9.72754 38.7565 9.74033 38.7517L9.93921 38.5386C10.0637 38.5145 9.68722 38.1888 9.65979 38.0992C9.53133 37.6753 10.4493 38.6609 10.5916 38.4864C10.5995 38.4775 10.2238 37.8489 10.2084 37.8025C10.1059 37.5019 10.3918 37.9735 10.4857 37.9599C10.6566 37.9359 10.8478 37.994 10.8314 37.7255C10.8256 37.6469 10.6146 37.2346 10.9177 37.4274C10.9574 37.4527 11.111 37.6337 11.1278 37.6372C11.4191 37.6867 10.9226 37.1305 10.8332 36.8714C10.7435 36.6126 11.2075 36.888 11.3306 36.9768C11.6503 37.2057 11.3912 37.1427 11.4128 37.1739C11.6714 37.544 11.7067 37.4088 11.7994 37.3766C12.2968 37.9126 12.3614 37.796 11.8935 37.3411C11.8423 37.2916 11.8353 37.3893 11.7994 37.3766C11.3805 36.789 11.4233 36.6274 11.9828 37.0266C12.2456 37.2132 12.4391 37.5313 12.5119 37.287C12.5449 37.1766 12.1819 36.8258 12.1552 36.6659C12.097 36.2986 12.6009 36.4792 12.7051 36.288C12.7426 36.2189 12.506 36.0604 12.5253 36.006C12.5762 35.8611 12.8034 35.9361 12.8336 35.7681C12.8362 35.7526 12.6228 35.5561 12.6517 35.5257C12.8695 35.2885 13.198 35.245 13.4507 35.0288C13.5716 34.9253 13.6812 34.6164 13.8265 34.5308C14.0759 34.3822 14.6187 34.462 14.7327 34.2246C14.8085 34.0701 14.5909 33.8775 14.5111 33.6855C14.3552 33.3143 14.9824 33.6695 15.0759 33.7277C15.079 33.7296 15.0226 33.8711 15.1754 33.9332C15.4125 34.1353 15.0757 33.7297 15.0759 33.7277C15.1362 33.7654 15.3834 33.6322 15.3863 33.5555C15.3879 33.5135 15.1932 33.321 15.1975 33.303C15.304 32.8788 15.5237 32.5865 15.8776 32.4356C15.8861 32.4354 16.0855 32.6673 16.1028 32.6639C16.35 32.6218 16.1963 32.2546 16.1711 31.975C16.1463 31.6952 16.2949 31.6578 16.7288 31.9703C16.778 31.8334 17.0728 31.8738 17.2478 31.9016C17.423 31.929 17.0223 31.4886 17.0209 31.4736C16.9708 31 17.3271 31.1291 17.58 30.9545C17.6377 30.9153 17.7003 30.8347 17.7564 30.7443C17.8212 30.6423 17.8879 30.5203 17.9236 30.4374C17.9808 30.3073 18.1374 30.349 18.161 30.201C18.1645 30.1809 17.9671 30.0033 17.9636 29.9925C17.8403 29.6695 18.246 30.1789 18.3471 30.2419C18.7151 30.4706 18.9124 30.5911 18.9014 30.3262C18.8977 30.2666 18.3323 29.5157 18.3483 29.4245C18.3698 29.3077 18.576 29.5733 18.5909 29.4466C18.5924 29.436 18.4481 29.2886 18.4988 29.2525C18.7345 29.0811 19.0402 28.9559 19.2432 28.7361C19.271 28.7071 19.0091 28.5044 19.0458 28.4584C19.2198 28.2411 19.4501 28.0425 19.7494 27.9739C19.8242 27.9573 19.9495 28.1535 20.0063 28.1937C20.3508 28.4354 20.0351 27.9131 20.0427 27.8906C20.209 27.3465 20.8515 27.4931 21.0492 26.9686C21.0597 26.9388 20.7871 26.3221 21.2239 26.6691C21.2531 26.6922 21.6971 27.0498 21.5017 26.7088C21.4895 26.6874 21.254 26.5094 21.3486 26.4647C21.4428 26.4203 21.4375 26.1666 21.7513 26.3141C21.8506 26.3601 22.2982 26.7135 22.1014 26.2912C22.0871 26.2621 21.5731 25.368 22.0868 25.8459C22.1712 25.9247 22.6469 26.4895 22.516 26.1016C22.4903 26.0266 22.3415 25.9378 22.3332 25.8087C22.3202 25.6101 22.5705 25.6551 22.4686 25.3089C22.45 25.2481 22.2078 24.7954 22.5229 25.0265C22.5722 25.0627 22.7124 25.2671 22.7659 25.2577C23.0207 25.2139 23.0917 24.9375 23.3744 24.9225C23.4742 24.9169 23.6994 25.2482 23.8315 25.2767C23.9637 25.3051 24.1572 25.2773 24.1074 25.0819C24.0578 24.8862 23.5785 24.4586 23.6472 24.3356C23.9474 23.8 24.6256 23.7297 25.1096 23.4173C25.1816 23.371 24.9851 23.2363 25.0817 23.1549C25.4257 22.8623 25.9294 22.223 26.5274 22.3283C26.5345 22.3368 26.5423 22.3453 26.5508 22.3538C26.8822 22.5858 26.9233 22.928 27.1205 22.9728C27.2288 22.9821 26.8228 22.3576 26.8226 22.3271C26.8197 22.0177 27.16 22.1499 27.255 21.9253C27.2735 21.8797 27.038 21.69 27.0555 21.654C27.1143 21.5286 27.3093 21.5284 27.3874 21.4206C27.4225 21.3712 27.2582 21.212 27.308 21.1889C27.4261 21.1311 27.5802 21.1165 27.8186 21.1844C27.8406 21.1903 27.9809 21.45 28.0585 21.3899C28.1866 21.2892 28.4731 21.306 28.4543 21.0198C28.4475 20.9349 28.0841 20.5595 28.4208 20.7353C28.4911 20.772 28.9067 21.2429 28.6273 20.7583C28.5799 20.6787 28.2349 19.9938 28.6465 20.2505C28.7542 20.3186 29.1674 20.6325 29.1587 20.5281C29.1562 20.5126 28.934 20.3374 28.9544 20.2792C29.0328 20.0742 29.1946 19.9575 29.2783 19.7524C29.2992 19.6983 29.0396 19.5461 29.0774 19.4719C29.1828 19.2658 29.4293 19.1277 29.649 19.0397C29.7303 19.0077 29.859 19.2183 29.8815 19.2329C30.2449 19.4729 29.8818 19.0241 29.8803 18.9787C29.8773 18.7008 30.1714 18.7906 30.2475 18.6163C30.2693 18.5684 30.0529 18.3968 30.0428 18.3725C29.9485 18.1308 30.2384 18.5356 30.3224 18.5294C30.5601 18.5118 30.6837 18.3604 30.7918 18.206C30.8309 18.1494 30.5553 17.9744 30.5921 17.927C30.8057 17.6423 31.0929 17.4056 31.4644 17.2896C31.5343 17.2687 31.6752 17.4728 31.7238 17.5036C32.0624 17.7199 31.7906 17.2409 31.7783 17.1822C31.7218 16.9142 31.9113 17.032 31.9744 16.9151C32.2817 16.3392 32.9375 15.91 33.4238 15.5708C34.0576 15.1267 34.6487 14.8906 35.1421 14.3488C35.1736 14.3146 34.9177 14.1082 34.9421 14.0756C35.1553 13.8075 35.4223 13.6097 35.6748 13.3846C35.8232 13.252 35.9669 13.1146 36.0955 12.9575C36.1263 12.9209 35.871 12.7346 35.9141 12.6676C36.0011 12.5286 36.1635 12.4108 36.3479 12.3839C36.4373 12.3705 36.5296 12.6391 36.6157 12.6219C36.816 12.5827 36.976 12.4788 37.086 12.3259C37.1327 12.2601 36.8426 12.089 36.9194 12.0221C37.4378 11.5629 37.9508 11.1094 38.74 11.0491C38.7941 11.0451 39.1977 11.5451 39.2057 11.3889C39.1092 11.2392 38.9883 11.0682 38.8814 10.9108C39.6192 10.2661 40.5315 9.93771 41.3403 9.47089C41.3742 9.45126 41.1362 9.19934 41.2012 9.15974C41.5796 8.92871 41.8952 8.62419 42.4517 8.68132C42.5066 8.68663 42.7985 9.20879 42.8618 9.0647C42.8725 9.03891 42.998 8.86983 42.9748 8.73231C42.9707 8.71196 42.7957 8.49158 42.846 8.45179C43.1362 8.22738 43.5004 8.08408 43.8975 8.04647C43.9625 8.04053 44.0603 8.32803 44.1079 8.32603C44.4417 8.31127 44.6014 7.95441 44.9823 8.04302C45.2352 8.10485 45.4365 8.58247 45.7787 8.96774C45.827 9.02211 45.933 8.97281 46.0875 9.22327C46.476 9.853 46.8383 10.5797 47.2581 11.2475C47.3483 11.3915 47.3899 11.1548 47.5185 11.5553C47.5268 11.5823 47.4989 11.7568 47.5458 11.8907C47.5782 11.9834 47.7597 12.2237 47.7886 12.3497C47.8174 12.4756 47.6532 12.2812 47.6713 12.4386C47.6903 12.5976 47.8885 12.8758 47.7969 12.9766ZM18.0345 32.0182C18.306 32.1531 17.5863 31.3927 17.6838 31.6471C17.6894 31.6603 18.0211 32.0118 18.0345 32.0182ZM9.06783 40.841C9.51681 41.0133 9.03217 40.529 8.69081 40.3888C8.34944 40.2493 8.93169 40.7889 9.06783 40.841ZM8.49429 42.1432C8.87712 42.2443 7.71918 41.3151 7.85599 41.6277C7.86357 41.6456 8.47208 42.1372 8.49429 42.1432ZM45.4544 9.32617C45.4626 9.33744 45.5413 9.30671 45.5361 9.29381C45.4053 8.98489 45.2479 9.04664 45.4544 9.32617ZM7.92898 43.4219C7.9421 43.429 7.95386 43.4343 7.9643 43.4378C8.0935 43.4868 8.0026 43.2589 7.78961 43.1523C7.68648 43.1004 7.6689 43.1567 7.71299 43.2373L7.72537 43.2231C7.75855 43.2873 7.82951 43.3678 7.92898 43.4219ZM22.7035 29.1218C22.7151 29.1323 22.7688 29.1028 22.7089 29.0382C22.5156 28.83 22.5076 28.9452 22.7035 29.1218ZM6.22807 44.6878C6.50123 44.6581 7.28053 45.6452 6.7855 45.7041C6.7028 45.7095 6.80264 45.2768 6.6678 45.2115C6.44842 45.0824 6.56537 45.8544 6.26828 45.5068C6.22695 45.4405 6.22052 44.6858 6.22808 44.686C6.22807 44.6866 6.22807 44.6872 6.22807 44.6878ZM18.9524 32.8797C18.9635 32.8882 19.0318 32.84 19.0236 32.8288C18.8234 32.5598 18.6865 32.656 18.9524 32.8797ZM25.7473 27.3309C25.7697 27.3505 25.9334 27.25 25.9208 27.2252C25.6502 26.7432 25.3159 26.9471 25.7473 27.3309ZM15.3488 37.1932C15.5026 37.5035 15.4471 37.6049 15.1161 37.3371C15.1972 37.2952 15.2679 37.2372 15.3488 37.1932ZM6.37974 2.00158C6.55875 2.07093 6.75951 2.41807 6.88254 2.72507C6.92045 2.82027 6.7567 2.91963 6.77897 2.99298C6.82303 3.13641 6.9768 3.15776 7.01267 3.31021C7.02479 3.36217 6.78222 3.53719 6.79992 3.58713C6.89603 3.85685 7.13131 3.97301 7.28336 4.19671C7.98284 5.21836 8.83036 6.10296 9.70931 7.00147C9.79077 7.08426 9.87179 7.16659 9.95232 7.24857C10.2714 7.57369 10.5238 8.13067 10.9589 8.33795C11.0094 8.3616 11.1486 8.14203 11.17 8.13215C11.5007 7.98283 11.1285 8.35096 11.1652 8.47064C11.325 8.95553 11.6633 9.26175 12.0487 9.44478C12.2116 9.52073 12.3973 9.01235 12.3528 9.34582C12.35 9.36855 12.144 9.55437 12.1627 9.60692C12.2057 9.72587 12.3938 9.814 12.4438 9.88174C12.5378 10.0122 12.5654 10.0307 12.6829 10.1283C12.8435 10.2646 12.9507 10.5232 13.1605 10.6093C13.2074 10.6283 13.3305 10.3679 13.4209 10.3781C13.5114 10.3887 13.6557 10.532 13.6679 10.6255C13.6802 10.7192 13.5218 10.8755 13.5001 10.9227C13.3153 11.3203 13.8588 10.9937 13.8901 10.9994C14.4791 11.1408 14.6413 11.6886 15.0446 11.9911C15.3611 12.2276 15.7503 12.3781 16.0417 12.6105C16.3785 12.881 16.588 13.2198 16.9557 13.4489C16.9935 13.4727 17.142 13.1732 17.1883 13.2016C17.684 13.5058 18.1275 13.8563 18.4851 14.3657C18.5196 14.4162 18.2969 14.6158 18.3219 14.6807C18.4856 15.0786 18.645 15.8682 19.5113 14.9253C19.685 15.097 19.9051 15.2988 19.9479 15.6276C19.9796 15.8419 19.6945 16.0349 19.9127 16.0139C19.9615 16.0092 20.0673 15.7489 20.129 15.7594C20.3877 15.8037 20.5677 16.0233 20.8513 16.033C20.9087 16.034 21.0294 15.8172 21.0649 15.7868C21.3574 15.5439 21.2093 16.1568 21.221 16.2155C21.3307 16.668 21.5993 16.6879 21.8633 16.8703C21.9234 16.9121 22.0338 16.5863 22.0985 16.6168C22.4357 16.7817 22.7523 17.0336 22.9723 17.3831C23.0202 17.4612 22.7873 17.6409 22.801 17.6894C22.8607 17.8996 23.2207 17.5012 23.2866 17.7017C23.3005 17.7433 23.132 17.9193 23.1205 17.9443C22.9361 18.333 23.3798 17.931 23.4104 17.9395C23.4109 17.9396 23.4113 17.9397 23.4118 17.9398C23.745 17.9878 23.5002 18.5841 23.7808 18.696C23.8144 18.7085 23.9457 18.4205 24.0281 18.4701C24.5803 18.8003 25.0718 19.278 25.4433 19.8577C25.5015 19.9476 25.307 20.0908 25.2951 20.1174C25.1149 20.5367 25.5218 20.0967 25.561 20.0977C25.864 20.1199 25.7671 20.6667 26.3241 20.1943C27.0669 21.0349 28.1873 21.3333 28.7239 22.475C28.7311 22.4889 28.5442 22.7163 28.5593 22.743C28.7406 23.0678 28.9468 22.6564 29.4434 22.3212C29.5682 22.2371 29.3273 22.8878 29.3118 22.9369C29.2541 23.1177 28.961 23.4458 28.9562 23.4851C28.9251 23.7988 29.7193 22.594 29.8873 22.7082C29.8912 22.7138 29.7194 22.9181 29.7187 22.9495C29.7157 23.0479 29.8187 22.9903 29.8101 23.0951C29.7893 23.3369 29.4301 23.9405 29.8101 23.7055C29.8589 23.6746 30.2899 22.978 30.4186 23.1122C30.4692 23.1661 30.7429 23.3346 30.7875 23.4288C30.8322 23.523 30.6334 23.7069 30.6323 23.7199C30.6377 24.1445 30.4808 24.2129 30.2926 24.7088C30.1057 25.2033 30.764 24.1675 30.8816 24.0817C30.9991 23.9962 30.9856 24.3341 30.966 24.4415C30.9464 24.5489 30.8076 24.6575 30.8082 24.7261C30.8155 25.1771 31.242 24.2841 31.421 24.1699C31.4418 24.1566 31.4606 24.146 31.4777 24.1379C31.8216 23.989 31.4823 24.7613 31.5739 24.9326C31.6005 24.9818 31.6892 24.79 31.7374 24.8012C31.9277 24.8492 31.844 25.1415 32.1645 25.0611C32.2157 25.047 32.6903 24.7246 32.5244 25.1071C32.4999 25.1617 32.3237 25.3106 32.3515 25.3987C32.3926 25.53 32.5163 25.6976 32.6591 25.7202C32.7647 25.7368 32.9282 25.3848 32.9407 25.5486C32.9452 25.621 32.7316 25.7253 32.7512 25.8469C32.7703 25.9676 32.956 26.1193 33.0291 26.1759C33.102 26.2315 33.2555 25.9882 33.2738 25.979C33.3804 25.9278 33.6045 25.9483 33.6159 25.9597C34.229 26.4831 34.3911 27.3361 35.0167 27.7915C35.0658 27.828 35.2609 27.5981 35.2707 27.6016C35.5023 27.672 34.8027 28.082 34.6983 28.3642C35.1372 27.9454 35.1113 28.0808 35.2562 28.1449C35.3265 28.1756 35.4781 27.9924 35.5003 27.9812C35.8374 27.8247 35.538 28.1827 35.4786 28.258C35.2609 28.5361 35.6193 28.3247 35.4737 28.5109C35.3287 28.6952 35.0017 28.8373 35.0929 28.9373C35.2831 28.8258 35.6483 28.3798 35.7866 28.4004C36.3131 28.4797 36.4391 29.3425 36.5948 29.6199C36.7533 29.8984 36.8466 29.9556 36.8957 30.1502C36.9826 30.5014 37.2452 30.1506 37.5251 30.2043C37.8051 30.2594 36.9097 30.7901 36.7481 30.946C36.5857 31.1008 36.789 30.9907 36.7113 31.0918C36.6334 31.1926 36.4661 31.22 36.4779 31.3141C36.4893 31.4074 36.9439 31.3612 37.151 31.2508C37.589 31.0158 37.9493 30.6291 37.9331 30.9203C37.9318 30.9371 37.6852 31.0601 37.6915 31.1166C37.7487 31.5601 37.9695 31.9051 38.0313 32.333C38.0396 32.3923 37.7606 32.5197 37.7624 32.556C37.7794 32.9331 38.1413 32.5545 38.7151 32.3955C38.0601 32.7736 37.7272 33.1078 37.8544 33.3148C37.9305 33.4394 38.195 33.2411 38.4424 33.1973C38.517 33.1841 38.3817 33.3943 38.5231 33.3279C38.9861 33.1124 39.4149 32.7267 39.3599 33.0665C39.3567 33.0818 39.1018 33.1973 39.108 33.2392C39.1456 33.5099 39.6159 33.2624 39.8125 33.4648C39.9688 33.6268 39.8839 34.1216 39.9589 34.3606C39.2191 34.7767 39.4983 34.8751 40.0559 34.6738C40.1124 34.8243 40.2234 34.958 40.2257 35.133C40.2265 35.1926 39.9935 35.2784 39.9733 35.2968C39.6538 35.5824 40.1873 35.373 40.2232 35.393C40.5917 35.6262 40.3395 36.0827 40.8753 36.2219C40.8942 36.2263 41.4354 35.9907 41.088 36.2625C41.0636 36.2804 40.7718 36.2913 40.8238 36.4492C40.8536 36.5387 40.822 36.7037 40.8385 36.8468C40.8526 36.9674 40.9041 37.0758 41.0602 37.1161C41.1428 37.1381 41.6343 37.0603 41.342 37.3176C41.3022 37.3524 41.1423 37.4098 41.0662 37.469C40.824 37.6587 41.379 37.4382 40.9564 37.7285C40.5337 38.0188 40.2664 38.3395 40.6822 38.3947C40.6946 38.3971 41.1426 38.2379 41.1675 38.3055C41.2076 38.4148 41.1913 38.6031 41.2484 38.7098C41.2759 38.7606 41.5212 38.5957 41.5305 38.6022C41.8496 38.8695 41.7424 39.2316 41.8364 39.6502C41.8531 39.7274 42.308 39.7293 42.0996 40.0077C41.8726 40.3142 40.5288 40.8599 41.0124 41.0265C41.2089 41.098 42.8936 40.3681 42.2018 41.0665C42.6642 41.4049 42.4913 42.0667 43.0507 42.3455C43.0757 42.3583 43.5505 42.158 43.5727 42.208C43.6052 42.2833 43.4256 42.4466 43.4425 42.5045C43.5091 42.7513 43.8006 42.8353 43.8984 43.0526C43.9361 43.135 43.7099 43.2381 43.7551 43.3364C43.8013 43.4361 44.1126 43.3218 44.0579 43.5295C44.0142 43.6845 43.5123 44.1324 43.524 44.2961C44.0811 43.953 44.1217 44.0427 44.3635 44.1025C44.41 44.1134 44.5832 43.9612 44.6152 43.9601C44.7491 43.9526 44.6222 44.1052 44.7637 44.0902C44.7977 44.0868 44.9873 43.9685 45.0258 43.9589C45.3606 43.8732 45.0274 44.2883 44.9696 44.361C44.7481 44.634 45.0236 44.5268 44.9584 44.6704C44.896 44.8045 44.7086 44.7909 44.6747 44.8953C44.6762 44.9069 44.675 44.9138 44.6745 44.9211C44.6558 45.189 44.8342 45.3925 44.934 45.5755C44.9749 45.6477 45.2004 45.4446 45.2121 45.4512C45.3722 45.5687 45.1748 45.8679 45.7492 45.6874C45.619 45.7687 45.5159 45.8333 45.4361 45.8844C44.7104 46.3368 45.9184 45.7644 45.7673 46.0859C45.7529 46.1125 45.1185 46.4685 44.984 46.4373C44.8512 46.4065 45.0012 46.2036 44.8205 46.1937C44.8187 46.1936 44.8169 46.1936 44.815 46.1935C44.7689 46.1876 44.114 46.4056 44.0724 46.4163C43.7376 46.4772 44.6639 45.9132 44.7112 45.8755C45.2206 45.4717 44.503 45.7063 44.439 45.7008C44.1489 45.6604 44.1659 45.4483 43.9573 45.3809L43.9367 45.3488C43.9285 45.3461 43.9199 45.3436 43.9109 45.3413C43.7611 45.3023 43.1492 45.6649 43.1222 45.5803C43.0279 45.2929 43.8091 44.6726 42.9294 44.8896C42.7414 44.9352 42.1178 45.4033 42.5159 44.8888C42.5417 44.8575 42.9266 44.4196 42.5769 44.5277C42.5328 44.5413 42.3412 44.6621 42.3168 44.6589C42.156 44.6344 42.2711 44.4782 42.1364 44.4258C42.0005 44.3714 41.8181 44.3223 41.8127 44.1678C41.8098 44.0759 42.1136 43.7648 42.1818 43.6784C42.3795 43.4319 41.9012 43.5853 42.1743 43.3412C42.4485 43.0952 42.9859 42.9198 43.0946 42.6487C42.5887 42.9493 42.065 43.2506 41.5539 43.549C41.3672 43.2023 41.332 42.7724 41.1104 42.4446C41.0822 42.4039 40.8344 42.6068 40.7972 42.5674C40.642 42.4007 40.74 42.1191 40.5476 41.9622C40.398 41.8421 40.0094 41.834 39.8432 41.7081C40.3764 41.2816 40.0424 41.1483 40.0004 40.9404C39.9853 40.8677 40.1458 40.7863 40.1738 40.7144C40.2763 40.4461 39.793 40.8041 39.6858 40.8021C39.2262 40.7886 40.4091 40.1449 40.2591 39.929C40.2517 39.9178 39.5364 40.0975 39.4855 40.0961C39.1573 40.0952 39.6964 39.9598 39.7008 39.8521C39.7097 39.6564 39.8094 39.4739 39.5324 39.3897C39.4511 39.3663 38.9868 39.4373 39.2473 39.1824C39.2815 39.1491 39.4981 39.052 39.5054 39.0352C39.619 38.7403 38.9457 39.0599 38.6635 39.0561C38.3815 39.0524 38.7623 38.6541 38.8801 38.5561C39.1839 38.3004 39.0618 38.5568 39.0985 38.5461C39.5313 38.4129 39.4015 38.3194 39.3912 38.2081C40.0465 37.8838 39.9452 37.7704 39.3776 38.0933C39.3157 38.1289 39.4124 38.1748 39.3912 38.2081C38.7027 38.4294 38.5469 38.3127 39.0817 37.8703C39.3136 37.6785 39.6442 37.5965 39.513 37.4455C39.503 37.4347 39.49 37.4235 39.4737 37.4119C39.375 37.3415 38.9344 37.5883 38.7716 37.5634C38.4006 37.5073 38.7053 37.06 38.54 36.8969C38.4801 36.8376 38.2692 37.0313 38.2198 36.9954C38.0872 36.8992 38.2157 36.6976 38.0532 36.6161C38.0383 36.6091 37.798 36.7718 37.7737 36.7337C37.5882 36.4543 37.6068 36.1041 37.4344 35.7907C37.3509 35.6386 37.0587 35.4529 36.9938 35.2819C36.8827 34.9896 37.0378 34.4411 36.8063 34.2656C36.658 34.153 36.4349 34.3403 36.2294 34.3835C35.8324 34.4693 36.2677 33.8868 36.3366 33.7994C36.339 33.7966 36.4779 33.8851 36.5582 33.7371C36.7911 33.5293 36.3386 33.8 36.3366 33.7994C36.3821 33.7437 36.2695 33.4544 36.1907 33.4363C36.1477 33.4262 35.9306 33.5933 35.9125 33.5852C35.4872 33.3898 35.2057 33.1054 35.0759 32.7047C35.0763 32.6957 35.3311 32.5264 35.3287 32.5074C35.3013 32.236 34.9103 32.3351 34.6182 32.3136C34.3261 32.2922 34.2968 32.1301 34.6453 31.7213C34.5048 31.6455 34.5618 31.3398 34.5978 31.1574C34.6338 30.9751 34.1558 31.3304 34.1402 31.3296C33.643 31.3082 33.7922 30.9509 33.6164 30.6562C33.5341 30.5157 33.2623 30.3292 33.1003 30.2428C32.9715 30.1748 33.0219 30.0211 32.8722 29.987C32.8521 29.9824 32.6657 30.1715 32.6546 30.1744C32.3269 30.2835 32.8533 29.9004 32.9201 29.8016C33.1629 29.4424 33.2829 29.2407 33.0142 29.241C32.9517 29.2401 32.187 29.7873 32.0979 29.7722C31.9824 29.7505 32.2501 29.5469 32.1223 29.53C32.1116 29.5284 31.9634 29.6717 31.9278 29.6214C31.7605 29.3892 31.6278 29.0851 31.4028 28.8968C31.3728 28.8708 31.1822 29.1414 31.1357 29.1082C30.9171 28.9519 30.7166 28.7508 30.6267 28.4681C30.6054 28.3978 30.7857 28.2513 30.8202 28.1911C31.0266 27.8247 30.5434 28.1981 30.5223 28.1951C29.9902 28.1206 30.048 27.478 29.5283 27.4259C29.5057 27.4241 29.2027 27.6687 29.1699 27.5695C29.1518 27.533 29.1601 27.4622 29.2126 27.3392C29.227 27.3048 29.455 26.7802 29.164 27.0479C29.1458 27.0646 29.0378 27.341 28.9605 27.2534C28.8832 27.1658 28.624 27.2242 28.6732 26.8735C28.6885 26.7628 28.9066 26.233 28.5344 26.5212C28.5092 26.5418 27.7535 27.2514 28.0782 26.6284C28.1318 26.526 28.558 25.9229 28.2002 26.1375C28.1312 26.1794 28.089 26.3498 27.9581 26.3852C27.7572 26.4403 27.7199 26.1756 27.3971 26.3535C27.3404 26.3854 26.955 26.7291 27.0876 26.3589C27.1084 26.301 27.272 26.1142 27.2443 26.0618C27.1134 25.812 26.8045 25.7999 26.6924 25.5156C26.6525 25.4153 26.9167 25.1134 26.9003 24.9723C26.8836 24.8311 26.7881 24.6403 26.6037 24.734C26.4193 24.8279 26.1456 25.411 25.9957 25.3689C25.3441 25.1854 25.0352 24.5138 24.5441 24.0972C24.4708 24.0349 24.4035 24.2661 24.2862 24.1876C23.8546 23.9013 22.9962 23.5409 22.9163 22.8785C22.8547 22.3503 23.3975 22.3876 23.2699 22.0961C23.2081 21.9563 22.648 22.4589 22.608 22.4579C22.2091 22.4527 22.2323 22.0587 21.94 21.9592C21.88 21.939 21.7428 22.2114 21.6936 22.1914C21.5219 22.1237 21.4586 21.904 21.3104 21.8173C21.2439 21.7792 21.1123 21.9667 21.0674 21.9082C20.9598 21.7712 20.9012 21.6 20.91 21.3298C20.9109 21.3053 21.1701 21.1503 21.0793 21.0619C21.0306 21.0148 20.9918 20.9483 20.9511 20.8812C20.9027 20.7732 20.8386 20.6613 20.6593 20.7081C20.5786 20.729 20.2631 21.1449 20.3952 20.793C20.4224 20.7195 20.8192 20.2321 20.3928 20.5917C20.3202 20.6498 19.7253 21.1231 19.9039 20.6746C19.9513 20.5566 20.1751 20.0876 20.074 20.1169C20.0593 20.1225 19.9326 20.3754 19.8713 20.3672C19.6566 20.3332 19.493 20.191 19.2642 20.1487C19.2021 20.1375 19.1187 20.4289 19.0311 20.4043C18.794 20.3398 18.572 20.1125 18.4124 19.9046C18.3542 19.8277 18.5351 19.6574 18.5435 19.6318C18.6809 19.2151 18.3197 19.6668 18.2711 19.6757C17.9808 19.73 17.9747 19.4069 17.7648 19.3582C17.7061 19.3435 17.5936 19.5966 17.5708 19.6111C17.3416 19.7483 17.6811 19.381 17.646 19.2943C17.5538 19.0536 17.3364 18.9404 17.1433 18.8571C17.0703 18.8256 16.9718 19.1404 16.9079 19.1088C16.5222 18.9243 16.1778 18.6607 15.9292 18.2826C15.885 18.2125 16.0611 18.0361 16.0792 17.9809C16.2079 17.5964 15.7747 17.947 15.7142 17.9673C15.438 18.0601 15.5113 17.8481 15.3643 17.7963C14.6437 17.5465 13.9881 16.9049 13.4823 16.4256C12.8201 15.8006 12.4183 15.2071 11.7067 14.7376C11.6621 14.7079 11.5067 14.9989 11.4656 14.9764C10.9357 14.6682 10.547 14.2029 10.0262 13.9102C9.98328 13.8853 9.84726 14.1712 9.77168 14.1391C9.61636 14.0759 9.45851 13.9287 9.3948 13.7516C9.3633 13.6656 9.61067 13.5245 9.57564 13.4422C9.49444 13.2501 9.35294 13.1082 9.17082 13.0248C9.09281 12.9897 8.99183 13.3138 8.90568 13.2489C8.32491 12.82 7.74276 12.4131 7.43809 11.6289C7.41745 11.5753 7.79031 11.0512 7.63347 11.0807C7.51361 11.2126 7.37997 11.3737 7.25562 11.5178C6.97474 11.3278 6.71195 11.1059 6.45516 10.8658C5.93976 10.3829 5.47326 9.8426 4.95262 9.3575C4.91906 9.32636 4.75509 9.63437 4.68897 9.57536C4.31278 9.23982 3.87871 8.98064 3.71795 8.37828C3.70155 8.31869 4.12511 7.89596 3.95112 7.85955C3.91813 7.85189 3.69993 7.75981 3.56475 7.81141C3.54541 7.82018 3.38745 8.05421 3.32633 8.00875C2.97733 7.74331 2.68381 7.37763 2.47906 6.9336C2.44771 6.86278 2.71168 6.7063 2.69165 6.65448C2.53936 6.27849 2.09241 6.14509 2.00518 5.62425C1.94475 5.26422 2.41695 5.02947 2.72372 4.59554C2.77323 4.54732 2.64682 4.33021 2.89804 4.16568C3.55656 3.82834 4.26933 3.44416 4.95727 3.05852C5.03241 3.02897 5.06099 3.03895 5.17653 3.30661C5.23556 3.43104 5.28515 3.73458 5.32269 3.78147C5.36599 3.85955 5.44005 3.50048 5.44666 3.20182C5.44838 3.18344 5.43388 3.09283 5.41783 3.00806C5.40755 2.9355 5.39951 2.86716 5.40256 2.81628C5.41122 2.71975 5.45472 2.66394 5.50706 2.61652C5.57876 2.5509 5.8409 2.40391 5.92394 2.30748C6.00806 2.21321 5.80304 2.35899 5.92898 2.28467C6.05756 2.21026 6.30704 1.97874 6.37974 2.00158ZM34.7489 30.3364C34.899 30.0676 34.0767 30.7157 34.3472 30.6517C34.3613 30.6478 34.7417 30.3498 34.7489 30.3364ZM42.0137 42.3714C42.3307 42.0007 41.6921 42.2538 41.4408 42.5299C41.1914 42.8083 41.9179 42.4843 42.0137 42.3714ZM43.144 43.5798C43.3573 43.2334 42.0802 43.9907 42.4394 44C42.4598 44.0008 43.1317 43.6 43.144 43.5798ZM3.24097 4.99414C3.25005 4.98365 3.1911 4.8978 3.17837 4.904C2.89124 5.08183 3.01603 5.26111 3.24097 4.99414ZM44.2993 44.7299C44.4405 44.5767 44.1578 44.5622 43.9835 44.7542C43.8432 44.9086 44.1243 44.9212 44.2993 44.7299ZM31.2774 25.3488C31.2852 25.3351 31.2388 25.2842 31.1881 25.3565C31.0264 25.5899 31.1471 25.5785 31.2774 25.3488ZM45.8073 47.0741C45.4573 46.6389 46.4701 45.8698 46.4954 46.1441C46.5134 46.2043 46.1196 46.3037 46.08 46.4295C46.0468 46.701 46.6338 46.1959 46.4841 46.6011C46.4714 46.6887 45.8354 47.1117 45.8055 47.0748C45.8061 47.0746 45.8067 47.0744 45.8073 47.0741ZM35.684 29.4931C35.6932 29.4826 35.6436 29.4008 35.6315 29.4077C35.342 29.5785 35.4407 29.7418 35.684 29.4931ZM28.3533 22.567C28.3657 22.5398 28.2015 22.3926 28.1799 22.4107C27.7762 22.7922 28.1088 23.0922 28.3533 22.567ZM39.9411 34.3751C40.2831 34.3 40.3817 34.395 40.056 34.6731C40.0242 34.5702 39.9747 34.4757 39.9411 34.3751Z" fill="#4C422C"/>
</g>
<defs>
<filter id="filter0_g_8_5296" x="0" y="0" width="49.821" height="49.0771" filterUnits="userSpaceOnUse" color-interpolation-filters="sRGB">
<feFlood flood-opacity="0" result="BackgroundImageFix"/>
<feBlend mode="normal" in="SourceGraphic" in2="BackgroundImageFix" result="shape"/>
<feTurbulence type="fractalNoise" baseFrequency="0.5 0.5" numOctaves="3" seed="5566" />
<feDisplacementMap in="shape" scale="4" xChannelSelector="R" yChannelSelector="G" result="displacedImage" width="100%" height="100%" />
<feMerge result="effect1_texture_8_5296">
<feMergeNode in="displacedImage"/>
</feMerge>
</filter>
</defs>
</svg>
