<svg width="28" height="30" viewBox="0 0 28 30" fill="none" xmlns="http://www.w3.org/2000/svg">
<g filter="url(#filter0_g_8_5300)">
<path d="M12.5024 9.07807C12.5066 9.17772 12.3454 9.00454 12.1784 8.82438C12.126 8.76759 12.2049 8.5965 12.167 8.54861C12.092 8.45536 11.9796 8.52302 11.8959 8.41793C11.8675 8.38209 11.9698 8.10306 11.9378 8.07194C11.7586 7.90312 11.5404 7.94242 11.3256 7.84992C10.3024 7.41555 9.1249 7.27606 8.05122 7.29059C8.03532 7.28672 8.02139 7.2831 8.009 7.27955C7.94185 7.24743 7.74913 7.03979 7.72048 7.24383C7.72043 7.26554 7.92592 7.42191 7.94052 7.43759C8.1766 7.66366 7.77286 7.33429 7.69259 7.32748C7.37192 7.30129 7.20212 7.61347 7.22298 7.91835C7.23133 8.04958 7.75825 8.06376 7.44955 8.10671C7.4285 8.11064 7.17115 8.01117 7.13405 8.0386C7.04972 8.10181 7.06414 8.26723 7.03058 8.33034C6.9648 8.44794 6.96388 8.47076 6.94182 8.59592C6.91033 8.7626 6.75133 8.96181 6.79841 9.1637C6.80931 9.20646 7.09331 9.17309 7.13627 9.24127C7.17897 9.30796 7.14571 9.47774 7.07741 9.53506C7.00882 9.59135 6.78933 9.5578 6.73836 9.56642C6.30769 9.64063 6.89455 9.87111 6.9093 9.89503C7.15351 10.3816 6.83478 10.8159 6.87106 11.2976C6.89952 11.6606 7.05052 12.039 7.07877 12.386C7.1115 12.8 7.01405 13.1766 7.10839 13.5764C7.11806 13.6185 7.43501 13.5133 7.44741 13.564C7.53172 13.9091 7.59195 14.2548 7.60029 14.6119C7.55681 14.5729 7.46443 14.5245 7.39498 14.5708C7.37776 14.5855 7.151 14.7662 7.12687 14.7996C6.9279 14.9966 7.1872 15.8099 7.78255 14.6695C7.90279 14.7707 8.09809 14.8828 8.21598 15.1734C8.29361 15.3606 8.10526 15.6407 8.28676 15.5444C8.3272 15.5227 8.34436 15.2432 8.39911 15.2307C8.62824 15.1778 8.85131 15.3099 9.09847 15.2052C9.14861 15.1832 9.1755 14.9365 9.19527 14.8945C9.35683 14.5546 9.4482 15.1722 9.48419 15.2212C9.74797 15.5868 10.0014 15.4919 10.3065 15.543C10.3775 15.5551 10.3399 15.2136 10.4103 15.2134C10.6724 15.2166 10.9464 15.2625 11.2193 15.3735C11.5941 15.4439 12.199 15.811 12.4178 16.2933C12.5694 16.6391 12.1606 16.4763 12.2025 16.6258C12.2621 16.9257 12.3606 17.0155 12.4818 17.1358C12.5967 17.2476 12.7053 17.3727 12.6376 17.529C12.6092 17.5937 12.3699 17.5364 12.3425 17.546C11.9142 17.6535 12.4806 17.839 12.4858 17.8863C12.5698 18.3755 11.9038 18.3936 11.886 18.7199C11.8837 18.76 12.2028 18.7786 12.1778 18.8867C12.0144 19.5927 11.6692 20.185 11.2243 20.6797C11.1555 20.7567 10.963 20.6124 10.9342 20.608C10.4823 20.5487 11.0195 20.8145 11.0304 20.8505C11.1006 21.1314 10.5531 21.1989 11.1857 21.5574C11.091 21.7137 11.0232 21.8746 10.9762 22.0305C10.8311 22.4561 10.848 22.8922 10.8025 22.6451C10.7515 22.5196 10.6176 22.4648 10.6528 22.5449C10.6768 22.6148 10.7875 22.7361 10.9223 22.8814C10.9484 22.9108 10.9769 22.9419 11.0074 22.9745C11.0176 22.9844 10.9316 23.2656 10.9524 23.284C11.2172 23.5076 11.2553 23.0474 11.5227 22.5258C11.5859 22.394 11.6448 23.0805 11.6561 23.1313C11.6853 23.318 11.5793 23.7446 11.5925 23.7817C11.7102 24.0738 11.8478 22.6378 12.026 22.6547C12.0316 22.6576 11.9822 22.9197 11.9955 22.9475C12.0376 23.0347 12.0949 22.9338 12.1356 23.0289C12.2288 23.2486 12.2228 23.9515 12.427 23.5554C12.4522 23.5038 12.4687 22.6855 12.6344 22.733C12.7002 22.7531 13.0007 22.7505 13.0835 22.805C13.1668 22.86 13.1027 23.1222 13.1083 23.1338C13.3335 23.4872 13.2431 23.6298 13.3578 24.1477C13.4761 24.6631 13.4506 23.4359 13.4986 23.2993C13.5466 23.1631 13.7178 23.4503 13.7622 23.5498C13.8059 23.6495 13.754 23.8175 13.7929 23.8738C14.0539 24.2404 13.8951 23.2634 13.9732 23.0674C14.1512 22.6027 14.324 23.5072 14.5103 23.5882C14.5596 23.6101 14.5109 23.4049 14.5524 23.3835C14.7167 23.3014 14.8368 23.5789 15.0102 23.3055C15.0401 23.2609 15.1456 22.7041 15.2772 23.0951C15.2965 23.1514 15.2766 23.381 15.3529 23.4249C15.4675 23.491 15.6663 23.5197 15.772 23.4299C15.8489 23.3637 15.707 23.0052 15.8243 23.107C15.8771 23.1523 15.8191 23.3805 15.9186 23.447C16.018 23.5139 16.241 23.4696 16.325 23.4461C16.4072 23.4234 16.3096 23.1531 16.3132 23.133C16.3262 23.0573 16.3868 22.9601 16.4252 22.9022C16.4303 22.8755 16.4329 22.8585 16.4345 22.8583C16.5638 22.8671 17.3931 22.5834 17.512 21.8655C17.5228 21.8098 17.2334 21.7265 17.2322 21.7168C17.1854 21.5049 17.8634 21.9435 18.1616 21.9173C17.5917 21.7086 17.7251 21.6734 17.7102 21.5263C17.7027 21.4547 17.4707 21.4041 17.4503 21.3901C17.1494 21.1779 17.6038 21.276 17.6988 21.2907C18.0465 21.3487 17.6841 21.1454 17.9171 21.1812C18.149 21.2149 18.4362 21.4266 18.4769 21.2964C18.2841 21.1899 17.7159 21.097 17.6617 20.9726C17.4533 20.5157 18.0868 19.9742 18.2216 19.6897C18.3557 19.4089 18.3477 19.2973 18.4751 19.1495C18.7068 18.878 18.2696 18.868 18.1459 18.6164C18.0233 18.3623 18.9819 18.7668 19.2032 18.8052C19.4241 18.8442 19.2149 18.7458 19.3424 18.7482C19.4697 18.7509 19.591 18.8696 19.6599 18.804C19.728 18.74 19.42 18.4034 19.208 18.3027C18.7582 18.0911 18.2336 18.0303 18.4762 17.8727C18.4905 17.8638 18.7363 17.9882 18.7778 17.9499C19.0996 17.6409 19.2438 17.2619 19.5536 16.9585C19.5965 16.9175 19.864 17.0674 19.892 17.045C20.1856 16.8137 19.6672 16.742 19.2035 16.3673C19.8931 16.6782 20.3577 16.7547 20.4509 16.5358C20.508 16.4035 20.1935 16.3017 20.0155 16.1244C19.9619 16.0707 20.211 16.063 20.0757 15.9849C19.6346 15.7277 19.0721 15.5969 19.3856 15.4436C19.4 15.4374 19.6393 15.5825 19.6706 15.5532C19.8743 15.3662 19.4042 15.1181 19.4685 14.8326C19.5195 14.6071 19.9877 14.3987 20.1542 14.2057C20.8978 14.6146 20.8332 14.3294 20.3749 13.9533C20.4767 13.8242 20.5388 13.6561 20.691 13.5651C20.7431 13.5338 20.9325 13.6944 20.9587 13.7027C21.0212 13.7233 21.0635 13.7325 21.0905 13.7329C21.2392 13.7353 20.9302 13.46 20.9347 13.4205C21.01 12.94 21.5571 12.9968 21.5163 12.4475C21.5145 12.4281 21.1211 11.988 21.4886 12.2321C21.5134 12.2495 21.6154 12.5233 21.7491 12.424C21.8794 12.3281 22.3262 12.3411 22.2512 12.0106C22.2396 11.9239 21.9162 11.565 22.2544 11.7303C22.3019 11.7505 22.4365 11.8537 22.5242 11.8916C22.812 11.9971 22.3043 11.6872 22.7826 11.8614C22.9798 11.925 23.1715 11.9515 23.3141 11.9166C23.5186 11.8798 23.614 11.7221 23.431 11.5266C23.4226 11.5129 22.9619 11.3971 22.9726 11.3372C22.9926 11.2339 23.0824 11.0683 23.0566 10.948C23.0444 10.8919 22.7633 10.9846 22.7562 10.9762C22.5301 10.7215 22.6819 10.4311 22.487 10.0484C22.4854 10.0454 22.4831 10.0428 22.48 10.0406C22.406 9.98283 22.058 10.1465 22.1278 9.82964C22.1917 9.45856 23.1253 8.33478 22.54 8.38848C22.2997 8.41074 21.3023 9.95203 21.4921 8.98851C21.0765 8.97223 20.8574 8.62571 20.5424 8.45429C20.4252 8.39065 20.2929 8.35041 20.1267 8.35869C20.0992 8.35983 19.7786 8.76312 19.7334 8.72839C19.6686 8.67709 19.7504 8.44841 19.7094 8.40567C19.5372 8.21927 19.2399 8.27702 19.0559 8.12746C18.9863 8.07136 19.1398 7.8764 19.0575 7.80984C18.9736 7.74252 18.7437 7.98222 18.7028 7.77323C18.6723 7.61434 18.9264 6.99202 18.8439 6.8507C18.4971 7.40548 18.4197 7.34214 18.1783 7.39685C18.1315 7.40745 18.0441 7.62093 18.0158 7.63595C17.8997 7.70249 17.9468 7.51006 17.8265 7.58626C17.7974 7.60444 17.6806 7.79491 17.6505 7.8207C17.3908 8.04758 17.505 7.52862 17.5253 7.4385C17.5993 7.09448 17.4057 7.31687 17.398 7.1591C17.3907 7.00159 17.5877 6.9298 17.5417 6.80899C17.4463 6.55903 17.1964 6.45026 17.0167 6.33042C16.9454 6.28444 16.8415 6.56994 16.8278 6.5693C16.6369 6.54298 16.6469 6.17942 16.2579 6.63917C16.9405 5.25785 16.0889 6.71175 16.0314 6.32011C16.027 6.2886 16.3756 5.65076 16.4958 5.59808C16.6149 5.54483 16.6009 5.80064 16.7764 5.71169C16.8168 5.69036 17.2916 5.181 17.3295 5.15567C17.6271 4.9581 17.0892 5.90133 17.0654 5.95654C16.8142 6.55612 17.3419 6.01769 17.4084 5.99861C17.7096 5.90898 17.7871 6.13429 18.0238 6.08407C18.1801 6.05364 18.5581 5.45132 18.6253 5.51767C18.8483 5.7377 18.422 6.63974 19.1148 6.05553C19.2627 5.93104 19.6169 5.2366 19.4849 5.87253C19.4757 5.91208 19.3226 6.47409 19.5878 6.22196C19.6212 6.19016 19.7394 5.99695 19.7626 5.98885C19.9145 5.93769 19.8803 6.12844 20.0212 6.11345C20.1624 6.09867 20.3436 6.05853 20.4124 6.19042C20.4533 6.26918 20.3173 6.68026 20.2955 6.78782C20.2299 7.09608 20.5749 6.73416 20.4439 7.07574C20.3133 7.41961 19.9221 7.82678 19.9488 8.11514C20.2551 7.61265 20.5759 7.10074 20.8862 6.59674C21.0589 6.71336 21.1973 6.875 21.3403 7.01233C21.4423 7.10992 21.5524 7.19859 21.6842 7.25486C21.7238 7.27109 21.8307 6.97022 21.8764 6.98006C22.07 7.0234 22.1237 7.30177 22.3694 7.32448C22.5605 7.34154 22.903 7.13831 23.1697 7.19027C22.9711 7.85011 23.424 7.84657 23.6885 8.13782C23.7768 8.23646 23.6544 8.36948 23.6837 8.47271C23.7842 8.84775 24.0606 8.37038 24.2082 8.33803C24.2142 8.33687 24.22 8.33647 24.2255 8.33693C24.8529 8.42639 23.8407 9.31517 24.0819 9.6437C24.0902 9.64806 24.8758 9.60282 24.9408 9.64745C25.3339 9.82909 24.7333 9.79308 24.752 9.98579C24.7759 10.3441 24.6617 10.5769 24.9094 10.9485C24.983 11.0448 25.4401 11.3689 25.0694 11.5888C25.0213 11.6156 24.7868 11.5753 24.7706 11.597C24.4896 11.965 25.2076 12.1135 25.3726 12.466C25.3988 12.5222 25.4028 12.5775 25.3904 12.6293C25.2892 13.0088 24.769 13.139 24.6316 13.1249C24.1924 13.1061 24.5766 12.9008 24.5493 12.8624C24.2165 12.5317 24.1515 12.8296 24.0152 12.9544C23.3953 12.5687 23.3203 12.7395 23.8791 13.0799C23.9416 13.1162 23.9671 12.9667 24.0152 12.9544C24.5188 13.4941 24.3536 13.8454 23.7068 13.5494C23.4064 13.4081 23.2068 13.0919 23.1045 13.3819C23.0598 13.5098 23.4427 13.8396 23.4613 14.0121C23.5039 14.4041 23.0025 14.2339 22.9436 14.4077C22.9242 14.4686 23.1649 14.6136 23.1608 14.6595C23.1559 14.7765 22.9506 14.7013 22.9926 14.823C22.9974 14.8335 23.238 14.993 23.2309 15.0091C23.2221 15.0321 23.2096 15.0483 23.1943 15.0607C23.0474 15.2421 22.828 15.3718 22.6985 15.6003C22.6208 15.7365 22.6348 16.0567 22.5354 16.1893C22.3646 16.4154 21.8339 16.5753 21.829 16.8518C21.8256 17.0295 22.1065 17.106 22.2622 17.2446C22.5654 17.5094 21.8448 17.4793 21.7333 17.4756C21.7295 17.4754 21.7183 17.3159 21.5523 17.3345C21.248 17.2658 21.7325 17.4738 21.7333 17.4756C21.6614 17.471 21.4986 17.7185 21.5307 17.7929C21.5482 17.8329 21.811 17.9099 21.8154 17.9288C21.9143 18.3726 21.8566 18.7603 21.6115 19.1045C21.6041 19.1096 21.3163 19.0056 21.3024 19.0189C21.1008 19.2023 21.4117 19.461 21.5657 19.7138C21.7199 19.9658 21.602 20.0972 21.0657 20.0559C21.084 20.222 20.7988 20.362 20.6261 20.4452C20.4538 20.5269 21.0176 20.7184 21.0255 20.7328C21.2808 21.1832 20.8927 21.2861 20.7223 21.6369C20.6399 21.8056 20.5998 22.1899 20.5838 22.4188C20.5719 22.6018 20.4057 22.6456 20.4248 22.8371C20.4272 22.8628 20.6815 22.9408 20.6883 22.9512C20.9081 23.2512 20.3447 22.9171 20.2231 22.9084C19.7804 22.8747 19.5452 22.8585 19.6205 23.1623C19.6387 23.2303 20.3938 23.8081 20.3786 23.9514C20.357 24.1362 20.0968 23.9168 20.0784 24.1112C20.076 24.128 20.257 24.2286 20.1886 24.324C19.8634 24.7692 19.3517 25.3117 18.5566 25.8626C18.445 25.9361 18.7711 26.1184 18.6001 26.2335C18.2232 26.4829 17.737 26.6926 17.234 26.7827C16.9882 26.8189 16.756 26.8158 16.5396 26.7644C16.4428 26.7394 16.4672 26.5043 16.4378 26.4399C16.2619 26.0497 16.1777 26.663 16.149 26.6778C15.5179 27.0418 15.0044 26.533 14.3902 26.8134C14.3587 26.83 14.1059 27.4784 13.9768 26.9302C13.9672 26.8938 13.8457 26.3332 13.7475 26.7185C13.7411 26.7425 13.8163 27.0317 13.6888 27.0029C13.5624 26.9742 13.3542 27.1669 13.1834 26.8458C13.1286 26.7446 13.0145 26.1815 12.8386 26.6234C12.8302 26.6547 12.5283 27.6556 12.4652 26.9535C12.4548 26.8378 12.51 26.102 12.2914 26.4689C12.249 26.5399 12.3089 26.7085 12.2016 26.8051C12.0338 26.9535 11.8424 26.7413 11.6117 27.0499C11.5729 27.1049 11.3669 27.5884 11.2822 27.1957C11.2697 27.1343 11.3339 26.8936 11.273 26.8587C10.983 26.6912 10.6184 26.8055 10.2761 26.5575C10.1581 26.4699 10.3102 26.0961 10.2006 25.9599C10.1842 25.9396 10.165 25.9185 10.1434 25.8977C10.0131 25.7775 9.80786 25.6612 9.60396 25.7498C9.3591 25.8499 9.34463 26.5314 9.00183 26.4422C8.61182 26.3254 8.13174 26.1068 7.60375 25.5794C7.07457 25.0726 6.63934 24.1569 6.57325 23.461C6.46237 22.0515 6.83592 21.6615 6.90307 21.3262C6.93184 21.2369 6.69457 21.2554 6.7174 21.1355C6.72043 21.1191 6.7231 21.1027 6.72543 21.0866C6.85942 20.3189 7.03346 19.327 7.62933 19.071C8.12589 18.8576 8.23099 19.4037 8.48014 19.1955C8.59901 19.0966 7.96455 18.6926 7.95479 18.6539C7.84993 18.2762 8.23116 18.2041 8.22828 17.9333C8.22731 17.878 7.93007 17.817 7.93202 17.7718C7.93582 17.6173 8.11115 17.5292 8.12627 17.4122C8.13222 17.3598 7.91308 17.2941 7.94328 17.26C8.0133 17.1763 8.12421 17.1409 8.34357 17.1486C8.36386 17.1481 8.63052 17.2528 8.65104 17.2155C8.66667 17.1878 8.72459 17.1798 8.74731 17.2154C8.77428 17.2574 8.7436 17.3231 8.68047 17.6472C8.68226 17.855 8.04606 18.0022 8.87796 18.6839C8.97254 18.7486 9.10359 18.6307 9.24146 18.6424C9.38748 18.6468 9.50035 18.812 9.83227 19.3012C9.8798 19.3684 10.1139 19.6325 10.3974 19.8064C10.2973 19.9762 10.1773 20.1093 10.1586 19.8193C10.1508 19.6923 10.1564 19.1735 10.0752 19.2428C10.0641 19.2541 10.0588 19.5371 9.99876 19.5558C9.7895 19.6169 9.57248 19.5568 9.33093 19.6121C9.26615 19.6273 9.31809 19.9277 9.2223 19.9412C8.95932 19.9788 8.62982 19.8572 8.36324 19.7215C8.26518 19.671 8.37594 19.4454 8.37256 19.4183C8.32294 18.9786 8.1552 19.5326 8.10704 19.5581C7.81227 19.7095 7.65668 19.4039 7.3837 19.4152C7.3067 19.417 7.29652 19.6958 7.27645 19.7163C7.06651 19.9121 7.29502 19.4605 7.21152 19.3846C6.97791 19.1696 6.66183 19.1041 6.33571 19.0253C6.21405 18.9956 6.23952 19.3428 6.1279 19.3108C5.47844 19.1218 4.59454 18.7065 3.89524 17.6728C3.77051 17.4775 4.05223 17.4289 4.06454 17.3575C4.17636 16.8951 3.49675 16.7979 3.39029 16.6948C2.94721 16.315 3.06638 16.014 2.93965 15.5949C2.93845 15.5921 2.93715 15.5893 2.93575 15.5865C2.5784 14.8737 2.55667 13.8982 2.5504 13.1612C2.54 12.1911 2.70568 11.4329 2.62002 10.4843C2.61515 10.4236 2.29107 10.4922 2.28273 10.4393C2.19127 9.74886 2.3353 9.05604 2.3302 8.28092C2.33067 8.21638 2.01311 8.2729 2.00403 8.16605C1.98299 7.94856 2.04236 7.66623 2.18137 7.45988C2.24851 7.35971 2.48119 7.55426 2.54348 7.45342C2.69009 7.21708 2.77321 6.9535 2.80366 6.66608C2.81645 6.54342 2.46146 6.63416 2.5034 6.47761C2.77663 5.44035 3.38742 3.92841 5.09379 3.22373C5.21097 3.17778 5.63524 3.66279 5.76174 3.44879C5.68902 3.28544 5.5861 3.10312 5.50036 2.93308C6.09312 2.56731 6.75966 2.36241 7.37606 2.29165C8.32005 2.19432 9.19695 2.28835 10.0685 2.33561C10.1197 2.33844 10.0401 1.99615 10.1404 2.00004C10.7187 2.02307 11.299 1.97152 11.8535 2.38015C11.9081 2.42039 11.8032 3.00914 11.9832 2.942C12.0146 2.92911 12.2812 2.88721 12.369 2.77034C12.3814 2.75251 12.377 2.46917 12.4631 2.47474C12.9671 2.51345 13.4907 2.68609 13.983 3.00718C14.0614 3.05949 13.886 3.31758 13.9396 3.35699C14.3082 3.63219 14.8882 3.59712 15.2741 4.12127C15.5202 4.47704 15.1308 4.84661 14.9865 5.35915C14.9667 5.43014 15.1232 5.56918 14.9365 5.7996C14.4555 6.36158 13.8999 6.95213 13.3994 7.56164C13.2952 7.69774 13.3528 7.49905 13.1097 7.83516C13.0959 7.86098 13.0576 8.00787 12.9818 8.12415C12.9324 8.2074 12.7339 8.43264 12.6832 8.54847C12.6365 8.66678 12.7952 8.4712 12.7323 8.6024C12.6679 8.7347 12.4979 9.02994 12.5024 9.07807ZM19.8535 20.814C19.5453 20.8414 20.5381 21.1737 20.3383 20.9743C20.3274 20.9643 19.8687 20.8124 19.8535 20.814ZM20.9917 7.81027C20.8989 8.28559 21.3059 7.73234 21.3855 7.37089C21.4697 7.01198 21.0219 7.66718 20.9917 7.81027ZM19.4942 7.31823C19.4559 7.72149 20.2529 6.46887 19.9353 6.62647C19.9171 6.6352 19.4963 7.29474 19.4942 7.31823ZM14.2999 5.1342C14.2958 5.14723 14.3949 5.2089 14.4043 5.19858C14.6108 4.92852 14.3945 4.79639 14.2999 5.1342ZM17.9577 6.80746C17.9001 7.00747 18.1597 6.89435 18.23 6.6447C18.2852 6.44304 18.0286 6.55815 17.9577 6.80746ZM14.5383 24.0985C14.5358 24.083 14.4669 24.0719 14.472 24.16C14.4885 24.4436 14.5816 24.3592 14.5383 24.0985ZM15.6433 5.44364C15.9588 5.69347 15.5391 6.86988 15.241 6.5337C15.1867 6.47275 15.5832 6.28135 15.5543 6.13607C15.499 5.86985 15.0079 6.47444 15.0545 6.0238C15.0634 5.94153 15.6273 5.42737 15.6448 5.44252C15.6443 5.4429 15.6438 5.44327 15.6433 5.44364ZM18.6336 20.5016C18.62 20.4989 18.5786 20.5863 18.591 20.5924C18.8922 20.7424 18.9757 20.5666 18.6336 20.5016ZM10.7305 23.1986C10.7309 23.1695 10.5721 23.0874 10.5608 23.1103C10.2576 23.5811 10.6613 23.7781 10.7305 23.1986ZM20.1759 14.2131C19.934 13.9584 19.9672 13.819 20.3743 13.9536C20.3013 14.0357 20.2456 14.1284 20.1759 14.2131Z" fill="#4C422C"/>
</g>
<defs>
<filter id="filter0_g_8_5300" x="0" y="0" width="27.3972" height="29.3482" filterUnits="userSpaceOnUse" color-interpolation-filters="sRGB">
<feFlood flood-opacity="0" result="BackgroundImageFix"/>
<feBlend mode="normal" in="SourceGraphic" in2="BackgroundImageFix" result="shape"/>
<feTurbulence type="fractalNoise" baseFrequency="0.5 0.5" numOctaves="3" seed="5566" />
<feDisplacementMap in="shape" scale="4" xChannelSelector="R" yChannelSelector="G" result="displacedImage" width="100%" height="100%" />
<feMerge result="effect1_texture_8_5300">
<feMergeNode in="displacedImage"/>
</feMerge>
</filter>
</defs>
</svg>
