<svg width="429" height="262" viewBox="0 0 429 262" fill="none" xmlns="http://www.w3.org/2000/svg">
<g filter="url(#filter0_g_8_5332)">
<path d="M386.929 128.396C386.416 127.757 386.026 127.624 385.836 127.562C385.637 127.509 385.547 127.549 385.493 127.602C385.459 127.636 385.422 127.818 385.403 127.851C385.371 127.917 385.388 127.828 385.375 127.913C385.371 127.942 385.309 128.23 385.307 128.254C385.303 128.385 385.357 128.319 385.396 128.388C385.613 128.732 385.998 128.875 386.373 129.033C386.497 129.084 386.643 129.36 386.785 129.25C386.802 129.237 386.805 128.979 386.809 128.958C386.873 128.635 386.833 129.154 386.86 129.225C386.966 129.503 387.109 129.533 387.23 129.439C387.283 129.398 387.252 128.884 387.292 129.173C387.295 129.193 387.271 129.466 387.284 129.496C387.3 129.532 387.326 129.535 387.351 129.533C387.37 129.532 387.389 129.528 387.4 129.538C387.445 129.583 387.453 129.581 387.498 129.586C387.559 129.594 387.632 129.733 387.698 129.673C387.712 129.66 387.703 129.378 387.727 129.331C387.75 129.284 387.809 129.31 387.827 129.377C387.846 129.444 387.83 129.664 387.832 129.715C387.848 130.142 387.938 129.554 387.947 129.539C388.112 129.295 388.249 129.636 388.399 129.638C388.515 129.64 388.645 129.532 388.753 129.549C388.885 129.572 388.996 129.726 389.124 129.703C389.137 129.7 389.128 129.37 389.144 129.367C389.324 129.332 389.494 129.371 389.668 129.597C389.686 129.62 389.658 129.909 389.675 129.949C389.779 130.189 389.94 130.764 390.025 129.503C390.099 129.554 390.185 129.606 390.247 129.861C390.286 130.026 390.241 130.341 390.295 130.207C390.307 130.177 390.296 129.9 390.313 129.876C390.389 129.776 390.469 129.867 390.545 129.725C390.56 129.696 390.559 129.448 390.564 129.403C390.603 129.042 390.654 129.641 390.666 129.684C390.76 130.009 390.833 129.883 390.925 129.892C390.947 129.894 390.926 129.561 390.946 129.551C391.052 129.504 391.16 129.534 391.262 129.683C391.285 129.717 391.261 130 391.271 130.031C391.319 130.163 391.335 129.627 391.381 129.744C391.391 129.767 391.383 130.01 391.384 130.037C391.408 130.456 391.438 129.863 391.445 129.85C391.537 129.672 391.589 130.291 391.679 130.205C391.689 130.194 391.668 129.886 391.698 129.874C391.9 129.791 392.102 129.877 392.299 130.125C392.329 130.163 392.305 130.393 392.307 130.422C392.335 130.866 392.359 130.271 392.369 130.249C392.448 130.088 392.517 130.588 392.576 129.879C392.907 130.128 393.239 129.732 393.562 130.369C393.566 130.376 393.557 130.669 393.566 130.683C393.665 130.848 393.649 130.392 393.719 129.835C393.736 129.695 393.784 130.369 393.788 130.418C393.803 130.6 393.784 131.036 393.789 131.071C393.833 131.348 393.833 129.905 393.894 129.905C393.896 129.907 393.887 130.173 393.892 130.199C393.907 130.282 393.924 130.177 393.939 130.268C393.973 130.48 393.982 131.181 394.039 130.773C394.047 130.721 394.04 129.902 394.095 129.941C394.116 129.957 394.214 129.944 394.241 129.997C394.268 130.05 394.248 130.314 394.25 130.325C394.321 130.674 394.293 130.818 394.327 131.335C394.361 131.849 394.356 130.623 394.372 130.486C394.387 130.349 394.439 130.637 394.452 130.737C394.464 130.838 394.447 131.005 394.459 131.062C394.534 131.432 394.495 130.453 394.522 130.258C394.584 129.798 394.627 130.708 394.682 130.797C394.697 130.821 394.685 130.614 394.699 130.594C394.752 130.521 394.783 130.805 394.843 130.545C394.853 130.502 394.903 129.955 394.933 130.357C394.937 130.415 394.924 130.642 394.946 130.692C394.979 130.769 395.039 130.819 395.075 130.743C395.102 130.687 395.073 130.313 395.106 130.429C395.121 130.481 395.092 130.7 395.12 130.779C395.147 130.858 395.219 130.849 395.246 130.841C395.273 130.834 395.259 130.55 395.261 130.531C395.275 130.422 395.328 130.285 395.332 130.286C395.56 130.252 395.775 130.73 395.998 130.573C396.016 130.561 396.005 130.262 396.008 130.257C396.068 130.132 396.019 130.926 396.06 131.192C396.056 130.586 396.08 130.696 396.123 130.63C396.144 130.597 396.133 130.362 396.135 130.338C396.166 129.982 396.186 130.442 396.191 130.537C396.211 130.883 396.234 130.474 396.247 130.705C396.26 130.935 396.228 131.276 396.268 131.272C396.281 131.055 396.252 130.488 396.283 130.396C396.402 130.048 396.616 130.494 396.711 130.54C396.805 130.587 396.835 130.547 396.89 130.625C396.989 130.767 396.953 130.346 397.014 130.154C397.076 129.961 397.044 130.997 397.053 131.219C397.061 131.442 397.071 131.213 397.081 131.335C397.092 131.458 397.068 131.609 397.093 131.655C397.119 131.701 397.188 131.305 397.198 131.072C397.218 130.579 397.187 130.062 397.254 130.244C397.258 130.254 397.245 130.527 397.26 130.554C397.376 130.764 397.499 130.777 397.615 130.963C397.631 130.989 397.616 131.292 397.625 131.31C397.722 131.504 397.688 130.993 397.742 130.426C397.729 131.181 397.758 131.643 397.832 131.647C397.877 131.65 397.87 131.321 397.899 131.088C397.907 131.018 397.939 131.245 397.945 131.09C397.964 130.583 397.935 130.015 398.011 130.241C398.015 130.252 398.004 130.529 398.015 130.546C398.09 130.656 398.099 130.126 398.18 130.062C398.243 130.012 398.355 130.335 398.427 130.388C398.425 131.237 398.494 131.042 398.522 130.457C398.569 130.481 398.62 130.448 398.664 130.529C398.68 130.557 398.669 130.802 398.671 130.829C398.701 131.246 398.722 130.676 398.732 130.654C398.841 130.437 398.93 130.869 399.035 130.447C399.039 130.432 399.045 129.842 399.073 130.273C399.075 130.302 399.04 130.571 399.089 130.591C399.139 130.612 399.231 130.928 399.299 130.655C399.316 130.589 399.358 130.111 399.391 130.485C399.395 130.535 399.39 130.705 399.397 130.799C399.417 131.099 399.429 130.503 399.453 131.009C399.478 131.515 399.528 131.895 399.598 131.545C399.6 131.535 399.616 131.063 399.638 131.07C399.673 131.083 399.722 131.181 399.758 131.178C399.775 131.176 399.764 130.883 399.767 130.878C399.883 130.713 399.966 130.975 400.09 131.088C400.113 131.11 400.179 130.71 400.223 131.026C400.271 131.372 400.221 132.812 400.333 132.469C400.378 132.332 400.435 130.505 400.515 131.452C400.672 131.217 400.817 131.702 400.974 131.367C400.981 131.352 401.004 130.842 401.02 130.849C401.045 130.86 401.058 131.098 401.076 131.114C401.15 131.186 401.217 130.982 401.288 131.014C401.315 131.025 401.306 131.272 401.338 131.286C401.37 131.299 401.392 130.975 401.435 131.131C401.469 131.251 401.501 131.914 401.545 131.991C401.547 131.337 401.577 131.351 401.63 131.178C401.64 131.144 401.629 130.917 401.634 130.889C401.654 130.772 401.672 130.96 401.691 130.833C401.696 130.802 401.696 130.579 401.699 130.541C401.731 130.212 401.783 130.714 401.792 130.802C401.827 131.134 401.843 130.844 401.869 130.975C401.896 131.105 401.856 131.269 401.887 131.348C401.951 131.513 402.033 131.477 402.098 131.487C402.124 131.49 402.106 131.191 402.11 131.185C402.163 131.109 402.217 131.426 402.247 130.832C402.284 132.368 402.279 130.683 402.355 130.991C402.361 131.016 402.369 131.742 402.346 131.849C402.323 131.955 402.288 131.728 402.256 131.894C402.248 131.933 402.205 132.614 402.199 132.655C402.152 132.978 402.146 131.892 402.143 131.832C402.115 131.189 402.062 131.922 402.048 131.973C401.984 132.205 401.93 132.053 401.876 132.218C401.841 132.325 401.838 133.036 401.81 133.015C401.719 132.943 401.687 131.951 401.601 132.811C401.582 132.994 401.6 133.771 401.534 133.16C401.53 133.122 401.481 132.563 401.453 132.916C401.449 132.961 401.449 133.187 401.445 133.206C401.413 133.329 401.392 133.149 401.358 133.235C401.323 133.322 401.282 133.451 401.243 133.374C401.219 133.328 401.189 132.906 401.177 132.803C401.146 132.505 401.111 132.993 401.092 132.633C401.072 132.27 401.111 131.72 401.058 131.486C401.056 132.075 401.052 132.679 401.049 133.27C400.934 133.25 400.821 133.059 400.706 133.085C400.692 133.089 400.706 133.406 400.691 133.418C400.627 133.468 400.57 133.243 400.503 133.332C400.452 133.403 400.395 133.738 400.341 133.822C400.308 133.149 400.227 133.378 400.169 133.316C400.148 133.295 400.15 133.115 400.135 133.056C400.08 132.839 400.106 133.434 400.091 133.528C400.026 133.927 400.021 132.581 399.945 132.614C399.941 132.615 399.892 133.333 399.885 133.378C399.842 133.669 399.878 133.128 399.851 133.075C399.802 132.978 399.768 132.806 399.71 133.017C399.693 133.079 399.652 133.526 399.619 133.18C399.615 133.135 399.617 132.898 399.614 132.884C399.551 132.652 399.549 133.398 399.513 133.65C399.477 133.903 399.422 133.388 399.411 133.24C399.382 132.856 399.434 133.076 399.435 133.038C399.454 132.59 399.414 132.667 399.383 132.629C399.379 131.898 399.336 131.942 399.351 132.593C399.353 132.664 399.377 132.596 399.383 132.629C399.356 133.346 399.308 133.438 399.256 132.768C399.232 132.454 399.255 132.087 399.181 132.221C399.147 132.282 399.16 132.785 399.13 132.922C399.061 133.235 398.973 132.766 398.902 132.84C398.877 132.867 398.901 133.142 398.884 133.17C398.838 133.245 398.797 133.038 398.751 133.144C398.746 133.154 398.756 133.442 398.742 133.446C398.633 133.479 398.537 133.294 398.423 133.289C398.367 133.287 398.268 133.446 398.211 133.414C398.112 133.36 397.991 132.94 397.905 133.042C397.85 133.107 397.862 133.396 397.838 133.592C397.791 133.973 397.711 133.291 397.701 133.185C397.7 133.181 397.748 133.114 397.723 132.965C397.709 132.657 397.701 133.184 397.701 133.185C397.694 133.117 397.599 133.051 397.58 133.106C397.57 133.136 397.575 133.41 397.57 133.42C397.443 133.665 397.314 133.734 397.185 133.606C397.183 133.6 397.187 133.295 397.182 133.285C397.107 133.149 397.059 133.523 396.997 133.745C396.936 133.967 396.887 133.893 396.851 133.368C396.804 133.434 396.738 133.201 396.7 133.061C396.662 132.92 396.655 133.515 396.652 133.527C396.546 133.903 396.486 133.562 396.377 133.509C396.325 133.483 396.221 133.569 396.165 133.634C396.12 133.686 396.094 133.546 396.053 133.635C396.047 133.647 396.052 133.912 396.05 133.923C396.004 134.239 396.027 133.592 396.018 133.476C395.985 133.055 395.965 132.831 395.906 133.029C395.892 133.074 395.851 134.007 395.826 134.061C395.794 134.13 395.807 133.796 395.773 133.877C395.77 133.884 395.77 134.09 395.749 134.081C395.653 134.041 395.548 133.92 395.449 133.941C395.435 133.943 395.451 134.27 395.432 134.278C395.34 134.317 395.238 134.304 395.148 134.151C395.126 134.112 395.141 133.883 395.136 133.815C395.108 133.403 395.064 134.001 395.057 134.013C394.891 134.299 394.768 133.758 394.597 134.015C394.588 134.03 394.515 134.67 394.486 134.12C394.484 134.084 394.455 133.521 394.426 133.906C394.424 133.93 394.442 134.219 394.409 134.19C394.375 134.16 394.32 134.353 394.275 134.035C394.261 133.935 394.229 133.373 394.182 133.82C394.179 133.852 394.106 134.863 394.085 134.165C394.082 134.05 394.09 133.312 394.035 133.69C394.025 133.763 394.042 133.928 394.015 134.031C393.974 134.189 393.922 133.991 393.871 134.32C393.862 134.378 393.822 134.879 393.795 134.498C393.79 134.439 393.801 134.192 393.785 134.165C393.712 134.032 393.632 134.196 393.557 134.025C393.531 133.965 393.547 133.567 393.52 133.46C393.492 133.353 393.437 133.25 393.407 133.432C393.377 133.614 393.405 134.249 393.361 134.3C393.171 134.519 392.981 134.145 392.794 134.09C392.766 134.081 392.788 134.309 392.746 134.313C392.59 134.329 392.327 134.54 392.197 134.056C392.093 133.668 392.23 133.375 392.15 133.216C392.111 133.141 392.062 133.879 392.052 133.902C391.958 134.138 391.896 133.81 391.813 133.909C391.795 133.93 391.81 134.23 391.795 134.244C391.744 134.295 391.692 134.161 391.643 134.185C391.622 134.197 391.624 134.425 391.604 134.407C391.557 134.367 391.516 134.271 391.472 134.056C391.468 134.037 391.499 133.753 391.465 133.742C391.409 133.725 391.342 133.513 391.273 133.73C391.253 133.796 391.246 134.318 391.208 133.957C391.2 133.881 391.218 133.254 391.164 133.796C391.155 133.886 391.065 134.616 391.031 134.144C391.022 134.02 391.001 133.506 390.977 133.587C390.974 133.6 390.983 133.88 390.964 133.908C390.896 133.998 390.823 133.968 390.752 134.055C390.733 134.078 390.757 134.369 390.729 134.395C390.651 134.468 390.557 134.393 390.484 134.301C390.457 134.266 390.479 134.026 390.478 134C390.451 133.574 390.424 134.148 390.412 134.181C390.342 134.381 390.295 134.11 390.232 134.181C390.215 134.2 390.223 134.474 390.22 134.498C390.181 134.737 390.214 134.245 390.193 134.19C390.133 134.036 390.066 134.057 390.001 134.091C389.977 134.104 389.999 134.422 389.977 134.43C389.852 134.483 389.726 134.45 389.609 134.273C389.587 134.239 389.606 133.995 389.602 133.939C389.575 133.547 389.518 134.08 389.506 134.13C389.452 134.361 389.437 134.145 389.392 134.184C389.176 134.382 388.913 134.233 388.707 134.14C388.446 134.02 388.246 133.782 387.986 133.836C387.97 133.839 387.977 134.164 387.963 134.171C387.783 134.245 387.604 134.112 387.418 134.2C387.403 134.206 387.414 134.515 387.389 134.536C387.337 134.581 387.274 134.562 387.228 134.462C387.205 134.414 387.247 134.15 387.225 134.107C387.21 134.078 387.194 134.056 387.179 134.04C387.136 133.998 387.092 133.995 387.048 134.028C387.022 134.049 387.047 134.366 387.014 134.368C386.793 134.391 386.557 134.434 386.352 134.014C386.337 133.985 386.358 133.344 386.318 133.465C386.305 133.642 386.294 133.851 386.282 134.041C385.94 134.124 385.614 133.88 385.253 133.811C385.237 133.808 385.232 134.149 385.2 134.145C385.024 134.123 384.824 134.195 384.661 133.831C384.644 133.795 384.739 133.205 384.668 133.286C384.657 133.301 384.55 133.365 384.503 133.489C384.497 133.508 384.47 133.786 384.436 133.789C384.234 133.797 384.021 133.696 383.738 133.431C383.69 133.387 383.838 133.122 383.807 133.089C383.706 132.972 383.54 132.935 383.3 132.814C383.075 132.694 382.667 132.452 382.416 131.82C382.268 131.398 382.422 131.205 382.603 131.085C382.791 130.965 383.027 130.865 383.26 130.728C383.322 130.678 383.324 130.529 383.62 130.531C384.359 130.518 385.169 130.489 385.957 130.467C386.128 130.497 385.945 130.485 386.355 130.494C386.383 130.516 386.52 130.41 386.646 130.29C386.735 130.223 387.046 130.302 387.151 130.152C387.249 129.983 386.978 129.841 386.981 129.47C386.96 129.099 387.352 129.006 386.929 128.396ZM396.529 132.431C396.494 132.145 396.486 133.192 396.525 132.941C396.527 132.928 396.53 132.445 396.529 132.431ZM400.822 132.27C400.776 131.808 400.744 132.487 400.777 132.844C400.809 133.2 400.836 132.41 400.822 132.27ZM401.303 131.933C401.249 131.569 401.24 133.053 401.298 132.753C401.301 132.736 401.306 131.954 401.303 131.933ZM383.821 131.389C383.827 131.377 383.753 131.298 383.739 131.302C383.453 131.496 383.662 131.707 383.821 131.389ZM401.78 131.566C401.763 131.365 401.714 131.597 401.735 131.847C401.752 132.047 401.801 131.816 401.78 131.566ZM394.681 131.308C394.681 131.292 394.66 131.278 394.66 131.366C394.66 131.65 394.689 131.57 394.681 131.308ZM402.591 131.549C402.471 131.493 402.398 130.267 402.529 130.405C402.553 130.43 402.478 130.796 402.508 130.907C402.563 131.108 402.6 130.338 402.656 130.751C402.666 130.826 402.598 131.555 402.591 131.55C402.591 131.55 402.591 131.549 402.591 131.549ZM396.511 131.173C396.51 131.16 396.482 131.146 396.481 131.16C396.465 131.492 396.522 131.519 396.511 131.173ZM393.485 130.655C393.483 130.625 393.418 130.597 393.415 130.624C393.378 131.168 393.51 131.226 393.485 130.655ZM398.429 130.41C398.46 130.076 398.497 130.037 398.522 130.457C398.491 130.434 398.46 130.431 398.429 130.41ZM374.84 154.967C374.911 154.875 375.008 154.973 375.08 155.107C375.103 155.148 375.092 155.334 375.108 155.371C375.139 155.443 375.166 155.352 375.197 155.438C375.207 155.467 375.195 155.761 375.205 155.785C375.264 155.915 375.317 155.84 375.376 155.902C375.666 156.21 375.947 156.32 376.239 156.452C376.336 156.495 376.455 156.761 376.552 156.644C376.563 156.63 376.555 156.372 376.557 156.351C376.589 156.025 376.581 156.546 376.604 156.615C376.698 156.888 376.795 156.911 376.882 156.81C376.918 156.767 376.877 156.255 376.916 156.542C376.919 156.562 376.912 156.836 376.922 156.865C376.945 156.93 376.988 156.881 377.006 156.902C377.04 156.945 377.046 156.943 377.079 156.945C377.123 156.952 377.176 157.087 377.223 157.025C377.233 157.01 377.217 156.73 377.232 156.682C377.248 156.634 377.291 156.657 377.306 156.723C377.321 156.789 377.318 157.01 377.321 157.061C377.346 157.488 377.389 156.896 377.395 156.881C377.508 156.63 377.61 156.966 377.72 156.964C377.802 156.961 377.888 156.849 377.967 156.863C378.06 156.881 378.142 157.032 378.233 157.004C378.242 157.002 378.226 156.672 378.237 156.668C378.36 156.628 378.485 156.662 378.612 156.882C378.625 156.905 378.614 157.195 378.627 157.234C378.708 157.471 378.838 158.041 378.86 156.778C378.913 156.827 378.976 156.876 379.027 157.13C379.06 157.293 379.037 157.609 379.071 157.474C379.079 157.444 379.062 157.167 379.074 157.143C379.124 157.041 379.184 157.129 379.231 156.985C379.241 156.956 379.233 156.708 379.235 156.663C379.252 156.301 379.306 156.898 379.316 156.941C379.391 157.263 379.44 157.135 379.504 157.141C379.518 157.143 379.493 156.81 379.507 156.8C379.58 156.751 379.658 156.777 379.734 156.923C379.751 156.956 379.743 157.24 379.751 157.271C379.788 157.401 379.783 156.866 379.818 156.981C379.826 157.004 379.828 157.247 379.83 157.273C379.86 157.691 379.862 157.098 379.867 157.085C379.926 156.905 379.984 157.522 380.043 157.433C380.05 157.422 380.025 157.115 380.046 157.102C380.181 157.014 380.33 157.094 380.474 157.336C380.496 157.373 380.488 157.604 380.49 157.632C380.525 158.076 380.522 157.48 380.528 157.458C380.579 157.295 380.644 157.793 380.66 157.083C380.901 157.322 381.118 156.917 381.37 157.544C381.373 157.551 381.377 157.844 381.384 157.858C381.46 158.02 381.431 157.565 381.458 157.006C381.465 156.866 381.524 157.537 381.529 157.586C381.546 157.768 381.549 158.204 381.554 158.239C381.596 158.514 381.541 157.072 381.584 157.07C381.585 157.073 381.589 157.338 381.593 157.365C381.608 157.447 381.615 157.341 381.629 157.432C381.662 157.643 381.696 158.343 381.72 157.934C381.72 157.927 381.72 157.907 381.719 157.877L381.699 157.879C381.685 157.683 381.634 157.071 381.668 157.102C381.684 157.117 381.746 157.098 381.769 157.149C381.791 157.2 381.803 157.464 381.805 157.475C381.886 157.818 381.88 157.964 381.953 158.475C382.027 158.985 381.905 157.764 381.902 157.627C381.899 157.49 381.963 157.773 381.982 157.872C382.001 157.971 382.006 158.139 382.019 158.194C382.11 158.557 381.983 157.586 381.98 157.39C381.973 156.928 382.098 157.829 382.145 157.914C382.158 157.937 382.128 157.732 382.135 157.711C382.162 157.634 382.215 157.914 382.227 157.651C382.229 157.608 382.197 157.061 382.265 157.457C382.274 157.514 382.292 157.74 382.314 157.789C382.345 157.862 382.393 157.906 382.408 157.828C382.419 157.77 382.352 157.402 382.389 157.514C382.405 157.564 382.414 157.783 382.443 157.86C382.472 157.936 382.519 157.92 382.537 157.91C382.554 157.9 382.507 157.62 382.506 157.601C382.501 157.492 382.517 157.352 382.52 157.351C382.665 157.297 382.879 157.748 383.005 157.566C383.015 157.553 382.958 157.259 382.959 157.254C382.978 157.124 383.078 157.913 383.151 158.17C383.046 157.573 383.081 157.678 383.098 157.608C383.106 157.573 383.059 157.343 383.056 157.319C383.015 156.965 383.108 157.416 383.128 157.508C383.201 157.847 383.145 157.441 383.195 157.668C383.244 157.893 383.282 158.232 383.31 158.223C383.279 158.008 383.159 157.453 383.163 157.359C383.177 157.003 383.401 157.413 383.474 157.446C383.545 157.479 383.557 157.435 383.61 157.505C383.705 157.63 383.594 157.223 383.594 157.026C383.594 156.829 383.791 157.846 383.844 158.062C383.896 158.279 383.855 158.053 383.888 158.171C383.921 158.289 383.937 158.441 383.964 158.482C383.992 158.523 383.956 158.125 383.912 157.897C383.819 157.412 383.687 156.911 383.77 157.079C383.775 157.089 383.826 157.357 383.841 157.382C383.965 157.569 384.05 157.563 384.172 157.725C384.188 157.747 384.248 158.045 384.258 158.061C384.37 158.234 384.229 157.742 384.134 157.182C384.3 157.918 384.427 158.363 384.48 158.355C384.512 158.35 384.429 158.031 384.394 157.8C384.384 157.731 384.459 157.946 384.426 157.794C384.319 157.298 384.165 156.752 384.27 156.959C384.274 156.969 384.333 157.24 384.345 157.255C384.421 157.349 384.301 156.833 384.34 156.757C384.37 156.698 384.523 156.993 384.585 157.031C384.789 157.855 384.789 157.655 384.666 157.083C384.699 157.096 384.723 157.067 384.763 157.106C384.768 157.112 384.774 157.119 384.781 157.128C384.798 157.152 384.851 157.392 384.858 157.418C384.98 157.817 384.856 157.261 384.857 157.237C384.879 157.008 385.045 157.412 385.014 156.985C385.013 156.969 384.874 156.396 384.998 156.809C385.006 156.837 385.048 157.104 385.086 157.115C385.125 157.127 385.265 157.418 385.245 157.141C385.24 157.075 385.153 156.603 385.266 156.96C385.282 157.009 385.32 157.174 385.347 157.264C385.434 157.551 385.297 156.971 385.436 157.458C385.576 157.945 385.703 158.304 385.665 157.954C385.664 157.943 385.561 157.482 385.577 157.486C385.604 157.492 385.661 157.579 385.685 157.57C385.697 157.565 385.618 157.283 385.619 157.277C385.658 157.098 385.778 157.337 385.891 157.426C385.911 157.443 385.859 157.044 385.966 157.343C386.083 157.67 386.398 159.076 386.391 158.724C386.389 158.583 385.984 156.801 386.269 157.706C386.319 157.451 386.536 157.897 386.562 157.545C386.563 157.529 386.455 157.031 386.468 157.035C386.487 157.041 386.554 157.27 386.57 157.283C386.638 157.34 386.635 157.13 386.691 157.149C386.712 157.155 386.765 157.396 386.791 157.404C386.816 157.412 386.752 157.093 386.82 157.238C386.871 157.348 387.055 157.986 387.103 158.053C386.946 157.418 386.97 157.426 386.964 157.25C386.963 157.215 386.9 156.996 386.897 156.969C386.882 156.852 386.94 157.032 386.922 156.904C386.918 156.874 386.864 156.657 386.857 156.62C386.799 156.295 386.957 156.774 386.984 156.857C387.088 157.174 387.029 156.889 387.078 157.012C387.128 157.134 387.141 157.299 387.181 157.371C387.264 157.52 387.312 157.471 387.358 157.469C387.377 157.468 387.292 157.181 387.293 157.174C387.311 157.092 387.425 157.39 387.302 156.809C387.699 158.293 387.287 156.659 387.414 156.944C387.424 156.967 387.606 157.671 387.616 157.778C387.626 157.885 387.547 157.671 387.565 157.838C387.57 157.877 387.705 158.545 387.711 158.586C387.757 158.906 387.49 157.854 387.473 157.797C387.298 157.178 387.44 157.898 387.443 157.95C387.455 158.186 387.381 158.047 387.385 158.217C387.387 158.327 387.557 159.017 387.533 159.001C387.453 158.947 387.19 157.99 387.34 158.839C387.372 159.02 387.573 159.771 387.38 159.189C387.367 159.153 387.198 158.619 387.265 158.967C387.273 159.01 387.328 159.23 387.329 159.249C387.338 159.374 387.28 159.203 387.277 159.292C387.275 159.382 387.278 159.514 387.232 159.446C387.205 159.406 387.082 159.002 387.049 158.903C386.955 158.62 387.05 159.099 386.949 158.753C386.848 158.405 386.741 157.865 386.649 157.647C386.79 158.218 386.933 158.804 387.075 159.379C386.991 159.379 386.868 159.213 386.796 159.258C386.787 159.264 386.874 159.569 386.866 159.583C386.835 159.643 386.741 159.434 386.717 159.532C386.699 159.61 386.742 159.944 386.725 160.035C386.539 159.388 386.54 159.623 386.485 159.574C386.466 159.556 386.423 159.382 386.399 159.327C386.309 159.126 386.471 159.699 386.483 159.792C386.536 160.191 386.206 158.886 386.162 158.931C386.16 158.933 386.3 159.638 386.306 159.682C386.347 159.972 386.241 159.441 386.209 159.394C386.152 159.309 386.087 159.148 386.099 159.362C386.102 159.425 386.183 159.866 386.077 159.536C386.063 159.493 386.007 159.262 386.001 159.249C385.902 159.035 386.082 159.759 386.119 160.01C386.156 160.261 385.993 159.771 385.949 159.629C385.836 159.262 385.925 159.466 385.917 159.429C385.821 158.991 385.812 159.073 385.782 159.042C385.602 158.333 385.583 158.383 385.751 159.012C385.77 159.081 385.77 159.01 385.782 159.042C385.937 159.742 385.927 159.839 385.729 159.198C385.636 158.897 385.563 158.538 385.545 158.681C385.536 158.745 385.667 159.231 385.68 159.37C385.71 159.685 385.535 159.245 385.505 159.328C385.494 159.359 385.578 159.622 385.573 159.652C385.559 159.732 385.481 159.539 385.475 159.649C385.475 159.66 385.552 159.938 385.543 159.944C385.523 159.96 385.498 159.955 385.472 159.942C385.412 159.912 385.342 159.837 385.286 159.847C385.247 159.854 385.215 160.026 385.167 160.005C385.083 159.97 384.896 159.584 384.859 159.698C384.835 159.771 384.911 160.049 384.939 160.245C384.994 160.623 384.776 159.974 384.744 159.873C384.743 159.869 384.762 159.795 384.709 159.655C384.627 159.358 384.744 159.871 384.744 159.873C384.723 159.808 384.638 159.76 384.636 159.817C384.636 159.848 384.702 160.114 384.7 160.125C384.66 160.385 384.577 160.476 384.449 160.373C384.446 160.368 384.384 160.068 384.378 160.06C384.292 159.94 384.335 160.313 384.332 160.541C384.329 160.768 384.274 160.704 384.14 160.195C384.117 160.268 384.019 160.051 383.962 159.919C383.905 159.786 384.016 160.371 384.016 160.383C384.005 160.769 383.89 160.444 383.795 160.408C383.749 160.39 383.682 160.489 383.648 160.561C383.621 160.619 383.576 160.485 383.558 160.579C383.556 160.591 383.605 160.852 383.605 160.862C383.62 161.181 383.531 160.539 383.504 160.426C383.407 160.016 383.355 159.798 383.342 160C383.339 160.047 383.455 160.973 383.443 161.03C383.428 161.102 383.385 160.771 383.371 160.855C383.369 160.862 383.402 161.066 383.383 161.059C383.297 161.033 383.194 160.927 383.116 160.958C383.105 160.962 383.165 161.284 383.15 161.295C383.078 161.344 382.991 161.343 382.897 161.201C382.874 161.165 382.857 160.936 382.844 160.869C382.769 160.464 382.809 161.061 382.805 161.073C382.703 161.375 382.538 160.849 382.43 161.12C382.425 161.136 382.431 161.779 382.351 161.235C382.345 161.199 382.265 160.641 382.28 161.026C382.281 161.05 382.325 161.337 382.294 161.31C382.264 161.284 382.238 161.48 382.171 161.167C382.149 161.068 382.071 160.512 382.076 160.961C382.077 160.992 382.108 162.004 382.029 161.311C382.017 161.196 381.958 160.46 381.948 160.841C381.946 160.903 381.966 161.028 381.964 161.128L381.835 161.136C381.834 161.155 381.832 161.173 381.83 161.189C381.806 161.349 381.761 161.153 381.737 161.483C381.733 161.541 381.724 162.043 381.689 161.663C381.684 161.604 381.682 161.357 381.67 161.33C381.612 161.2 381.563 161.366 381.503 161.198C381.482 161.138 381.478 160.74 381.455 160.634C381.431 160.528 381.388 160.426 381.373 160.609C381.359 160.792 381.402 161.426 381.373 161.478C381.245 161.703 381.097 161.335 380.962 161.284C380.941 161.277 380.965 161.503 380.935 161.509C380.826 161.529 380.645 161.747 380.536 161.267C380.449 160.883 380.536 160.586 380.474 160.43C380.444 160.356 380.435 161.095 380.428 161.118C380.37 161.356 380.314 161.03 380.258 161.132C380.246 161.153 380.266 161.452 380.256 161.467C380.222 161.52 380.181 161.387 380.148 161.412C380.133 161.424 380.141 161.653 380.127 161.635C380.093 161.597 380.06 161.501 380.022 161.288C380.018 161.269 380.031 160.984 380.006 160.974C379.965 160.959 379.91 160.749 379.87 160.968C379.858 161.034 379.87 161.556 379.832 161.196C379.824 161.121 379.817 160.494 379.795 161.036C379.792 161.127 379.751 161.859 379.711 161.388C379.701 161.265 379.67 160.752 379.655 160.833C379.653 160.846 379.669 161.126 379.656 161.154C379.61 161.246 379.559 161.218 379.511 161.307C379.498 161.331 379.525 161.621 379.505 161.648C379.452 161.722 379.383 161.65 379.328 161.56C379.308 161.527 379.316 161.286 379.315 161.26C379.283 160.834 379.281 161.409 379.274 161.443C379.231 161.645 379.189 161.375 379.147 161.448C379.136 161.467 379.15 161.741 379.148 161.765C379.128 162.004 379.136 161.512 379.12 161.458C379.073 161.305 379.025 161.328 378.98 161.364C378.964 161.378 378.989 161.695 378.974 161.704C378.888 161.76 378.799 161.731 378.709 161.558C378.693 161.525 378.698 161.28 378.694 161.224C378.664 160.833 378.64 161.367 378.633 161.418C378.602 161.651 378.585 161.435 378.555 161.475C378.406 161.679 378.216 161.539 378.073 161.452C377.884 161.341 377.736 161.11 377.561 161.173C377.549 161.176 377.565 161.502 377.555 161.509C377.429 161.589 377.305 161.463 377.18 161.558C377.17 161.566 377.187 161.874 377.171 161.896C377.138 161.943 377.094 161.927 377.058 161.829C377.041 161.781 377.061 161.516 377.044 161.474C377.004 161.375 376.962 161.354 376.922 161.403C376.905 161.425 376.934 161.741 376.911 161.745C376.758 161.777 376.61 161.833 376.453 161.425C376.443 161.397 376.429 160.756 376.408 160.879C376.407 161.057 376.408 161.266 376.409 161.456C376.188 161.56 375.968 161.339 375.747 161.305C375.738 161.304 375.755 161.643 375.737 161.642C375.632 161.638 375.53 161.732 375.423 161.394C375.413 161.361 375.417 160.764 375.386 160.854C375.38 160.871 375.333 160.95 375.322 161.08C375.32 161.1 375.329 161.379 375.314 161.387C375.226 161.429 375.135 161.366 375.046 161.195C375.032 161.167 375.047 160.87 375.037 160.848C374.967 160.69 374.887 160.916 374.82 160.646C374.774 160.464 374.791 159.951 374.767 159.445C374.764 159.374 374.736 159.362 374.734 159.068C374.731 158.328 374.744 157.518 374.739 156.73C374.737 156.56 374.701 156.743 374.722 156.332C374.724 156.305 374.751 156.169 374.757 156.03C374.762 155.933 374.754 155.634 374.763 155.511C374.773 155.388 374.783 155.639 374.799 155.494C374.815 155.347 374.808 155.007 374.84 154.967ZM383.711 159.326C383.631 159.051 383.822 160.08 383.805 159.828C383.804 159.815 383.715 159.34 383.711 159.326ZM386.677 158.447C386.534 158.007 386.677 158.671 386.785 159.011C386.894 159.351 386.721 158.58 386.677 158.447ZM386.924 158.038C386.799 157.694 387.153 159.136 387.12 158.835C387.118 158.818 386.931 158.058 386.924 158.038ZM374.879 159.301C374.879 159.287 374.859 159.274 374.858 159.287C374.848 159.62 374.888 159.647 374.879 159.301ZM387.161 157.6C387.1 157.408 387.123 157.642 387.198 157.88C387.259 158.072 387.236 157.839 387.161 157.6ZM382.201 158.422C382.199 158.406 382.183 158.394 382.192 158.482C382.223 158.764 382.236 158.682 382.201 158.422ZM387.71 157.445C387.615 157.412 387.268 156.234 387.391 156.346C387.413 156.367 387.451 156.734 387.498 156.837C387.585 157.023 387.423 156.269 387.561 156.66C387.586 156.732 387.717 157.45 387.711 157.447C387.711 157.446 387.711 157.446 387.71 157.445ZM383.46 158.094C383.457 158.081 383.435 158.071 383.437 158.085C383.488 158.414 383.534 158.432 383.46 158.094ZM381.325 157.832C381.323 157.802 381.276 157.776 381.275 157.803C381.269 158.347 381.365 158.402 381.325 157.832ZM384.591 157.053C384.532 156.724 384.547 156.679 384.666 157.082C384.639 157.066 384.618 157.068 384.591 157.053ZM420.553 26.9514C420.622 27.0355 420.617 26.9349 420.567 26.8092C420.552 26.7701 420.513 26.5887 420.499 26.5541C420.469 26.487 420.479 26.5785 420.441 26.4997C420.428 26.4729 420.357 26.1875 420.344 26.1661C420.271 26.0515 420.251 26.1358 420.186 26.0916C419.853 25.8767 419.501 25.9106 419.136 25.9584C419.049 25.9701 418.889 25.8892 418.788 25.9092C418.801 25.886 418.82 25.8771 418.856 25.8899C418.871 25.8955 419.025 26.1028 419.039 26.1184C419.275 26.347 418.938 25.949 418.905 25.8868C418.773 25.6374 418.734 25.6358 418.819 25.6914C418.855 25.7157 419.295 25.9771 419.05 25.8277C419.033 25.8183 418.796 25.6809 418.77 25.6678C418.71 25.6393 418.747 25.675 418.724 25.6713C418.68 25.6649 418.68 25.6699 418.671 25.6835C418.657 25.7004 418.516 25.6887 418.563 25.7442C418.574 25.7557 418.844 25.8327 418.887 25.8566C418.929 25.8802 418.899 25.8978 418.833 25.891C418.766 25.8836 418.554 25.8222 418.505 25.811C418.086 25.7221 418.648 25.9149 418.662 25.92C418.883 26.0685 418.536 26.102 418.522 26.2289C418.512 26.3227 418.615 26.4345 418.594 26.5264C418.569 26.6373 418.414 26.7336 418.439 26.8525C418.441 26.8649 418.771 26.8531 418.775 26.8678C418.812 27.0233 418.78 27.181 418.564 27.3573C418.542 27.3752 418.252 27.3661 418.213 27.3852C417.979 27.4985 417.419 27.7183 418.683 27.6924C418.639 27.7668 418.595 27.8565 418.347 27.9432C418.187 27.9994 417.869 27.9851 418.008 28.0264C418.039 28.0357 418.313 27.9961 418.338 28.0116C418.446 28.076 418.364 28.1656 418.513 28.2246C418.545 28.2365 418.791 28.2075 418.835 28.2071C419.198 28.2048 418.61 28.3243 418.569 28.3424C418.257 28.4754 418.392 28.5347 418.395 28.6281C418.396 28.6497 418.723 28.5854 418.736 28.6047C418.796 28.7049 418.781 28.818 418.648 28.9422C418.618 28.97 418.334 28.9851 418.305 29.0004C418.181 29.0675 418.714 29.0082 418.605 29.0708C418.583 29.084 418.342 29.1107 418.316 29.116C417.905 29.2009 418.496 29.1466 418.51 29.152C418.7 29.2206 418.095 29.3662 418.195 29.4457C418.208 29.455 418.508 29.3871 418.525 29.4158C418.568 29.4891 418.587 29.5679 418.583 29.6504C418.562 29.692 418.479 29.7352 418.355 29.8315C418.324 29.8559 418.109 29.9394 418.083 29.9505C417.682 30.1452 418.233 29.9165 418.253 29.9067C418.404 29.8522 418.003 30.1515 418.604 29.7749C418.519 29.87 418.588 29.8921 418.635 29.9418C418.687 29.995 418.723 30.0892 418.703 30.432C418.703 30.4401 418.57 30.7017 418.571 30.7171C418.585 30.9054 418.764 30.4855 419.024 29.9905C419.086 29.8649 418.867 30.5025 418.855 30.5506C418.802 30.725 418.627 31.1251 418.619 31.1597C418.564 31.4352 419.076 30.0864 419.117 30.1008C419.118 30.1036 419.02 30.3508 419.015 30.377C418.999 30.4595 419.048 30.3648 419.03 30.4553C418.987 30.6644 418.777 31.3339 418.958 30.9638C418.98 30.9154 419.226 30.135 419.256 30.1851C419.268 30.2059 419.35 30.2159 419.358 30.2732C419.367 30.3306 419.279 30.58 419.278 30.5914C419.25 30.9457 419.186 31.078 419.089 31.5866C418.996 32.0941 419.3 30.9054 419.348 30.7766C419.376 30.7031 419.38 30.7672 419.377 30.8543C419.374 30.9191 419.368 30.9969 419.363 31.0397C419.352 31.1399 419.295 31.2987 419.294 31.3566C419.288 31.7357 419.469 30.7723 419.535 30.588C419.686 30.1496 419.531 31.0467 419.572 31.1457C419.581 31.1721 419.609 30.9664 419.625 30.9498C419.687 30.8862 419.669 31.1715 419.769 30.924C419.786 30.8839 419.91 30.3497 419.879 30.7507C419.875 30.8086 419.831 31.0313 419.845 31.0847C419.867 31.1647 419.921 31.2217 419.965 31.1505C419.997 31.0977 420.01 30.7232 420.028 30.842C420.037 30.8951 419.987 31.1094 420.005 31.191C420.024 31.2728 420.097 31.27 420.125 31.2646C420.153 31.2591 420.16 30.9754 420.164 30.9566C420.185 30.8486 420.242 30.7157 420.246 30.7162C420.446 30.6949 420.651 31.1731 420.86 31.0005C420.876 30.9874 420.843 30.6901 420.845 30.685C420.889 30.5562 420.906 31.3518 420.971 31.6133C420.914 31.0095 420.948 31.117 420.982 31.0469C420.998 31.0126 420.964 30.78 420.963 30.7559C420.952 30.3986 421.019 30.8546 421.035 30.9476C421.094 31.2898 421.066 30.8806 421.107 31.1089C421.15 31.3352 421.16 31.6777 421.204 31.6676C421.186 31.451 421.083 30.8924 421.099 30.7976C421.147 30.4414 421.395 30.8458 421.495 30.8667C421.587 30.8904 421.6 30.844 421.669 30.9045C421.797 31.0116 421.633 30.6224 421.607 30.427C421.577 30.2328 421.932 31.2053 422.019 31.4103C422.109 31.614 422.035 31.397 422.092 31.5061C422.15 31.6148 422.18 31.7659 422.226 31.7966C422.237 31.8038 422.242 31.7865 422.241 31.7531C422.24 31.646 422.172 31.3782 422.103 31.2148C421.913 30.7596 421.673 30.3007 421.791 30.4458C421.798 30.4542 421.909 30.7032 421.931 30.7228C422.111 30.8679 422.214 30.824 422.411 30.9121C422.439 30.9242 422.601 31.1805 422.62 31.1898C422.823 31.2822 422.494 30.8894 422.181 30.4146C422.635 31.0175 422.944 31.3639 423.022 31.3047C423.067 31.2705 422.845 31.0265 422.713 30.8325C422.673 30.7748 422.85 30.9202 422.749 30.8016C422.419 30.4169 422.014 30.0183 422.209 30.1455C422.218 30.1513 422.405 30.3567 422.423 30.3621C422.547 30.395 422.174 30.0177 422.162 29.936C422.151 29.8733 422.451 30.0197 422.532 30.001C423.2 30.5248 423.095 30.3426 422.635 29.9787C422.679 29.9598 422.677 29.905 422.767 29.9166C422.797 29.9203 422.996 30.065 423.019 30.0784C423.383 30.2845 422.92 29.9522 422.905 29.9332C422.776 29.7334 423.192 29.8795 422.875 29.5825C422.864 29.5715 422.352 29.2793 422.74 29.467C422.767 29.4795 422.985 29.6392 423.026 29.6077C423.067 29.5778 423.391 29.6412 423.18 29.4545C423.148 29.4265 422.977 29.3172 422.937 29.2738C422.913 29.2476 422.937 29.2451 423.068 29.2965C423.116 29.3152 423.265 29.3947 423.352 29.4306C423.631 29.5438 423.101 29.2717 423.567 29.4707C424.033 29.6701 424.404 29.7746 424.119 29.5567C424.111 29.55 423.688 29.3388 423.704 29.3218C423.729 29.294 423.84 29.2854 423.853 29.248C423.858 29.2304 423.583 29.1291 423.579 29.1241C423.47 28.9555 423.742 28.9765 423.892 28.8868C423.921 28.8687 423.56 28.6848 423.875 28.7358C424.221 28.7878 425.584 29.2592 425.295 29.0233C425.182 28.9215 423.433 28.3897 424.37 28.547C424.185 28.3256 424.692 28.2746 424.397 28.0377C424.384 28.0271 423.889 27.9056 423.899 27.8902C423.915 27.8673 424.152 27.8972 424.17 27.8822C424.255 27.8183 424.067 27.712 424.111 27.6427C424.128 27.6164 424.369 27.6681 424.388 27.6364C424.407 27.6046 424.091 27.5286 424.253 27.5082C424.376 27.4935 425.037 27.5622 425.121 27.5245C424.475 27.4218 424.493 27.3929 424.331 27.3106C424.299 27.2948 424.072 27.2725 424.046 27.2633C423.933 27.2254 424.122 27.2339 423.999 27.1952C423.969 27.1859 423.748 27.1534 423.712 27.1441C423.391 27.065 423.896 27.0835 423.984 27.0859C424.318 27.0962 424.033 27.0384 424.166 27.0295C424.299 27.02 424.456 27.0837 424.539 27.0622C424.711 27.0165 424.687 26.9238 424.706 26.8556C424.712 26.828 424.414 26.8089 424.408 26.8041C424.341 26.7366 424.662 26.7208 424.077 26.6155C425.606 26.7654 423.933 26.5613 424.248 26.5204C424.274 26.5172 424.996 26.5959 425.099 26.6335C425.201 26.6707 424.971 26.6813 425.132 26.7367C425.17 26.7496 425.839 26.8817 425.879 26.8936C426.192 26.9855 425.115 26.855 425.055 26.85C424.413 26.7989 425.133 26.9499 425.181 26.9721C425.402 27.0708 425.243 27.1125 425.399 27.193C425.5 27.2457 426.203 27.348 426.177 27.3771C426.091 27.4736 425.105 27.361 425.941 27.5868C426.119 27.6354 426.89 27.7315 426.274 27.7162C426.235 27.7158 425.674 27.6853 426.018 27.7733C426.062 27.7844 426.285 27.8202 426.303 27.8287C426.419 27.8843 426.236 27.8821 426.315 27.9365C426.393 27.9912 426.512 28.0625 426.428 28.0975C426.378 28.1186 425.956 28.0804 425.852 28.0748C425.552 28.0595 426.024 28.1884 425.666 28.1455C425.306 28.101 424.773 27.9574 424.533 27.9696C425.11 28.0817 425.702 28.2 426.283 28.3151C426.235 28.453 426.02 28.5549 426.013 28.7052C426.012 28.7243 426.325 28.7762 426.332 28.7989C426.362 28.8946 426.124 28.9159 426.188 29.0277C426.24 29.1132 426.541 29.2801 426.6 29.3833C425.939 29.2463 426.127 29.4179 426.041 29.484C426.011 29.5065 425.841 29.4493 425.778 29.4508C425.548 29.4574 426.124 29.6102 426.206 29.6616C426.551 29.8869 425.276 29.4538 425.273 29.559C425.273 29.5632 425.92 29.8823 425.957 29.9104C426.204 30.0781 425.72 29.8307 425.656 29.8486C425.539 29.8813 425.363 29.8589 425.524 30.0178C425.572 30.0632 425.957 30.3005 425.621 30.2032C425.577 30.1903 425.362 30.0899 425.347 30.0886C425.101 30.0712 425.777 30.3846 425.982 30.5416C426.187 30.6995 425.688 30.548 425.549 30.4946C425.188 30.3603 425.415 30.3952 425.383 30.3765C424.99 30.1579 425.037 30.2392 424.986 30.2571C424.527 30.0338 424.397 29.9971 424.56 30.0894C424.627 30.1271 424.743 30.1864 424.905 30.2627C424.915 30.2673 424.925 30.272 424.935 30.2768C425 30.3067 424.952 30.2492 424.986 30.2571C425.192 30.3721 425.336 30.4603 425.414 30.5182C425.573 30.6362 425.457 30.6296 425.037 30.463C424.743 30.3463 424.432 30.1509 424.509 30.2937C424.542 30.3589 424.994 30.5822 425.095 30.6827C425.326 30.9155 424.854 30.7947 424.869 30.9147C424.873 30.9595 425.128 31.0707 425.138 31.107C425.166 31.2054 424.959 31.1481 425.01 31.2644C425.015 31.2753 425.266 31.4177 425.257 31.4391C425.188 31.6069 424.945 31.6319 424.823 31.7811C424.765 31.8529 424.776 32.0901 424.68 32.1484C424.515 32.2538 424.065 32.1092 424.023 32.2822C423.992 32.3971 424.197 32.6008 424.288 32.7815C424.458 33.1377 423.896 32.7104 423.821 32.6337C423.819 32.6311 423.848 32.5229 423.72 32.4344C423.512 32.2053 423.822 32.6316 423.821 32.6337C423.769 32.5886 423.587 32.639 423.589 32.7037C423.589 32.7396 423.751 32.9601 423.748 32.9748C423.671 33.3218 423.446 33.5282 423.146 33.5239C423.139 33.5208 423.019 33.2397 423.006 33.2357C422.943 33.2144 422.909 33.2414 422.889 33.2971C422.85 33.4074 422.865 33.6333 422.838 33.801C422.796 34.0527 422.668 34.0159 422.451 33.5336C422.389 33.6223 422.211 33.4308 422.116 33.3094C422.022 33.1881 422.154 33.7681 422.151 33.7811C422.053 34.1913 421.869 33.8806 421.685 33.8573C421.595 33.8457 421.44 33.9539 421.355 34.0282C421.287 34.0883 421.232 33.9535 421.173 34.0479C421.165 34.0605 421.196 34.3238 421.194 34.3342C421.143 34.6565 421.129 34.0076 421.105 33.8935C421.02 33.4779 420.979 33.2563 420.904 33.4584C420.889 33.5046 420.869 34.4393 420.827 34.4953C420.776 34.5662 420.786 34.2314 420.734 34.3138C420.729 34.3205 420.735 34.5267 420.7 34.5183C420.539 34.4819 420.372 34.36 420.212 34.374C420.189 34.3751 420.204 34.7032 420.171 34.7101C420.016 34.7422 419.844 34.7176 419.712 34.5505C419.68 34.5084 419.726 34.2827 419.725 34.2143C419.722 33.8004 419.594 34.3876 419.579 34.3974C419.272 34.6498 419.156 34.0834 418.839 34.2805C418.825 34.2931 418.562 34.892 418.634 34.3437C418.637 34.3069 418.72 33.7486 418.584 34.111C418.576 34.1336 418.538 34.4228 418.488 34.3799C418.486 34.3778 418.483 34.3761 418.481 34.3749C418.434 34.3542 418.316 34.4883 418.33 34.1785C418.333 34.0754 418.439 33.5225 418.25 33.9333C418.241 33.9633 417.839 34.8986 418.005 34.2192C418.033 34.1074 418.262 33.4058 418.068 33.7411C418.03 33.8059 418.008 33.9719 417.934 34.056C417.818 34.1848 417.797 33.9688 417.6 34.2467C417.566 34.2966 417.322 34.7404 417.403 34.3638C417.416 34.305 417.521 34.0813 417.504 34.0449C417.424 33.8719 417.218 33.9634 417.15 33.7424C417.127 33.6649 417.323 33.3173 417.323 33.1985C417.323 33.0794 417.281 32.9423 417.144 33.0748C417.004 33.2062 416.759 33.7963 416.646 33.7915C416.139 33.7587 415.916 33.1448 415.583 32.7116C415.532 32.6451 415.414 32.8527 415.324 32.7595C414.987 32.4496 414.31 31.6998 414.645 31.1348C414.91 30.7147 415.309 30.9776 415.391 30.7251C415.436 30.6193 414.695 30.7042 414.665 30.6791C414.472 30.5469 414.532 30.3884 414.562 30.2481C414.583 30.2155 414.595 30.1841 414.556 30.1575C414.533 30.1414 414.239 30.2036 414.223 30.1893C414.163 30.1409 414.287 30.0624 414.255 30.0122C414.24 29.9897 414.014 30.0264 414.028 30.0016C414.06 29.9425 414.149 29.8814 414.354 29.7999C414.372 29.7926 414.658 29.7854 414.663 29.7447C414.671 29.6787 414.87 29.5718 414.643 29.5268C414.575 29.5136 414.057 29.5805 414.409 29.4862C414.482 29.4664 415.106 29.3987 414.561 29.4131C414.471 29.4159 413.734 29.4132 414.195 29.308C414.317 29.2804 414.823 29.1869 414.739 29.1703C414.726 29.1682 414.449 29.2167 414.419 29.1977C414.319 29.1301 414.339 29.0436 414.242 28.9714C414.216 28.9522 413.931 29.0175 413.901 28.9874C413.818 28.9049 413.879 28.781 413.961 28.682C413.991 28.6454 414.233 28.6444 414.259 28.6394C414.678 28.559 414.104 28.5926 414.07 28.5826C413.862 28.5207 414.125 28.4342 414.048 28.3655C414.027 28.3463 413.755 28.3848 413.73 28.3827C413.489 28.3595 413.982 28.3498 414.034 28.3179C414.18 28.2285 414.152 28.1468 414.111 28.0706C414.096 28.0428 413.781 28.0983 413.771 28.0727C413.705 27.9221 413.725 27.7535 413.893 27.5892C413.926 27.5582 414.171 27.5658 414.226 27.5572C414.615 27.4991 414.08 27.461 414.029 27.448C413.794 27.3918 414.01 27.3575 413.968 27.3008C413.758 27.0212 413.903 26.6434 414.007 26.3498C414.142 25.9606 414.401 25.6765 414.419 25.2411C414.42 25.2129 414.095 25.1812 414.093 25.1552C414.078 24.8156 414.284 24.5059 414.345 24.0787C414.351 24.0426 414.043 23.9822 414.045 23.9181C414.045 23.7856 414.126 23.6387 414.275 23.5559C414.346 23.5169 414.547 23.7099 414.613 23.6708C414.766 23.5841 414.863 23.4507 414.906 23.2851C414.926 23.212 414.598 23.1416 414.648 23.0547C414.94 22.5269 415.47 21.8789 416.293 21.7343C416.334 21.746 416.377 21.7612 416.422 21.7804C416.455 21.7939 416.793 22.3388 416.767 22.2116C416.681 22.0559 416.576 21.8748 416.482 21.7094C416.812 21.3999 417.313 21.3928 417.749 21.2431C417.768 21.2365 417.602 20.9379 417.639 20.9232C417.848 20.8395 418.032 20.6667 418.375 20.9063C418.408 20.9298 418.59 21.4993 418.623 21.3928C418.63 21.3732 418.701 21.2662 418.69 21.134C418.688 21.1142 418.585 20.8538 418.617 20.8354C418.801 20.7338 419.043 20.7344 419.303 20.8532C419.344 20.8731 419.368 21.1717 419.398 21.1886C419.6 21.3071 419.772 21.0493 420.013 21.2978C420.169 21.4669 420.157 21.9839 420.245 22.485C420.257 22.5555 420.325 22.5645 420.334 22.8588C420.352 23.5983 420.358 24.4084 420.382 25.1966C420.388 25.3664 420.366 25.1836 420.381 25.594C420.383 25.6215 420.404 25.7573 420.414 25.8961C420.422 25.9921 420.427 26.2914 420.442 26.4141C420.46 26.5365 420.454 26.2856 420.475 26.4292C420.498 26.5744 420.523 26.914 420.553 26.9514ZM421.719 32.7551C421.615 32.4844 421.806 33.5138 421.817 33.2562C421.817 33.2425 421.724 32.7683 421.719 32.7551ZM425.247 28.3886C424.785 28.3444 425.439 28.5268 425.796 28.5647C426.153 28.5998 425.388 28.4006 425.247 28.3886ZM425.02 27.782C424.651 27.7796 426.111 28.0455 425.828 27.9253C425.812 27.9185 425.041 27.7821 425.02 27.782ZM420.015 22.6508C420.017 22.6645 420.06 22.6727 420.06 22.659C420.045 22.3259 419.951 22.3104 420.015 22.6508ZM424.738 27.2069C424.537 27.1967 424.759 27.2816 425.009 27.2951C425.211 27.3056 424.989 27.2192 424.738 27.2069ZM419.475 31.6475C419.477 31.632 419.458 31.6139 419.441 31.7005C419.387 31.9793 419.435 31.907 419.475 31.6475ZM424.832 26.3352C424.761 26.458 423.535 26.3877 423.688 26.2697C423.716 26.2481 424.07 26.3674 424.184 26.3492C424.391 26.3147 423.63 26.1889 424.047 26.1755C424.123 26.1729 424.839 26.3283 424.833 26.3356C424.833 26.3354 424.832 26.3353 424.832 26.3352ZM421.447 31.5273C421.443 31.5139 421.411 31.5067 421.413 31.5203C421.457 31.8503 421.527 31.8638 421.447 31.5273ZM418.518 30.66C418.53 30.6331 418.493 30.5822 418.479 30.6051C418.185 31.0643 418.285 31.1827 418.518 30.66ZM422.55 30.0142C422.302 29.7887 422.283 29.748 422.635 29.9786C422.601 29.9869 422.583 30.0061 422.55 30.0142ZM57.2796 11.6301C57.3165 11.4293 57.542 11.2926 57.7608 11.2266C57.8296 11.2049 57.9589 11.3413 58.0131 11.3312C58.1182 11.3126 58.0899 11.2 58.2064 11.1896C58.2457 11.1868 58.4586 11.392 58.4943 11.385C58.6869 11.348 58.7159 11.1887 58.8568 11.1103C59.5587 10.715 60.1087 10.2187 60.7147 9.73496C60.9148 9.57464 61.3167 9.52851 61.4085 9.25997C61.4192 9.22826 61.2185 9.06516 61.207 9.04638C61.0327 8.75642 61.3914 9.13526 61.4824 9.13957C61.8424 9.15627 62.0388 8.98847 62.1298 8.75732C62.168 8.65854 61.7379 8.36356 62.0104 8.49841C62.0288 8.50746 62.204 8.71951 62.2434 8.72166C62.3321 8.72623 62.3793 8.61167 62.4281 8.59478C62.5227 8.5634 62.5314 8.55124 62.5951 8.49483C62.6842 8.41927 62.8777 8.42473 62.9276 8.29489C62.9379 8.26646 62.722 8.08336 62.7216 8.01893C62.7214 7.95442 62.8229 7.8949 62.896 7.91846C62.969 7.94204 63.1035 8.11783 63.1423 8.15106C63.4667 8.43368 63.1726 7.90494 63.1769 7.88193C63.2496 7.4884 63.6756 7.57334 63.9045 7.3931C64.0792 7.25456 64.2076 7.02042 64.3947 6.9073C64.6197 6.77255 64.8871 6.77786 65.0882 6.62264C65.11 6.60633 64.9094 6.34209 64.9364 6.32121C65.2216 6.10092 65.5691 5.95071 65.9953 5.99567C66.0381 6.0005 66.1196 6.28256 66.1689 6.30351C66.2869 6.35222 66.4411 6.44342 66.5582 6.46364C66.7381 6.49373 66.8313 6.35758 66.6348 5.61666C66.7949 5.60834 66.9861 5.59556 67.1891 5.79745C67.3202 5.92733 67.3382 6.25293 67.3938 6.09418C67.4066 6.05876 67.296 5.80349 67.3224 5.7701C67.4344 5.62964 67.6157 5.67221 67.7244 5.49763C67.7464 5.46147 67.6786 5.223 67.6764 5.17756C67.6635 4.80818 67.9259 5.36089 67.9585 5.39833C68.2225 5.67177 68.3339 5.52153 68.5177 5.50008C68.56 5.49547 68.4585 5.1744 68.4984 5.15803C68.7112 5.07689 68.9473 5.07885 69.1709 5.20981C69.2201 5.23981 69.1988 5.52578 69.2229 5.55464C69.3255 5.679 69.3156 5.14309 69.4176 5.25363C69.4387 5.27632 69.4392 5.51932 69.4441 5.54577C69.5174 5.96116 69.5387 5.36711 69.5539 5.35348C69.7378 5.16861 69.8559 5.78698 70.0237 5.7019C70.0444 5.69117 70.0032 5.38319 70.062 5.37189C70.4563 5.29475 70.8688 5.41575 71.1958 5.70659C71.2463 5.75131 71.1765 5.97485 71.1764 6.00352C71.1728 6.45127 71.2892 5.86635 71.3109 5.84673C71.4766 5.70692 71.5298 6.22071 71.7352 5.53554C72.2962 5.87358 72.8631 5.59662 73.1967 6.22334C73.2019 6.23058 73.1985 6.52399 73.2102 6.53714C73.3495 6.69666 73.3204 6.23723 73.2602 5.68345C73.2316 5.54663 73.3843 6.20222 73.4103 6.24654C73.4699 6.41885 73.5655 6.8448 73.5803 6.87732C73.7351 7.12147 73.3015 5.74203 73.2683 5.75446C73.2694 5.75659 73.3738 6.00078 73.3845 6.02494C73.4214 6.09928 73.3784 6.00293 73.4221 6.08318C73.5014 6.22953 73.7606 6.6229 73.7943 6.59259C73.804 6.58384 73.7955 6.54505 73.758 6.46469C73.7338 6.41659 73.2447 5.76118 73.304 5.76426C73.3295 5.76563 73.3891 5.69624 73.4457 5.71471C73.5025 5.73382 73.6711 5.93739 73.6801 5.94464C73.9903 6.12914 74.0678 6.25546 74.4821 6.56989C74.9037 6.87266 73.9938 6.04918 73.906 5.94242C73.8178 5.83693 74.0815 5.97255 74.1724 6.01959C74.262 6.06847 74.3737 6.19605 74.4294 6.21783C74.7993 6.35045 73.9918 5.79105 73.8621 5.64182C73.5442 5.30048 74.3078 5.79787 74.4356 5.77084C74.4689 5.7651 74.2877 5.66278 74.2833 5.63502C74.2665 5.52861 74.5325 5.64093 74.3631 5.42179C74.3364 5.3846 73.9076 5.03825 74.2754 5.20532C74.3286 5.22907 74.5126 5.36323 74.5747 5.35825C74.6679 5.35104 74.7612 5.28911 74.7245 5.19978C74.6973 5.13404 74.3475 4.99377 74.4751 5.0037C74.5321 5.0079 74.7006 5.15436 74.7922 5.15265C74.8839 5.15101 74.9332 5.04133 74.9482 4.99757C74.9632 4.95379 74.7021 4.84084 74.687 4.82849C74.6014 4.75701 74.5221 4.61613 74.526 4.60944C74.6808 4.24875 75.2734 4.14178 75.3585 3.71058C75.366 3.67639 75.1021 3.53457 75.1006 3.52771C75.0591 3.36059 75.6779 3.86696 75.9408 3.95065C75.4281 3.62681 75.5442 3.64915 75.5346 3.54545C75.5299 3.49499 75.3248 3.37874 75.307 3.36222C75.0496 3.10742 75.4521 3.33695 75.5337 3.38492C75.8366 3.55755 75.5317 3.28114 75.7333 3.39873C75.9314 3.51816 76.1705 3.76678 76.2084 3.71006C76.0496 3.56052 75.5643 3.26071 75.5297 3.15534C75.4033 2.73979 76.0849 2.6794 76.2657 2.61139C76.4459 2.5295 76.4868 2.46551 76.6144 2.46554L76.6868 2.39848L77.0226 2.40503C77.0259 2.40881 77.0292 2.41279 77.0325 2.417C77.1718 2.59756 77.2103 2.17357 77.3714 2.01661C77.5341 1.86093 77.2064 2.84521 77.1633 3.06414C77.1186 3.28259 77.1948 3.06601 77.1797 3.18879C77.1641 3.3114 77.0864 3.44685 77.114 3.50227C77.1405 3.55719 77.3609 3.20905 77.4431 2.99075C77.6152 2.52753 77.7096 2.01533 77.7742 2.22477C77.7777 2.23711 77.6772 2.49115 77.6944 2.52514C77.8322 2.78622 78.0277 2.86376 78.1602 3.10344C78.1782 3.13676 78.0589 3.41627 78.0682 3.4389C78.1645 3.67551 78.2702 3.17229 78.5389 2.66407C78.2782 3.373 78.1779 3.82669 78.2966 3.87154C78.3677 3.89866 78.4609 3.58207 78.5819 3.3776C78.6184 3.31596 78.597 3.5477 78.6557 3.40382C78.8477 2.93351 78.9811 2.37969 79.0311 2.63479C79.033 2.64676 78.9279 2.90423 78.9411 2.92635C79.0262 3.07073 79.2078 2.57233 79.3543 2.55275C79.4687 2.53722 79.5457 2.9012 79.6445 2.98629C79.3924 3.797 79.563 3.64567 79.7725 3.09718C79.8392 3.14197 79.9277 3.13307 79.977 3.23087C79.9942 3.26431 79.912 3.49654 79.908 3.52298C79.8457 3.93813 80.03 3.39808 80.0513 3.38075C80.2786 3.21745 80.3192 3.67244 80.5801 3.29945C80.5897 3.28602 80.7284 2.7129 80.6768 3.14252C80.6736 3.17219 80.5606 3.42198 80.6338 3.45942C80.7054 3.49663 80.7955 3.83795 80.9559 3.58948C80.9957 3.52997 81.1425 3.07005 81.1314 3.44744C81.13 3.49871 81.0939 3.66415 81.0888 3.75871C81.0741 4.0603 81.1884 3.47509 81.1483 3.98142C81.1078 4.48764 81.1489 4.87789 81.3178 4.54794C81.3232 4.5387 81.4079 4.10139 81.4448 4.08594L81.4326 4.08515C81.4337 4.08453 81.4347 4.08433 81.4358 4.08455C81.4934 4.09711 81.578 4.19476 81.6405 4.19028C81.6701 4.18797 81.6443 3.89513 81.6493 3.88965C81.8348 3.72042 81.9793 3.97478 82.2012 4.07045C82.2437 4.08843 82.3127 3.68033 82.4182 3.98684C82.5389 4.32156 82.6108 5.76382 82.7847 5.39687C82.8603 5.2488 82.6971 3.42743 82.974 4.34225C83.2022 4.0691 83.5457 4.49621 83.744 4.10912C83.753 4.09191 83.6781 3.58612 83.7064 3.58675C83.7495 3.58845 83.8252 3.81549 83.8581 3.82386C83.9982 3.86451 84.0609 3.63859 84.1839 3.6391C84.2311 3.63857 84.2786 3.88096 84.3363 3.87978C84.3937 3.87835 84.3423 3.55606 84.4563 3.68694C84.5424 3.78689 84.7788 4.40926 84.8774 4.461C84.6974 3.83197 84.7505 3.83067 84.7887 3.63881C84.7959 3.60164 84.7121 3.38908 84.712 3.36027C84.7099 3.23831 84.7947 3.40974 84.787 3.27845C84.7852 3.24688 84.7197 3.03327 84.7145 2.99545C84.666 2.6661 84.8993 3.11945 84.9404 3.19816C85.0963 3.49727 85.0336 3.21212 85.1165 3.32277C85.2001 3.43312 85.1863 3.60973 85.2617 3.66858C85.4171 3.79057 85.5422 3.71016 85.6512 3.68299C85.6948 3.67069 85.5673 3.39927 85.5713 3.39097C85.6327 3.28941 85.8266 3.55691 85.6728 2.98079C86.257 4.40283 85.6729 2.82245 85.8996 3.06646C85.9177 3.08626 86.1839 3.76226 86.1826 3.87651C86.1809 3.99077 86.0455 3.79863 86.0492 3.97408C86.0503 4.01523 86.2069 4.68231 86.21 4.72493C86.2374 5.05732 85.8649 4.03752 85.8412 3.98267C85.5816 3.39203 85.7359 4.11464 85.728 4.1709C85.6955 4.42754 85.5536 4.31397 85.5139 4.50133C85.487 4.62278 85.6992 5.30139 85.6433 5.29648C85.4543 5.28115 85.1131 4.34837 85.2072 5.21807C85.2266 5.40362 85.4804 6.13922 85.1857 5.58875C85.1663 5.55431 84.9234 5.04258 84.9692 5.39697C84.9749 5.4417 85.0365 5.65966 85.0328 5.68046C85.0067 5.8156 84.9193 5.65255 84.8786 5.75313C84.8376 5.85379 84.7905 5.99954 84.6977 5.94405C84.6405 5.91135 84.4802 5.51655 84.4348 5.42136C84.3057 5.14684 84.3569 5.63647 84.2363 5.29472C84.117 4.95075 84.0571 4.39974 83.9143 4.19294C84.0451 4.76666 84.1744 5.35666 84.3026 5.93442C84.0766 5.9657 83.8203 5.82525 83.602 5.89218C83.5749 5.90106 83.6609 6.20688 83.6329 6.22449C83.5119 6.29766 83.3611 6.09455 83.2419 6.20393C83.1482 6.29002 83.0779 6.63837 82.9734 6.73684C82.8173 6.07822 82.6838 6.32425 82.5548 6.27495C82.51 6.25798 82.4957 6.07866 82.4608 6.02301C82.331 5.81691 82.4343 6.40493 82.4107 6.50101C82.3033 6.91077 82.1896 5.56888 82.0453 5.61102C82.0386 5.61284 81.9767 6.335 81.9618 6.38033C81.882 6.67568 81.9351 6.13145 81.8767 6.0808C81.77 5.9879 81.698 5.81852 81.5815 6.03036C81.5539 6.08336 81.4876 6.41163 81.4259 6.3028L81.1672 6.28615C81.1586 6.265 81.1521 6.22932 81.1485 6.17479C81.1455 6.1287 81.1808 5.894 81.1757 5.87932C81.082 5.63328 80.9783 6.37127 80.8644 6.60991C80.7496 6.84831 80.7129 6.32106 80.7155 6.17102C80.7191 5.78261 80.7875 6.01672 80.797 5.98001C80.9051 5.54345 80.8136 5.60703 80.7606 5.55951C80.8743 4.83736 80.79 4.86714 80.7055 5.51312C80.6966 5.58376 80.7543 5.52459 80.7606 5.55951C80.5893 6.25801 80.4664 6.32964 80.4911 5.65181C80.5038 5.33418 80.6172 4.98361 80.4543 5.08746C80.3802 5.13395 80.3022 5.63188 80.2159 5.75392C80.0159 6.03169 79.9484 5.53427 79.8008 5.57378C79.7463 5.58793 79.7267 5.867 79.6867 5.88574C79.5788 5.93581 79.5538 5.7157 79.4388 5.79451C79.4282 5.80195 79.3731 6.08583 79.3443 6.0819C79.1244 6.05715 78.9968 5.82764 78.7912 5.75939C78.6913 5.72649 78.4668 5.82232 78.3758 5.75903C78.2168 5.6511 78.1439 5.18428 77.9725 5.23398C77.8606 5.26507 77.7884 5.54518 77.6869 5.71836C77.4899 6.05397 77.5802 5.36409 77.5966 5.25814C77.5971 5.25459 77.6945 5.21567 77.7014 5.06171C77.7764 4.76135 77.5979 5.25715 77.5966 5.25814C77.6069 5.18952 77.4787 5.07745 77.4327 5.12037C77.4074 5.14371 77.3301 5.40607 77.3186 5.41337C77.0473 5.58108 76.8479 5.58998 76.7122 5.41664C76.7107 5.41044 76.802 5.11859 76.7972 5.10763C76.732 4.94678 76.5648 5.28856 76.4334 5.48341C76.3312 5.63445 76.2899 5.61791 76.3118 5.35961L78.1517 5.08689C78.1162 5.02174 78.0685 4.93946 78.0068 4.83908C78.0449 4.89319 77.9111 4.70295 77.81 4.60319C77.7087 4.50383 78.087 4.96351 78.0952 4.97196C78.3381 5.26012 78.1076 5.00686 78.0239 5.02115C77.9863 5.02407 78.0094 5.13454 78.0359 5.21025C78.0582 5.26938 77.9289 5.21147 77.9812 5.29409C77.9882 5.3051 78.2127 5.44606 78.2203 5.453C78.464 5.65984 77.9307 5.29168 77.8282 5.23702C77.4545 5.04047 77.2477 4.94796 77.3774 5.11578C77.4061 5.15582 78.1833 5.67377 78.2168 5.72482C78.2575 5.7925 77.9754 5.61252 78.0243 5.69C78.0282 5.69654 78.2078 5.79792 78.1869 5.81641C78.092 5.90367 77.9121 5.98388 77.8519 6.14023C77.843 6.16121 78.1452 6.28986 78.1371 6.32279C78.0985 6.47705 77.9985 6.63894 77.7758 6.72519C77.7201 6.74586 77.5334 6.61009 77.4692 6.58563C77.0814 6.43661 77.5608 6.80367 77.5627 6.82328C77.6322 7.27935 77.0207 7.25138 76.9648 7.76585C76.9665 7.79028 77.3468 8.35055 76.8541 8.08439C76.8199 8.06866 76.3313 7.77854 76.5728 8.08791C76.5872 8.10793 76.8479 8.2489 76.7558 8.31084C76.6662 8.37004 76.6829 8.63915 76.3455 8.52641C76.2362 8.49379 75.7767 8.16025 75.9725 8.58564C75.9972 8.60715 76.4562 9.54744 75.9408 9.0639C75.8563 8.98363 75.4157 8.3938 75.5043 8.80054C75.5194 8.88051 75.6706 8.97417 75.6529 9.1142C75.6478 9.15229 75.6346 9.18238 75.6164 9.208C75.4364 9.39422 75.1519 9.45642 75.0088 9.81161C74.9877 9.88587 74.905 10.4574 74.602 10.1493C74.5571 10.1004 74.5375 9.84958 74.4406 9.84878C73.9947 9.83796 73.6377 10.0374 73.3348 9.87724C73.2299 9.82013 73.2711 9.42073 73.177 9.31479C73.0862 9.209 72.9246 9.10068 72.8379 9.27718C72.7446 9.45356 72.7946 10.094 72.6575 10.1347C72.0621 10.3044 71.7564 9.8619 71.4483 9.7555C71.4037 9.73951 71.4027 9.97 71.3349 9.96266C71.0754 9.9341 70.7023 10.0913 70.6002 9.59418C70.5078 9.19402 70.7174 8.92177 70.6258 8.75286C70.5791 8.67206 70.4491 9.40126 70.4366 9.42344C70.3035 9.64796 70.2535 9.31646 70.1503 9.4114C70.1295 9.43119 70.1334 9.73106 70.1167 9.74466C70.0602 9.79384 70.0089 9.65847 69.9573 9.68198C69.9343 9.69324 69.9353 9.92187 69.9156 9.904C69.8675 9.86396 69.828 9.76802 69.7752 9.55471C69.7699 9.53529 69.7965 9.25037 69.757 9.24057C69.6935 9.22554 69.6034 9.01767 69.5428 9.24036C69.5247 9.30738 69.5627 9.8283 69.4932 9.47181C69.4788 9.39741 69.4378 8.77116 69.4311 9.31585C69.426 9.40661 69.4245 10.1414 69.3341 9.67783C69.3099 9.5558 69.2164 9.05011 69.2 9.13374C69.1984 9.14695 69.2491 9.42325 69.2327 9.45312C69.1737 9.55364 69.0994 9.53538 69.0439 9.6352C69.0298 9.66229 69.1104 9.94256 69.0894 9.97359C69.0352 10.0586 68.9324 10.0057 68.8409 9.93512C68.8066 9.90867 68.765 9.67105 68.7569 9.64611C68.6175 9.24225 68.742 9.80387 68.7415 9.83871C68.7295 10.0498 68.6096 9.8037 68.5683 9.89134C68.5574 9.91467 68.6514 10.1724 68.6554 10.1967C68.6956 10.4344 68.5708 9.95772 68.5325 9.91302C68.4239 9.7866 68.3606 9.8317 68.309 9.8881C68.2904 9.90915 68.4265 10.1976 68.4094 10.2127C68.3513 10.27 68.2822 10.2994 68.1915 10.2908C68.1421 10.2817 68.0837 10.2571 68.0139 10.2143C67.9799 10.1932 67.888 9.96602 67.86 9.91746C67.6603 9.57927 67.8454 10.0824 67.8597 10.1321C67.9183 10.3621 67.8036 10.1779 67.7805 10.2356C67.6788 10.5153 67.3567 10.5459 67.098 10.6182C66.7671 10.7097 66.4029 10.6974 66.1739 10.9679C66.1592 10.9848 66.3857 11.2196 66.3761 11.2372C66.244 11.4511 65.9787 11.5175 65.8588 11.7587C65.8487 11.7779 66.0812 11.9829 66.0725 12.021C66.0563 12.1007 65.984 12.1464 65.8665 12.123C65.8094 12.1122 65.6577 11.8905 65.6037 11.8838C65.4773 11.8681 65.3997 11.9136 65.3758 12.0073C65.3662 12.0475 65.6265 12.2336 65.597 12.2682C65.4006 12.5089 65.2319 12.7648 64.7107 12.7295C64.675 12.7269 64.1872 12.3099 64.2454 12.4289C64.3748 12.5511 64.5301 12.6916 64.6701 12.8205C64.4313 13.2367 63.9543 13.4522 63.6161 13.811C63.602 13.826 63.8874 14.0139 63.8616 14.0438C63.7118 14.2193 63.6462 14.4516 63.2325 14.4309C63.1918 14.4292 62.7295 14.0499 62.7566 14.1617C62.7617 14.182 62.7594 14.3143 62.8441 14.4168C62.8572 14.4318 63.0893 14.5879 63.0745 14.6202C62.9855 14.8034 62.8083 14.9295 62.5485 14.9894C62.5064 14.9983 62.2909 14.7908 62.2589 14.7956C62.0323 14.8329 62.1014 15.1165 61.7897 15.082C61.578 15.0614 61.1919 14.7201 60.7525 14.4632C60.6904 14.4271 60.641 14.474 60.4038 14.3C59.8069 13.8629 59.1786 13.3506 58.5401 12.8877C58.488 12.8499 58.4689 12.8525 58.4492 12.8545C58.4167 12.8582 58.3823 12.8605 58.1987 12.6806C58.1941 12.676 58.1868 12.6651 58.177 12.6499C58.1445 12.6007 58.0853 12.5048 58.0076 12.4307C57.9374 12.3638 57.6859 12.2005 57.6013 12.108C57.5168 12.0154 57.7328 12.1455 57.6408 12.0269C57.5474 11.9072 57.2656 11.7157 57.2796 11.6301ZM77.3088 4.20782C77.0799 4.03243 77.828 4.76485 77.6662 4.57241C77.6575 4.56227 77.3198 4.21664 77.3088 4.20782ZM83.6649 5.04925C83.4911 4.61328 83.5638 5.29046 83.6924 5.6288C83.8242 5.96598 83.7193 5.18101 83.6649 5.04925ZM84.4428 4.52124C84.2581 4.19337 84.6129 5.63489 84.6439 5.31657C84.6459 5.29851 84.4538 4.54021 84.4428 4.52124ZM60.8 14.1605C60.7883 14.1529 60.7481 14.1837 60.7584 14.1929C61.0084 14.4136 61.0885 14.352 60.8 14.1605ZM85.1517 3.93257C85.0627 3.75019 85.051 3.99671 85.1606 4.22408C85.2496 4.40678 85.263 4.15931 85.1517 3.93257ZM74.8564 6.06068C74.8431 6.05264 74.8109 6.07398 74.8833 6.12429C75.1168 6.28619 75.0817 6.19628 74.8564 6.06068ZM86.4765 3.4436C86.2606 3.46779 85.713 2.36355 85.9647 2.41543C86.0107 2.42455 86.0254 2.81107 86.1123 2.89609C86.2728 3.05014 86.0484 2.31125 86.288 2.66011C86.3325 2.72373 86.4904 3.44459 86.4768 3.44532C86.4767 3.44475 86.4766 3.44417 86.4765 3.4436ZM76.4013 3.33708C76.3906 3.32806 76.3471 3.35406 76.3562 3.36447C76.5801 3.611 76.6598 3.56711 76.4013 3.33708ZM73.0975 6.50898C73.0959 6.47984 73.0034 6.44776 72.9984 6.4743C72.9036 7.01371 73.1314 7.08235 73.0975 6.50898ZM79.6397 3.00849C79.7863 2.70373 79.8529 2.68266 79.7724 3.09671C79.7302 3.06094 79.6822 3.04303 79.6397 3.00849ZM7.0456 249.217C7.3352 249.889 7.73152 250.013 7.90288 249.978C7.96035 249.967 8.04685 249.801 8.08599 249.783C8.15794 249.743 8.13302 249.834 8.19052 249.767C8.20908 249.744 8.34535 249.484 8.35978 249.464C8.43212 249.356 8.38683 249.416 8.38934 249.349C8.37138 249.004 8.02241 248.791 7.68057 248.596C7.56597 248.531 7.44566 248.242 7.29079 248.339C7.27266 248.351 7.248 248.608 7.2421 248.628C7.24152 248.63 7.24095 248.632 7.24039 248.634C7.1974 248.944 7.26259 248.434 7.26179 248.364C7.26156 248.089 7.19804 248.066 7.19883 248.167C7.1999 248.21 7.2732 248.718 7.2358 248.432C7.23251 248.413 7.19082 248.142 7.18479 248.114C7.16963 248.05 7.17169 248.099 7.16546 248.078C7.15081 248.038 7.1498 248.041 7.14553 248.039C7.14167 248.033 7.08045 247.911 7.09989 247.97C7.1057 247.983 7.23088 248.235 7.25567 248.276C7.28102 248.316 7.282 248.288 7.24899 248.231C7.21633 248.173 7.09666 247.988 7.06965 247.945C6.82998 247.591 7.15032 248.089 7.1672 248.095C7.33508 248.28 7.10659 248.028 7.07464 248.071C7.05958 248.096 7.13122 248.175 7.11283 248.207C7.11208 248.209 7.11109 248.21 7.10985 248.211C7.07701 248.238 6.91045 248.254 6.91512 248.343C6.91541 248.352 7.23815 248.422 7.23953 248.432C7.25409 248.535 7.2007 248.635 6.9662 248.751C6.94238 248.762 6.65536 248.718 6.61422 248.729C6.36823 248.791 5.78857 248.966 7.0506 249.037C7.00043 249.096 6.95024 249.167 6.69789 249.233C6.53555 249.277 6.21856 249.251 6.35516 249.295C6.38563 249.305 6.66132 249.279 6.6861 249.293C6.79011 249.354 6.70531 249.431 6.85339 249.482C6.88414 249.493 7.13059 249.466 7.17534 249.466C7.53749 249.458 6.94809 249.564 6.9065 249.582C6.59466 249.704 6.73058 249.756 6.73562 249.834C6.73673 249.853 7.06142 249.776 7.07413 249.791C7.13556 249.868 7.12396 249.954 6.99988 250.069C6.97158 250.095 6.69205 250.145 6.66456 250.162C6.54758 250.236 7.06845 250.111 6.96596 250.175C6.94514 250.189 6.70986 250.249 6.68453 250.257C6.28785 250.393 6.86485 250.254 6.87864 250.255C6.98511 250.266 6.85429 250.337 6.73671 250.412C6.64213 250.472 6.55604 250.533 6.60436 250.552C6.61776 250.556 6.90027 250.434 6.91977 250.452C7.05169 250.564 7.02769 250.713 6.89498 250.968C6.87494 251.007 6.67004 251.114 6.6464 251.13C6.28399 251.389 6.79836 251.088 6.82031 251.081C6.98446 251.038 6.61968 251.385 7.20848 250.988C7.17042 251.333 7.5505 251.152 7.43468 251.821C7.43408 251.83 7.27792 252.078 7.27788 252.094C7.27924 252.285 7.49524 251.883 7.79828 251.413C7.87076 251.293 7.59899 251.91 7.58343 251.957C7.51629 252.127 7.3083 252.51 7.29751 252.544C7.22303 252.816 7.84303 251.513 7.88053 251.53C7.88094 251.533 7.76489 251.771 7.75768 251.797C7.7356 251.878 7.79081 251.787 7.76607 251.876C7.70751 252.082 7.45257 252.735 7.66012 252.379C7.6859 252.332 7.98321 251.57 8.00718 251.621C8.01656 251.641 8.08288 251.653 8.09582 251.701C8.09672 251.704 8.09733 251.708 8.09758 251.712C8.10146 251.769 8.00375 252.014 8.00137 252.026C7.95643 252.378 7.88827 252.508 7.77254 253.013C7.66334 253.517 8.00996 252.34 8.06281 252.213C8.11506 252.086 8.08429 252.377 8.07162 252.477C8.05803 252.577 7.99614 252.734 7.99326 252.792C7.98024 253.172 8.18823 252.214 8.26253 252.032C8.4312 251.6 8.25148 252.493 8.2924 252.594C8.30253 252.621 8.33677 252.416 8.35456 252.401C8.42314 252.34 8.39654 252.625 8.51202 252.383C8.53188 252.344 8.68728 251.818 8.64055 252.218C8.63401 252.275 8.57702 252.495 8.59093 252.55C8.61167 252.631 8.66769 252.692 8.71996 252.625C8.7583 252.575 8.79206 252.201 8.80665 252.322C8.81331 252.375 8.74562 252.585 8.76185 252.669C8.77808 252.752 8.85735 252.756 8.88813 252.753C8.91892 252.75 8.94906 252.468 8.95459 252.45C8.98673 252.344 9.06389 252.218 9.0687 252.219C9.31997 252.225 9.4872 252.731 9.76762 252.615C9.78963 252.607 9.82307 252.31 9.82691 252.305C9.91669 252.193 9.73651 252.969 9.74154 253.239C9.83147 252.639 9.84224 252.752 9.90191 252.694C9.93097 252.666 9.95673 252.432 9.96283 252.409C10.0579 252.063 10.0065 252.522 9.99651 252.616C9.96068 252.961 10.0565 252.562 10.0324 252.793C10.0078 253.023 9.91334 253.352 9.95904 253.356C10.0105 253.144 10.0752 252.58 10.128 252.496C10.3308 252.178 10.5203 252.672 10.6203 252.748C10.7249 252.822 10.7751 252.796 10.8202 252.892C10.9005 253.067 10.9843 252.651 11.1383 252.501C11.2973 252.355 10.8838 253.306 10.8159 253.518C10.7446 253.729 10.837 253.519 10.8028 253.638C10.7671 253.755 10.6908 253.887 10.6947 253.939C10.6954 253.948 10.7034 253.943 10.717 253.928C10.7726 253.862 10.9357 253.613 11.0261 253.448C11.2607 253.014 11.4428 252.526 11.4622 252.739C11.4625 252.751 11.3215 252.985 11.3286 253.019C11.3841 253.283 11.5176 253.39 11.5139 253.632C11.5123 253.664 11.3009 253.882 11.2965 253.903C11.2403 254.113 11.5535 253.707 12.0157 253.366C11.4665 253.885 11.1615 254.232 11.1927 254.275C11.2137 254.304 11.4625 254.088 11.6651 253.969C11.7273 253.934 11.5695 254.101 11.6971 254.012C12.1181 253.73 12.5504 253.357 12.4412 253.594C12.4353 253.605 12.1974 253.749 12.1934 253.773C12.1616 253.923 12.6174 253.651 12.7431 253.741C12.8426 253.814 12.6299 254.116 12.6184 254.225C11.8391 254.561 12.0449 254.549 12.6035 254.371C12.6042 254.438 12.6583 254.489 12.6012 254.57C12.5817 254.598 12.3454 254.667 12.3212 254.678C11.9393 254.848 12.4853 254.685 12.5108 254.691C12.7605 254.754 12.3785 254.982 12.8174 254.979C12.8331 254.979 13.4013 254.821 12.9972 254.973C12.9692 254.983 12.7004 255.02 12.6964 255.08C12.695 255.1 12.6657 255.133 12.6359 255.168C12.5731 255.243 12.5084 255.328 12.7003 255.324C12.7687 255.324 13.2391 255.227 12.891 255.367C12.8437 255.386 12.6806 255.431 12.5927 255.465C12.3131 255.576 12.8849 255.408 12.4105 255.586C11.9359 255.764 11.5992 255.955 11.9582 255.92C11.9688 255.919 12.4183 255.773 12.4195 255.797C12.4211 255.835 12.3509 255.924 12.3703 255.96C12.3797 255.978 12.643 255.848 12.6492 255.848C12.8457 255.885 12.6442 256.066 12.6216 256.245C12.6194 256.282 12.985 256.111 12.753 256.329C12.505 256.576 11.3019 257.375 11.6927 257.319C11.8607 257.309 13.2822 256.162 12.6383 256.86C12.931 256.831 12.7404 257.311 13.1044 257.172C13.1208 257.166 13.4541 256.779 13.4629 256.795C13.4765 256.82 13.3446 257.019 13.3509 257.043C13.3753 257.15 13.5538 257.026 13.6004 257.096C13.6192 257.122 13.4745 257.322 13.4978 257.353C13.5219 257.385 13.7155 257.124 13.6741 257.283C13.6419 257.403 13.3299 257.99 13.3406 258.086C13.6755 257.524 13.7014 257.555 13.8383 257.435C13.8648 257.411 13.9671 257.207 13.9854 257.186C14.0615 257.094 13.9859 257.268 14.0661 257.167C14.0853 257.142 14.1941 256.947 14.2158 256.916C14.403 256.644 14.2082 257.11 14.1764 257.192C14.0525 257.502 14.2047 257.254 14.1695 257.383C14.1356 257.513 14.0201 257.638 14.0153 257.725C14.0063 257.905 14.1082 257.915 14.1731 257.958C14.1986 257.973 14.3092 257.695 14.3159 257.691C14.4008 257.648 14.325 257.963 14.6032 257.437C14.0045 258.852 14.6972 257.316 14.6463 257.63C14.642 257.655 14.3568 258.324 14.2881 258.41C14.2189 258.495 14.2753 258.272 14.1708 258.407C14.1468 258.439 13.8112 259.034 13.786 259.067C13.5929 259.333 14.0492 258.348 14.0724 258.293C14.3193 257.698 13.9469 258.332 13.9069 258.369C13.7311 258.542 13.7421 258.376 13.6031 258.491C13.5137 258.565 13.1778 259.192 13.1535 259.154C13.0715 259.028 13.5204 258.143 12.993 258.832C12.8789 258.978 12.5088 259.662 12.7315 259.084C12.7442 259.047 12.9732 258.532 12.7545 258.813C12.7268 258.848 12.608 259.041 12.5916 259.053C12.4842 259.131 12.5522 258.961 12.4609 259.005C12.3701 259.049 12.2411 259.119 12.2305 259.018C12.2234 258.958 12.425 258.584 12.4714 258.49C12.6039 258.22 12.2753 258.584 12.4638 258.275C12.657 257.968 13.0233 257.555 13.1122 257.329C12.7571 257.798 12.389 258.277 12.0282 258.746C11.8816 258.609 11.8548 258.34 11.6881 258.22C11.667 258.205 11.4699 258.454 11.44 258.443C11.3125 258.391 11.3965 258.155 11.2427 258.121C11.1216 258.093 10.79 258.222 10.6447 258.175C11.1253 257.699 10.8488 257.713 10.8271 257.571C10.8204 257.523 10.9716 257.425 11.0048 257.369C11.1279 257.16 10.6543 257.523 10.5575 257.546C10.1389 257.629 11.2887 256.927 11.1993 256.833C11.1962 256.831 10.5157 257.079 10.4679 257.082C10.1661 257.131 10.6845 256.957 10.7085 256.886C10.7533 256.755 10.8857 256.632 10.6511 256.616C10.5823 256.614 10.1363 256.704 10.4381 256.523C10.4778 256.5 10.7014 256.42 10.7123 256.41C10.8936 256.232 10.1914 256.481 9.93061 256.499C9.66928 256.515 10.1304 256.267 10.2676 256.208C10.6207 256.051 10.4344 256.192 10.4712 256.184C10.9068 256.074 10.8149 256.04 10.8386 255.988C11.5356 255.768 11.4784 255.73 10.8607 255.936C10.7933 255.959 10.868 255.97 10.8386 255.988C10.1418 256.163 10.0316 256.115 10.6578 255.867C10.9514 255.751 11.3108 255.675 11.1585 255.63C11.1088 255.616 10.8438 255.692 10.6477 255.738C10.5729 255.755 10.5081 255.768 10.4692 255.77C10.1485 255.787 10.5747 255.572 10.4844 255.53C10.4518 255.515 10.1951 255.618 10.1639 255.611C10.0808 255.595 10.2674 255.5 10.1554 255.499C10.145 255.499 9.87356 255.597 9.86686 255.588C9.81146 255.528 9.96622 255.415 9.95241 255.37C9.94482 255.346 9.79144 255.395 9.81948 255.38C9.86833 255.356 10.2166 255.123 10.1339 255.182C10.0851 255.226 9.8628 255.41 9.71931 255.544C9.45132 255.818 9.98327 255.386 10.0504 255.303C10.0522 255.3 10.0938 255.245 10.2018 255.144C10.4193 254.925 10.0505 255.301 10.0504 255.303C10.1004 255.256 10.1561 255.218 10.1236 255.263C10.1061 255.287 9.93264 255.499 9.92757 255.508C9.81421 255.733 9.8623 255.843 9.94416 255.739C9.9469 255.734 10.076 255.457 10.0801 255.449C10.1022 255.404 10.0936 255.42 10.073 255.469C10.0351 255.555 9.95969 255.744 9.91029 255.876C9.83256 256.084 9.85669 256.014 9.99184 255.506C9.95547 255.564 9.9837 255.331 9.99179 255.188C10 255.045 9.85452 255.622 9.8502 255.633C9.70214 255.985 9.73937 255.645 9.65978 255.575C9.6237 255.541 9.5184 255.61 9.45597 255.665C9.40672 255.71 9.40405 255.569 9.35015 255.65C9.34289 255.661 9.30601 255.923 9.30275 255.933C9.20876 256.239 9.33223 255.603 9.34124 255.487C9.3737 255.066 9.38585 254.841 9.29406 255.028C9.27272 255.07 9.08995 255.986 9.05588 256.036C9.01169 256.099 9.07483 255.77 9.02658 255.845C9.02247 255.851 8.99228 256.055 8.97113 256.043C8.87265 255.988 8.76997 255.851 8.64603 255.853C8.62916 255.852 8.60016 256.179 8.57473 256.183C8.45548 256.204 8.32503 256.171 8.22977 255.999C8.20652 255.955 8.26455 255.733 8.26978 255.665C8.30225 255.253 8.14197 255.831 8.12964 255.841C7.84579 256.081 7.77103 255.514 7.45075 255.701C7.43592 255.714 7.15605 256.304 7.24336 255.758C7.24799 255.721 7.34731 255.166 7.19882 255.523C7.18913 255.545 7.1441 255.834 7.09374 255.789C7.04465 255.744 6.88889 255.899 6.90121 255.569C6.90391 255.493 6.96629 255.177 6.91658 255.169C6.89796 255.166 6.86368 255.204 6.80315 255.31C6.79309 255.34 6.31576 256.243 6.51357 255.572C6.54656 255.461 6.81907 254.775 6.59199 255.093C6.54699 255.154 6.5191 255.32 6.43245 255.396C6.29686 255.512 6.27786 255.29 6.04813 255.546C6.00959 255.593 5.71962 256.011 5.82486 255.639C5.8419 255.581 5.96629 255.367 5.94901 255.328C5.86923 255.142 5.64486 255.209 5.58978 254.978C5.57146 254.898 5.79997 254.57 5.80878 254.451C5.81692 254.331 5.78532 254.189 5.63712 254.309C5.48697 254.427 5.18868 254.993 5.07827 254.979C4.58477 254.907 4.47054 254.318 4.22588 253.972C4.18836 253.919 4.05739 254.113 3.98845 254.043C3.7342 253.799 3.18335 253.384 3.46324 252.888C3.69069 252.505 4.07979 252.595 4.14057 252.382C4.1734 252.286 3.48174 252.556 3.45104 252.547C3.15239 252.481 3.39365 252.222 3.23889 252.112C3.20649 252.089 2.94312 252.235 2.9183 252.213C2.83051 252.136 2.91646 251.987 2.86139 251.907C2.83594 251.87 2.62315 251.954 2.62643 251.91C2.62944 251.855 2.64937 251.797 2.69437 251.733C2.73397 251.678 2.79268 251.618 2.87621 251.55C2.89271 251.537 3.17932 251.501 3.17096 251.438C3.15642 251.335 3.32798 251.165 3.08926 251.112C3.01764 251.096 2.50977 251.22 2.84287 251.063C2.9125 251.03 3.52734 250.905 2.98097 250.948C2.89074 250.959 2.14382 250.967 2.59179 250.802C2.70957 250.759 3.20481 250.617 3.11876 250.596C3.10513 250.593 2.83321 250.665 2.80034 250.638C2.68922 250.541 2.69927 250.417 2.59573 250.313C2.5675 250.285 2.28663 250.373 2.25361 250.328C2.16221 250.204 2.2166 250.027 2.29586 249.891C2.3256 249.84 2.56813 249.852 2.59388 249.846C3.0135 249.757 2.43844 249.774 2.40355 249.757C2.19487 249.657 2.45934 249.553 2.38363 249.453C2.36349 249.425 2.09051 249.456 2.06587 249.451C1.82495 249.398 2.31842 249.426 2.3713 249.386C2.5212 249.275 2.49747 249.16 2.46299 249.052C2.44996 249.013 2.13194 249.056 2.12397 249.019C2.07084 248.8 2.11209 248.564 2.30592 248.359C2.34301 248.321 2.58438 248.369 2.6408 248.365C3.03497 248.346 2.51304 248.211 2.46514 248.183C2.24516 248.065 2.46479 248.053 2.43607 247.966C2.29224 247.532 2.55541 246.995 2.83471 246.538C2.86853 246.482 2.90413 246.427 2.94123 246.373C3.29984 245.871 3.73228 245.527 4.1834 245.008C4.21625 244.971 3.95477 244.771 3.98213 244.735C4.3602 244.268 4.95173 244.04 5.46926 243.74C5.51343 243.716 5.33333 243.454 5.40441 243.404C5.55009 243.298 5.76916 243.248 5.95502 243.303C6.04457 243.33 6.00581 243.612 6.09103 243.635C6.28608 243.689 6.46375 243.68 6.62635 243.61C6.69694 243.579 6.54602 243.279 6.64484 243.264C7.11397 243.189 7.5659 243.172 7.95057 243.345C8.03505 243.409 8.11136 243.502 8.18521 243.639C8.2019 243.67 8.12179 244.306 8.18222 244.191C8.2131 244.016 8.24559 243.809 8.2767 243.621C8.73127 243.59 9.13481 243.896 9.6122 244.066C9.6327 244.073 9.68913 243.736 9.73023 243.749C9.9676 243.822 10.2569 243.817 10.4176 244.245C10.4334 244.287 10.1953 244.835 10.3048 244.783C10.3246 244.773 10.4754 244.751 10.563 244.649C10.576 244.634 10.667 244.368 10.7145 244.381C10.9853 244.461 11.2624 244.675 11.5065 245.071C11.544 245.135 11.3066 245.328 11.3295 245.374C11.4725 245.685 12.0162 245.862 12.0753 246.586C12.0814 247.056 11.5341 247.103 11.0919 247.382C11.0303 247.418 11.0456 247.588 10.7503 247.618C10.0128 247.677 9.20924 247.78 8.42444 247.857C8.25011 247.872 8.42656 247.588 8.0197 247.765C7.98919 247.776 7.87551 248.02 7.75576 248.11C7.67086 248.175 7.35891 248.147 7.26095 248.276C7.16663 248.414 7.43623 248.451 7.35462 248.641C7.27552 248.829 6.93608 248.926 7.0456 249.217ZM10.0013 254.544C10.0286 254.258 9.80872 255.281 9.89125 255.043C9.89549 255.03 9.99989 254.558 10.0013 254.544ZM12.3743 257.74C12.629 257.35 12.14 257.823 11.9411 258.123C11.749 258.429 12.2997 257.861 12.3743 257.74ZM13.1074 257.871C13.2526 257.531 12.4075 258.751 12.6492 258.552C12.6631 258.541 13.0993 257.891 13.1074 257.871ZM10.7341 246.953C10.7241 246.962 10.7575 247.035 10.7698 247.029C11.0792 246.893 10.9905 246.715 10.7341 246.953ZM13.8028 257.858C13.8816 257.673 13.719 257.848 13.6215 258.079C13.5452 258.267 13.7068 258.09 13.8028 257.858ZM8.17809 253.092C8.18097 253.077 8.16117 253.058 8.14131 253.144C8.07748 253.42 8.12954 253.35 8.17809 253.092ZM14.6732 258.249C14.561 258.141 14.9825 256.987 15.0509 257.167C15.0644 257.2 14.8487 257.506 14.835 257.62C14.8134 257.83 15.1448 257.134 15.0453 257.539C15.0282 257.613 14.6793 258.258 14.6723 258.25C14.6726 258.25 14.6729 258.249 14.6732 258.249ZM10.2451 253.311C10.2473 253.297 10.2183 253.277 10.2147 253.291C10.1307 253.613 10.1858 253.651 10.2451 253.311ZM7.22634 252.029C7.24059 252.004 7.20433 251.947 7.1877 251.968C6.85209 252.398 6.94835 252.53 7.22634 252.029ZM12.5982 254.235C12.9224 254.143 12.9825 254.186 12.6038 254.37C12.6094 254.324 12.5962 254.283 12.5982 254.235Z" fill="#4C422C"/>
</g>
<defs>
<filter id="filter0_g_8_5332" x="0" y="0" width="428.6" height="261.312" filterUnits="userSpaceOnUse" color-interpolation-filters="sRGB">
<feFlood flood-opacity="0" result="BackgroundImageFix"/>
<feBlend mode="normal" in="SourceGraphic" in2="BackgroundImageFix" result="shape"/>
<feTurbulence type="fractalNoise" baseFrequency="0.5 0.5" numOctaves="3" seed="5566" />
<feDisplacementMap in="shape" scale="4" xChannelSelector="R" yChannelSelector="G" result="displacedImage" width="100%" height="100%" />
<feMerge result="effect1_texture_8_5332">
<feMergeNode in="displacedImage"/>
</feMerge>
</filter>
</defs>
</svg>
