<svg width="84" height="100" viewBox="0 0 84 100" fill="none" xmlns="http://www.w3.org/2000/svg">
<g filter="url(#filter0_g_8_5293)">
<path d="M52.4027 4.27094C52.3272 4.71791 52.0328 5.24985 51.7551 5.65034C51.6686 5.7755 51.5169 5.64549 51.449 5.73041C51.3165 5.89704 51.3442 6.10223 51.2005 6.26456C51.1522 6.31781 50.8984 6.14856 50.854 6.20679C50.6116 6.53064 50.5734 6.89769 50.3973 7.25259C49.5308 9.00129 48.8992 10.8308 48.2239 12.7156C48.0014 13.3376 47.5253 14.0367 47.448 14.7265C47.4391 14.8072 47.7002 14.8328 47.7164 14.8533C47.963 15.1731 47.4846 14.9525 47.375 15.0827C46.9408 15.601 46.7246 16.2539 46.648 16.8553C46.6216 17.0686 47.0106 17.0367 46.9361 17.1148C46.9217 17.1291 46.8895 17.1473 46.8326 17.172C46.8091 17.1827 46.5644 17.0451 46.5173 17.1006C46.4106 17.2272 46.3764 17.5186 46.3225 17.6274C46.2176 17.8356 46.2101 17.8722 46.1476 18.0815C46.0608 18.3644 45.8339 18.6731 45.809 18.9988C45.8044 19.0688 46.0993 19.0552 46.1163 19.1737C46.1331 19.293 46.0342 19.5651 45.9442 19.6438C45.8546 19.7208 45.6525 19.6227 45.5992 19.6261C45.1498 19.6514 45.6316 20.1336 45.6344 20.179C45.6666 21.0108 45.1611 21.5837 44.9569 22.3085C44.8026 22.8592 44.7369 23.4809 44.5616 24.0028C44.3514 24.6245 44.0367 25.1083 43.8549 25.723C43.8352 25.7879 44.1734 25.8195 44.1499 25.8994C43.8991 26.7481 43.5517 27.5731 42.9956 28.3097C42.9396 28.383 42.7182 28.1635 42.6466 28.2293C42.2131 28.644 41.3443 29.1368 42.3137 30.005C42.2837 30.0485 42.2529 30.0933 42.2209 30.1385C42.0335 30.3978 41.8079 30.6828 41.4879 30.8221C41.2488 30.9265 41.0603 30.605 41.0639 30.8895C41.0643 30.9536 41.3435 31.0163 41.3256 31.1027C41.2514 31.4637 40.9907 31.7687 40.9546 32.1462C40.9477 32.2235 41.1763 32.321 41.2064 32.3597C41.4471 32.6794 40.7866 32.6531 40.7191 32.6883C40.2137 32.9557 40.166 33.3207 39.9545 33.7059C39.9052 33.7954 40.256 33.8435 40.2191 33.9352C40.024 34.4084 39.7518 34.8626 39.3872 35.2346C39.3053 35.317 39.1028 35.0938 39.0509 35.1264C38.8251 35.2713 39.2737 35.5684 39.0659 35.7125C39.0227 35.7431 38.821 35.6054 38.7934 35.6005C38.3607 35.5229 38.8287 35.9051 38.8237 35.9422C38.774 36.4149 38.096 36.3695 37.9714 36.7853C37.9571 36.8352 38.2818 36.8803 38.225 37.0118C37.8466 37.8915 37.288 38.7367 36.6098 39.4427C36.5051 39.5519 36.3552 39.3477 36.3259 39.3419C35.8658 39.2534 36.3354 39.6327 36.3315 39.6852C36.2861 40.0937 35.6761 40.1538 36.1623 40.7295C35.8577 41.1094 35.5996 41.5161 35.3458 41.9276C34.7659 42.8675 34.2628 43.8419 33.3281 44.5726C33.3116 44.5864 33.0755 44.4089 33.0438 44.4371C32.6606 44.7738 33.1023 44.9201 33.4317 45.4681C33.514 45.6064 32.8083 45.4869 32.7549 45.4814C32.558 45.4603 32.2181 45.1749 32.1746 45.1805C31.8265 45.2348 33.1016 45.9106 32.9597 46.1647C32.9531 46.1715 32.7403 46.008 32.7052 46.0166C32.5953 46.0432 32.6503 46.1611 32.5341 46.1818C32.2661 46.2279 31.6238 45.9403 31.8543 46.3662C31.8846 46.421 32.6247 46.7734 32.4647 46.9835C32.3998 47.0673 32.1931 47.4738 32.084 47.5638C31.9758 47.6518 31.7864 47.448 31.772 47.4506C31.2998 47.5893 31.2357 47.4046 30.699 47.3117C30.1623 47.223 31.2654 47.7623 31.352 47.8901C31.4382 48.018 31.0643 48.1062 30.9469 48.1139C30.8293 48.1216 30.7181 47.9741 30.6421 47.9962C30.1407 48.1499 31.1026 48.4267 31.2171 48.6259C31.4896 49.0956 30.583 48.8642 30.3802 49.0587C30.3258 49.1106 30.5363 49.1554 30.5241 49.2204C30.4747 49.4744 30.1515 49.4803 30.2517 49.8529C30.2677 49.914 30.6494 50.367 30.2234 50.3179C30.1622 50.3103 29.9881 50.153 29.8939 50.2253C29.753 50.3327 29.5786 50.5653 29.5676 50.7545C29.5603 50.893 29.959 50.9327 29.7837 51.0219C29.7056 51.0613 29.5696 50.8461 29.4392 50.9285C29.3105 51.0076 29.1632 51.3215 29.1137 51.4376C29.0635 51.555 29.3482 51.6194 29.3606 51.6371C29.4306 51.7416 29.4414 52.0262 29.4318 52.0448C28.9756 53.0397 28.103 53.7466 27.7823 54.787C27.7573 54.8675 28.0509 54.9458 28.0499 54.9594C28.0396 55.2724 27.4195 54.7265 27.0922 54.7955C27.6524 55.0294 27.5017 55.0905 27.4756 55.3007C27.4623 55.4047 27.6977 55.4562 27.7155 55.4748C27.9747 55.7606 27.5158 55.6533 27.4196 55.6363C27.0666 55.5717 27.3896 55.8465 27.1525 55.8058C26.9166 55.7665 26.6728 55.4848 26.5936 55.6623C26.7665 55.8042 27.3406 55.9176 27.3609 56.0893C27.4365 56.7429 26.5817 57.5033 26.3366 57.8897C26.3211 57.9141 26.3067 57.9373 26.2931 57.9595C26.1034 58.2691 26.0789 58.408 25.9185 58.5963C25.6127 58.9653 26.0659 58.9717 26.1445 59.2994C26.2244 59.6311 25.3041 59.1385 25.081 59.0988C24.858 59.0597 25.0567 59.1824 24.9239 59.189C24.7911 59.196 24.6884 59.0366 24.6025 59.1373C24.5167 59.2367 24.7775 59.686 24.9838 59.8023C25.4198 60.05 25.9563 60.0811 25.6828 60.3174C25.6667 60.3311 25.4282 60.187 25.3795 60.2443C25.0023 60.701 24.812 61.251 24.4668 61.7277C24.419 61.7929 24.1508 61.6363 24.1197 61.6734C23.794 62.062 24.3322 62.0538 24.7966 62.469C24.0932 62.1885 23.6104 62.1841 23.5001 62.5215C23.4338 62.7233 23.7591 62.7882 23.9399 62.9885C23.9945 63.0486 23.7333 63.1246 23.873 63.1973C24.3295 63.4355 24.9137 63.47 24.5882 63.7513C24.5731 63.7635 24.3239 63.6311 24.2911 63.6791C24.0781 63.9881 24.5708 64.1892 24.5131 64.5806C24.4681 64.887 23.9921 65.3052 23.8319 65.619C23.0288 65.3442 23.1101 65.7142 23.6215 66.0284C23.5263 66.2347 23.4782 66.4764 23.3294 66.6569C23.2786 66.7187 23.0629 66.5909 23.0347 66.5911C22.594 66.5893 23.0984 66.8705 23.103 66.9244C23.1194 67.2638 22.9294 67.4933 22.8183 67.7527C22.7424 67.9299 22.7034 68.1203 22.7892 68.3737C22.797 68.3957 23.3366 68.6359 22.8857 68.6076C22.8549 68.6047 22.6654 68.3519 22.5597 68.5663C22.4535 68.7819 21.9948 69.0775 22.1205 69.4862C22.151 69.5845 22.5134 69.9587 22.105 69.9627C22.0498 69.9627 21.9035 69.8746 21.8047 69.8663C21.4897 69.8404 22.0153 70.1269 21.5037 70.0341C20.9919 69.9415 20.55 70.0069 20.7345 70.4474C20.7395 70.4609 21.138 70.7265 21.0879 70.8183C21.008 70.9641 20.8199 71.1359 20.749 71.2934C20.7152 71.3691 21.0031 71.4463 21.0018 71.4616C20.9107 72.0383 20.4993 72.2834 20.1281 72.7631C20.0599 72.8502 20.2706 73.315 19.8915 73.3564C19.4764 73.4013 18.3144 72.5202 18.3719 73.1415C18.3951 73.3887 19.8688 74.5048 18.8521 74.3868C18.6937 75.156 17.9293 75.5125 17.8356 76.3278C17.8313 76.3642 18.2154 76.716 18.1684 76.7814C18.0979 76.8776 17.8597 76.8114 17.8032 76.8751C17.7378 76.9466 17.6903 77.0268 17.6516 77.1116L17.6565 77.1007C17.61 77.3483 17.6366 77.6076 17.5407 77.8369C17.4909 77.9576 17.2691 77.8411 17.21 77.984C17.1516 78.1251 17.4294 78.3236 17.2179 78.474C17.056 78.5905 16.3772 78.5382 16.2398 78.7164C16.8612 78.9213 16.8056 79.053 16.8927 79.3497C16.9099 79.4064 17.1428 79.4252 17.1622 79.4556C17.246 79.5797 17.0388 79.6085 17.1335 79.7323C17.1562 79.7624 17.3688 79.831 17.3994 79.8594C17.6672 80.1031 17.112 80.1901 17.0156 80.2044C16.6482 80.2626 16.9029 80.4202 16.739 80.5033C16.5758 80.5838 16.4775 80.3542 16.357 80.4702C16.1075 80.7111 16.022 81.0952 15.917 81.3868C15.8762 81.5042 16.186 81.5152 16.1868 81.5342C16.1803 81.8003 15.7984 81.9495 16.3197 82.2674C14.8039 81.9615 16.4137 82.4606 16.0077 82.7135C15.9752 82.7327 15.2734 82.5419 15.2061 82.4044C15.14 82.2638 15.4074 82.176 15.2962 81.9804C15.2709 81.9322 14.6868 81.5269 14.6566 81.4862C14.4182 81.1767 15.4608 81.4803 15.5213 81.4872C16.1741 81.5595 15.5547 81.0912 15.5268 81.0125C15.3994 80.651 15.6249 80.4477 15.5444 80.1554C15.4939 79.9617 14.8209 79.7319 14.8816 79.6133C15.0822 79.221 16.0746 79.373 15.3783 78.723C15.2302 78.583 14.4628 78.4326 15.1403 78.3164C15.1833 78.3082 15.7864 78.2545 15.4901 78.0181C15.4527 77.9883 15.2365 77.9209 15.2251 77.8936C15.1525 77.7143 15.3547 77.6725 15.3213 77.4902C15.2873 77.3096 15.2235 77.082 15.3522 76.9275C15.4298 76.8329 15.8753 76.8214 15.99 76.8005C16.1395 76.7747 16.1352 76.6983 16.1208 76.6239L16.2751 76.2804C16.2792 76.1903 16.2677 76.1003 16.4626 76.1581C16.8216 76.2638 17.1981 76.7056 17.5265 76.6129C17.0263 76.3028 16.5189 75.9746 16.0186 75.6582C16.3116 75.2086 16.7426 74.8496 16.9864 74.3706C17.016 74.3111 16.7077 74.2131 16.7321 74.1455C16.8365 73.8609 17.1612 73.7436 17.2327 73.4289C17.287 73.1846 17.1178 72.7954 17.1608 72.5368C17.8256 72.7226 17.7991 72.2851 17.9762 72.0766C18.0385 72.0026 18.1954 72.0908 18.2783 72.0579C18.587 71.9317 18.0031 71.7661 17.9511 71.6621C17.7279 71.2191 18.9421 71.8029 19.0702 71.4694C19.0779 71.4512 18.5329 70.9316 18.5059 70.8846C18.3296 70.58 18.7451 70.9643 18.8468 70.8757C19.0322 70.7139 19.2557 70.6432 19.1776 70.313C19.1541 70.2158 18.8248 69.8618 19.2015 69.869C19.2509 69.8698 19.4625 69.9778 19.4818 69.969C19.8123 69.8 19.1346 69.4878 18.9692 69.2376C18.8036 68.988 19.375 68.9633 19.5319 68.9734C19.9379 69.0001 19.6417 69.1335 19.6733 69.155C20.0503 69.4122 20.0538 69.2102 20.1446 69.0933C20.8254 69.3606 20.8643 69.1558 20.2359 68.9708C20.1672 68.9508 20.1866 69.0799 20.1446 69.0933C19.534 68.6963 19.5311 68.4669 20.2429 68.4976C20.5765 68.5114 20.8757 68.7499 20.8819 68.376C20.8846 68.2067 20.3944 68.0769 20.3176 67.8983C20.1489 67.5093 20.678 67.2993 20.7614 66.9888C20.765 66.9753 20.7678 66.9617 20.7696 66.9478C20.7856 66.8273 20.4871 66.84 20.489 66.7546C20.4924 66.5289 20.7514 66.4213 20.7239 66.1831C20.721 66.1614 20.4334 66.1093 20.4523 66.0452C20.5898 65.5584 20.908 65.1998 21.0817 64.6945C21.1661 64.4492 21.1579 63.9619 21.2709 63.7145C21.4648 63.2878 22.0386 62.8624 22.0624 62.4458C22.0789 62.1753 21.7866 62.1432 21.6327 61.9768C21.3341 61.6552 22.1019 61.4874 22.2186 61.4689C22.2224 61.4683 22.2186 61.7078 22.3966 61.6352C22.7123 61.6597 22.2191 61.4718 22.2186 61.4689C22.2938 61.4571 22.4939 61.0398 22.4695 60.9349C22.4559 60.8782 22.1869 60.8221 22.1847 60.7941C22.1385 60.1321 22.2672 59.5083 22.6051 58.9291C22.6142 58.9199 22.897 59.0374 22.9146 59.0149C23.1681 58.704 22.9002 58.3486 22.8118 57.96C22.7235 57.5727 22.9006 57.341 23.4627 57.3642C23.4951 57.1519 23.7543 56.9392 23.9711 56.802C24.0133 56.7818 24.054 56.7631 24.0903 56.7464C24.2946 56.6509 23.7724 56.3635 23.7679 56.346C23.6406 55.7485 24.0713 55.636 24.3411 55.1922C24.4687 54.9847 24.6036 54.4983 24.6591 54.2293C24.7034 54.0134 24.8842 53.9577 24.8882 53.7416C24.8889 53.7123 24.638 53.623 24.6323 53.6112C24.4415 53.2742 24.9807 53.6488 25.1049 53.6569C25.5543 53.692 25.8008 53.6953 25.7439 53.3556C25.7305 53.2786 24.9711 52.7048 24.9746 52.5715C24.9794 52.4017 25.2548 52.6005 25.252 52.4197C25.2521 52.4043 25.0649 52.3176 25.1168 52.2308C25.3546 51.829 25.6853 51.4239 25.8807 50.9807C25.908 50.9205 25.577 50.852 25.6119 50.7624C25.7777 50.3386 26.0068 49.9063 26.3425 49.5807C26.4263 49.5005 26.5999 49.665 26.6713 49.6744C27.1024 49.7336 26.6608 49.2825 26.6661 49.2468C26.7744 48.4 27.5379 48.1018 27.6918 47.2572C27.6985 47.212 27.2923 46.609 27.8508 46.7301C27.8883 46.7376 28.4561 46.8681 28.1792 46.5704C28.162 46.5517 27.8622 46.498 27.9657 46.3672C28.0686 46.2375 28.0274 45.906 28.4133 45.862C28.5355 45.8467 29.1085 45.9672 28.8191 45.5639C28.7992 45.5351 28.0691 44.7627 28.7382 44.9944C28.8482 45.0328 29.4847 45.4074 29.2772 45C29.2368 44.9215 29.0493 44.92 29.0222 44.7566C28.978 44.5093 29.277 44.3785 29.1097 44.0043C29.0804 43.9375 28.7302 43.5373 29.1327 43.5978C29.1957 43.6074 29.3894 43.7658 29.4508 43.7131C29.7452 43.4606 29.7873 43.0534 30.12 42.8168C30.2372 42.7331 30.5498 42.9889 30.7092 42.9262C30.8684 42.8636 31.0932 42.6803 31.0075 42.4657C30.9217 42.2509 30.2944 42.0658 30.3583 41.8553C30.6101 41.0241 31.2912 40.453 31.8101 39.7798C31.8556 39.7223 31.9 39.6627 31.9428 39.6007C32.0156 39.4952 31.7672 39.4678 31.8585 39.3065C32.2005 38.7041 32.6167 37.5428 33.3397 37.2356C33.9193 36.99 33.8717 37.6808 34.1949 37.4238C34.3505 37.2983 33.8001 36.7676 33.8014 36.7171C33.8033 36.2248 34.2355 36.1161 34.3342 35.7247C34.3546 35.6438 34.0538 35.5705 34.0739 35.5031C34.1407 35.2715 34.3755 35.1185 34.4606 34.9091C34.4982 34.8149 34.2881 34.7228 34.3477 34.6495C34.4881 34.4722 34.6651 34.3455 34.9566 34.255C34.9832 34.2468 35.171 34.4985 35.2579 34.3584C35.3981 34.1311 35.7408 33.9378 35.6924 33.5637C35.6772 33.4523 35.2175 33.2043 35.6281 33.2002C35.7139 33.1992 36.2436 33.5394 35.8717 33.0836C35.8102 33.0074 35.3434 32.3266 35.8479 32.3801C35.9808 32.3941 36.4941 32.5213 36.4741 32.3863C36.4696 32.3672 36.1936 32.2891 36.2118 32.1958C36.2803 31.8695 36.4634 31.5855 36.5391 31.2522C36.5587 31.1631 36.2407 31.1442 36.2781 31.0158C36.3811 30.6615 36.6554 30.2969 36.9002 30.0249C36.9908 29.9251 37.1622 30.1164 37.1898 30.1201C37.6377 30.1824 37.1702 29.8361 37.1641 29.7754C37.1321 29.4033 37.4827 29.315 37.554 29.0242C37.5744 28.944 37.3051 28.8678 37.2908 28.8423C37.156 28.5847 37.5351 28.9219 37.6317 28.854C37.9036 28.665 38.0363 28.3629 38.1428 28.0833C38.1784 27.9887 37.8931 27.9484 37.8786 27.8718C37.877 27.8661 37.8772 27.8604 37.8796 27.8545C38.0555 27.3985 38.3013 26.9451 38.6606 26.5528C38.7287 26.4792 38.9302 26.63 38.9893 26.6338C39.4038 26.6595 38.9906 26.2635 38.9605 26.2027C38.8257 25.9195 39.0566 25.9243 39.0879 25.7338C39.2365 24.8079 39.7426 23.755 40.096 22.9075C40.5547 21.8065 41.0325 20.9595 41.2852 19.8096C41.3015 19.7367 40.9677 19.7234 40.9776 19.6595C41.1216 18.8357 41.4595 18.0665 41.6002 17.2104C41.6123 17.1404 41.2875 17.1564 41.2973 17.04C41.3152 16.8012 41.413 16.5168 41.574 16.3139C41.6524 16.2134 41.8629 16.4389 41.9365 16.3367C42.0761 16.1447 42.1719 15.9238 42.2216 15.6948C42.2318 15.6462 42.2396 15.5969 42.2449 15.5472C42.2564 15.4333 41.9054 15.5051 41.9439 15.3641C42.1996 14.4001 42.4206 13.4383 43.0946 12.5665C43.1409 12.5068 43.7746 12.6232 43.6973 12.446C43.5292 12.3864 43.3276 12.3296 43.146 12.2727C43.4522 10.825 44.0653 9.46693 44.521 8.0308C44.5402 7.96995 44.183 7.98041 44.2187 7.86204C44.424 7.17912 44.5334 6.4823 45.074 5.87584C45.1273 5.81557 45.687 6.02847 45.6645 5.79652C45.6601 5.75475 45.6809 5.4216 45.5826 5.30257C45.5674 5.28564 45.2832 5.25872 45.3075 5.15513C45.4521 4.55868 45.7152 3.96143 46.0807 3.42839C46.1404 3.34223 46.3858 3.54122 46.4306 3.48106C46.7449 3.0579 46.7237 2.45726 47.1556 2.09376C47.4467 1.84998 47.879 2.15481 48.4112 2.1864C48.4864 2.19004 48.5726 2.00989 48.8481 2.1141C49.5406 2.37514 50.2546 2.76822 50.9973 3.03575C51.1572 3.09281 51.0782 2.80841 51.4036 3.0936C51.4252 3.11268 51.4864 3.32062 51.5996 3.41235C51.6778 3.47557 51.9744 3.54036 52.0665 3.64108C52.1586 3.74156 51.9029 3.70501 52.0015 3.84917C52.1024 3.99283 52.4333 4.08028 52.4027 4.27094ZM25.0094 56.2958C25.3392 56.269 24.4051 55.7958 24.554 56.0646C24.5622 56.0785 24.9929 56.2977 25.0094 56.2958ZM17.4217 75.2487C17.9321 75.2893 17.4178 74.8214 17.0325 74.7759C16.6478 74.7298 17.2674 75.2356 17.4217 75.2487ZM16.6424 77.6302C17.0672 77.4915 15.662 77.0112 15.8662 77.364C15.8776 77.3845 16.6177 77.6384 16.6424 77.6302ZM48.2606 2.96842C48.2745 2.97085 48.3374 2.843 48.3258 2.83511C48.0422 2.64535 47.9155 2.90355 48.2606 2.96842ZM16.3059 79.9156C16.5213 79.9011 16.3716 79.6069 16.1029 79.6277C15.8866 79.6451 16.0377 79.9345 16.3059 79.9156ZM29.9244 48.8277C29.9395 48.8326 29.9978 48.7516 29.9188 48.7123C29.6642 48.5863 29.6713 48.7454 29.9244 48.8277ZM15.1254 83.6103C15.3586 83.0834 16.6315 83.1361 16.3045 83.6875C16.2455 83.7865 16.0093 83.3339 15.8598 83.4344C15.5854 83.6235 16.2612 84.0321 15.7849 84.1565C15.6974 84.1804 15.1104 83.6372 15.1241 83.6087C15.1246 83.6093 15.125 83.6098 15.1254 83.6103ZM26.1848 56.7527C26.1986 56.756 26.269 56.6392 26.2581 56.6301C25.9899 56.4206 25.8481 56.6553 26.1848 56.7527ZM33.2607 44.1167C33.2897 44.1253 33.4721 43.866 33.4541 43.8431C33.0675 43.4266 32.6958 43.9525 33.2607 44.1167ZM23.8087 65.6171C24.0789 65.864 24.0579 66.05 23.6221 66.0279C23.6909 65.8944 23.7421 65.7519 23.8087 65.6171ZM18.671 85.1234C18.7575 85.1522 18.665 85.1214 18.538 85.0791C18.4986 85.066 18.3226 85.0073 18.2875 84.9956C18.2191 84.9728 18.3054 85.0016 18.2239 84.9744C18.196 84.9651 17.9172 84.8721 17.8944 84.8645C17.7712 84.8234 17.8422 84.8471 17.7829 84.8274C17.4905 84.73 17.3858 84.6952 17.2588 84.6529C17.2171 84.6391 16.9641 84.5547 17.0747 84.5917C17.0879 84.5961 17.3326 84.6777 17.3528 84.6844C17.6615 84.7874 17.1675 84.6226 17.1019 84.6007C16.8427 84.5143 16.8202 84.5069 16.9146 84.5384C16.9555 84.552 17.4415 84.7141 17.1687 84.6231C17.1503 84.617 16.8904 84.5303 16.8627 84.5211C16.8004 84.5003 16.8468 84.5158 16.8262 84.509C16.7852 84.4953 16.7878 84.4962 16.7849 84.4952C16.7786 84.4931 16.6494 84.45 16.7083 84.4697C16.7216 84.4742 16.988 84.563 17.0333 84.5781C17.0786 84.5932 17.056 84.5857 16.9932 84.5647C16.9303 84.5438 16.721 84.474 16.673 84.458C16.2679 84.3229 16.8289 84.51 16.8428 84.5146C17.0792 84.5935 16.7596 84.487 16.7605 84.4873C16.7618 84.4878 16.8673 84.523 16.8529 84.5182C16.8346 84.5121 16.6902 84.464 16.715 84.4723C16.7173 84.4731 17.0305 84.5775 17.034 84.5787C17.0704 84.5909 17.0363 84.5796 16.8248 84.5091C16.8033 84.5019 16.5284 84.4102 16.4905 84.3976C16.2645 84.3222 15.7216 84.1412 16.9188 84.5405C16.8721 84.5249 16.8238 84.5089 16.5824 84.4284C16.4271 84.3766 16.1275 84.2767 16.2553 84.3193C16.2838 84.3288 16.5462 84.4163 16.569 84.4239C16.6651 84.456 16.5798 84.4276 16.7153 84.4728C16.7435 84.4822 16.9786 84.5606 17.0209 84.5747C17.3637 84.689 16.797 84.5001 16.7558 84.4863C16.4488 84.3839 16.5696 84.4243 16.5621 84.4218C16.5602 84.4212 16.876 84.5265 16.8855 84.5296C16.9308 84.5448 16.9036 84.5357 16.7635 84.489C16.7316 84.4784 16.4626 84.3887 16.4336 84.379C16.3089 84.3374 16.8169 84.5069 16.7072 84.4703C16.6847 84.4628 16.4544 84.386 16.4291 84.3776C16.0321 84.2452 16.5946 84.4328 16.607 84.4369C16.7767 84.4935 16.1895 84.2977 16.2727 84.3255C16.2832 84.329 16.5745 84.4261 16.5864 84.4301C16.6668 84.4569 16.5867 84.4303 16.3537 84.3526C16.3178 84.3407 16.099 84.2677 16.072 84.2587C15.6504 84.1181 16.2153 84.3065 16.2365 84.3136C16.3896 84.3647 15.916 84.2067 16.5887 84.4311C16.3552 84.3533 16.733 84.4794 16.1302 84.2784C16.1233 84.2761 15.8451 84.1833 15.8323 84.1791C15.6761 84.127 16.1085 84.2712 16.6373 84.4476C16.77 84.4918 16.1316 84.279 16.0848 84.2634C15.9124 84.2058 15.4985 84.0678 15.4651 84.0567C15.2029 83.9693 16.5716 84.4257 16.572 84.4258C16.5697 84.4251 16.3178 84.3411 16.2927 84.3327C16.2141 84.3065 16.3142 84.3399 16.2275 84.311C16.0268 84.2441 15.3618 84.0223 15.7488 84.1514C15.7991 84.1681 16.5754 84.427 16.5387 84.4148C16.5235 84.4097 16.5368 84.4142 16.4865 84.3974C16.4362 84.3807 16.186 84.2972 16.1752 84.2936C15.8443 84.1833 15.7072 84.1376 15.2174 83.9742C14.7295 83.8115 15.8933 84.1996 16.0232 84.2429C16.1527 84.2861 15.8798 84.1951 15.7849 84.1635C15.6899 84.1318 15.531 84.0788 15.4772 84.0609C15.1263 83.9439 16.0549 84.2535 16.2396 84.3152C16.677 84.461 15.8139 84.1732 15.7293 84.145C15.7065 84.1374 15.903 84.203 15.9214 84.2091C15.9916 84.2325 15.7223 84.1427 15.9692 84.2251C16.0095 84.2385 16.5284 84.4116 16.1476 84.2846C16.0927 84.2663 15.8776 84.1945 15.8294 84.1785C15.7571 84.1544 15.7101 84.1387 15.782 84.1627C15.8352 84.1804 16.1896 84.2986 16.0795 84.2619C16.0303 84.2455 15.823 84.1764 15.7479 84.1513C15.6729 84.1263 15.682 84.1294 15.6891 84.1318C15.6965 84.1342 15.9653 84.2239 15.9834 84.2299C16.0871 84.2645 16.2168 84.3077 16.2164 84.3076C16.2492 84.3186 15.7961 84.1676 15.9461 84.2176C15.9574 84.2214 16.2409 84.316 16.2456 84.3175C16.3643 84.3571 15.6106 84.1058 15.3584 84.0217C15.9336 84.2135 15.8295 84.1788 15.8925 84.1998C15.9234 84.2101 16.1462 84.2844 16.169 84.292C16.5073 84.4048 16.0703 84.2591 15.9809 84.2293C15.6521 84.1196 16.0406 84.2492 15.8208 84.1759C15.6026 84.1032 15.2792 83.9953 15.2834 83.9967C15.4893 84.0654 16.0274 84.2448 16.1146 84.2739C16.4445 84.384 16.0223 84.2432 15.9784 84.2286C15.9346 84.214 15.9726 84.2267 15.8982 84.2019C15.7636 84.157 16.1629 84.2902 16.3456 84.3511C16.5283 84.4121 15.546 84.0845 15.3348 84.0141C15.1237 83.9437 15.341 84.0161 15.2249 83.9774C15.1089 83.9387 14.9653 83.8909 14.9218 83.8763C14.8783 83.8618 15.2538 83.9871 15.4746 84.0607C15.9424 84.2167 16.4334 84.3805 16.2609 84.3229C16.2506 84.3195 15.9923 84.2334 15.9662 84.2247C15.7674 84.1584 15.755 84.1543 15.5791 84.0957C15.5545 84.0875 15.2672 83.9917 15.2496 83.9858C15.0658 83.9245 15.5503 84.0861 16.0886 84.2656C15.3723 84.0267 14.9341 83.8806 14.9298 83.8792C14.927 83.8783 15.2399 83.9826 15.4604 84.0561C15.5268 84.0783 15.312 84.0067 15.4591 84.0558C15.9401 84.2161 16.4784 84.3957 16.2641 84.3242C16.2539 84.3208 15.9906 84.233 15.9747 84.2277C15.8703 84.1929 16.3734 84.3607 16.4343 84.381C16.4821 84.397 16.1753 84.2947 16.1254 84.2781C15.3201 84.0095 15.5045 84.071 16.0598 84.2562C16.037 84.2486 16.0684 84.2591 15.9916 84.2335C15.9655 84.2248 15.7323 84.147 15.7071 84.1386C15.3119 84.0069 15.8521 84.187 15.8733 84.1941C16.0792 84.2627 15.6697 84.1262 16.0698 84.2597C16.0843 84.2645 16.6437 84.451 16.2352 84.3148C16.207 84.3055 15.9525 84.2206 15.9328 84.214C15.9131 84.2075 15.6132 84.1075 15.8724 84.1939C15.9348 84.2147 16.389 84.3662 16.0342 84.2479C15.986 84.2318 15.8255 84.1783 15.7363 84.1485C15.4518 84.0537 16.0172 84.2422 15.5368 84.082C15.0565 83.9219 14.6968 83.8019 15.0282 83.9125C15.0378 83.9157 15.486 84.0651 15.4789 84.0628C15.4672 84.0589 15.3738 84.0277 15.3767 84.0287C15.3783 84.0293 15.6566 84.1221 15.6616 84.1237C15.8176 84.1758 15.5695 84.0931 15.4618 84.0572C15.4415 84.0504 15.821 84.177 15.521 84.077C15.1926 83.9674 13.8264 83.5118 14.1519 83.6204C14.282 83.6638 16.0153 84.2418 15.1173 83.9424C15.3398 84.0166 14.8802 83.8634 15.1979 83.9694C15.212 83.9741 15.6957 84.1354 15.6891 84.1332C15.6784 84.1297 15.4523 84.0543 15.4374 84.0493C15.3693 84.0266 15.5627 84.0911 15.5326 84.0811C15.5217 84.0775 15.2879 83.9995 15.2749 83.9952C15.262 83.9909 15.5699 84.0936 15.4212 84.044C15.3079 84.0062 14.6786 83.7964 14.6053 83.7719C15.2259 83.9789 15.2132 83.9746 15.377 84.0293C15.4088 84.0399 15.6248 84.1119 15.651 84.1207C15.7623 84.1578 15.5833 84.0981 15.7045 84.1385C15.7336 84.1482 15.9455 84.2189 15.9813 84.2308C16.2934 84.3349 15.8167 84.1759 15.7336 84.1483C15.4184 84.0431 15.694 84.1351 15.5699 84.0937C15.4458 84.0523 15.2906 84.0005 15.2153 83.9754C15.0594 83.9235 15.0937 83.9349 15.0839 83.9317C15.0813 83.9308 15.3643 84.0252 15.3705 84.0272C15.4422 84.0512 15.1413 83.9508 15.7048 84.1388C14.2476 83.6528 15.8462 84.1859 15.5545 84.0887C15.5309 84.0808 14.8418 83.851 14.7406 83.8173C14.6395 83.7835 14.8549 83.8554 14.6972 83.8028C14.6602 83.7904 14.0145 83.5751 13.9754 83.562C13.6697 83.4601 14.6995 83.8035 14.756 83.8223C15.3664 84.0259 14.6708 83.7939 14.6227 83.7779C14.4024 83.7044 14.5473 83.7527 14.3901 83.7002C14.2885 83.6663 13.6139 83.4414 13.6346 83.4483C13.7028 83.471 14.6438 83.7848 13.8279 83.5127C13.6539 83.4547 12.9167 83.2088 13.4964 83.4021C13.5329 83.4143 14.0633 83.5912 13.7278 83.4793C13.6855 83.4652 13.4707 83.3935 13.4526 83.3875C13.3359 83.3486 13.507 83.4056 13.4251 83.3783C13.3431 83.3509 13.2209 83.3102 13.2938 83.3345C13.3373 83.349 13.7377 83.4825 13.8357 83.5152C14.118 83.6093 13.6551 83.4549 13.997 83.5689C14.3406 83.6835 14.8624 83.8576 15.0844 83.9316C14.5262 83.7454 13.9532 83.5544 13.3919 83.3671C13.4115 83.3737 13.592 83.4338 13.5674 83.4256C13.5638 83.4244 13.2637 83.3243 13.2521 83.3204C13.2044 83.3045 13.4183 83.3758 13.3331 83.3474C13.266 83.325 12.9483 83.2191 12.8683 83.1924C13.507 83.4054 13.2902 83.333 13.3486 83.3525C13.3687 83.3592 13.5393 83.4161 13.595 83.4346C13.8008 83.5033 13.2364 83.315 13.1475 83.2854C12.7684 83.159 14.0461 83.585 14.0145 83.5745C14.0132 83.5741 13.3322 83.347 13.2898 83.3328C13.0133 83.2406 13.5269 83.4119 13.5772 83.4286C13.6691 83.4593 13.8318 83.5135 13.6323 83.447C13.5732 83.4273 13.1487 83.2857 13.4771 83.3952C13.5201 83.4095 13.7452 83.4846 13.7584 83.489C13.9781 83.5623 13.2708 83.3264 13.0313 83.2465C12.7918 83.1666 13.28 83.3294 13.4208 83.3764C13.7848 83.4978 13.5763 83.4283 13.6121 83.4402C14.0372 83.5819 13.964 83.5575 13.9999 83.5695C14.6935 83.8008 14.6518 83.7869 14.0344 83.581C13.967 83.5585 14.0316 83.5801 13.9999 83.5695C13.3195 83.3426 13.2324 83.3135 13.8682 83.5255C14.1662 83.6249 14.5137 83.7408 14.3866 83.6984C14.3292 83.6793 13.8517 83.52 13.7215 83.4766C13.4245 83.3775 13.8699 83.526 13.7998 83.5026C13.7743 83.4941 13.5129 83.407 13.4865 83.3981C13.4155 83.3745 13.6117 83.4399 13.5112 83.4063C13.5018 83.4032 13.2281 83.312 13.2246 83.3108C13.1929 83.3002 13.3681 83.3586 13.373 83.3602C13.3752 83.3609 13.2243 83.3106 13.2547 83.3207C13.3057 83.3376 13.7036 83.4703 13.6069 83.4381C13.545 83.4174 13.2714 83.3261 13.0849 83.264C12.7234 83.1434 13.3709 83.3593 13.4712 83.3927C13.4745 83.3938 13.539 83.4154 13.6795 83.4622C13.9722 83.5598 13.4724 83.3932 13.4712 83.3927C13.5359 83.4143 13.5981 83.435 13.5457 83.4176C13.5171 83.408 13.2578 83.3216 13.2478 83.3182C13.0158 83.2408 12.9499 83.2188 13.0712 83.2592C13.0764 83.261 13.3664 83.3577 13.3751 83.3606C13.5041 83.4036 13.1493 83.2852 12.9386 83.215C12.7281 83.1447 12.7986 83.1682 13.2965 83.3343C13.2338 83.3134 13.454 83.3868 13.5875 83.4313C13.7211 83.4758 13.1565 83.2875 13.1454 83.2838C12.7881 83.1647 13.1113 83.2724 13.1616 83.2892C13.1865 83.2975 13.1046 83.2701 13.0429 83.2495C12.9931 83.2329 13.1254 83.277 13.0408 83.2488C13.0295 83.245 12.7782 83.1612 12.7685 83.158C12.4677 83.0577 13.0823 83.2626 13.192 83.2992C13.5912 83.4323 13.8037 83.5032 13.616 83.4406C13.573 83.4262 12.6881 83.1311 12.6364 83.1139C12.5707 83.092 12.8879 83.1977 12.8111 83.1721C12.8048 83.17 12.6091 83.1048 12.6177 83.1076C12.6552 83.1201 12.7691 83.1581 12.7495 83.1515C12.7476 83.1508 12.4372 83.0474 12.4293 83.0447C12.3925 83.0324 12.404 83.0362 12.5493 83.0847C12.586 83.0969 12.8033 83.1694 12.8679 83.1909C13.2583 83.3211 12.691 83.1319 12.6802 83.1283C12.4076 83.0374 12.921 83.2085 12.6766 83.127C12.6622 83.1222 12.0541 82.9194 12.5757 83.0933C12.6104 83.1049 13.144 83.2828 12.7791 83.1611C12.7563 83.1535 12.4816 83.0619 12.5096 83.0712C12.5376 83.0806 12.3541 83.0194 12.6559 83.12C12.751 83.1517 13.2833 83.3292 12.859 83.1877C12.8294 83.1778 11.87 82.8579 12.5319 83.0786C12.6409 83.1149 13.3414 83.3485 12.9822 83.2288C12.9126 83.2055 12.7564 83.1534 12.6588 83.1209C12.5084 83.0707 12.6961 83.1333 12.384 83.0292C12.3288 83.0108 11.8533 82.8522 12.2142 82.9726C12.2707 82.9914 12.5046 83.0694 12.5307 83.0781C12.6563 83.12 12.4999 83.0678 12.6617 83.1217C12.7185 83.1407 13.0966 83.2668 13.1979 83.3005C13.2992 83.3343 13.3966 83.3668 13.2238 83.3092C13.051 83.2515 12.4485 83.0506 12.4003 83.0345C12.1909 82.9646 12.5444 83.0825 12.5961 83.0997C12.6038 83.1022 12.3882 83.0303 12.3841 83.029C12.3681 83.0236 12.1659 82.9561 12.6241 83.1089C12.991 83.2312 13.2704 83.3244 13.4197 83.3742C13.4909 83.3979 12.7904 83.1643 12.7684 83.1569C12.5444 83.0822 12.8547 83.1857 12.7595 83.1539C12.7397 83.1473 12.4558 83.0526 12.4421 83.0481C12.3929 83.0316 12.5196 83.0739 12.4965 83.0662C12.4854 83.0625 12.2686 82.9902 12.2853 82.9957C12.3228 83.0082 12.414 83.0386 12.6172 83.1064C12.6358 83.1126 12.9055 83.2025 12.9156 83.2059C12.931 83.211 13.1315 83.2779 12.9245 83.2088C12.8622 83.188 12.3666 83.0228 12.7089 83.1369C12.7804 83.1607 13.3755 83.3592 12.8613 83.1877C12.7758 83.1592 12.0823 82.9279 12.5293 83.077C12.647 83.1162 13.134 83.2786 13.0574 83.2531C13.0452 83.249 12.779 83.1602 12.7531 83.1516C12.6662 83.1226 12.6946 83.132 12.6112 83.1042C12.5884 83.0966 12.313 83.0047 12.2878 82.9963C12.2182 82.9731 12.2883 82.9965 12.3745 83.0252C12.4069 83.036 12.635 83.1121 12.6599 83.1204C13.0638 83.2551 12.5186 83.0732 12.4868 83.0626C12.2965 82.9991 12.5526 83.0845 12.4848 83.0619C12.4668 83.0559 12.2068 82.9692 12.1837 82.9615C11.9572 82.886 12.424 83.0416 12.4755 83.0588C12.6212 83.1074 12.6003 83.1004 12.5671 83.0893C12.5545 83.0851 12.2531 82.9846 12.2453 82.982C12.1934 82.9646 12.2222 82.9742 12.3884 83.0296C12.4202 83.0402 12.6523 83.1176 12.7053 83.1353C13.0762 83.259 12.5703 83.0903 12.5222 83.0742C12.3021 83.0008 12.5074 83.0692 12.4691 83.0565C12.2783 82.9928 12.4143 83.0381 12.4983 83.066C12.6064 83.102 12.8272 83.1756 12.7699 83.1564C12.7666 83.1553 12.4578 83.0523 12.4509 83.0501C12.3765 83.0252 12.4972 83.0654 12.408 83.0356C12.4012 83.0333 12.1085 82.9357 12.0878 82.9288C12.0433 82.914 12.0592 82.9193 12.1527 82.9504C12.1977 82.9654 12.4489 83.0492 12.4891 83.0626C12.5833 83.094 12.6041 83.1009 12.5572 83.0853C12.5366 83.0784 12.2372 82.9786 12.2338 82.9774C12.2041 82.9674 12.1525 82.9502 12.5402 83.0794C12.5668 83.0883 13.1753 83.2912 13.0586 83.2523C12.8897 83.196 12.6911 83.1297 12.5106 83.0696C12.4134 83.0371 12.6244 83.1073 12.657 83.1181C12.6583 83.1186 12.3359 83.0111 12.3368 83.0114C12.3416 83.0129 12.2523 82.9831 12.5727 83.0899C12.6041 83.1004 13.1712 83.2895 13.0855 83.2609C13.0698 83.2557 12.9942 83.2304 12.8711 83.1894C12.8525 83.1832 12.5878 83.0949 12.5801 83.0923C12.5399 83.0789 12.6003 83.099 12.7621 83.1529C12.7887 83.1618 13.0706 83.2558 13.092 83.2629C13.2416 83.3128 13.0273 83.2413 13.2833 83.3267C13.4557 83.3841 13.9429 83.5466 14.4226 83.7066C14.4903 83.7291 14.501 83.7327 14.7801 83.8258C15.4819 84.0598 16.2503 84.3161 16.9983 84.5655C17.1594 84.6193 16.9859 84.5614 17.3752 84.6912C17.4013 84.6999 17.5305 84.743 17.6626 84.7871C17.7539 84.8175 18.0377 84.9122 18.1546 84.9511C18.2714 84.9901 18.0335 84.9108 18.1708 84.9566C18.3099 85.0029 18.6328 85.1106 18.671 85.1234ZM14.1846 83.6303C14.4557 83.7208 13.4626 83.3896 13.7002 83.4688C13.7129 83.4731 14.1713 83.6259 14.1846 83.6303ZM14.3411 83.6836C14.7791 83.8297 14.1351 83.6149 13.7968 83.5021C13.4589 83.3894 14.2083 83.6394 14.3411 83.6836ZM14.6608 83.7904C15.0062 83.9055 13.598 83.4359 13.8827 83.5309C13.8987 83.5362 14.6408 83.7837 14.6608 83.7904ZM14.5592 83.7522C14.5724 83.7566 14.5852 83.7608 14.5722 83.7565C14.2568 83.6513 14.2313 83.6428 14.5592 83.7522ZM15.009 83.9066C15.1995 83.9701 14.9796 83.8968 14.7427 83.8178C14.5521 83.7542 14.772 83.8276 15.009 83.9066ZM15.2446 83.9834C15.2594 83.9883 15.2727 83.9927 15.1891 83.9649C14.9196 83.875 14.9957 83.9004 15.2446 83.9834ZM15.0251 83.9122C15.0781 83.9298 16.2414 84.3177 16.1101 84.274C16.0864 84.2661 15.7392 84.1503 15.6343 84.1153C15.4432 84.0516 16.1736 84.2952 15.7822 84.1647C15.7106 84.1408 15.0195 83.9103 15.0235 83.9117C15.024 83.9118 15.0246 83.912 15.0251 83.9122ZM15.3774 84.0281C15.3905 84.0325 15.403 84.0366 15.3899 84.0323C15.0747 83.9272 15.0494 83.9188 15.3774 84.0281ZM15.8587 84.1879C15.8867 84.1972 15.9129 84.2059 15.8871 84.1973C15.3715 84.0254 15.3171 84.0073 15.8587 84.1879ZM16.1039 84.2709C16.4211 84.3767 16.4584 84.3891 16.0602 84.2563C16.0813 84.2634 16.0844 84.2644 16.1039 84.2709ZM12.1058 82.9081C12.024 82.8653 12.1225 82.8778 12.2541 82.9062C12.295 82.915 12.4702 82.9759 12.5063 82.9846C12.5767 83.0015 12.4922 82.9672 12.5757 82.9886C12.6042 82.996 12.8822 83.0913 12.9057 83.0969C13.0327 83.1269 12.9651 83.0927 13.0281 83.1013C13.3389 83.1435 13.4617 83.1241 13.6074 83.1105C13.6552 83.1059 13.9157 83.1678 13.8114 83.1119C13.7989 83.1053 13.5538 83.025 13.5338 83.0179C13.2272 82.9083 13.7205 83.0752 13.7876 83.0928C14.0525 83.162 14.0814 83.1504 13.9924 83.1023C13.9539 83.0816 13.4655 82.9267 13.7407 83.0105C13.7593 83.0162 14.0185 83.1046 14.0469 83.1119C14.1107 83.1283 14.067 83.1045 14.0887 83.108C14.1319 83.1151 14.1297 83.1132 14.1347 83.108C14.1438 83.1016 14.2763 83.1346 14.2205 83.1059C14.2078 83.0995 13.9405 83.0133 13.8962 82.9951C13.852 82.9769 13.8773 82.9763 13.941 82.9944C14.0048 83.0126 14.2138 83.0836 14.2619 83.0991C14.6683 83.2301 14.1105 83.0336 14.097 83.0278C13.868 82.9268 14.1939 83.0143 14.2 82.9932C14.2039 82.9769 14.104 82.9248 14.1235 82.9146C14.1477 82.9028 14.2971 82.9357 14.2781 82.91C14.2764 82.9074 13.9625 82.8051 13.9598 82.8018C13.9313 82.7657 13.9733 82.7534 14.1927 82.8002C14.215 82.805 14.4889 82.8997 14.5276 82.91C14.7585 82.9707 15.3091 83.1286 14.1146 82.7209C14.1647 82.7266 14.217 82.7307 14.4613 82.8023C14.6185 82.8484 14.9163 82.9538 14.7908 82.9042C14.7628 82.8931 14.4998 82.8077 14.4777 82.7978C14.3849 82.7558 14.4739 82.7733 14.3416 82.7183C14.3141 82.7069 14.0788 82.6291 14.0366 82.6144C13.6954 82.4953 14.2648 82.6763 14.3065 82.6883C14.618 82.7775 14.5004 82.7276 14.512 82.7178C14.5148 82.7156 14.1979 82.6137 14.1893 82.6078C14.1488 82.5785 14.1808 82.5728 14.3256 82.6055C14.3585 82.6131 14.6266 82.7056 14.6561 82.7138C14.7829 82.7488 14.2754 82.578 14.3872 82.6084C14.4102 82.6145 14.6402 82.692 14.6656 82.7002C15.0638 82.8288 14.5024 82.638 14.4903 82.6329C14.3247 82.5641 14.9145 82.752 14.8353 82.7124C14.8253 82.7075 14.5328 82.6136 14.5223 82.6056C14.4508 82.5523 14.5401 82.5509 14.7819 82.6023C14.8192 82.6102 15.0371 82.6861 15.0641 82.6948C15.4871 82.8312 14.9231 82.6402 14.9023 82.6317C14.7527 82.5702 15.2297 82.7183 14.5592 82.4869C14.8075 82.5202 14.4445 82.35 15.0619 82.5068C15.0691 82.5086 15.347 82.6023 15.3601 82.6054C15.5208 82.644 15.0875 82.5025 14.5617 82.3173C14.4297 82.2708 15.0704 82.4768 15.1174 82.4918C15.2906 82.547 15.7037 82.6873 15.7373 82.6977C16.0016 82.779 14.6326 82.3237 14.6349 82.3154C14.6372 82.3159 14.8888 82.4009 14.9141 82.4086C14.9934 82.4326 14.894 82.3971 14.9815 82.424C15.1837 82.486 15.8494 82.706 15.4648 82.5696C15.4148 82.552 14.638 82.2946 14.6771 82.2995C14.6934 82.3016 14.6844 82.2842 14.7359 82.2974C14.7874 82.3105 15.0367 82.3964 15.0476 82.3997C15.3817 82.5002 15.5176 82.5496 16.0091 82.708C16.4987 82.8658 15.3344 82.4792 15.2051 82.4339C15.0763 82.3887 15.3516 82.4725 15.4471 82.5024C15.5426 82.5323 15.7009 82.5874 15.7551 82.6038C16.1096 82.7104 15.179 82.4067 14.9954 82.3417C14.5607 82.1878 15.4259 82.4692 15.5129 82.49C15.5364 82.4956 15.3393 82.4317 15.3215 82.4238C15.2537 82.3934 15.5244 82.4789 15.2801 82.3886C15.2403 82.3739 14.7236 82.1944 15.1058 82.3171C15.1609 82.3349 15.3754 82.4082 15.4246 82.4213C15.4984 82.4409 15.5481 82.4485 15.4778 82.4197C15.4258 82.3984 15.0701 82.2844 15.1816 82.3166C15.2315 82.331 15.4376 82.4038 15.5139 82.425C15.5902 82.4463 15.5842 82.4338 15.5783 82.4278C15.5722 82.4217 15.3027 82.3341 15.2847 82.3278C15.1815 82.2914 15.0542 82.2413 15.0547 82.2407C15.0322 82.1989 15.4949 82.3214 15.3549 82.2413C15.3443 82.2351 15.0603 82.1422 15.0558 82.1403C14.9397 82.0926 15.6913 82.3502 15.9455 82.4287C15.3699 82.2377 15.4752 82.2691 15.414 82.2424C15.384 82.2293 15.1608 82.1566 15.1381 82.1487C14.8011 82.0319 15.239 82.1747 15.3287 82.2038C15.6584 82.3107 15.2708 82.1782 15.4913 82.2497C15.71 82.3206 16.0321 82.4326 16.0297 82.4258C15.8243 82.3556 15.2848 82.1803 15.199 82.147C14.8743 82.0214 15.3063 82.1329 15.3543 82.1349C15.4023 82.137 15.3657 82.1203 15.4426 82.1377C15.5815 82.1694 15.1806 82.0411 15.0006 81.972C14.8206 81.9028 15.8017 82.2343 16.0133 82.3035C16.2248 82.3727 16.0079 82.299 16.1244 82.3363C16.2409 82.3735 16.3835 82.4245 16.4282 82.4356C16.4728 82.4467 16.1004 82.3123 15.8799 82.2375C15.413 82.079 14.9206 81.9195 15.0961 81.968C15.1065 81.9709 15.3642 82.0587 15.391 82.0654C15.5951 82.116 15.6129 82.1038 15.794 82.1468C15.8193 82.1528 16.106 82.2505 16.124 82.2551C16.3122 82.3033 15.8261 82.1465 15.2902 81.9599C16.006 82.2003 16.4455 82.3424 16.4531 82.3339C16.4579 82.3289 16.1447 82.2256 15.9254 82.1483C15.8594 82.125 16.0756 82.1923 15.9287 82.1425C15.4486 81.9797 14.9089 81.8042 15.1267 81.8654C15.137 81.8684 15.3998 81.9576 15.4162 81.9613C15.5239 81.9861 15.0213 81.8172 14.964 81.7861C14.919 81.7617 15.2308 81.8488 15.2839 81.8558C16.0892 82.1244 15.9078 82.0538 15.3538 81.865C15.3786 81.8663 15.3495 81.8491 15.4282 81.8686C15.4551 81.8753 15.6878 81.9544 15.7131 81.9625C16.1097 82.0902 15.5703 81.9074 15.5496 81.899C15.3486 81.8157 15.7621 81.9402 15.3666 81.7928C15.3523 81.7875 14.7932 81.6002 15.2029 81.7327C15.2311 81.7418 15.4841 81.8313 15.506 81.8312C15.5279 81.8312 15.832 81.9188 15.5758 81.8232C15.5141 81.8002 15.0618 81.6432 15.4182 81.757C15.4665 81.7725 15.6268 81.8266 15.7163 81.8555C16.0018 81.9475 15.4368 81.7575 15.9183 81.9144C16.3997 82.0712 16.7618 82.1843 16.4334 82.0646C16.4239 82.0611 15.9764 81.9095 15.9845 81.909C15.9977 81.9082 16.0933 81.9328 16.092 81.927C16.0912 81.9241 15.8124 81.8329 15.8074 81.8308C15.6567 81.7632 15.9085 81.8348 16.0217 81.854C16.043 81.8577 15.6665 81.7225 15.9685 81.8166C16.2991 81.9195 17.6631 82.3816 17.3425 82.2582C17.2144 82.2088 15.4836 81.6234 16.3852 81.9119C16.1697 81.8167 16.6358 81.9505 16.3251 81.8235C16.3113 81.8179 15.8285 81.6536 15.8359 81.6536C15.8477 81.6539 16.0744 81.7274 16.0901 81.73C16.1615 81.7428 15.971 81.6693 16.0043 81.6698C16.0164 81.6698 16.2498 81.749 16.2643 81.7491C16.2786 81.749 15.9717 81.6435 16.1223 81.6873C16.2371 81.7206 16.8679 81.9259 16.9432 81.9445C16.3226 81.7374 16.3367 81.7377 16.1752 81.6759C16.1439 81.6639 15.9274 81.5934 15.9014 81.584C15.791 81.5442 15.9708 81.6015 15.8504 81.5586C15.8215 81.5482 15.6096 81.4776 15.574 81.4651C15.2633 81.3568 15.7424 81.5088 15.8258 81.5352C16.1426 81.6357 15.8676 81.5417 15.993 81.5795C16.1183 81.6174 16.2717 81.6744 16.3484 81.6954C16.5071 81.7387 16.4765 81.7164 16.4892 81.7109C16.4929 81.7083 16.2092 81.6164 16.2031 81.6138C16.1337 81.5827 16.4371 81.6758 15.8749 81.484C17.3338 81.9647 15.735 81.4325 16.0301 81.5195C16.054 81.5266 16.7434 81.7553 16.8435 81.7921C16.9436 81.8289 16.7266 81.7618 16.8829 81.8186C16.9196 81.832 17.5634 82.0531 17.6022 82.0669C17.9058 82.175 16.8758 81.8326 16.8191 81.8141C16.2075 81.6144 16.9008 81.8534 16.9482 81.8713C17.1656 81.9533 17.0183 81.9123 17.1732 81.9719C17.2732 82.0105 17.9476 82.2358 17.9257 82.2326C17.8534 82.2221 16.911 81.9127 17.723 82.1962C17.8962 82.2567 18.6343 82.5 18.0516 82.3156C18.0149 82.304 17.4824 82.1338 17.8165 82.2494C17.8587 82.264 18.0736 82.3356 18.0914 82.3422C18.2067 82.3854 18.0346 82.3311 18.1151 82.3631C18.1955 82.395 18.3159 82.4413 18.2413 82.4222C18.1966 82.4109 17.795 82.2815 17.6964 82.2503C17.4127 82.1605 17.8741 82.3194 17.5313 82.2081C17.1868 82.0962 16.6667 81.917 16.4423 81.85C17.0005 82.0364 17.5733 82.228 18.1345 82.4155C18.1097 82.4243 17.9242 82.3793 17.9437 82.4029C17.9467 82.406 18.2475 82.5041 18.2584 82.51C18.3032 82.5346 18.0867 82.4708 18.1689 82.5082C18.2337 82.5375 18.5489 82.651 18.6266 82.6849C17.9863 82.4764 18.1996 82.5595 18.1386 82.5478C18.1175 82.5439 17.947 82.4868 17.8907 82.4702C17.6824 82.4089 18.248 82.5936 18.3362 82.6253C18.7124 82.7603 17.4345 82.3351 17.4627 82.3559C17.4637 82.3568 18.1426 82.5904 18.1847 82.6055C18.4593 82.7034 17.9473 82.5274 17.8958 82.5143C17.8016 82.4902 17.6375 82.4406 17.8344 82.5148C17.8927 82.5368 18.3154 82.6837 17.9856 82.5786C17.9424 82.5649 17.7174 82.4895 17.704 82.4856C17.4815 82.4207 18.1888 82.6567 18.4267 82.7414C18.6646 82.826 18.1739 82.6707 18.0326 82.6253C17.6672 82.5079 17.878 82.5704 17.8424 82.5583C17.4181 82.414 17.4895 82.4438 17.4522 82.436C16.7584 82.2054 16.7981 82.2251 17.4163 82.4288C17.4838 82.451 17.4202 82.4263 17.4522 82.436C18.1314 82.6665 18.2165 82.7019 17.5782 82.4969C17.2791 82.4009 16.9326 82.2819 17.0564 82.3343C17.1123 82.3579 17.5904 82.5154 17.7193 82.5628C18.0133 82.6709 17.5639 82.5343 17.6309 82.5671C17.6553 82.579 17.9178 82.6628 17.9434 82.674C18.0123 82.7038 17.8144 82.6439 17.9128 82.6836C17.922 82.6873 18.1961 82.7771 18.1989 82.7802C18.2258 82.8055 18.0463 82.7598 18.0363 82.7735C18.0317 82.7802 18.1782 82.8437 18.1453 82.8413C18.0899 82.8376 17.6865 82.7213 17.7794 82.7649C17.8388 82.7929 18.113 82.8825 18.2984 82.9478C18.6579 83.0745 18.0068 82.8695 17.906 82.8375C17.9027 82.8364 17.8403 82.8086 17.6987 82.7651C17.4053 82.6695 17.9048 82.837 17.906 82.8375C17.841 82.8169 17.7746 82.8089 17.8261 82.8289C17.8542 82.8398 18.1138 82.9254 18.1235 82.9295C18.3499 83.0239 18.4101 83.0629 18.2831 83.0397C18.2778 83.0383 17.9879 82.9411 17.979 82.9389C17.8467 82.9059 18.1994 83.0306 18.4073 83.1091C18.6151 83.1875 18.5424 83.1705 18.0428 83.0094C18.1035 83.0366 17.8803 82.9721 17.7451 82.9327C17.6098 82.8933 18.1741 83.0822 18.1852 83.0864C18.5377 83.2196 18.2118 83.12 18.1567 83.1178C18.1295 83.1165 18.2068 83.1576 18.266 83.1857C18.3138 83.2082 18.1802 83.1677 18.263 83.2014C18.2741 83.2059 18.5257 83.2889 18.5353 83.2924C18.8341 83.3987 18.2205 83.1909 18.1103 83.1556C17.7096 83.0271 17.4961 82.9591 17.6813 83.0295C17.7237 83.0457 18.6068 83.3459 18.6575 83.3664C18.7217 83.3926 18.405 83.2853 18.4804 83.3154C18.4865 83.3178 18.6822 83.383 18.6727 83.3829C18.6309 83.3832 18.5124 83.3593 18.5276 83.3791C18.5289 83.3816 18.8401 83.4827 18.8471 83.488C18.8797 83.5126 18.8637 83.5223 18.7145 83.4859C18.6767 83.4767 18.46 83.4024 18.3953 83.3815C18.0035 83.2553 18.569 83.45 18.5795 83.4545C18.8447 83.5674 18.3257 83.4132 18.5627 83.5171C18.5766 83.5231 19.1816 83.7352 18.6586 83.5656C18.6238 83.5543 18.0888 83.3806 18.4525 83.5059C18.4752 83.5137 18.7508 83.6027 18.7213 83.5979C18.6918 83.5931 18.8729 83.6615 18.569 83.5671C18.4732 83.5374 17.9394 83.3646 18.3617 83.5119C18.3912 83.5221 19.3476 83.851 18.6846 83.6336C18.5755 83.5978 17.8751 83.3637 18.232 83.4905C18.3011 83.515 18.4582 83.5647 18.5546 83.6007C18.7032 83.6562 18.5132 83.6008 18.823 83.7115C18.8779 83.7311 19.3517 83.8945 18.9895 83.7781C18.9328 83.7599 18.6993 83.6808 18.6724 83.6742C18.5436 83.6422 18.6965 83.7048 18.5314 83.6609C18.4733 83.6455 18.0959 83.5177 17.9933 83.4876C17.8908 83.4576 17.7909 83.4326 17.9623 83.4941C18.1339 83.5556 18.7379 83.7522 18.7841 83.7741C18.9851 83.8693 18.6232 83.7766 18.5631 83.7846C18.5541 83.7858 18.7708 83.8546 18.773 83.8615C18.7823 83.8872 18.9727 83.9899 18.5086 83.8548C18.1369 83.7467 17.8635 83.6357 17.7106 83.5968C17.6376 83.5783 18.3362 83.8175 18.3579 83.8261C18.5778 83.9131 18.2646 83.8182 18.3561 83.8611C18.3751 83.8699 18.6598 83.9623 18.6728 83.9688C18.7198 83.9919 18.5908 83.9567 18.6118 83.9708C18.6219 83.9773 18.839 84.0491 18.8214 84.0461C18.7817 84.0399 18.6887 84.0151 18.4834 83.9535C18.4647 83.9479 18.1962 83.8542 18.1846 83.8555C18.1666 83.8579 17.963 83.8004 18.1672 83.8781C18.2286 83.9014 18.7242 84.0667 18.3801 83.9581C18.3082 83.9355 17.7136 83.7356 18.2256 83.9135C18.3107 83.943 19.0007 84.185 18.5518 84.0413C18.4337 84.0035 17.9455 83.8447 18.021 83.8733C18.0331 83.8778 18.2999 83.9649 18.325 83.9761C18.4089 84.0141 18.3773 84.0141 18.4576 84.0512C18.4796 84.0612 18.7563 84.1494 18.7802 84.1615C18.8465 84.1948 18.7721 84.1841 18.6825 84.1653C18.649 84.1582 18.4217 84.0796 18.3967 84.0716C17.9914 83.9412 18.5357 84.1255 18.5671 84.1375C18.7545 84.2098 18.4961 84.1312 18.5612 84.1619C18.5784 84.1702 18.8389 84.2552 18.862 84.2634C19.0869 84.3436 18.6212 84.1845 18.5688 84.1703C18.4203 84.1299 18.4381 84.1461 18.4686 84.1655C18.4801 84.1727 18.7827 84.2698 18.7896 84.2751C18.8361 84.3087 18.8017 84.316 18.6302 84.2764C18.5974 84.2688 18.3659 84.1896 18.3127 84.1725C17.9403 84.0532 18.4441 84.2281 18.4919 84.2456C18.7097 84.3255 18.5036 84.2597 18.54 84.2782C18.7213 84.3702 18.5736 84.3599 18.4807 84.3587C18.361 84.3576 18.1312 84.311 18.1774 84.3634C18.1801 84.3667 18.4896 84.4674 18.4958 84.4715C18.5624 84.5199 18.434 84.5029 18.5153 84.5562C18.5215 84.5604 18.8151 84.6552 18.8348 84.6652C18.8772 84.6864 18.8586 84.6891 18.763 84.6644C18.7169 84.6526 18.4671 84.5646 18.4259 84.5544C18.3292 84.5304 18.3057 84.5313 18.3502 84.5545C18.3697 84.5646 18.6707 84.6595 18.6728 84.6649C18.693 84.7033 18.7352 84.7485 18.3379 84.648C18.3106 84.6411 17.7016 84.4401 17.8169 84.4831C17.9856 84.5397 18.1843 84.6059 18.3647 84.6663C18.4481 84.7402 18.2235 84.7109 18.177 84.7417C18.1751 84.743 18.4985 84.8474 18.4965 84.8505C18.4852 84.8686 18.5681 84.9174 18.241 84.8307C18.209 84.8223 17.6421 84.6322 17.726 84.6667C17.7413 84.6729 17.8139 84.707 17.9363 84.7503C17.9548 84.7568 18.22 84.8435 18.2268 84.8489C18.2615 84.8789 18.1953 84.8761 18.028 84.8387C18.0005 84.8326 17.7195 84.7357 17.6975 84.7305C17.5433 84.6941 17.7527 84.7802 17.4925 84.7078C17.3172 84.659 16.831 84.4934 16.3498 84.3381C16.2819 84.3161 16.2694 84.3179 15.9902 84.2252C15.2882 83.9919 14.5206 83.7332 13.7721 83.4849C13.6109 83.4314 13.7821 83.4964 13.3941 83.3624C13.3682 83.3534 13.2407 83.3052 13.109 83.2598C13.018 83.2285 12.7336 83.1355 12.6173 83.0947C12.5012 83.054 12.7397 83.1313 12.6034 83.0825C12.4654 83.0331 12.142 82.9268 12.1058 82.9081ZM17.1403 82.7568C16.8676 82.6712 17.8605 83.0029 17.6246 82.9186C17.612 82.9141 17.1537 82.761 17.1403 82.7568ZM17.1751 82.1295C16.735 81.9897 17.3777 82.2086 17.7174 82.317C18.0568 82.4253 17.3085 82.1719 17.1751 82.1295ZM16.8768 81.9585C16.529 81.8506 17.9369 82.3212 17.6548 82.2185C17.6389 82.2127 16.897 81.9647 16.8768 81.9585ZM16.2203 84.2712C16.2071 84.2669 16.1929 84.2665 16.206 84.2709C16.5207 84.3781 16.5487 84.3789 16.2203 84.2712ZM16.55 81.7785C16.3587 81.7172 16.5764 81.7971 16.8143 81.8732C17.0056 81.9345 16.7879 81.8546 16.55 81.7785ZM15.9978 82.6514C15.9829 82.6466 15.9687 82.6449 16.0524 82.6727C16.3219 82.7623 16.2471 82.7331 15.9978 82.6514ZM16.57 81.6644C16.5116 81.6628 15.3451 81.2848 15.4822 81.311C15.507 81.3158 15.8508 81.4415 15.9571 81.4724C16.1506 81.5287 15.4218 81.2804 15.8157 81.4033C15.8878 81.4258 16.5759 81.6654 16.5716 81.665C16.571 81.6648 16.5705 81.6646 16.57 81.6644ZM15.9465 82.3619C15.9334 82.3576 15.9197 82.3573 15.9326 82.3617C16.2472 82.4689 16.2751 82.4696 15.9465 82.3619ZM15.3301 82.6075C15.3021 82.5984 15.2729 82.5985 15.2986 82.6074C15.8127 82.7839 15.8731 82.7841 15.3301 82.6075ZM15.3054 81.8628C14.9896 81.7529 14.954 81.7355 15.3534 81.8649C15.3308 81.862 15.3263 81.8651 15.3054 81.8628ZM74.1962 30.1118C74.0294 30.4161 73.6513 30.6996 73.3124 30.9039C73.2068 30.9677 73.1001 30.805 73.0198 30.8454C72.862 30.9263 72.8423 31.0984 72.6749 31.1748C72.6189 31.1994 72.4267 30.9673 72.3732 30.9973C72.0806 31.1653 71.9614 31.4528 71.7232 31.6791C70.5433 32.805 69.5909 34.1559 68.6394 35.5719C68.3259 36.0389 67.7619 36.5146 67.5896 37.0867C67.5698 37.1535 67.8166 37.2388 67.8293 37.2602C68.0216 37.5919 67.5933 37.2882 67.4697 37.3738C66.9813 37.713 66.688 38.2283 66.5449 38.7293C66.485 38.9424 67.0404 38.9801 66.6851 39.0449C66.6609 39.0497 66.4416 38.8765 66.3884 38.9168C66.268 39.0089 66.1971 39.2586 66.1302 39.3439C66.0005 39.5063 65.9884 39.5367 65.9001 39.7069C65.7771 39.9392 65.5165 40.1593 65.4487 40.4384C65.4465 40.4483 65.4524 40.458 65.464 40.4677C65.5221 40.5171 65.7222 40.5684 65.7229 40.6576C65.7236 40.7643 65.5907 40.9821 65.4936 41.0303C65.3967 41.0781 65.2142 40.9488 65.1621 40.9402C64.7236 40.8652 65.1264 41.3898 65.1234 41.4295C65.0472 42.1587 64.4879 42.547 64.2097 43.1342C63.9993 43.5801 63.8749 44.1037 63.6608 44.523C63.4053 45.0208 63.0664 45.3855 62.8592 45.8906C62.8372 45.9434 63.1647 46.0225 63.1384 46.0873C62.8578 46.7786 62.5125 47.4349 61.9968 48.0148C61.9449 48.0727 61.7225 47.8634 61.6549 47.914C61.2458 48.2285 60.4238 48.6386 61.4526 49.419C61.2783 49.6769 61.0729 49.9973 60.7257 50.1399C60.5017 50.2329 60.2889 49.942 60.3181 50.1982C60.3245 50.2554 60.6022 50.3144 60.5929 50.3914C60.5532 50.716 60.3272 50.9876 60.3259 51.328C60.3261 51.3976 60.5579 51.487 60.5907 51.5221C60.8543 51.8117 60.2085 51.7824 60.1459 51.8137C59.6769 52.0521 59.6641 52.3795 59.4938 52.7236C59.4541 52.8036 59.8003 52.8495 59.7728 52.9316C59.6254 53.3577 59.4029 53.7632 59.0831 54.0945C59.0111 54.1683 58.793 53.9662 58.7454 53.9952C58.5387 54.1253 59.0038 54.3943 58.8154 54.5222C58.7763 54.5494 58.5668 54.4246 58.5395 54.42C58.1108 54.3477 58.6026 54.6945 58.6013 54.7278C58.5986 55.1515 57.9329 55.1104 57.8535 55.4816C57.8444 55.5265 58.1648 55.568 58.1224 55.686C58.004 56.0175 57.8571 56.3393 57.6806 56.6546C57.4475 57.0675 57.1707 57.4702 56.8549 57.8439C56.7712 57.9433 56.594 57.771 56.5648 57.7669C56.1054 57.7109 56.6204 58.022 56.6253 58.0682C56.6493 58.4263 56.0719 58.5188 56.6463 58.9901C55.9044 60.1683 55.7969 61.5999 54.7239 62.6736C54.7109 62.6875 54.4466 62.5567 54.422 62.5848C54.122 62.9229 54.5774 63.0054 55.0046 63.4588C55.1118 63.5729 54.4061 63.5422 54.3534 63.5427C54.159 63.5447 53.7741 63.3272 53.7331 63.3368C53.4078 63.4207 54.7728 63.8889 54.6843 64.1314C54.6792 64.1381 54.4416 64.0148 54.4094 64.026C54.3084 64.0604 54.3845 64.1594 54.2759 64.1897C54.0254 64.2583 53.3489 64.0666 53.6523 64.4234C53.6919 64.469 54.4754 64.7099 54.3592 64.9134C54.3124 64.9939 54.1841 65.3814 54.0946 65.4701C54.0052 65.5587 53.7852 65.3934 53.7717 65.3971C53.3378 65.5637 53.2428 65.4042 52.7054 65.3679C52.17 65.3318 53.3342 65.7207 53.4406 65.8274C53.5465 65.9342 53.198 66.0445 53.0849 66.061C52.9718 66.0776 52.8391 65.9542 52.7688 65.9803C52.308 66.1545 53.2884 66.3285 53.4327 66.4979C53.7742 66.8989 52.8531 66.7618 52.6872 66.9462C52.6423 66.9963 52.8542 67.0224 52.8523 67.0816C52.8421 67.315 52.5293 67.3376 52.6809 67.6665C52.7056 67.7201 53.1408 68.1101 52.7186 68.087C52.6579 68.0833 52.4662 67.9512 52.3845 68.0204C52.2618 68.1245 52.1226 68.3417 52.1365 68.5111C52.1469 68.6361 52.5416 68.6553 52.3812 68.7436C52.3097 68.7826 52.1502 68.5934 52.0329 68.6732C51.9955 68.6985 51.9596 68.7443 51.9269 68.7984C51.8566 68.9147 51.8018 69.0677 51.7781 69.1406C51.7436 69.2477 52.0295 69.2958 52.0439 69.3114C52.1256 69.4015 52.1715 69.6553 52.1645 69.6723C51.8434 70.5751 51.0794 71.2346 50.9113 72.1704C50.8979 72.2436 51.1957 72.2983 51.1965 72.3105C51.2305 72.5877 50.5484 72.135 50.2388 72.212C50.819 72.3903 50.6804 72.4521 50.6848 72.6411C50.6875 72.7322 50.9245 72.7656 50.9446 72.7809C51.2403 73.0163 50.7766 72.9481 50.68 72.9392C50.3249 72.9059 50.683 73.1248 50.4454 73.1039C50.2093 73.0841 49.9287 72.8496 49.878 73.013C50.0685 73.1276 50.6461 73.19 50.6922 73.341C50.8662 73.9076 50.1717 74.6268 50.0166 74.99C49.8611 75.3494 49.8656 75.481 49.7278 75.678C49.4801 76.0339 49.9262 76.0029 50.0448 76.2977C50.1647 76.5911 49.1971 76.2031 48.9726 76.1803C48.7482 76.1576 48.9591 76.2556 48.8292 76.2678C48.6993 76.2802 48.5785 76.1458 48.5065 76.2376C48.4339 76.3311 48.7437 76.712 48.9599 76.8066C49.4178 77.0061 49.9507 77.0105 49.7066 77.2324C49.6922 77.2451 49.4409 77.1282 49.3993 77.1805C49.0764 77.6021 48.9463 78.0912 48.6574 78.527C48.6173 78.5868 48.3351 78.4613 48.3084 78.4955C48.0289 78.8559 48.5601 78.8219 49.0665 79.1607C48.3399 78.9497 47.861 78.9744 47.7916 79.2782C47.7498 79.4607 48.0792 79.4976 48.2818 79.6639C48.3428 79.7142 48.0943 79.7972 48.2414 79.8516C48.7222 80.031 49.3027 80.0238 49.018 80.289C49.0047 80.3005 48.7416 80.2016 48.7155 80.2457C48.5456 80.5315 49.0591 80.6675 49.0573 81.0115C49.057 81.2757 48.6522 81.6753 48.5458 81.9641C47.7117 81.806 47.8521 82.1186 48.4076 82.3369C48.3489 82.5272 48.3452 82.7374 48.2328 82.9102C48.1943 82.9697 47.9596 82.8851 47.9321 82.8886C47.4999 82.9416 48.0459 83.1258 48.061 83.1695C48.1205 83.3795 48.0616 83.5555 48.0042 83.7304C47.9296 83.9577 47.8577 84.1751 48.0496 84.4613C48.0618 84.4792 48.6382 84.6066 48.1938 84.6479C48.1633 84.6502 47.9241 84.4613 47.868 84.6605C47.8113 84.8626 47.4318 85.1889 47.6494 85.5198C47.7017 85.6003 48.1413 85.8584 47.748 85.9304C47.6946 85.9398 47.532 85.8892 47.4345 85.899C47.1237 85.9316 47.7016 86.0846 47.1849 86.0953C46.6683 86.1057 46.2568 86.2473 46.5484 86.5946C46.5568 86.6055 47.0092 86.7578 46.9856 86.8453C46.9474 86.9863 46.8138 87.1709 46.7901 87.3204C46.7789 87.3919 47.0758 87.3982 47.0789 87.4115C47.1548 87.9196 46.8373 88.2134 46.6397 88.7098C46.6028 88.8012 46.9538 89.1347 46.613 89.2677C46.2399 89.4155 44.8479 88.9864 45.1159 89.512C45.2229 89.7267 46.9979 90.2164 46.0154 90.4243C46.1619 91.1062 45.6124 91.6638 45.8863 92.3563C45.8959 92.3809 46.2121 92.4734 46.3362 92.5447L46.3332 92.5678C46.3639 92.5888 46.3816 92.6073 46.3778 92.621C46.3493 92.7196 46.1051 92.7356 46.0776 92.8063C45.957 93.1005 46.1177 93.4108 46.0465 93.7001C46.0201 93.8105 45.781 93.7387 45.7498 93.8714C45.7189 94.0045 46.0296 94.1336 45.8521 94.2961C45.7171 94.4184 45.042 94.4805 44.9445 94.658C45.594 94.7373 45.5664 94.8618 45.7148 95.1027C45.7437 95.1491 45.975 95.1267 46.0003 95.1498C46.1086 95.2438 45.9131 95.3006 46.0324 95.3914C46.0611 95.4134 46.2833 95.4363 46.3193 95.4554C46.6337 95.6183 46.1132 95.7858 46.0226 95.8157C45.6785 95.9285 45.9619 96.022 45.822 96.12C45.682 96.2189 45.5334 96.0398 45.4431 96.162C45.2564 96.4153 45.265 96.7639 45.2355 97.0355C45.225 97.1443 45.5278 97.0909 45.5332 97.107C45.5826 97.2963 45.3642 97.4706 45.6197 97.6158L45.6105 97.6531C45.6137 97.6858 45.6739 97.7452 45.5301 97.838C45.3585 97.8994 45.2649 97.8305 45.2007 97.8404C45.4328 97.5064 45.6456 97.485 45.6863 97.4321C45.739 97.3946 45.6806 97.4008 45.5822 97.4074C45.3867 97.4245 45.0293 97.4347 45.1382 97.2356C45.1558 97.2029 45.8548 97.0048 45.9795 97.0634C46.0956 97.101 45.9458 97.3673 46.0784 97.2518C46.0742 97.233 46.1385 97.2234 46.0741 97.0526C46.054 97.0094 46.0033 96.9322 45.8937 96.8527C45.7623 96.7543 45.4504 96.66 45.1633 96.7529C44.8627 96.8591 44.792 96.951 44.6955 97.0345C44.6291 97.0917 44.5836 97.1362 44.5446 97.1713L44.4523 97.5438C44.2637 97.4751 44.0617 97.4013 44.0405 97.3861C43.7319 97.1648 44.8171 97.2098 44.8772 97.2037C45.527 97.13 44.8118 96.8552 44.7659 96.7908C44.5547 96.5017 44.7259 96.2825 44.5804 96.0411C44.4867 95.8833 43.7799 95.8047 43.8123 95.6884C43.9205 95.2989 44.9206 95.2657 44.104 94.8073C43.9302 94.7087 43.1486 94.7037 43.7878 94.4833C43.8281 94.4688 44.4074 94.3214 44.0709 94.1578C44.0284 94.1371 43.8035 94.1108 43.787 94.0881C43.6813 93.9363 43.8716 93.8667 43.805 93.7062C43.7384 93.5454 43.6348 93.347 43.7352 93.1842C43.7953 93.086 44.2323 93.0137 44.3419 92.9797C44.6566 92.8859 44.1979 92.6609 44.5678 92.6308C44.9393 92.603 45.4553 92.8559 45.7224 92.6734C45.1432 92.5689 44.5507 92.4504 43.9694 92.3385C43.9818 92.2794 43.9967 92.2201 44.0133 92.1621L43.9899 92.3414C44.0765 91.9039 44.2655 91.4833 44.2933 91.0392C44.2966 90.9767 43.975 91.0041 43.9706 90.9358C43.9536 90.6476 44.208 90.4297 44.1576 90.1277C44.1173 89.8945 43.8205 89.5995 43.7718 89.3511C44.459 89.3051 44.2854 88.927 44.3866 88.6858C44.4217 88.6016 44.5982 88.6363 44.6662 88.5837C44.9185 88.3854 44.3135 88.3982 44.2317 88.3187C43.8835 87.9765 45.2155 88.1768 45.2376 87.8526C45.2391 87.8359 44.5681 87.505 44.5292 87.4685C44.2741 87.2364 44.7806 87.4818 44.8528 87.3777C44.985 87.1878 45.1792 87.0757 45.0159 86.7974C44.9673 86.7163 44.5577 86.4675 44.9229 86.3942C44.9708 86.3845 45.2024 86.4369 45.2187 86.4251C45.4941 86.2063 44.7618 86.0667 44.5406 85.8724C44.3193 85.6794 44.8674 85.5436 45.0217 85.5245C45.4213 85.4723 45.1661 85.6467 45.2019 85.6598C45.6287 85.8172 45.583 85.6384 45.6436 85.5176C46.3662 85.6298 46.3552 85.4453 45.7032 85.3927C45.632 85.3873 45.6812 85.4976 45.6436 85.5176C44.9582 85.2775 44.9033 85.0668 45.6015 84.972C45.9288 84.9269 46.2723 85.087 46.1952 84.7576C46.1607 84.6071 45.6553 84.5736 45.5419 84.4276C45.2831 84.0944 45.8086 83.8147 45.7845 83.5155C45.7757 83.4068 45.4868 83.4621 45.4714 83.3862C45.4654 83.3568 45.4651 83.3288 45.4689 83.3018C45.4921 83.1379 45.6532 83.0116 45.5925 82.8313C45.5857 82.8121 45.2941 82.8059 45.3009 82.7451C45.3477 82.2777 45.6009 81.9083 45.6938 81.4311C45.7391 81.1968 45.6606 80.7537 45.7389 80.5177C45.8722 80.1094 46.3869 79.6772 46.3612 79.303C46.3463 79.0557 46.0533 79.0478 45.8822 78.9069C45.5499 78.6364 46.2931 78.4327 46.406 78.4125C46.4096 78.4118 46.4322 78.6261 46.6003 78.5513C46.9152 78.5558 46.4067 78.4151 46.406 78.4125C46.4785 78.399 46.6329 78.0098 46.5973 77.92C46.5777 77.8704 46.3058 77.8333 46.3007 77.8085C46.1858 77.2154 46.2503 76.6549 46.5152 76.1406C46.523 76.1324 46.8153 76.2233 46.83 76.2031C47.0427 75.9241 46.7353 75.6265 46.5924 75.3073C46.4501 74.9866 46.5809 74.7982 47.1294 74.7893C47.1217 74.576 47.4268 74.361 47.6095 74.2428C47.7921 74.1243 47.2297 73.9289 47.2227 73.9113C46.9976 73.3594 47.404 73.2038 47.6023 72.7678C47.6975 72.5605 47.7589 72.1077 47.7782 71.854C47.7919 71.6539 47.9621 71.5901 47.9376 71.3918C47.9344 71.3652 47.6765 71.2996 47.6694 71.2893C47.4373 70.9954 48.0156 71.3028 48.1383 71.3031C48.5844 71.3053 48.8259 71.2951 48.7256 70.9922C48.7026 70.923 47.8859 70.4407 47.8721 70.321C47.8554 70.1668 48.1505 70.3325 48.1254 70.168C48.1236 70.154 47.9294 70.0844 47.9696 70.003C48.1526 69.6271 48.4273 69.2464 48.564 68.8405C48.5835 68.7852 48.2514 68.736 48.2746 68.6538C48.3845 68.2672 48.5559 67.8701 48.8431 67.5678C48.8467 67.5641 48.8506 67.5609 48.8547 67.5582C48.9315 67.512 49.1078 67.6366 49.1746 67.6436C49.6012 67.6862 49.1096 67.305 49.1093 67.275C49.0893 66.5485 49.7796 66.264 49.7846 65.5262C49.7839 65.4855 49.2866 64.9888 49.8465 65.0617C49.8838 65.0665 50.4555 65.1444 50.1353 64.9029C50.1152 64.8879 49.8161 64.861 49.8926 64.7409C49.9691 64.6206 49.8664 64.343 50.2316 64.2736C50.3467 64.2516 50.923 64.3115 50.5668 63.9854C50.5418 63.9632 49.6905 63.3492 50.3798 63.4967C50.4932 63.5211 51.1801 63.7928 50.9003 63.4571C50.8459 63.3926 50.6652 63.4067 50.6066 63.2681C50.5159 63.0559 50.7786 62.9143 50.5413 62.6065C50.499 62.5527 50.0818 62.2349 50.4815 62.25C50.5441 62.2524 50.7628 62.3719 50.8112 62.3201C51.0425 62.0741 51.0003 61.7106 51.27 61.472C51.3649 61.3876 51.7191 61.579 51.8599 61.5059C52.0007 61.4326 52.1785 61.2477 52.0506 61.0686C51.9224 60.89 51.2801 60.7955 51.2966 60.6047C51.3693 59.7743 52.0006 59.1531 52.348 58.4113C52.3997 58.3012 52.1514 58.3122 52.2126 58.144C52.4347 57.5253 52.6808 56.3619 53.365 56.0094C53.9097 55.7316 53.9391 56.3954 54.2286 56.1292C54.3666 56.0029 53.7714 55.5278 53.7687 55.4777C53.7447 55.2096 53.8713 55.0472 53.9972 54.8936C54.0899 54.7847 54.1827 54.6778 54.2081 54.5229C54.22 54.4496 53.9198 54.3838 53.9328 54.3229C53.9744 54.1152 54.1902 53.9728 54.253 53.784C54.2806 53.6988 54.0671 53.6154 54.118 53.5494C54.2376 53.39 54.3996 53.2729 54.6746 53.1929C54.6997 53.1855 54.9064 53.4132 54.978 53.287C55.0927 53.083 55.4098 52.9072 55.327 52.5713C55.3021 52.4703 54.8312 52.2443 55.2311 52.2422C55.3147 52.2417 55.8625 52.5508 55.4577 52.1383C55.3904 52.07 54.8733 51.4524 55.37 51.5035C55.5008 51.5169 56.0127 51.6347 55.9805 51.5136C55.9744 51.4963 55.6981 51.4245 55.7074 51.3403C55.7454 51.0442 55.8965 50.7928 55.9407 50.4915C55.9518 50.4112 55.64 50.3922 55.6648 50.2767C55.7319 49.9607 55.9673 49.632 56.1809 49.3896C56.2603 49.3002 56.4447 49.4738 56.4719 49.4773C56.9144 49.5361 56.4271 49.2214 56.4155 49.1671C56.35 48.8332 56.6846 48.7544 56.7267 48.4951C56.7394 48.423 56.4698 48.3526 56.4536 48.3295C56.2988 48.0966 56.699 48.4029 56.7871 48.3423C57.0351 48.1737 57.1363 47.9043 57.2145 47.6535C57.2427 47.5614 56.9095 47.5245 56.9381 47.4434C57.1034 46.9586 57.3531 46.4939 57.7221 46.1163C57.792 46.0457 57.989 46.2022 58.0478 46.2082C58.4587 46.2519 58.0585 45.8479 58.0317 45.7852C57.9087 45.4998 58.1379 45.5202 58.1786 45.3372C58.3723 44.4449 58.9675 43.5086 59.4069 42.7821C59.9776 41.8363 60.5539 41.1633 60.9557 40.1875C60.9815 40.1256 60.6589 40.0454 60.6774 39.9902C60.8678 39.4582 61.1624 38.9828 61.4022 38.4754C61.4802 38.3104 61.5543 38.1379 61.6157 37.9614C61.6366 37.903 61.3206 37.8459 61.3451 37.7473C61.3936 37.5435 61.5241 37.319 61.705 37.178C61.7928 37.1088 61.9687 37.3488 62.0521 37.2768C62.2464 37.111 62.3807 36.8937 62.4461 36.6561C62.4736 36.5542 62.1215 36.5501 62.1794 36.4285C62.5681 35.5967 62.9419 34.7654 63.7482 34.1384C63.8037 34.0953 64.3933 34.3535 64.3504 34.1759C64.1992 34.0814 64.0153 33.9812 63.8507 33.8858C64.4102 32.6528 65.2776 31.5968 66.0453 30.4487C66.0779 30.4 65.7365 30.3037 65.7983 30.208C66.155 29.6566 66.4363 29.0615 67.1074 28.6937C67.1738 28.657 67.6422 29.0294 67.6827 28.8164C67.6889 28.7788 67.799 28.4895 67.7409 28.3496C67.7315 28.3294 67.4733 28.2096 67.5248 28.1256C67.828 27.6404 68.2527 27.1959 68.7595 26.8554C68.8421 26.8005 69.0051 27.0687 69.0655 27.0318C69.4851 26.7766 69.6694 26.2321 70.1897 26.085C70.5374 25.9902 70.8197 26.4363 71.2874 26.6844C71.3531 26.7194 71.4905 26.6022 71.6998 26.8096C72.2253 27.3306 72.7296 27.9692 73.2975 28.5171C73.4196 28.6348 73.4306 28.3734 73.6313 28.7481C73.6444 28.7731 73.6413 28.9644 73.7152 29.0872C73.7663 29.1719 74.0038 29.3581 74.0578 29.4776C74.1123 29.5966 73.9004 29.4533 73.9506 29.6084C74.0025 29.7646 74.2685 29.9787 74.1962 30.1118ZM48.4302 73.7152C48.7485 73.6567 47.7579 73.3175 47.9464 73.552C47.9567 73.5638 48.4145 73.7185 48.4302 73.7152ZM45.0496 91.6263C45.5292 91.4784 44.8696 91.2681 44.4996 91.3707C44.13 91.4761 44.9041 91.6723 45.0496 91.6263ZM45.1274 93.6393C45.519 93.4603 44.054 93.2176 44.3171 93.5105C44.3319 93.5275 45.1047 93.65 45.1274 93.6393ZM70.8971 27.2926C70.9088 27.3003 71.005 27.2176 70.997 27.2061C70.8022 26.9278 70.6065 27.0972 70.8971 27.2926ZM45.2668 95.6932C45.4732 95.641 45.2622 95.4143 45.0052 95.4787C44.7982 95.5311 45.0098 95.759 45.2668 95.6932ZM52.2077 66.7697C52.2231 66.7731 52.267 66.6975 52.1839 66.6677C51.9165 66.572 51.9487 66.7123 52.2077 66.7697ZM45.4746 96.1507C45.5176 96.6469 44.3856 97.2115 44.4057 96.6342C44.4099 96.5308 44.8326 96.7675 44.9148 96.6196C45.0653 96.3525 44.2804 96.3531 44.6386 96.0407C44.7043 95.9841 45.4748 96.122 45.4765 96.1513C45.4758 96.1511 45.4752 96.1509 45.4746 96.1507ZM49.6552 74.0117C49.6693 74.013 49.718 73.9032 49.7059 73.8963C49.4091 73.7331 49.3102 73.9557 49.6552 74.0117ZM54.5659 62.2749C54.5957 62.2791 54.7177 62.0288 54.6954 62.0109C54.2359 61.6865 53.9876 62.1925 54.5659 62.2749ZM48.5227 81.9647C48.828 82.153 48.8398 82.3085 48.4081 82.3364C48.453 82.2129 48.479 82.0888 48.5227 81.9647ZM5.59504 32.189C5.85543 32.2726 6.26153 32.6431 6.5669 32.9718C6.66288 33.0748 6.51103 33.2016 6.57508 33.2807C6.70228 33.4357 6.8986 33.4403 7.02485 33.6065C7.06605 33.6622 6.85773 33.8836 6.90391 33.936C7.16304 34.2233 7.5094 34.3189 7.81824 34.5448C8.72239 35.2052 9.68965 35.7789 10.6875 36.3167C11.3826 36.6901 12.0963 37.0566 12.8098 37.4244C13.3899 37.723 14.0146 38.2811 14.6789 38.4366C14.7564 38.4544 14.8143 38.1987 14.8363 38.185C15.179 37.9769 14.9043 38.426 15.0185 38.5496C15.4712 39.0381 16.0857 39.3222 16.6634 39.455C16.9091 39.5106 16.8762 38.9419 16.9964 39.3034C17.005 39.328 16.8416 39.5568 16.8934 39.6099C17.0114 39.7301 17.3008 39.797 17.4034 39.8629C17.6011 39.9912 17.6366 40.0029 17.8377 40.089C18.1115 40.2087 18.3888 40.4692 18.709 40.5323C18.7776 40.5451 18.7995 40.2509 18.9184 40.2476C19.0374 40.2444 19.2955 40.3746 19.3609 40.4723C19.4262 40.5701 19.3053 40.7593 19.3024 40.8126C19.2745 41.2619 19.8051 40.8375 19.85 40.8397C20.6685 40.8987 21.1676 41.4573 21.8524 41.7208C22.3721 41.9199 22.9668 42.0266 23.4549 42.224C23.5898 42.2788 23.7165 42.3378 23.8383 42.3981C24.2504 42.6017 24.6208 42.8261 25.0712 42.9642C25.1329 42.9834 25.1717 42.647 25.2472 42.6698C26.0477 42.9118 26.8204 43.2141 27.5423 43.6895C27.6145 43.7374 27.4206 43.9784 27.4874 44.0427C27.8989 44.4311 28.4992 45.2282 29.1771 44.1202C29.4922 44.2734 29.8794 44.4501 30.0996 44.7863C30.2423 45.003 29.961 45.2455 30.2374 45.1912C30.2996 45.1792 30.3134 44.8937 30.4002 44.8957C30.7653 44.9042 31.1057 45.1044 31.4807 45.0706C31.5571 45.0631 31.6117 44.8206 31.6441 44.7839C31.9114 44.4883 32.0028 45.1413 32.0492 45.2009C32.4 45.6469 32.7637 45.6243 33.177 45.7576C33.2732 45.7887 33.2552 45.4355 33.3511 45.454C33.8461 45.5537 34.3371 45.7307 34.7683 46.0136C34.8636 46.0772 34.686 46.32 34.7274 46.3643C34.9108 46.5562 35.1143 46.058 35.2937 46.2322C35.3317 46.2682 35.2372 46.4933 35.2378 46.5213C35.2464 46.9605 35.5264 46.4251 35.5634 46.4225C36.0316 46.3751 36.1226 47.0477 36.5497 47.0831C36.601 47.0867 36.5794 46.76 36.719 46.7884C37.6469 46.9754 38.5809 47.3407 39.4051 47.8458C39.5334 47.9239 39.3674 48.1148 39.3679 48.1447C39.3829 48.6134 39.6473 48.0713 39.6993 48.0636C40.1029 48.0171 40.2926 48.5971 40.7441 47.9939C41.3784 48.3015 42.0472 48.4937 42.7098 48.7083C43.6051 48.9972 44.4859 49.3937 45.1482 50.1253C45.1633 50.1411 44.9991 50.3868 45.0295 50.4171C45.3914 50.7865 45.5125 50.3378 46.0756 50.0087C46.2197 49.9276 46.1133 50.6401 46.106 50.6931C46.0857 50.8909 45.7967 51.2282 45.8024 51.272C45.8518 51.6197 46.5461 50.3535 46.8137 50.5126C46.8206 50.5196 46.6494 50.7266 46.6578 50.7624C46.683 50.8742 46.8046 50.8246 46.823 50.9431C46.8647 51.2173 46.5412 51.8411 46.9826 51.6386C47.0395 51.6124 47.4364 50.8936 47.6446 51.0748C47.7272 51.1468 48.1321 51.3998 48.2121 51.5197C48.2922 51.6386 48.0677 51.8046 48.0692 51.8195C48.1625 52.3067 47.9707 52.3505 47.8183 52.8733C47.6643 53.3933 48.33 52.3619 48.4679 52.2916C48.6069 52.2223 48.6493 52.6055 48.6425 52.7239C48.6357 52.8421 48.4739 52.9324 48.4865 53.0111C48.5689 53.5263 48.9743 52.6121 49.1882 52.5264C49.6957 52.325 49.3404 53.1931 49.4981 53.4209C49.5414 53.4829 49.6177 53.2816 49.6807 53.3042C49.9258 53.3941 49.8779 53.7126 50.2625 53.6759C50.3263 53.6707 50.8383 53.3714 50.7172 53.7829C50.6993 53.842 50.5144 53.9865 50.5698 54.0919C50.6496 54.2476 50.851 54.4622 51.0322 54.5044C51.1672 54.5363 51.2767 54.1506 51.3343 54.3399C51.3598 54.4242 51.1226 54.5187 51.1813 54.6624C51.2372 54.804 51.5147 55.0024 51.6204 55.073C51.7274 55.1444 51.8425 54.876 51.8623 54.8671C51.9789 54.8182 52.2572 54.8575 52.2741 54.8707C52.3501 54.9245 52.4239 54.9812 52.496 55.0403C53.2608 55.6684 53.7735 56.5364 54.6448 57.0011C54.7192 57.0412 54.852 56.7678 54.8652 56.7714C55.17 56.841 54.5163 57.3459 54.5198 57.679C54.8566 57.1738 54.8861 57.3322 55.0886 57.3986C55.1863 57.4301 55.2826 57.2094 55.3041 57.1954C55.6311 56.9931 55.4394 57.4238 55.4046 57.5151C55.277 57.8514 55.6026 57.5822 55.5183 57.8076C55.4352 58.0317 55.1128 58.2183 55.2723 58.3295C55.4442 58.1863 55.6627 57.6434 55.8357 57.6558C56.4871 57.7018 57.0634 58.6659 57.4007 58.9615C57.736 59.2565 57.8767 59.3062 58.0434 59.5191C58.3456 59.9038 58.4453 59.4599 58.7932 59.4671C59.1407 59.4734 58.4363 60.2451 58.3441 60.4521C58.2513 60.6584 58.4191 60.4959 58.3921 60.6258C58.3651 60.7557 58.1874 60.8172 58.2612 60.9237C58.3346 61.0301 58.8321 60.8903 58.9972 60.7209C59.3483 60.3631 59.5172 59.8527 59.6766 60.1799C59.6856 60.199 59.4845 60.3918 59.5267 60.4535C59.8672 60.9359 60.3427 61.2648 60.7095 61.7163C60.7597 61.7787 60.5403 61.9984 60.5684 62.038C60.8595 62.4494 60.9934 61.9301 61.5004 61.5759C61.3479 61.789 61.2328 61.9839 61.1605 62.1556C61.0232 62.4797 61.041 62.7232 61.2342 62.8449C61.4142 62.9585 61.5536 62.6572 61.7926 62.531C61.8653 62.4934 61.873 62.7638 61.9776 62.646C62.3189 62.2607 62.4968 61.7039 62.6873 62.0861C62.6954 62.1036 62.5067 62.3134 62.545 62.3567C62.7904 62.6366 63.1049 62.2075 63.4663 62.3544C63.7499 62.4698 64.0369 63.0264 64.3016 63.2515C63.8499 63.9702 64.2279 63.975 64.6472 63.5458C64.8243 63.6832 65.0462 63.7812 65.1873 63.9632C65.2362 64.0258 65.0656 64.2093 65.0596 64.2368C64.9626 64.6664 65.3439 64.2326 65.3967 64.2389C65.9544 64.3278 66.0894 64.9179 66.7338 64.8193C66.7568 64.8156 67.09 64.3283 66.9775 64.7646C66.9693 64.7944 66.6887 64.9368 66.8772 65.0772C67.0651 65.2172 67.276 65.718 67.6953 65.6549C67.7971 65.6402 68.2162 65.3358 68.1568 65.7382C68.1484 65.7926 68.0401 65.9246 68.0171 66.0209C67.9447 66.3283 68.3024 65.8484 68.1372 66.3411C67.972 66.8338 67.9811 67.2841 68.4428 67.1571C68.4569 67.1539 68.77 66.7916 68.8538 66.8516C68.9875 66.9479 69.1355 67.1536 69.2837 67.2405C69.3548 67.282 69.4627 67.0042 69.4777 67.007C69.767 67.0836 69.9598 67.2357 70.1413 67.4211L70.1641 67.4365C70.3142 67.6231 70.4522 67.8363 70.6493 68.0484C70.7247 68.1304 71.2103 67.989 71.1956 68.3675C71.1821 68.7832 70.1492 69.8168 70.7908 69.8504C71.0518 69.8662 72.3133 68.5192 72.0949 69.5159C72.8432 69.7418 73.1609 70.5277 73.9792 70.6414C74.016 70.6468 74.3742 70.2688 74.4372 70.3155C74.5306 70.386 74.4614 70.6229 74.5249 70.6797C74.7884 70.9232 75.1685 70.9109 75.4444 71.1063C75.5497 71.1801 75.3883 71.3717 75.5151 71.4598C75.6424 71.5476 75.8898 71.3147 75.9946 71.5522C76.0731 71.7322 75.8933 72.3902 76.0442 72.5593C76.3618 71.9872 76.4818 72.0677 76.7875 72.0335C76.8463 72.0266 76.906 71.8007 76.9392 71.787C77.0762 71.7264 77.0656 71.9337 77.2032 71.861C77.2364 71.8437 77.3399 71.6457 77.3727 71.6202C77.6546 71.3957 77.6443 71.9537 77.6437 72.0512C77.64 72.4212 77.8384 72.1952 77.8921 72.3675C77.9467 72.5401 77.7063 72.6043 77.8032 72.7403C78.0051 73.0222 78.377 73.1586 78.6547 73.2972C78.7664 73.3513 78.8135 73.0448 78.8324 73.0463C78.9898 73.0685 79.09 73.2184 79.2259 73.2312C79.3154 73.2432 79.4235 73.1956 79.5851 73.011C79.0261 74.4532 79.7925 72.9485 79.972 73.4034C79.9858 73.44 79.6508 74.0851 79.5079 74.1262C79.366 74.1678 79.3365 73.892 79.1307 73.972C79.0846 73.9879 78.6766 74.4274 78.5823 74.5213L78.6402 74.5486C78.6314 74.5569 78.625 74.5623 78.6215 74.5644C78.2792 74.7646 78.6968 73.7616 78.7109 73.7026C78.8547 73.0617 78.3184 73.6218 78.2339 73.6382C77.8533 73.7169 77.6802 73.4643 77.3731 73.4982C77.173 73.5192 76.8414 74.1483 76.7285 74.0676C76.3515 73.7975 76.6744 72.8477 75.8987 73.4107C75.7324 73.5299 75.4457 74.2586 75.4436 73.5635C75.4427 73.5194 75.4973 72.913 75.2044 73.1549C75.1674 73.1854 75.0583 73.384 75.0286 73.3893C74.8314 73.4207 74.8277 73.212 74.6366 73.2033C74.4452 73.1944 74.2015 73.2032 74.0708 73.0382C73.9916 72.939 74.0758 72.4988 74.0807 72.3817C74.0975 72.0459 73.7024 72.378 73.8049 72.0188C73.9092 71.6586 74.3543 71.2851 74.261 70.9548C73.9473 71.4528 73.6147 71.9574 73.2934 72.4546C72.8167 72.1396 72.4469 71.6799 71.9587 71.3905C71.8977 71.355 71.7843 71.659 71.7142 71.6275C71.4184 71.4928 71.3126 71.1504 70.989 71.0382C70.7382 70.9526 70.3158 71.0674 70.0466 70.9813C70.2995 70.3363 69.8458 70.2944 69.6489 70.0756C69.5798 69.9993 69.6908 69.8576 69.6678 69.7684C69.5788 69.435 69.3294 69.9894 69.2143 70.0213C68.7206 70.1545 69.4984 69.0549 69.1836 68.8614C69.1784 68.8581 69.1133 68.8985 69.0246 68.9558L69.1537 69.0432C68.975 69.1869 68.6943 69.4219 68.6594 69.4365C68.332 69.5784 68.7603 69.2054 68.678 69.0932C68.5276 68.8879 68.4776 68.6566 68.1328 68.6923C68.0319 68.7036 67.6335 68.9846 67.6812 68.608C67.6873 68.5586 67.8208 68.3621 67.8139 68.3416C67.6795 67.9878 67.2839 68.6197 67.0058 68.7456C66.7283 68.8716 66.7716 68.2944 66.8037 68.14C66.8847 67.7395 66.9811 68.0564 67.0073 68.0284C67.3178 67.693 67.1136 67.6583 67.0079 67.549C67.372 66.9147 67.1741 66.8447 66.897 67.4383C66.867 67.5033 67.0002 67.5051 67.0079 67.549C66.5227 68.0928 66.2816 68.0526 66.4201 67.351C66.4853 67.0223 66.7704 66.7677 66.3985 66.6963C66.2296 66.6635 66.0188 67.1248 65.8258 67.1672C65.385 67.2636 65.2726 66.643 64.9485 66.5302C64.8313 66.4896 64.7871 66.786 64.7021 66.7663C64.4747 66.7141 64.4181 66.4363 64.1746 66.4106C64.1524 66.4086 64.0425 66.6797 63.9823 66.6469C63.5206 66.4016 63.2312 66.0061 62.7713 65.7165C62.5487 65.5765 62.0657 65.4657 61.8515 65.2963C61.478 65.0032 61.2046 64.3427 60.8091 64.2198C60.5502 64.1376 60.4511 64.4153 60.2515 64.5236C60.0228 64.65 59.9406 64.4227 59.9155 64.1949C59.8928 64.0372 59.8967 63.879 59.9003 63.8311C59.9012 63.8277 60.139 63.8939 60.1087 63.7016C60.208 63.4004 59.9034 63.8315 59.9003 63.8311C59.9026 63.7531 59.5385 63.4475 59.4311 63.4436C59.372 63.4416 59.2489 63.6874 59.2207 63.6819C58.5551 63.5468 57.9904 63.2546 57.5413 62.7948C57.5353 62.784 57.721 62.5405 57.7047 62.5183C57.4799 62.2008 57.0787 62.3784 56.7051 62.3895C56.3324 62.4009 56.1792 62.2027 56.337 61.672C56.1147 61.5965 55.9859 61.2209 55.9172 60.9992C55.8482 60.7772 55.4819 61.2469 55.4617 61.2469C54.8288 61.2574 54.7887 60.8086 54.3946 60.4572C54.2076 60.2892 53.7569 60.067 53.5004 59.9593C53.2974 59.8753 53.276 59.6864 53.0652 59.6417C53.0368 59.6355 52.901 59.8647 52.8884 59.8681C52.5231 59.9925 52.993 59.5342 53.0253 59.4142C53.1433 58.9782 53.1955 58.7381 52.8528 58.7304C52.7747 58.7289 52.0657 59.3642 51.9388 59.3377C51.7747 59.3017 52.0202 59.0678 51.8431 59.0367C51.8281 59.0338 51.707 59.2008 51.6331 59.1343C51.2874 58.827 50.9584 58.4301 50.5649 58.1594C50.5113 58.1216 50.3816 58.4335 50.3007 58.383C50.2269 58.3368 50.1536 58.2886 50.0818 58.2382C49.7786 58.0249 49.4972 57.7717 49.2956 57.4641C49.2353 57.3698 49.4261 57.227 49.4491 57.159C49.5874 56.7475 49.0661 57.1027 49.0338 57.0925C48.2417 56.8532 48.0938 56.0625 47.3213 55.8138C47.2769 55.7998 46.6435 56.1306 46.851 55.6026C46.8648 55.5674 47.08 55.0289 46.7542 55.2688C46.7341 55.284 46.636 55.5698 46.5302 55.4579C46.4247 55.3464 46.1173 55.3661 46.1302 54.9884C46.1348 54.8697 46.3234 54.318 45.9124 54.5803C45.8826 54.5975 45.0814 55.2785 45.3802 54.6407C45.4294 54.5358 45.8466 53.9254 45.45 54.1202C45.3743 54.1589 45.3504 54.3391 45.2007 54.3655C44.9713 54.407 44.8831 54.1191 44.5379 54.2955C44.4759 54.3262 44.0946 54.6822 44.184 54.2946C44.1976 54.2336 44.3522 54.0382 44.3106 53.9824C44.112 53.7152 43.7585 53.7107 43.5678 53.4232C43.499 53.3215 43.7271 52.9899 43.6712 52.8431C43.6156 52.6962 43.4461 52.5021 43.2607 52.6182C43.0771 52.7351 42.9316 53.3659 42.7558 53.3431C42.2484 53.2799 41.8497 53.0035 41.4116 52.7467C41.1534 52.6058 40.8891 52.4659 40.6151 52.3607C40.4924 52.3137 40.5279 52.563 40.3424 52.5094C39.6602 52.3129 38.418 52.1579 37.9587 51.5162C37.589 51.0014 38.279 50.901 37.9567 50.6399C37.8019 50.5152 37.3982 51.1652 37.3487 51.1747C36.864 51.2763 36.666 50.8762 36.2604 50.8603C36.1764 50.8571 36.1678 51.1668 36.0972 51.1608C35.8555 51.1432 35.6566 50.9448 35.4316 50.9035C35.3314 50.8859 35.2842 51.1103 35.1999 51.0669C34.9974 50.9655 34.8335 50.8167 34.6863 50.5494C34.6729 50.5251 34.8822 50.2906 34.7267 50.2334C34.4738 50.1413 34.2161 49.8441 33.8568 49.9648C33.7498 50.0014 33.5975 50.5012 33.5119 50.0991C33.4938 50.015 33.7242 49.4291 33.3487 49.8826C33.2855 49.9578 32.7062 50.5476 32.6595 50.0414C32.6473 49.9083 32.6717 49.3796 32.5434 49.4252C32.5254 49.4332 32.5019 49.7192 32.4064 49.7191C32.0711 49.7137 31.7553 49.587 31.4115 49.5743C31.3194 49.5714 31.3617 49.8878 31.227 49.8745C30.8575 49.8388 30.4429 49.6344 30.1288 49.4422C30.0129 49.3707 30.171 49.1678 30.1696 49.1399C30.148 48.6876 29.8916 49.2098 29.8327 49.2266C29.4697 49.324 29.318 48.9937 29.017 48.974C28.934 48.9678 28.9066 49.2464 28.8839 49.2649C28.6522 49.4422 28.9192 49.0104 28.8344 48.9267C28.5975 48.691 28.2759 48.6119 27.9791 48.5535C27.87 48.5324 27.8911 48.8729 27.7942 48.8504C27.2176 48.7229 26.6459 48.5043 26.1553 48.1567C26.0631 48.0907 26.205 47.88 26.2013 47.8199C26.1781 47.4002 25.7938 47.8338 25.7276 47.8651C25.4274 48.0089 25.409 47.7743 25.1966 47.7448C24.2143 47.6123 23.1261 47.1045 22.2627 46.693C22.2127 46.6692 22.1633 46.6457 22.1146 46.6225C20.9582 46.0737 20.1314 45.5041 18.9935 45.1197C18.9213 45.0949 18.873 45.4259 18.8092 45.4084C17.9898 45.1682 17.2636 44.738 16.4432 44.5038C16.376 44.4841 16.352 44.8076 16.2403 44.7855C16.0104 44.742 15.7478 44.6159 15.5712 44.4364C15.4848 44.3493 15.726 44.1625 15.6371 44.0799C15.4309 43.8873 15.1768 43.758 14.9082 43.6997C14.7928 43.6752 14.8329 44.0338 14.6923 43.9791C13.7349 43.6138 12.7895 43.273 11.9996 42.4904C11.9455 42.4367 12.1427 41.8235 11.9547 41.8767C11.8741 42.0358 11.7921 42.2285 11.7126 42.4014C10.64 42.0263 9.6487 41.4747 8.64538 40.9539C8.32244 40.7872 8.00278 40.6236 7.67394 40.4646C7.61597 40.4366 7.57611 40.792 7.46299 40.7393C6.80229 40.4314 6.11533 40.2103 5.5905 39.5717C5.53779 39.5084 5.83815 38.9905 5.60332 38.9736C5.56182 38.9715 5.23151 38.8929 5.09413 38.9677C5.07464 38.9797 5.00135 39.2559 4.90114 39.2133C4.32596 38.9634 3.76184 38.5859 3.28106 38.1037C3.20271 38.0247 3.45251 37.8274 3.39886 37.7693C3.02627 37.3631 2.39491 37.2347 2.06161 36.6367C1.83668 36.2246 2.28752 35.9261 2.4613 35.4059C2.49146 35.3403 2.30463 35.1378 2.51564 34.9279C3.05464 34.4212 3.69146 33.917 4.25204 33.3618C4.35604 33.2204 4.30009 33.4441 4.56721 33.1195C4.57408 33.0837 4.652 32.9685 4.75933 32.879C4.82767 32.8112 5.03255 32.5931 5.11728 32.5037C5.20051 32.4129 5.04451 32.6105 5.17148 32.5275C5.29911 32.4419 5.48864 32.1592 5.59504 32.189ZM55.609 60.0046C55.6382 59.6734 55.0053 60.5076 55.3016 60.4124C55.3166 60.4068 55.6079 60.0211 55.609 60.0046ZM72.8782 71.0148C72.9388 70.5052 72.4406 70.9907 72.3808 71.377C72.3233 71.7641 72.8611 71.1701 72.8782 71.0148ZM75.0476 71.9382C75.0034 71.4927 74.2207 72.7548 74.6195 72.6383C74.6425 72.632 75.0504 71.9642 75.0476 71.9382ZM3.24407 35.8365C3.25033 35.8242 3.1362 35.7268 3.12494 35.7353C2.86346 35.9575 3.10043 36.1585 3.24407 35.8365ZM77.2473 72.7069C77.2655 72.4914 76.9522 72.5915 76.9285 72.8598C76.9102 73.0763 77.2258 72.9758 77.2473 72.7069ZM49.1996 53.8357C49.2067 53.8215 49.1363 53.7519 49.0855 53.824C48.9219 54.0562 49.0789 54.0728 49.1996 53.8357ZM80.6251 74.4685C80.195 74.1176 80.5291 72.8849 81.0029 73.3487C81.086 73.432 80.5822 73.5432 80.6459 73.7154C80.7577 74.0265 81.3292 73.4825 81.3238 73.9746C81.3221 74.0642 80.6479 74.4904 80.6233 74.4693C80.6239 74.469 80.6245 74.4688 80.6251 74.4685ZM56.2647 58.9273C56.2701 58.9141 56.1679 58.8242 56.1573 58.8334C55.9031 59.0599 56.1092 59.2414 56.2647 58.9273ZM44.6853 50.2178C44.6916 50.1874 44.409 50.0257 44.3878 50.0467C44.0151 50.4729 44.5665 50.7917 44.6853 50.2178ZM64.2943 63.2736C64.5958 63.0667 64.7666 63.1258 64.6468 63.5451C64.5333 63.4489 64.4094 63.3687 64.2943 63.2736Z" fill="#4C422C"/>
</g>
<defs>
<filter id="filter0_g_8_5293" x="0" y="0" width="83.3237" height="99.8638" filterUnits="userSpaceOnUse" color-interpolation-filters="sRGB">
<feFlood flood-opacity="0" result="BackgroundImageFix"/>
<feBlend mode="normal" in="SourceGraphic" in2="BackgroundImageFix" result="shape"/>
<feTurbulence type="fractalNoise" baseFrequency="0.5 0.5" numOctaves="3" seed="5566" />
<feDisplacementMap in="shape" scale="4" xChannelSelector="R" yChannelSelector="G" result="displacedImage" width="100%" height="100%" />
<feMerge result="effect1_texture_8_5293">
<feMergeNode in="displacedImage"/>
</feMerge>
</filter>
</defs>
</svg>
