<svg width="34" height="25" viewBox="0 0 34 25" fill="none" xmlns="http://www.w3.org/2000/svg">
<g filter="url(#filter0_g_8_5299)">
<path d="M2.02381 16.5309C2.18108 16.383 2.45451 16.3963 2.67781 16.4645C2.74789 16.4854 2.77617 16.6713 2.8271 16.6937C2.92694 16.7371 2.96991 16.6276 3.0724 16.6847C3.10661 16.7046 3.16571 16.9943 3.19949 17.0087C3.38431 17.0855 3.49675 16.9705 3.6613 16.9831C4.4711 17.0458 5.19893 16.9272 5.94852 16.8176C6.19498 16.7816 6.56469 16.9379 6.76614 16.7452C6.78958 16.7224 6.68891 16.4843 6.6873 16.4624C6.66431 16.126 6.80647 16.6278 6.8837 16.6743C7.18853 16.858 7.43779 16.7956 7.61134 16.6279C7.68462 16.5559 7.42413 16.105 7.60916 16.3442C7.62187 16.3603 7.69198 16.6261 7.72596 16.645C7.8028 16.6873 7.89077 16.6035 7.94002 16.6087C8.03618 16.6198 8.04879 16.6123 8.12714 16.587C8.23549 16.5545 8.40686 16.6364 8.49891 16.5359C8.51817 16.5137 8.38823 16.2625 8.40994 16.2034C8.43132 16.1446 8.54038 16.1291 8.59785 16.1782C8.6553 16.2273 8.71865 16.4393 8.74255 16.4843C8.94364 16.8649 8.85195 16.2671 8.86125 16.2479C9.0464 15.9107 9.40121 16.1339 9.65746 16.0309C9.85133 15.9521 10.0165 15.7651 10.2052 15.7037C10.4309 15.6313 10.6751 15.6936 10.8759 15.579C10.8972 15.5672 10.7409 15.275 10.7666 15.26C11.0013 15.1232 11.2532 15.0366 11.5601 15.0621C11.6097 15.0661 11.6607 15.073 11.7134 15.0831C11.7516 15.0907 11.8338 15.3716 11.8793 15.3949C12.1543 15.5321 12.6779 15.9213 12.2527 14.7273C12.393 14.7167 12.5587 14.6957 12.7739 14.8757C12.9126 14.9915 12.9796 15.3089 13.0073 15.147C13.0137 15.1109 12.8711 14.8723 12.8895 14.837C12.967 14.6887 13.1373 14.7075 13.195 14.5218C13.2065 14.4834 13.0933 14.2629 13.0809 14.2193C12.9829 13.8657 13.3357 14.3592 13.3756 14.3882C13.6749 14.6038 13.7364 14.4327 13.8884 14.3679C13.9237 14.353 13.7378 14.0732 13.7665 14.0481C13.9169 13.9221 14.1067 13.8613 14.3397 13.9114C14.392 13.9232 14.4826 14.1946 14.514 14.2133C14.651 14.2924 14.4318 13.8034 14.5583 13.87C14.5847 13.8834 14.6832 14.1055 14.6979 14.128C14.9287 14.4807 14.7058 13.9295 14.7116 13.912C14.7798 13.6787 15.1498 14.1861 15.2539 14.0363C15.2661 14.0178 15.0906 13.7622 15.133 13.7271C15.4151 13.4917 15.7905 13.3972 16.2182 13.4559C16.2846 13.4646 16.3537 13.6882 16.3696 13.712C16.6213 14.0826 16.3847 13.535 16.3905 13.5069C16.4438 13.2989 16.7893 13.6833 16.553 13.0077C17.201 12.9536 17.5517 12.3252 18.375 12.6149C18.3851 12.618 18.5076 12.8848 18.5273 12.8897C18.7656 12.9519 18.5248 12.5633 18.3762 12.0126C18.339 11.8743 18.7307 12.4293 18.7607 12.4693C18.8708 12.617 19.0438 13.0187 19.0689 13.0454C19.2695 13.2528 18.5942 11.9778 18.6932 11.926C18.6974 11.9265 18.8065 12.1691 18.8269 12.1882C18.891 12.2484 18.8681 12.1414 18.9355 12.2095C19.0909 12.3672 19.4339 12.9791 19.3348 12.5709C19.3216 12.5181 18.928 11.8003 19.0344 11.7887C19.0772 11.7846 19.2271 11.6911 19.2953 11.7155C19.3635 11.7398 19.4548 11.9896 19.4632 11.9981C19.7418 12.2465 19.7635 12.398 20.0604 12.8257C20.3563 13.2516 19.7752 12.1711 19.7363 12.037C19.6975 11.9033 19.9164 12.1139 19.9838 12.1917C20.0511 12.2695 20.1017 12.432 20.1467 12.4725C20.4424 12.7359 19.9215 11.9033 19.8733 11.709C19.7584 11.2492 20.2528 12.0177 20.3831 12.0506C20.4184 12.0594 20.3033 11.8857 20.3159 11.8573C20.367 11.7475 20.5485 11.9732 20.5257 11.6918C20.522 11.646 20.3491 11.1195 20.5842 11.4499C20.618 11.4976 20.7018 11.7094 20.7614 11.7358C20.8506 11.7755 20.971 11.7689 20.9946 11.6714C21.0119 11.5993 20.7909 11.293 20.8984 11.3681C20.9462 11.4017 21.0021 11.6189 21.0836 11.6658C21.1648 11.7128 21.2753 11.6449 21.3157 11.6155C21.3559 11.5861 21.2019 11.3467 21.1967 11.3279C21.1859 11.2874 21.1822 11.2389 21.1821 11.194L20.9799 11.3459C20.9554 11.2747 20.9436 11.2095 20.9474 11.2058C21.2115 10.8766 21.8205 10.9265 21.9869 10.5172C22 10.4857 21.7672 10.2971 21.7669 10.2902C21.75 10.125 22.2716 10.7304 22.518 10.8563C22.0674 10.4503 22.1783 10.4924 22.1815 10.3916C22.1827 10.3425 21.9976 10.1968 21.9822 10.178C21.7598 9.89367 22.123 10.1795 22.1988 10.2364C22.4776 10.4458 22.2052 10.1373 22.3918 10.2769C22.577 10.4154 22.7874 10.6898 22.8349 10.6324C22.6901 10.4693 22.2375 10.123 22.2085 10.0192C22.0954 9.63042 22.6921 9.64143 22.843 9.54621C22.9934 9.45155 22.9999 9.38541 23.1244 9.36616C23.3521 9.32844 22.9974 9.09226 22.9312 8.87976C22.8647 8.66763 23.59 9.40876 23.7646 9.54778C23.9389 9.68698 23.7819 9.5193 23.885 9.58789C23.9881 9.6565 24.0712 9.78974 24.1357 9.78744C24.1997 9.78564 23.996 9.42233 23.8353 9.25322C23.4956 8.89404 23.0764 8.58535 23.2924 8.61903C23.3051 8.62121 23.4903 8.82209 23.5286 8.82108C23.8252 8.80808 23.9854 8.65273 24.267 8.62009C24.306 8.6159 24.5114 8.84011 24.5366 8.84C24.7994 8.84016 24.3801 8.54174 24.027 8.08728C24.5685 8.61398 24.9454 8.88651 25.0405 8.78948C25.0975 8.73177 24.8451 8.51905 24.7092 8.32351C24.6681 8.2646 24.8731 8.37625 24.7657 8.26384C24.4156 7.89561 23.9612 7.5513 24.2229 7.60061C24.235 7.60335 24.4259 7.80564 24.4527 7.80138C24.6269 7.7745 24.2448 7.40662 24.2999 7.25215C24.3425 7.13162 24.719 7.20069 24.8481 7.13904C25.4689 7.71813 25.408 7.49804 25.0162 7.06C25.0932 7.01256 25.1319 6.92274 25.2471 6.91821C25.2872 6.91585 25.4532 7.09806 25.4751 7.11356C25.817 7.35807 25.4277 6.94087 25.4243 6.9119C25.4035 6.6176 25.8291 6.79635 25.6601 6.36396C25.6539 6.34857 25.2378 5.93053 25.5834 6.19252C25.6069 6.21087 25.7557 6.44296 25.8334 6.39255C25.9113 6.34197 26.2563 6.44132 26.1517 6.15916C26.1265 6.09119 25.8443 5.6963 26.1521 5.91788C26.1937 5.94816 26.3064 6.07455 26.381 6.13312C26.6191 6.31936 26.2163 5.87944 26.6037 6.20874C26.9915 6.53756 27.3168 6.74962 27.1644 6.41205C27.16 6.40214 26.8552 6.03996 26.8891 6.01815C26.9426 5.98444 27.0771 5.99329 27.1224 5.94748C27.1442 5.92519 26.9309 5.72277 26.9313 5.71515C26.981 5.44665 27.2719 5.53814 27.5194 5.47898C27.5631 5.47013 27.4077 5.08026 27.6693 5.27668C27.9522 5.49487 28.7748 6.67854 28.7005 6.30348C28.6643 6.15875 27.6791 4.61456 28.3469 5.30343C28.3984 5.11085 28.5733 5.10387 28.7222 5.07297L28.7412 5.06059C28.8683 5.02032 28.984 4.9532 28.9954 4.75281C28.9973 4.73249 28.7119 4.30801 28.7379 4.29598C28.7778 4.27825 28.9476 4.44716 28.9823 4.4387C29.132 4.40732 29.0879 4.17375 29.1996 4.11149C29.242 4.08692 29.4007 4.27632 29.4532 4.24437C29.5063 4.21113 29.3022 3.95638 29.469 4.00908C29.5948 4.05043 30.1248 4.45497 30.245 4.43656C29.7595 3.99788 29.8085 3.96392 29.74 3.77767C29.7265 3.74181 29.5398 3.60998 29.5242 3.58559C29.4564 3.48399 29.6216 3.58043 29.5435 3.47411C29.5247 3.4486 29.3515 3.30738 29.3261 3.2789C29.1015 3.03381 29.5472 3.27932 29.6274 3.31837C29.9281 3.47221 29.7134 3.27388 29.8458 3.31481C29.9794 3.35368 30.069 3.50851 30.1669 3.50895C30.3704 3.50865 30.4302 3.35732 30.505 3.26027C30.5337 3.22073 30.2649 3.08734 30.2632 3.07791C30.2514 2.95657 30.5751 3.03533 30.0932 2.68386C31.4462 3.41402 29.9953 2.55825 30.3273 2.59798C30.3538 2.60167 30.9929 2.94738 31.0628 3.03998C31.1319 3.13347 30.9024 3.07635 31.0126 3.21598C31.0392 3.24768 31.575 3.6767 31.6022 3.71098C31.8223 3.9679 30.8963 3.40041 30.8437 3.37226C30.2719 3.07289 30.834 3.55326 30.8584 3.60789C30.9794 3.84531 30.7886 3.85157 30.8572 4.03863C30.9004 4.16095 31.4654 4.59248 31.4084 4.63184C31.2146 4.76599 30.4129 4.1797 30.942 4.88466C31.0531 5.03625 31.6658 5.51765 31.0994 5.23469C31.062 5.21885 30.5742 4.92434 30.7862 5.21436C30.8127 5.25118 30.9771 5.40697 30.9828 5.42852C31.0173 5.57065 30.8519 5.48174 30.8527 5.60283C30.8537 5.72369 30.866 5.89051 30.7409 5.90133C30.6654 5.90856 30.3282 5.64406 30.241 5.58322C29.9903 5.40781 30.2488 5.82862 29.9812 5.58275C29.7161 5.33223 29.4222 4.86128 29.1948 4.74588C29.5663 5.20223 29.9426 5.67476 30.3118 6.13728C30.124 6.26915 29.8713 6.29411 29.6845 6.388L29.5593 6.46984C29.5331 6.47759 29.5092 6.48963 29.4888 6.5077C29.475 6.5208 29.6582 6.77936 29.6486 6.79979C29.6095 6.88362 29.4251 6.73517 29.404 6.85908C29.3878 6.95645 29.5268 7.26941 29.5245 7.37673C29.0865 6.86344 29.1342 7.11537 29.0333 7.11813C28.9974 7.11988 28.8853 6.97929 28.8314 6.94759C28.6309 6.83161 29.0397 7.26587 29.0833 7.35134C29.2723 7.71435 28.3947 6.69251 28.3225 6.79938C28.3176 6.8053 28.7345 7.39491 28.758 7.43391C28.9043 7.69414 28.5837 7.25451 28.5173 7.24281C28.3955 7.22208 28.238 7.1337 28.3133 7.35092C28.3353 7.41547 28.5956 7.78486 28.3202 7.56922C28.2839 7.54113 28.1231 7.36659 28.1094 7.36043C27.8746 7.26434 28.3877 7.80565 28.5238 8.02538C28.66 8.24489 28.2358 7.94022 28.1174 7.84876C27.812 7.61101 28.0293 7.70517 28.0047 7.67668C27.7133 7.33469 27.7174 7.43879 27.654 7.44839C27.1338 6.93465 27.1109 7.01944 27.59 7.46089C27.6423 7.50906 27.6231 7.43202 27.654 7.44839C28.1268 7.98973 28.139 8.10735 27.5987 7.70041C27.3459 7.5093 27.1136 7.22303 27.1175 7.4103C27.1189 7.49535 27.495 7.83072 27.5568 7.96386C27.7014 8.26416 27.2546 8.05121 27.2241 8.19041C27.2127 8.24131 27.4422 8.3999 27.4413 8.44117C27.4395 8.55155 27.2402 8.46128 27.2616 8.59292C27.2638 8.6051 27.4859 8.78998 27.4713 8.81085C27.3626 8.97499 27.1132 8.9713 26.9716 9.11618C26.9028 9.18681 26.8993 9.42472 26.8065 9.4782C26.6438 9.57514 26.1883 9.45078 26.1591 9.63317C26.14 9.75036 26.3671 9.92963 26.4829 10.0941C26.7073 10.4131 26.1045 10.0606 26.0139 10.003C26.011 10.001 26.0184 9.89228 25.8786 9.8256C25.6334 9.63641 26.0135 10.0014 26.0139 10.003C25.9552 9.96597 25.7901 10.049 25.8069 10.1123C25.8163 10.1466 26.0249 10.3236 26.0259 10.338C26.0513 10.6722 25.9433 10.8926 25.6906 10.9786C25.6837 10.978 25.4629 10.7664 25.4495 10.7674C25.2552 10.7779 25.4734 11.0931 25.5602 11.3267C25.6475 11.5595 25.5289 11.5785 25.0995 11.2698C25.0913 11.3761 24.838 11.3084 24.6864 11.2649C24.5348 11.2215 24.9648 11.6331 24.9692 11.6457C25.1153 12.0422 24.7899 11.8921 24.6127 12.0051C24.5299 12.0556 24.4646 12.2525 24.4404 12.3739C24.4215 12.471 24.2875 12.4101 24.3016 12.5257C24.3034 12.5412 24.504 12.7147 24.5093 12.7239C24.6839 13.0015 24.238 12.5298 24.1417 12.4633C23.7916 12.2218 23.6017 12.0967 23.672 12.3113C23.6882 12.3603 24.3175 13.0528 24.3274 13.122C24.338 13.2118 24.1093 12.9669 24.1265 13.0669C24.1278 13.0753 24.2789 13.2157 24.2463 13.2371C24.0969 13.3384 23.8746 13.3993 23.7654 13.545C23.7496 13.5646 24.0095 13.766 23.9906 13.798C23.9419 13.8806 23.8779 13.9568 23.7921 14.0122L22.9605 14.637C22.8815 14.6554 22.794 14.6552 22.6969 14.6275C22.6435 14.6115 22.5606 14.3965 22.5217 14.34C22.2852 13.999 22.4926 14.5649 22.4867 14.5808C22.3537 14.9732 21.9022 14.5976 21.7498 14.9668C21.7419 14.9879 21.9239 15.6156 21.62 15.1539C21.5997 15.1232 21.2907 14.6499 21.4234 15.0143C21.4317 15.037 21.5962 15.2779 21.5281 15.28C21.4601 15.2821 21.4616 15.4991 21.24 15.2556C21.1701 15.179 20.8557 14.7099 20.9908 15.1437C21.0007 15.1738 21.3567 16.1283 20.9964 15.5291C20.9372 15.4304 20.6041 14.7714 20.6937 15.1514C20.7113 15.2249 20.8164 15.356 20.8211 15.4693C20.8289 15.6438 20.6513 15.5131 20.7222 15.8468C20.735 15.9058 20.9057 16.3818 20.683 16.0687C20.6482 16.0197 20.5491 15.7934 20.5111 15.7819C20.33 15.7267 20.2798 15.9383 20.0792 15.85C20.0084 15.8191 19.8476 15.4536 19.7534 15.3821C19.6592 15.3106 19.5213 15.2662 19.5577 15.4524C19.5939 15.6387 19.9369 16.1764 19.8892 16.2582C19.6821 16.6134 19.2046 16.4401 18.8704 16.55C18.8208 16.5662 18.9624 16.749 18.8967 16.7876C18.6549 16.9304 18.3182 17.3409 17.8815 17.0204C17.5326 16.7634 17.6189 16.3898 17.415 16.3165C17.3171 16.2819 17.5799 16.9763 17.5748 17.0049C17.529 17.2924 17.2759 17.0536 17.1838 17.2119C17.1648 17.2447 17.3267 17.4984 17.309 17.5234C17.2496 17.6111 17.1027 17.5352 17.0347 17.5964C17.0045 17.6245 17.1129 17.8258 17.0724 17.8263C16.9764 17.8299 16.8642 17.7783 16.6928 17.6241C16.6772 17.6101 16.5977 17.3321 16.5353 17.3513C16.4347 17.3829 16.2247 17.2509 16.2136 17.4997C16.2106 17.5743 16.4398 18.0438 16.2116 17.7539C16.1639 17.6934 15.906 17.1211 16.0644 17.6472C16.0908 17.7346 16.2766 18.4576 16.003 18.0667C15.931 17.9638 15.6615 17.5241 15.6582 17.6154C15.6586 17.6295 15.8024 17.8716 15.7823 17.9119C15.7094 18.0491 15.5771 18.0799 15.4987 18.2153C15.478 18.2519 15.6505 18.4911 15.6155 18.5375C15.5188 18.6655 15.3265 18.6756 15.1612 18.6536C15.1001 18.6449 15.0289 18.4125 15.0143 18.3904C14.7773 18.0317 14.992 18.5659 14.9883 18.6048C14.9621 18.8392 14.7607 18.6358 14.6877 18.749C14.6672 18.7796 14.804 19.0181 14.8087 19.0429C14.8509 19.2869 14.6859 18.8206 14.6254 18.7891C14.4551 18.6993 14.348 18.7736 14.2562 18.8548C14.2226 18.885 14.4003 19.1528 14.3686 19.1766C14.1832 19.3229 13.9524 19.3952 13.6752 19.3285C13.6228 19.3154 13.5461 19.0815 13.5151 19.0342C13.3387 18.764 13.3988 19.0617 13.4278 19.2105C13.4342 19.2441 13.439 19.2702 13.4393 19.2803C13.4472 19.5311 13.3248 19.3488 13.2647 19.4197C12.9709 19.7708 12.4461 19.8399 12.0568 19.9052C11.5485 19.9925 11.1033 19.9197 10.6833 20.1473C10.6565 20.1615 10.8022 20.4541 10.7805 20.4702C10.493 20.6654 10.1391 20.6628 9.85568 20.8674C9.83229 20.8836 9.97619 21.1594 9.94208 21.1952C9.8727 21.2707 9.75748 21.2949 9.63768 21.2336C9.57945 21.2042 9.54557 20.9348 9.48894 20.9103C9.35702 20.8525 9.24366 20.8699 9.15977 20.9523C9.1242 20.9881 9.29501 21.2622 9.24036 21.2856C8.86893 21.4512 8.50983 21.6334 7.99513 21.3767C7.95982 21.3591 7.73076 20.7595 7.71508 20.8947C7.76801 21.0647 7.83538 21.2629 7.89457 21.4438C7.3749 21.7279 6.76275 21.6949 6.20769 21.8388C6.18433 21.8449 6.32884 22.1553 6.28413 22.1688C6.02517 22.2475 5.80551 22.4173 5.44155 22.1798C5.40562 22.1566 5.23529 21.5834 5.18719 21.6939C5.179 21.7139 5.08903 21.8267 5.09931 21.9597C5.10131 21.9797 5.20783 22.2385 5.17353 22.2581C4.97368 22.3671 4.73086 22.3787 4.46794 22.2849C4.42539 22.2693 4.36952 21.9749 4.33839 21.9613C4.11689 21.8675 4.00115 22.1431 3.75443 21.9404C3.588 21.8041 3.46721 21.303 3.24958 20.8425C3.21881 20.7775 3.14715 20.7894 3.05074 20.5114C2.80799 19.8126 2.58587 19.0328 2.32326 18.2891C2.26671 18.129 2.2306 18.3338 2.15649 17.9259C2.15167 17.8985 2.17703 17.7465 2.15011 17.6088C2.13157 17.5135 2.01603 17.2366 2.00134 17.1117C1.98676 16.9868 2.09216 17.2161 2.08675 17.0654C2.08075 16.913 1.95671 16.5955 2.02381 16.5309ZM24.0102 11.069C23.7566 10.9222 24.5175 11.6411 24.3817 11.4192C24.3743 11.4076 24.0228 11.076 24.0102 11.069ZM29.3007 5.65401C29.1104 5.48061 29.1289 5.57551 29.2245 5.74064L29.1511 5.78861C29.2031 5.89056 29.2805 6.02025 29.3573 6.13285L29.4569 6.06776C29.4908 6.1075 29.5251 6.14428 29.5584 6.17556C29.825 6.42294 29.4077 5.74913 29.3007 5.65401ZM29.8542 4.75714C29.5264 4.56636 30.5194 5.67009 30.4138 5.35697C30.4081 5.339 29.8736 4.76779 29.8542 4.75714ZM3.47656 20.6159C3.47137 20.603 3.4179 20.6063 3.42105 20.6198C3.49886 20.9442 3.60539 20.9374 3.47656 20.6159ZM30.219 3.80218C30.041 3.70449 30.1648 3.92128 30.3856 4.04474C30.5651 4.14203 30.4427 3.9212 30.219 3.80218ZM20.6206 12.503C20.6125 12.4896 20.5728 12.4944 20.614 12.5724C20.747 12.8233 20.7564 12.7282 20.6206 12.503ZM31.024 2.48443C30.8666 2.66524 29.7339 2.17787 29.9596 2.05156C30.0008 2.02739 30.2635 2.31261 30.3853 2.31923C30.6101 2.32569 29.9556 1.91562 30.3673 2.01577C30.4436 2.03236 31.036 2.47447 31.0253 2.48557C31.0249 2.48519 31.0245 2.48481 31.024 2.48443ZM23.0628 10.2414C23.0518 10.2329 23.0068 10.2621 23.016 10.2724C23.2405 10.5191 23.3314 10.4603 23.0628 10.2414ZM18.3832 12.9329C18.3671 12.908 18.2479 12.9385 18.2569 12.9645C18.4504 13.4761 18.6926 13.4157 18.3832 12.9329ZM24.8661 7.15293C24.6599 6.88373 24.6765 6.80804 25.0157 7.0599C24.9595 7.08752 24.92 7.1252 24.8661 7.15293Z" fill="#4C422C"/>
</g>
<defs>
<filter id="filter0_g_8_5299" x="0" y="0" width="33.636" height="24.3482" filterUnits="userSpaceOnUse" color-interpolation-filters="sRGB">
<feFlood flood-opacity="0" result="BackgroundImageFix"/>
<feBlend mode="normal" in="SourceGraphic" in2="BackgroundImageFix" result="shape"/>
<feTurbulence type="fractalNoise" baseFrequency="0.5 0.5" numOctaves="3" seed="5566" />
<feDisplacementMap in="shape" scale="4" xChannelSelector="R" yChannelSelector="G" result="displacedImage" width="100%" height="100%" />
<feMerge result="effect1_texture_8_5299">
<feMergeNode in="displacedImage"/>
</feMerge>
</filter>
</defs>
</svg>
