<svg width="27" height="17" viewBox="0 0 27 17" fill="none" xmlns="http://www.w3.org/2000/svg">
<g filter="url(#filter0_g_8_5324)">
<path d="M2.01003 9.21041C2.14668 9.02115 2.40953 8.988 2.62225 9.02792C2.68964 9.03952 2.75101 9.21677 2.80072 9.23266C2.89445 9.26536 2.90946 9.15568 3.0081 9.20243C3.04101 9.21883 3.14786 9.49396 3.17904 9.50532C3.34469 9.56786 3.41506 9.45071 3.5452 9.45818C4.19461 9.4926 4.69734 9.39741 5.22065 9.31668C5.39469 9.28935 5.68665 9.45394 5.79778 9.27882C5.8106 9.25816 5.69731 9.02611 5.69236 9.00509C5.61791 8.68269 5.80642 9.16852 5.86987 9.21645C6.12368 9.40428 6.28785 9.35887 6.38522 9.2077C6.42526 9.14315 6.16254 8.69883 6.33547 8.93708C6.34728 8.95312 6.44248 9.21047 6.46998 9.23032C6.5321 9.27487 6.581 9.19997 6.61794 9.20744C6.68991 9.22301 6.69719 9.21679 6.74863 9.19754C6.81985 9.17341 6.95756 9.26138 7.00781 9.17113C7.01811 9.15116 6.88311 8.90387 6.88882 8.84904C6.89415 8.79447 6.96966 8.78688 7.01906 8.8373C7.06843 8.88779 7.14897 9.09353 7.17357 9.13795C7.38061 9.51313 7.21681 8.93848 7.22069 8.92069C7.29739 8.61307 7.5939 8.84844 7.75957 8.7714C7.88724 8.71126 7.97724 8.54704 8.10415 8.5046C8.25829 8.45385 8.44266 8.53514 8.57255 8.44436C8.58635 8.43508 8.42702 8.14528 8.44352 8.13338C8.61692 8.00821 8.823 7.94859 9.10732 8.05747C9.1362 8.06853 9.23937 8.34079 9.27594 8.36736C9.4966 8.52459 9.94027 8.9433 9.44403 7.78028C9.54376 7.78557 9.6626 7.7828 9.84758 7.97433C9.96623 8.09781 10.0653 8.40159 10.0597 8.25336C10.0586 8.22026 9.91734 7.98183 9.92507 7.95088C9.95759 7.82084 10.0848 7.85681 10.0983 7.68927C10.1007 7.65462 9.98301 7.43647 9.96711 7.39447C9.84021 7.05338 10.1745 7.55312 10.2084 7.58444C10.4604 7.81854 10.4784 7.66553 10.5797 7.62133C10.6034 7.61116 10.4219 7.33045 10.439 7.31013C10.528 7.20957 10.6548 7.17482 10.8344 7.24641C10.8747 7.26305 10.9857 7.52519 11.0118 7.54591C11.1255 7.63417 10.8853 7.15535 10.9879 7.23161C11.0093 7.24701 11.1184 7.46393 11.1329 7.48641C11.3604 7.83924 11.1052 7.30323 11.1064 7.28771C11.1166 7.07902 11.473 7.5899 11.5253 7.46153C11.5312 7.44566 11.3589 7.18981 11.3844 7.16172C11.5489 6.97537 11.8117 6.92615 12.1335 7.0269C12.1838 7.04195 12.2743 7.25574 12.2903 7.27941C12.5412 7.64813 12.2701 7.11739 12.2694 7.09205C12.2715 6.92413 12.5339 7.2228 12.3723 6.81288L12.4017 6.79672C12.3851 6.75029 12.3635 6.69484 12.3359 6.62871C12.8094 6.65635 12.9785 6.11565 13.63 6.48876C13.638 6.49284 13.7676 6.75607 13.7829 6.76309C13.9693 6.85045 13.7342 6.45926 13.5439 5.92915C13.4961 5.79602 13.8669 6.36103 13.8949 6.40201C13.9978 6.55312 14.1847 6.94789 14.2071 6.97584C14.3857 7.19391 13.6992 5.92488 13.7657 5.88893C13.769 5.88994 13.8851 6.12898 13.9031 6.14931C13.9594 6.21322 13.927 6.11093 13.9869 6.18259C14.1251 6.34865 14.4687 6.95995 14.3355 6.56854C14.318 6.51786 13.9218 5.80166 13.9985 5.80456C14.0289 5.80662 14.1272 5.73831 14.1814 5.76948C14.2356 5.80062 14.3397 6.04401 14.3471 6.05297C14.59 6.31866 14.6282 6.46211 14.9106 6.8966C15.1921 7.3294 14.6034 6.25299 14.5549 6.12369C14.5067 5.99466 14.6987 6.21828 14.7605 6.29871C14.8219 6.37934 14.883 6.53669 14.9224 6.57984C15.1809 6.86121 14.6724 6.02302 14.6083 5.83651C14.456 5.39515 14.9351 6.17066 15.036 6.2178C15.0633 6.23052 14.9526 6.05474 14.9576 6.03009C14.9783 5.93511 15.1478 6.16637 15.0892 5.90249C15.0798 5.85943 14.8736 5.34938 15.0965 5.68537C15.1285 5.73386 15.2221 5.94093 15.27 5.97287C15.3416 6.02101 15.4298 6.02999 15.4332 5.94219C15.4354 5.87737 15.226 5.56574 15.3169 5.64867C15.3575 5.68575 15.431 5.89429 15.4985 5.94788C15.5659 6.00151 15.6375 5.95222 15.6626 5.93017C15.6877 5.90796 15.538 5.6667 15.5313 5.64863C15.4932 5.54492 15.4848 5.39435 15.4899 5.392C15.7218 5.22826 16.1747 5.52699 16.3423 5.25701C16.3554 5.23632 16.201 4.98006 16.2015 4.97419C16.2062 4.8294 16.5329 5.55592 16.704 5.76579C16.4094 5.23568 16.4883 5.31789 16.5028 5.23448C16.5095 5.19389 16.3859 4.99379 16.3765 4.97155C16.2398 4.64004 16.4813 5.03312 16.532 5.11287C16.7183 5.40619 16.547 5.0332 16.6718 5.22915C16.7957 5.42358 16.9242 5.74166 16.9656 5.71431C16.8746 5.51678 16.5726 5.03514 16.5618 4.93649C16.5221 4.56265 16.9667 4.82802 17.0898 4.81379C17.2109 4.80059 17.2255 4.7471 17.3214 4.78423C17.4947 4.85147 17.2549 4.50278 17.2275 4.29833C17.2015 4.0932 17.6647 5.02007 17.7807 5.2104C17.8965 5.40069 17.7972 5.19396 17.8674 5.29503C17.9375 5.3961 17.9848 5.54271 18.0341 5.56816C18.0834 5.59349 17.9678 5.20563 17.8658 4.99616C17.6497 4.55225 17.3685 4.11613 17.5269 4.23687C17.5362 4.24406 17.6531 4.49045 17.6823 4.50589C17.9091 4.62086 18.0446 4.56155 18.2586 4.65564C18.2881 4.66902 18.4186 4.94296 18.4374 4.95375C18.6343 5.06669 18.3523 4.63883 18.136 4.11026C18.4867 4.77912 18.7413 5.16634 18.822 5.12704C18.8702 5.10386 18.7039 4.819 18.6226 4.59841C18.5981 4.5319 18.7412 4.71157 18.6725 4.57239C18.4477 4.11739 18.1424 3.63766 18.3321 3.79109C18.3408 3.79854 18.4637 4.0477 18.484 4.05569C18.6153 4.10885 18.3708 3.63814 18.4246 3.53496C18.4654 3.4548 18.7447 3.66964 18.8448 3.67408C19.2559 4.41686 19.2352 4.20593 18.9792 3.6785C19.0401 3.67196 19.0772 3.61334 19.1652 3.65683C19.1952 3.67165 19.3044 3.89223 19.3194 3.91424C19.5549 4.25985 19.2982 3.75097 19.2978 3.72559C19.3078 3.4712 19.6134 3.7945 19.5168 3.36462C19.5132 3.34919 19.2292 2.83233 19.4701 3.19077C19.4867 3.21548 19.5826 3.46945 19.6443 3.45837C19.708 3.44624 19.9596 3.66688 19.8978 3.38754C19.883 3.32023 19.6876 2.88056 19.9092 3.18469C19.9392 3.22603 20.018 3.37578 20.0717 3.45349C20.2431 3.70088 19.9586 3.17698 20.2364 3.60135C20.5138 4.02593 20.7584 4.32272 20.6569 3.97787C20.6542 3.96772 20.4347 3.54891 20.4607 3.5425C20.504 3.53162 20.6055 3.58646 20.641 3.56214C20.6438 3.56024 20.6419 3.55228 20.6369 3.54021C20.616 3.47517 20.5148 3.29396 20.5156 3.28853C20.5744 3.07539 20.788 3.26334 20.9723 3.30809C21.0045 3.31747 20.9339 2.91394 21.102 3.18815C21.2817 3.49022 21.7415 4.85536 21.7163 4.49941C21.6987 4.35986 21.1911 2.60221 21.575 3.47408C21.687 3.1941 21.9721 3.62076 22.0759 3.25412C22.0806 3.23782 21.996 2.73425 22.0185 2.73643C22.0514 2.74082 22.1186 2.97018 22.1425 2.98117C22.2444 3.03305 22.2867 2.81686 22.3792 2.83177C22.414 2.83701 22.4474 3.08142 22.4885 3.0879C22.5302 3.09408 22.4973 2.77029 22.5779 2.91533C22.6399 3.02583 22.7874 3.67353 22.8501 3.74153C22.7454 3.09573 22.7838 3.10298 22.82 2.92235C22.8272 2.88729 22.7782 2.6645 22.7798 2.63631C22.7857 2.51654 22.8376 2.69945 22.8414 2.56958C22.8424 2.53838 22.8084 2.31755 22.8073 2.27958C22.7964 1.94831 22.9374 2.43538 22.961 2.52037C23.0528 2.84273 23.0283 2.55265 23.0796 2.67748C23.1301 2.80241 23.1058 2.97116 23.1541 3.04445C23.2555 3.19585 23.3458 3.14702 23.4252 3.14687C23.4562 3.14552 23.3963 2.8526 23.3998 2.84554C23.4542 2.76205 23.5613 3.06819 23.5215 2.47442C23.758 3.99285 23.5414 2.32168 23.6743 2.61517C23.6845 2.63898 23.7816 3.35891 23.7671 3.46811C23.7522 3.57727 23.6822 3.35715 23.6652 3.52684C23.6606 3.56673 23.6972 4.24824 23.6951 4.29008C23.6824 4.61661 23.535 3.54119 23.5241 3.48248C23.407 2.84888 23.4411 3.58412 23.4311 3.63662C23.3864 3.87693 23.3041 3.73429 23.2646 3.90737C23.2394 4.01922 23.3386 4.72333 23.3055 4.70619C23.1948 4.64986 23.0046 3.67557 23.0442 4.54018C23.0531 4.72457 23.1986 5.48817 23.029 4.89676C23.0187 4.85941 22.8734 4.3169 22.9021 4.67079C22.9058 4.71539 22.9445 4.93856 22.9428 4.95816C22.9309 5.08512 22.8782 4.91119 22.8588 5.0025C22.838 5.09406 22.822 5.22805 22.7691 5.15999C22.7373 5.1193 22.6261 4.71111 22.5943 4.61213C22.503 4.32683 22.565 4.81226 22.4722 4.46347C22.3766 4.11346 22.3075 3.56584 22.1993 3.34954C22.3198 3.92552 22.4413 4.51715 22.5626 5.09637C22.4521 5.09888 22.3058 4.93811 22.2139 4.98976C22.2029 4.99669 22.2975 5.29881 22.2886 5.3139C22.2533 5.37564 22.1465 5.17182 22.1242 5.27286C22.1066 5.35249 22.1763 5.68237 22.1755 5.7722C21.9314 5.14423 21.952 5.38023 21.8942 5.33736C21.8731 5.32297 21.8062 5.15606 21.7736 5.10599C21.6508 4.92203 21.8993 5.46315 21.9264 5.55334C22.0478 5.93613 21.5036 4.70392 21.45 4.76509C21.4458 4.76845 21.7126 5.43629 21.7284 5.47834C21.8232 5.75619 21.6152 5.25546 21.571 5.21792C21.518 5.17358 21.4542 5.0996 21.4279 5.11223L21.5244 5.05987C21.507 5.06965 21.5019 5.10372 21.5169 5.18009C21.5303 5.2443 21.7085 5.65831 21.5 5.3791C21.4726 5.34257 21.3563 5.13574 21.3456 5.12586C21.1621 4.96443 21.5328 5.61131 21.6186 5.85331C21.7054 6.09463 21.3884 5.68317 21.3021 5.56159C21.0788 5.24727 21.2454 5.40507 21.2284 5.37145C21.0256 4.97107 21.0204 5.06306 20.9674 5.04972C20.5986 4.41846 20.5756 4.48221 20.915 5.03789C20.9522 5.09849 20.9437 5.02484 20.9674 5.04972C21.2943 5.68911 21.2887 5.7981 20.8992 5.24858C20.717 4.99079 20.5601 4.65866 20.5475 4.81998C20.5412 4.89312 20.8037 5.32293 20.8389 5.46072C20.9176 5.77606 20.5926 5.42036 20.5524 5.5279C20.5383 5.56663 20.7 5.79181 20.695 5.8266C20.6821 5.91965 20.5356 5.76481 20.5372 5.88536C20.5375 5.89655 20.6896 6.142 20.6759 6.15386C20.5739 6.24941 20.3811 6.14549 20.2532 6.21076C20.1938 6.24113 20.1624 6.44054 20.0854 6.44657C19.9527 6.45869 19.6178 6.16446 19.5754 6.30418C19.5465 6.39453 19.6987 6.64008 19.7682 6.82619C19.9032 7.18685 19.4864 6.63708 19.4237 6.55097C19.4217 6.54808 19.4406 6.4601 19.3417 6.34544C19.1771 6.08377 19.4236 6.54947 19.4237 6.55097C19.3825 6.49572 19.2492 6.49418 19.2554 6.55363C19.2589 6.5861 19.3965 6.8224 19.3958 6.83481C19.3748 7.12525 19.2714 7.26095 19.0706 7.2249C19.0656 7.22138 18.9228 6.95098 18.9127 6.94605C18.7678 6.87023 18.894 7.2274 18.9337 7.45862C18.9741 7.68934 18.8856 7.65286 18.5954 7.21321C18.5759 7.29901 18.3941 7.13368 18.2858 7.03227C18.1774 6.93088 18.4553 7.4572 18.4573 7.46951C18.5217 7.86298 18.2957 7.59798 18.1518 7.61555C18.082 7.62354 18.0139 7.75847 17.9837 7.84877C17.9606 7.92083 17.8647 7.81408 17.8629 7.9164C17.8626 7.93006 17.9944 8.16005 17.9975 8.17001C18.0992 8.47537 17.8151 7.89258 17.7501 7.79619C17.5137 7.44565 17.3848 7.26055 17.4155 7.46885C17.4225 7.51659 17.8223 8.36074 17.8212 8.42328C17.8189 8.50312 17.6739 8.20147 17.6764 8.29212C17.6765 8.2996 17.7749 8.48086 17.7484 8.48479C17.6272 8.50519 17.4547 8.46169 17.3585 8.53682C17.3448 8.54649 17.5185 8.82459 17.5012 8.84332C17.4198 8.93109 17.3039 8.97954 17.1351 8.89631C17.0929 8.875 16.9996 8.66508 16.9623 8.60792C16.736 8.26229 16.973 8.81366 16.9709 8.82774C16.9293 9.17604 16.5351 8.77323 16.4777 9.0961C16.475 9.11467 16.7011 9.7207 16.4078 9.25408C16.3882 9.22307 16.0894 8.74498 16.2406 9.10023C16.2502 9.12237 16.4072 9.36681 16.3572 9.36004C16.3073 9.35332 16.34 9.55505 16.14 9.30114C16.077 9.2212 15.7753 8.74618 15.9382 9.16623C15.9498 9.19541 16.3519 10.1272 15.9981 9.52504C15.9398 9.42593 15.5969 8.77198 15.7189 9.13599C15.7426 9.20649 15.8396 9.34142 15.8597 9.44728C15.8908 9.61031 15.74 9.46658 15.8406 9.78566C15.8588 9.84198 16.0535 10.3061 15.8435 9.98695C15.8106 9.937 15.7041 9.71441 15.6745 9.69895C15.5329 9.62441 15.5265 9.8146 15.3644 9.70764C15.3072 9.67019 15.1349 9.31044 15.0544 9.23228C14.9743 9.15397 14.8664 9.09505 14.9205 9.27252C14.9747 9.45004 15.3071 9.99265 15.284 10.0625C15.1812 10.3671 14.8053 10.1449 14.5749 10.2054C14.5409 10.2142 14.6724 10.4017 14.6299 10.4291C14.5681 10.4695 14.5014 10.5473 14.4198 10.605L14.5066 10.5573C14.3779 10.6531 14.2159 10.7011 13.9847 10.4964C13.6787 10.2244 13.6815 9.88531 13.516 9.7976C13.4375 9.75545 13.7488 10.4273 13.7495 10.4535C13.7603 10.7178 13.53 10.4714 13.4862 10.61C13.4772 10.6387 13.6401 10.8907 13.6308 10.9123C13.6 10.9884 13.4779 10.9029 13.435 10.9542C13.4162 10.9777 13.5301 11.176 13.4992 11.1727C13.4267 11.1671 13.3336 11.1083 13.1802 10.9477C13.1662 10.9331 13.0625 10.6659 13.0185 10.6776C12.9473 10.6976 12.7713 10.5523 12.8007 10.7841C12.8099 10.8536 13.0551 11.315 12.8382 11.0218C12.7928 10.9606 12.5104 10.4003 12.7108 10.9076C12.7443 10.9918 12.9948 11.6866 12.7295 11.2938C12.6596 11.1904 12.3901 10.7522 12.4021 10.8371C12.4045 10.8504 12.5494 11.0912 12.5407 11.1267C12.5087 11.2471 12.4118 11.2641 12.3739 11.3829C12.3639 11.4152 12.5296 11.6563 12.5102 11.6963C12.4567 11.8069 12.3172 11.7958 12.1889 11.7595C12.1417 11.7455 12.0537 11.5202 12.0395 11.4982C11.8084 11.1382 12.049 11.6606 12.0519 11.6968C12.0673 11.9143 11.8871 11.7031 11.8505 11.8018C11.84 11.8284 11.9774 12.066 11.9846 12.0897C12.0529 12.3227 11.86 11.8688 11.8106 11.833C11.6714 11.7313 11.6011 11.7913 11.5457 11.8582C11.5254 11.8832 11.6971 12.1526 11.6772 12.1718C11.5628 12.2902 11.4019 12.336 11.188 12.2458C11.1475 12.2283 11.056 12.0007 11.026 11.9531C10.8174 11.62 10.9985 12.125 11.0083 12.1767C11.0544 12.4123 10.9365 12.2291 10.9038 12.2898C10.746 12.59 10.3807 12.6052 10.1115 12.6333C9.76118 12.6714 9.43355 12.5658 9.16899 12.7519C9.15229 12.7633 9.30473 13.0516 9.292 13.0653C9.12132 13.2285 8.8705 13.2013 8.70265 13.3783C8.68884 13.3922 8.8377 13.6638 8.81968 13.6956C8.7831 13.7631 8.70925 13.7773 8.6123 13.7123C8.56578 13.6809 8.49601 13.4223 8.45144 13.3956C8.34751 13.3329 8.27108 13.3423 8.22684 13.4157C8.20828 13.4475 8.37574 13.7187 8.34173 13.7375C8.10739 13.874 7.89248 14.0261 7.48729 13.7559C7.45956 13.7373 7.19087 13.1547 7.20468 13.2827C7.27257 13.4473 7.35566 13.6395 7.42988 13.8146C7.12319 14.0586 6.69793 13.9995 6.3623 14.1111C6.34836 14.1158 6.50986 14.4159 6.48318 14.4268C6.32821 14.4903 6.23111 14.6377 5.94694 14.3979C5.91901 14.3745 5.67158 13.8301 5.66827 13.9317C5.66772 13.9502 5.64076 14.0514 5.68088 14.1761C5.68729 14.1948 5.81918 14.441 5.80352 14.4576C5.71168 14.5489 5.58109 14.5432 5.40898 14.4418C5.38124 14.4248 5.25678 14.1544 5.23543 14.1402C5.08117 14.0439 5.11918 14.2821 4.92534 14.0846C4.79245 13.9531 4.5347 13.5085 4.23727 13.0984C4.19485 13.0408 4.15741 13.0515 3.99392 12.807C3.58151 12.1928 3.15998 11.5006 2.71892 10.8469C2.62367 10.7061 2.64693 10.9103 2.46595 10.5377C2.45382 10.5127 2.4381 10.3601 2.3783 10.2331C2.33702 10.1453 2.15528 9.90639 2.11165 9.78797C2.06884 9.66922 2.22799 9.86522 2.18917 9.71888C2.15005 9.57078 1.95396 9.2915 2.01003 9.21041ZM17.7993 6.58013C17.6254 6.3493 18.1183 7.27282 18.04 7.03039C18.0357 7.01758 17.808 6.5914 17.7993 6.58013ZM22.1175 4.17228C21.9562 3.73664 22.094 4.40243 22.2141 4.73968C22.3308 5.07749 22.1645 4.30486 22.1175 4.17228ZM22.5648 3.732C22.4357 3.3858 22.7062 4.84545 22.7098 4.53942C22.7101 4.52211 22.5722 3.75213 22.5648 3.732ZM4.29742 12.893C4.2899 12.8812 4.25707 12.8849 4.26357 12.8971C4.42073 13.1904 4.48247 13.1851 4.29742 12.893ZM23.0582 3.27823C23.008 3.08266 22.9852 3.32058 23.0474 3.5637C23.0968 3.75936 23.1198 3.52159 23.0582 3.27823ZM15.2786 6.66755C15.2706 6.65411 15.2421 6.65347 15.2841 6.73099C15.4195 6.98064 15.4123 6.89361 15.2786 6.66755ZM24.0238 3.1357C23.8766 3.09637 23.639 1.88988 23.8175 2.00819C23.8489 2.02972 23.8013 2.40377 23.8505 2.50933C23.9393 2.70172 23.8966 1.93165 24.0134 2.33366C24.0341 2.40731 24.0321 3.14067 24.0237 3.13743C24.0237 3.13685 24.0238 3.13627 24.0238 3.1357ZM17.1787 5.48633C17.1713 5.47456 17.1348 5.47945 17.1405 5.49191C17.2824 5.79306 17.3562 5.78335 17.1787 5.48633ZM13.6826 6.78503C13.6671 6.75985 13.5834 6.77309 13.5938 6.79833C13.812 7.29783 13.982 7.27242 13.6826 6.78503ZM18.8571 3.69319C18.7281 3.38236 18.7482 3.32608 18.9788 3.67821C18.9353 3.67693 18.9006 3.69254 18.8571 3.69319Z" fill="#4C422C"/>
</g>
<defs>
<filter id="filter0_g_8_5324" x="0" y="0" width="26.0298" height="16.53" filterUnits="userSpaceOnUse" color-interpolation-filters="sRGB">
<feFlood flood-opacity="0" result="BackgroundImageFix"/>
<feBlend mode="normal" in="SourceGraphic" in2="BackgroundImageFix" result="shape"/>
<feTurbulence type="fractalNoise" baseFrequency="0.5 0.5" numOctaves="3" seed="5566" />
<feDisplacementMap in="shape" scale="4" xChannelSelector="R" yChannelSelector="G" result="displacedImage" width="100%" height="100%" />
<feMerge result="effect1_texture_8_5324">
<feMergeNode in="displacedImage"/>
</feMerge>
</filter>
</defs>
</svg>
