<svg width="89" height="77" viewBox="0 0 89 77" fill="none" xmlns="http://www.w3.org/2000/svg">
<g filter="url(#filter0_g_8_5295)">
<path d="M11.5208 61.6311C11.8193 61.0934 12.3429 60.6505 12.7734 60.3805C12.9072 60.2965 12.991 60.4793 13.0902 60.4268C13.281 60.3274 13.3433 60.1289 13.5432 60.0439C13.6102 60.0163 13.7665 60.2781 13.8304 60.2462C14.1825 60.0663 14.3684 59.7691 14.6725 59.5505C16.1673 58.4816 17.4905 57.3633 18.8733 56.2196C19.0349 56.0858 19.2199 55.9675 19.4183 55.8383C19.8002 55.5852 20.1968 55.34 20.4474 55.0137C20.4922 54.9549 20.2879 54.7916 20.284 54.7666C20.2297 54.3786 20.5221 54.8157 20.6732 54.7738C21.2706 54.6083 21.7404 54.2276 22.0551 53.8096C22.1886 53.631 21.6831 53.3973 22.0376 53.4643C22.0619 53.4685 22.2051 53.7084 22.269 53.6899C22.4142 53.6469 22.57 53.4373 22.6604 53.3828C22.8378 53.2768 22.859 53.2532 22.9996 53.1244C23.1918 52.9515 23.5075 52.8352 23.6605 52.5949C23.6921 52.5435 23.439 52.3995 23.471 52.2999C23.504 52.1998 23.6923 52.0424 23.7985 52.0277C23.9035 52.0146 24.0377 52.1932 24.0843 52.2179C24.4775 52.4261 24.2494 51.8073 24.2627 51.7713C24.5378 51.1135 25.1659 50.9078 25.5722 50.4161C25.6612 50.3079 25.7413 50.1947 25.8216 50.0741C26.0296 49.7645 26.2245 49.4396 26.4504 49.1798C26.8299 48.7453 27.2567 48.4664 27.592 48.0203C27.6277 47.9733 27.3293 47.816 27.3725 47.7582C27.83 47.1454 28.3423 46.5878 28.9962 46.1502C29.062 46.1065 29.2225 46.3669 29.3016 46.3343C29.7806 46.1313 30.6901 45.9302 29.8895 44.9165C30.1258 44.7071 30.4042 44.4473 30.7773 44.3917C31.0177 44.3555 31.1528 44.6901 31.1875 44.4334C31.1955 44.3758 30.9398 44.2521 30.9681 44.1789C31.0868 43.8713 31.3714 43.6605 31.4522 43.3291C31.468 43.2614 31.2633 43.1207 31.2394 43.0791C31.049 42.7378 31.6711 42.9136 31.7391 42.8971C32.0352 42.8246 32.1883 42.6865 32.3118 42.5246C32.3989 42.4104 32.4731 42.2801 32.5728 42.1547C32.6287 42.0846 32.2997 41.9672 32.3439 41.8926C32.5751 41.5098 32.8745 41.1569 33.256 40.8908C33.3414 40.8322 33.5154 41.0736 33.5679 41.0542C33.7973 40.9656 33.3937 40.6107 33.6053 40.5193C33.6494 40.4996 33.8304 40.663 33.8564 40.6727C34.2639 40.8255 33.8491 40.3891 33.857 40.3565C33.945 39.9365 34.5915 40.1029 34.7461 39.747C34.7641 39.7039 34.4565 39.6032 34.5223 39.4934C34.9593 38.7614 35.5693 38.0859 36.2848 37.5649C36.396 37.4834 36.52 37.6998 36.5476 37.7106C36.9813 37.8768 36.5652 37.4424 36.5743 37.3945C36.6587 37.0252 37.2453 37.0917 36.8423 36.4635C37.4253 35.9527 37.8846 35.3381 38.4635 34.7776C38.933 34.3273 39.4331 33.895 40.1074 33.6118C40.1249 33.6038 40.3188 33.826 40.3527 33.8091C40.7633 33.6061 40.3722 33.3577 40.1504 32.7741C40.0944 32.6278 40.7377 32.9206 40.7873 32.9393C40.9688 33.0098 41.2432 33.3567 41.285 33.3631C41.6203 33.4048 40.5302 32.4592 40.7048 32.2656C40.7121 32.2611 40.886 32.4647 40.9203 32.4661C41.0275 32.4712 40.9946 32.3502 41.1072 32.3619C41.3666 32.3903 41.9237 32.8194 41.7774 32.3724C41.7579 32.3149 41.1199 31.8004 41.3056 31.6523C41.3799 31.5939 41.6474 31.2766 41.7647 31.2261C41.8819 31.1755 42.0239 31.4116 42.038 31.4131C42.5067 31.4149 42.5336 31.6006 43.0213 31.8314C43.5069 32.0618 42.5699 31.2688 42.5116 31.1294C42.4539 30.9899 42.8211 31.0143 42.9331 31.0401C43.0451 31.066 43.1212 31.231 43.1968 31.2323C43.6929 31.2386 42.8463 30.7135 42.7775 30.5006C42.6145 29.997 43.421 30.4653 43.6469 30.3547C43.7081 30.3246 43.5211 30.221 43.5464 30.1658C43.6488 29.949 43.947 30.0469 43.9392 29.6796C43.9369 29.6207 43.6933 29.0859 44.0758 29.2697C44.1307 29.2964 44.2538 29.4945 44.3586 29.4606C44.5142 29.4111 44.7337 29.2624 44.7935 29.099C44.8255 29.0099 44.6385 28.8894 44.6157 28.8261C44.6075 28.8045 44.6186 28.7902 44.6652 28.7866C44.7461 28.7804 44.8148 29.0182 44.9546 28.9928C45.0964 28.9656 45.3047 28.7485 45.3809 28.6629C45.4578 28.5764 45.214 28.4187 45.2073 28.3986C45.1723 28.2797 45.2301 28.0307 45.2452 28.0162C45.9172 27.3029 46.8965 26.9959 47.464 26.2052C47.5089 26.1433 47.2621 25.9675 47.2668 25.9559C47.3607 25.685 47.7785 26.3907 48.0939 26.4515C47.6468 26.041 47.7998 26.0433 47.8815 25.8678C47.9205 25.7829 47.7209 25.6504 47.7096 25.6277C47.5498 25.2833 47.9393 25.5455 48.0223 25.5959C48.328 25.7807 48.1053 25.4244 48.3103 25.5473C48.514 25.669 48.659 26.0057 48.7795 25.8797C48.6611 25.6912 48.1692 25.3804 48.1985 25.2217C48.308 24.6217 49.2881 24.2808 49.6097 24.0337C49.9307 23.7863 49.9964 23.668 50.2214 23.5611C50.627 23.3703 50.2219 23.175 50.2849 22.8506C50.3473 22.5277 50.9601 23.373 51.1402 23.5093C51.3195 23.6462 51.193 23.451 51.3101 23.5091C51.4267 23.5677 51.4578 23.7454 51.5671 23.7065C51.6752 23.6683 51.6229 23.1794 51.4969 22.9797C51.2268 22.5592 50.7771 22.2672 51.1187 22.2048C51.1385 22.2016 51.279 22.4412 51.3457 22.4186C51.4695 22.3756 51.5917 22.32 51.7049 22.2656C52.066 22.0901 52.3939 21.8672 52.7773 21.733C52.8468 21.7092 52.9923 21.9818 53.0349 21.9707C53.4785 21.8569 53.0392 21.557 52.8614 20.9704C53.2966 21.5897 53.6849 21.8686 53.9317 21.6775C54.0804 21.563 53.8506 21.3245 53.803 21.066C53.7886 20.9881 54.0345 21.083 53.958 20.9461C53.7097 20.4969 53.2594 20.1276 53.6605 20.1028C53.6786 20.1024 53.8116 20.3503 53.8615 20.333C54.1844 20.2236 53.8936 19.7783 54.138 19.5145C54.33 19.3073 54.9182 19.2775 55.2038 19.1396C55.6913 19.8344 55.814 19.5093 55.5785 18.9604C55.7588 18.8639 55.9217 18.7121 56.1298 18.6694C56.2013 18.6545 56.3017 18.8832 56.3236 18.9005C56.6631 19.1742 56.4191 18.6527 56.4437 18.6096C56.5797 18.3909 56.7871 18.317 56.9793 18.228C57.1725 18.1393 57.3507 18.031 57.4233 17.7297C57.4283 17.7084 57.1295 17.1994 57.4626 17.4966C57.4853 17.5173 57.5082 17.8222 57.6947 17.726C57.881 17.6299 58.385 17.6783 58.4779 17.2901C58.5007 17.1964 58.386 16.6989 58.7109 16.9327C58.7548 16.9646 58.8305 17.1173 58.9052 17.1807C59.1447 17.382 58.8568 16.8579 59.223 17.2228C59.5894 17.5877 59.9804 17.7838 60.0327 17.3301C60.035 17.3165 59.8322 16.8841 59.9133 16.8394C60.0434 16.7681 60.2719 16.7347 60.399 16.6469C60.4594 16.6049 60.2582 16.3863 60.2659 16.3748C60.5888 15.9639 61.028 15.9868 61.534 15.7895C61.6272 15.7538 61.6416 15.2656 61.973 15.4266C62.3358 15.603 62.9467 16.9239 63.1549 16.3784C63.2009 16.2597 62.9887 15.7174 62.9138 15.3409C62.8532 15.0207 62.8809 14.8246 63.2551 15.0962C63.68 14.5293 64.4744 14.5542 64.8053 13.8685C64.8208 13.8375 64.5791 13.3786 64.6369 13.3411C64.7255 13.2846 64.9192 13.4343 64.9877 13.3987C65.2775 13.2544 65.3642 12.9124 65.6101 12.7371C65.7028 12.6701 65.8377 12.8801 65.9494 12.7982C66.0616 12.715 65.9095 12.4146 66.1515 12.4033C66.3352 12.3952 66.8951 12.7786 67.0882 12.6994C66.6387 12.2239 66.7415 12.1439 66.7823 11.8605C66.7897 11.8059 66.5961 11.6772 66.5913 11.6431C66.5678 11.5011 66.7559 11.5799 66.7215 11.4333C66.7133 11.398 66.5554 11.2399 66.5397 11.2022C66.3991 10.877 66.9111 11.0723 67.0008 11.1055C67.341 11.2325 67.18 10.9808 67.352 10.9909C67.5241 11.0009 67.5254 11.2354 67.6738 11.1957C67.7273 11.1813 67.778 11.161 67.8264 11.1362L67.838 11.1232C68.0521 10.9967 68.2156 10.7864 68.3784 10.6375C68.4559 10.565 68.1958 10.4026 68.202 10.3873C68.316 10.1696 68.6916 10.2612 68.407 9.7245C68.4877 9.80166 68.5565 9.86695 68.6149 9.92153C69.356 10.6261 68.4692 9.52087 68.8428 9.55279C68.8709 9.55867 69.4472 10.0086 69.4238 10.1856C69.3966 10.3646 69.1052 10.3091 69.1182 10.5142C69.1184 10.5169 69.1195 10.5214 69.1214 10.5275C69.151 10.6328 69.4435 11.1861 69.4575 11.2263C69.5579 11.5691 68.7996 10.7944 68.7501 10.7587C68.2232 10.3703 68.582 11.0496 68.5871 11.1187C68.5861 11.3609 68.4627 11.4525 68.3926 11.584L68.3468 11.6353C68.3095 11.6914 68.2796 11.7534 68.268 11.8328C68.2401 12.0161 68.7406 12.5213 68.6404 12.5933C68.3042 12.8352 67.5063 12.2317 67.8377 13.1131C67.9072 13.3016 68.5097 13.8007 67.8662 13.5732C67.8249 13.5597 67.2787 13.3089 67.4277 13.6537C67.4463 13.6974 67.6017 13.8622 67.5988 13.891C67.5764 14.0805 67.3823 14.0141 67.3232 14.1848C67.2639 14.3555 67.2047 14.5809 67.0156 14.6437C66.9016 14.6823 66.5203 14.4532 66.4143 14.4076C66.1116 14.2743 66.3038 14.7491 66.0047 14.5284C65.706 14.3049 65.489 13.7719 65.165 13.7342C65.5295 14.1962 65.8945 14.6778 66.2554 15.147C65.8253 15.4683 65.2964 15.6301 64.8824 15.9575C64.8317 15.9983 65.0696 16.2173 65.0193 16.2681C64.8032 16.4829 64.462 16.4438 64.2576 16.6883C64.172 16.7906 64.1252 16.9561 64.0702 17.1226C64.0317 17.2626 63.9921 17.4008 63.9241 17.4922C63.4399 17.0039 63.2802 17.3813 63.04 17.4654C62.9562 17.495 62.8621 17.3417 62.7784 17.3265C62.4651 17.2728 62.8829 17.7102 62.8811 17.8234C62.873 18.3073 62.112 17.1958 61.8602 17.4019C61.8465 17.4126 62.0678 18.1269 62.0683 18.1801C62.0763 18.5244 61.9052 17.9884 61.7802 18.0075C61.5517 18.0424 61.3354 17.9801 61.246 18.2915C61.2203 18.3832 61.3235 18.8515 61.0158 18.6402C60.9755 18.6126 60.8529 18.4091 60.8329 18.4057C60.4814 18.3606 60.8868 18.9864 60.8982 19.2816C60.9089 19.5772 60.4269 19.2787 60.3047 19.1816C59.9876 18.9311 60.2955 18.9912 60.2803 18.9561C60.1004 18.5378 59.9985 18.6976 59.8672 18.7388C59.4491 18.1388 59.3186 18.2773 59.7325 18.784C59.778 18.8392 59.8269 18.7254 59.8672 18.7388C60.165 19.4016 60.0443 19.5911 59.4879 19.1544C59.2276 18.9494 59.1101 18.5886 58.9159 18.8758C58.8271 19.006 59.1498 19.3965 59.1164 19.582C59.04 20.0055 58.4623 19.8198 58.2451 20.0463C58.1661 20.1285 58.4054 20.3027 58.3564 20.367C58.3539 20.3703 58.3513 20.3736 58.3487 20.3767C58.2299 20.5269 57.987 20.45 57.8902 20.6382C57.8815 20.6559 58.0748 20.8739 58.0285 20.9089C57.682 21.1784 57.2608 21.2435 56.8794 21.5083C56.695 21.6362 56.4646 22.0004 56.2597 22.1134C55.9056 22.3089 55.2533 22.281 55.0416 22.5775C54.9038 22.7692 55.1219 22.9648 55.1689 23.1784C55.2618 23.591 54.5786 23.266 54.4764 23.2132C54.4729 23.2114 54.5818 23.0354 54.4075 22.9862C54.1656 22.7851 54.4772 23.2108 54.4764 23.2132C54.4102 23.1785 54.0672 23.3755 54.0427 23.4682C54.0296 23.5183 54.2225 23.7134 54.2125 23.7354C54.0676 24.0469 53.8848 24.3118 53.6603 24.527C53.5254 24.6576 53.3608 24.7783 53.1763 24.877C53.1658 24.879 52.9703 24.6436 52.9481 24.6514C52.6354 24.7526 52.7438 25.1633 52.7152 25.4951C52.685 25.8287 52.4903 25.9121 52.0169 25.6389C51.9243 25.8193 51.5635 25.8454 51.3491 25.8577C51.1361 25.8685 51.5354 26.3106 51.5336 26.3287C51.482 26.9056 51.0617 26.8415 50.6968 27.128C50.5227 27.2633 50.2748 27.6316 50.1521 27.8459C50.0558 28.0159 49.8771 27.9972 49.817 28.1833C49.8088 28.2083 50.0129 28.379 50.015 28.3913C50.1019 28.7526 49.7099 28.2285 49.5998 28.175C49.1997 27.9801 48.9775 27.8853 48.9413 28.2015C48.9324 28.2745 49.4746 29.0515 49.4385 29.1648C49.3909 29.3104 49.1908 29.0377 49.1474 29.1957C49.1434 29.209 49.2912 29.3529 49.222 29.4092C48.9043 29.6712 48.5021 29.9035 48.2115 30.2216C48.1711 30.2646 48.4554 30.4434 48.4009 30.5093C48.145 30.8183 47.8225 31.12 47.4311 31.2877C47.3351 31.3272 47.2185 31.121 47.1559 31.087C46.9203 30.9625 46.9387 31.1254 46.9842 31.2755C47.0173 31.3644 47.0599 31.4498 47.0558 31.4598C46.8181 32.0946 46.079 32.0865 45.7979 32.7663C45.7831 32.8043 46.0591 33.4499 45.5664 33.1738C45.5337 33.1553 45.0321 32.8699 45.2382 33.2145C45.2513 33.2358 45.519 33.3722 45.4029 33.4554C45.2865 33.5392 45.277 33.837 44.9104 33.7678C44.7948 33.7461 44.2803 33.4784 44.4878 33.9159C44.5026 33.946 45.0616 34.836 44.4746 34.4451C44.3781 34.3805 43.8418 33.8727 43.9734 34.292C43.9993 34.3729 44.1735 34.4257 44.1746 34.578C44.1769 34.8121 43.8768 34.8495 43.9773 35.2287C43.9956 35.2953 44.2604 35.7497 43.8924 35.5892C43.8348 35.564 43.6778 35.3702 43.612 35.4017C43.2983 35.5505 43.1917 35.9121 42.8419 36.04C42.7183 36.0857 42.466 35.7715 42.3051 35.7883C42.144 35.8053 41.9022 35.9145 41.947 36.1329C41.9919 36.3514 42.5521 36.6827 42.4553 36.8598C42.2357 37.2601 41.8922 37.552 41.515 37.8201C41.2617 37.9722 40.966 38.1473 40.7223 38.3871C40.6469 38.4615 40.8751 38.5449 40.7776 38.6647C40.4149 39.1079 39.9311 40.0607 39.2177 40.1991C38.6456 40.3093 38.7467 39.6936 38.4177 39.8641C38.2586 39.9485 38.7407 40.5348 38.7356 40.58C38.6934 41.0268 38.2716 41.0443 38.1437 41.3836C38.1174 41.4537 38.3995 41.5761 38.3745 41.6337C38.2915 41.832 38.0528 41.9294 37.9527 42.1056C37.9083 42.1851 38.1019 42.3077 38.0383 42.364C37.8883 42.5002 37.706 42.5851 37.4175 42.615C37.3912 42.6178 37.234 42.3521 37.1373 42.4652C36.9819 42.648 36.6335 42.7637 36.6436 43.1168C36.6469 43.2225 37.0644 43.5367 36.6685 43.4646C36.5856 43.4498 36.1112 43.0365 36.4215 43.5276C36.4734 43.6088 36.8486 44.3287 36.3669 44.1851C36.2399 44.1477 35.7597 43.9323 35.7637 44.061C35.7656 44.0798 36.0231 44.2045 35.9939 44.2886C35.8956 44.5606 35.7016 44.7816 35.5785 45.0526C35.5699 45.0716 35.5616 45.0909 35.5538 45.1105C35.5226 45.1899 35.8269 45.2715 35.7729 45.3843C35.6249 45.6948 35.3078 45.9784 35.0335 46.1773C34.932 46.2502 34.7955 46.0353 34.7696 46.0259C34.3491 45.8705 34.7468 46.2933 34.7438 46.3508C34.7191 46.7028 34.3705 46.7051 34.2588 46.9565C34.2273 47.0254 34.4729 47.1576 34.4827 47.1844C34.5724 47.4527 34.2615 47.0548 34.159 47.095C33.8706 47.2064 33.6992 47.4508 33.555 47.6814C33.5023 47.7664 33.8185 47.8821 33.7684 47.9561C33.476 48.3979 33.1048 48.7978 32.6454 49.0762C32.5585 49.1282 32.4088 48.9255 32.3531 48.9051C31.9648 48.7606 32.2463 49.256 32.2558 49.3239C32.2995 49.634 32.0816 49.5576 31.9941 49.7258C31.5706 50.5482 30.7554 51.3057 30.1561 51.8993C29.8237 52.2291 29.5044 52.5115 29.2008 52.7934C28.7538 53.2198 28.3259 53.6305 27.9107 54.1457C27.8638 54.2032 28.1559 54.3651 28.1183 54.4177C27.6245 55.0833 26.9647 55.5807 26.4437 56.2146C26.4005 56.2661 26.6843 56.4211 26.6218 56.5116C26.4933 56.7006 26.2783 56.8806 26.0487 56.9595C25.9374 56.9981 25.8629 56.706 25.755 56.7483C25.5036 56.846 25.2928 57.0086 25.1384 57.2143C25.0732 57.3022 25.4048 57.4283 25.3035 57.5245C24.6143 58.1864 23.9854 58.7984 23.0979 59.0647C23.0372 59.0828 22.562 58.6487 22.5566 58.8229C22.672 58.9587 22.8161 59.1106 22.9439 59.2516C22.9027 59.2977 22.8615 59.3431 22.8202 59.3877C21.9631 60.3015 20.9342 61.0111 20.0243 61.8539C19.9843 61.891 20.2891 62.0684 20.2132 62.1413C19.7709 62.5666 19.4098 63.0546 18.7356 63.2533C18.6695 63.2728 18.2674 62.8292 18.2025 63.0232C18.1917 63.0573 18.0563 63.3082 18.1005 63.4488C18.1079 63.4691 18.3413 63.6297 18.287 63.6968C17.9641 64.0874 17.561 64.4167 17.1172 64.653C17.0461 64.6898 16.8791 64.4314 16.8264 64.4561C16.4443 64.6442 16.3584 65.0935 15.9626 65.1724C15.6965 65.227 15.3266 64.8633 14.8414 64.6749C14.7726 64.648 14.6855 64.7597 14.4332 64.6093C13.7943 64.2352 13.1613 63.7215 12.4769 63.3281C12.3281 63.2426 12.3179 63.6115 12.0658 63.2359C12.0491 63.2087 12.0602 62.9376 11.9782 62.8118C11.9213 62.7239 11.6314 62.6185 11.5766 62.4797C11.5224 62.3405 11.782 62.4062 11.7408 62.2165C11.7021 62.022 11.3916 61.8667 11.5208 61.6311ZM50.3892 25.9164C50.0816 25.818 50.8006 26.5793 50.7402 26.2873C50.7364 26.2723 50.4045 25.921 50.3892 25.9164ZM64.8252 14.9902C64.3872 14.7404 64.6709 15.3727 65.0014 15.5732C65.3338 15.7714 64.9602 15.0641 64.8252 14.9902ZM66.2677 13.3821C65.8501 13.2657 66.7964 14.4102 66.7974 14.0089C66.7976 13.9859 66.2923 13.3885 66.2677 13.3821ZM15.0886 64.1064C15.0764 64.0992 14.9958 64.1785 15.0046 64.1898C15.2293 64.4413 15.3866 64.287 15.0886 64.1064ZM67.5107 11.6767C67.3164 11.5886 67.3349 11.9001 67.5763 12.0108C67.7713 12.0992 67.7532 11.7859 67.5107 11.6767ZM44.024 30.6995C44.011 30.6905 43.941 30.7447 44.0066 30.8037C44.2182 30.9932 44.2422 30.8504 44.024 30.6995ZM69.7245 8.80232C69.6705 9.10051 69.2757 9.25695 68.9832 9.18264C68.69 9.10819 68.4617 8.98356 68.5603 8.86422C68.6019 8.79975 68.9029 9.10199 69.0324 9.0445C69.2827 8.86715 68.5266 8.66824 68.9418 8.48584C69.0198 8.43556 69.7386 8.7514 69.7261 8.80351C69.7256 8.80311 69.7251 8.80272 69.7245 8.80232ZM49.4454 25.081C49.4336 25.0732 49.3376 25.1494 49.3451 25.1613C49.5315 25.4441 49.7248 25.2911 49.4454 25.081ZM40.0982 34.0431C40.0722 34.0279 39.8608 34.2138 39.8745 34.2388C40.1704 34.7182 40.6018 34.3405 40.0982 34.0431ZM55.2209 19.1552C55.1369 18.8046 55.2494 18.6774 55.5778 18.9604C55.455 19.0188 55.3426 19.0939 55.2209 19.1552ZM25.1222 2.3068C25.2541 2.54173 25.2665 2.96365 25.2614 3.36594C25.2597 3.49107 25.0649 3.49411 25.0569 3.58484C25.0431 3.76596 25.1823 3.88258 25.1632 4.07613C25.1559 4.1401 24.8556 4.17668 24.8545 4.24203C24.8526 4.60372 25.0463 4.88578 25.1264 5.2455C25.3673 6.3166 25.7098 7.39273 26.0608 8.47712C26.2791 9.15962 26.5209 9.83701 26.7764 10.5208C26.987 11.0856 27.0651 11.8661 27.4496 12.3769C27.4947 12.4363 27.7062 12.2823 27.7314 12.2853C28.1197 12.3347 27.6215 12.5025 27.6238 12.6613C27.6341 13.2907 27.9058 13.8673 28.2508 14.3073C28.3984 14.4941 28.7414 14.047 28.5975 14.3895C28.588 14.4131 28.3182 14.489 28.3225 14.5595C28.3328 14.7192 28.5066 14.9405 28.541 15.0505C28.6064 15.2636 28.6258 15.2937 28.7215 15.4773C28.8501 15.7293 28.8915 16.09 29.0922 16.3275C29.1357 16.3777 29.3408 16.1675 29.4324 16.2353C29.5242 16.3036 29.635 16.5549 29.6218 16.6682C29.6083 16.781 29.396 16.853 29.3596 16.8918C29.243 17.014 29.266 17.0893 29.3418 17.1374C29.4628 17.2095 29.7281 17.2059 29.748 17.2225C30.3132 17.7137 30.3468 18.4087 30.7181 18.9872C30.9998 19.4237 31.4011 19.8273 31.6681 20.2483C31.9853 20.7503 32.1482 21.2519 32.5042 21.7125C32.5415 21.7613 32.7701 21.5125 32.8162 21.5715C33.3048 22.1981 33.7377 22.8614 34.0257 23.6373C34.0542 23.7151 33.7593 23.8023 33.7738 23.8903C33.8687 24.4265 33.8664 25.3928 35.0571 24.8827C35.214 25.1807 35.4107 25.5356 35.3831 25.9291C35.3643 26.1809 34.9987 26.2157 35.2472 26.3275C35.3032 26.3533 35.4853 26.1338 35.5524 26.1847C35.8323 26.3967 35.9774 26.7491 36.2899 26.9378C36.3535 26.9752 36.5437 26.8153 36.5911 26.8047C36.9822 26.7291 36.6522 27.2941 36.6532 27.3704C36.6509 27.9245 36.9466 28.1226 37.1821 28.48C37.236 28.5624 37.4452 28.2785 37.507 28.3511C37.5175 28.3638 37.528 28.3765 37.5383 28.3892C37.8383 28.7572 38.0839 29.1813 38.2183 29.6448C38.2485 29.7518 37.9581 29.8264 37.9603 29.8854C37.9726 30.1433 38.4478 29.8914 38.468 30.1341C38.4727 30.1848 38.2555 30.296 38.2376 30.3175C37.9569 30.6532 38.5147 30.4236 38.5438 30.4445C38.9219 30.6993 38.5453 31.2587 38.8349 31.5508C38.8702 31.5856 39.071 31.3289 39.1544 31.437C39.7109 32.1555 40.1444 33.0152 40.3974 33.9047C40.4374 34.0434 40.1886 34.0782 40.1688 34.1004C39.8629 34.4527 40.4194 34.2225 40.4621 34.2496C40.7851 34.4719 40.5279 35.014 41.2609 34.8583C41.8242 36.2825 42.9245 37.3884 43.1039 39.0074C43.1067 39.0273 42.8344 39.1414 42.841 39.1806C42.9209 39.6606 43.2764 39.3628 43.9098 39.3552C44.0709 39.3571 43.593 39.8837 43.5596 39.9255C43.4371 40.0798 43.0169 40.2213 42.9984 40.2606C42.8569 40.5768 44.1028 39.8481 44.2396 40.0973C44.2417 40.1061 43.9911 40.2013 43.9791 40.2345C43.9613 40.2831 43.9798 40.3114 43.9994 40.3385C44.0214 40.3688 44.0451 40.398 44.0204 40.4537C43.9116 40.6953 43.326 41.0856 43.8025 41.1038C43.8638 41.105 44.5572 40.6684 44.6417 40.8993C44.675 40.9925 44.8992 41.3622 44.9134 41.4941C44.927 41.6252 44.6568 41.6835 44.6511 41.6966C44.5101 42.1538 44.3239 42.1187 43.9574 42.5179C43.5937 42.9176 44.6348 42.2669 44.7869 42.2568C44.9392 42.2478 44.8095 42.5984 44.7532 42.7006C44.6965 42.8023 44.5143 42.8221 44.4919 42.8964C44.3481 43.3854 45.0954 42.7229 45.3214 42.7241C45.856 42.7255 45.1775 43.3667 45.2274 43.6264C45.2409 43.6966 45.3913 43.5439 45.4385 43.5856C45.6234 43.7525 45.4518 44.0195 45.8138 44.1179C45.8728 44.1339 46.454 44.0397 46.1823 44.3668C46.143 44.4137 45.9194 44.482 45.928 44.5947C45.9407 44.7635 46.0392 45.0222 46.1885 45.1219C46.2988 45.1954 46.5467 44.884 46.5257 45.0729C46.5163 45.157 46.265 45.1646 46.263 45.3133C46.2606 45.4616 46.4362 45.7304 46.5066 45.8305C46.577 45.9303 46.7835 45.7251 46.8049 45.7235C46.9293 45.717 47.1678 45.8437 47.1784 45.8614C47.7531 46.7263 47.8608 47.7936 48.5416 48.5619C48.5948 48.6225 48.8175 48.4163 48.8283 48.4239C49.0807 48.585 48.2964 48.8343 48.1759 49.1385C48.6708 48.7869 48.6391 48.9406 48.7994 49.066C48.8769 49.1259 49.0467 48.956 49.0714 48.9501C49.4449 48.8706 49.1103 49.2012 49.0448 49.2733C48.8037 49.5385 49.2009 49.3979 49.0403 49.5758C48.8814 49.7532 48.5178 49.8198 48.6226 49.9724C48.8327 49.8971 49.2328 49.4724 49.3863 49.5393C49.9007 49.762 50.0911 50.6264 50.2681 51.08C50.2909 51.1377 50.3131 51.1889 50.3353 51.2315C50.5353 51.6178 50.6427 51.7144 50.7106 51.9686C50.8302 52.4276 51.0995 52.0645 51.4123 52.2063C51.7249 52.3501 50.7664 52.7669 50.5969 52.9167C50.4266 53.0651 50.6448 52.9835 50.5649 53.0882C50.4849 53.1925 50.3014 53.1807 50.3202 53.3015C50.3389 53.4217 50.8376 53.488 51.0592 53.406C51.5281 53.2312 51.9035 52.847 51.9008 53.2038C51.9003 53.2244 51.6362 53.3119 51.6462 53.3839C51.7331 53.9511 51.9929 54.4362 52.0924 54.9887C52.1059 55.0651 51.8101 55.1574 51.8148 55.2034C51.8634 55.6828 52.2299 55.2933 52.843 55.2246C52.1594 55.5497 51.8228 55.8932 51.9848 56.1872C52.0823 56.3645 52.3516 56.1709 52.6178 56.1685C52.6978 56.1674 52.5725 56.4044 52.7196 56.3491C53.2016 56.1705 53.6273 55.7725 53.6023 56.1823C53.6004 56.2007 53.3361 56.2978 53.3474 56.3511C53.4207 56.6982 53.8999 56.4678 54.137 56.7462C54.323 56.9649 54.3014 57.5628 54.424 57.8677C53.6924 58.2985 54.0201 58.4652 54.5835 58.2646C54.6596 58.4287 54.7756 58.5777 54.8339 58.7534C54.8447 58.7853 54.8535 58.8179 54.8597 58.8512C54.874 58.9271 54.6398 59.0155 54.622 59.0371C54.3393 59.3727 54.8722 59.1531 54.9151 59.1808C55.363 59.5005 55.1959 60.0681 55.7981 60.2765C55.8195 60.2838 56.3483 60.0206 56.0359 60.3443C56.0138 60.3657 55.7027 60.3586 55.7941 60.5652C55.8868 60.7742 55.8094 61.2951 56.195 61.4474C56.2881 61.484 56.8036 61.4405 56.5391 61.7487C56.5028 61.7897 56.3414 61.8451 56.2702 61.9133C56.0427 62.1294 56.6022 61.9164 56.1958 62.2388C55.789 62.5607 55.5413 62.9194 55.9856 63.0543C55.9988 63.0589 56.4591 62.9301 56.493 63.0254C56.5453 63.1738 56.5421 63.4163 56.6072 63.5666C56.6386 63.6384 56.8908 63.4807 56.901 63.4912C57.2543 63.9223 57.1439 64.3766 57.2183 64.9457C57.2313 65.0497 57.7053 65.2074 57.4665 65.4965C57.2052 65.8128 55.7645 66.039 56.2475 66.4164C56.4436 66.5749 58.2549 66.2396 57.4805 66.8915C57.557 66.9914 57.6148 67.095 57.6618 67.2031C57.885 67.7357 57.791 68.3501 58.2448 68.8208C58.2691 68.8464 58.7847 68.7796 58.8019 68.8529C58.8268 68.9623 58.6205 69.0971 58.6306 69.1772C58.6682 69.5169 58.9569 69.7427 59.0264 70.0593C59.0533 70.1794 58.8059 70.2152 58.8375 70.3577C58.869 70.4995 59.208 70.4933 59.119 70.7294C59.0507 70.9078 58.4642 71.2516 58.4499 71.4621C59.076 71.2722 59.1036 71.4034 59.3415 71.5833C59.3874 71.6173 59.5896 71.5014 59.6225 71.514C59.7609 71.5625 59.6066 71.7005 59.7537 71.7422C59.7891 71.7526 60.0025 71.6863 60.0435 71.6909C60.4008 71.7299 59.9923 72.1058 59.921 72.171C59.6505 72.4181 59.95 72.4016 59.8609 72.554C59.7723 72.7078 59.5623 72.5863 59.5288 72.7436C59.4593 73.0686 59.6066 73.412 59.6881 73.6946C59.7223 73.808 59.9807 73.6385 59.9921 73.6525C60.1387 73.8576 59.9169 74.1929 60.5224 74.1269C59.125 74.7851 60.7095 74.2164 60.5351 74.6384C60.5208 74.6717 59.8516 74.9571 59.714 74.8909C59.5771 74.8261 59.7366 74.5965 59.5314 74.5111C59.4833 74.4917 58.7735 74.5187 58.7254 74.5046C58.3503 74.3997 59.3714 74.029 59.4245 73.9997C59.996 73.6791 59.2241 73.6764 59.1561 73.6303C58.8453 73.4231 58.9155 73.1396 58.6844 72.9586C58.5342 72.8386 57.8519 73.0392 57.8347 72.9123C57.7789 72.4961 58.6816 72.0597 57.7445 71.9489C57.5442 71.924 56.8291 72.2396 57.3213 71.7703C57.3528 71.7422 57.8178 71.3598 57.4427 71.3479C57.3954 71.3462 57.1798 71.4157 57.1553 71.4014C56.9947 71.3033 57.1386 71.1612 57.0088 71.0402C56.8799 70.922 56.7004 70.7862 56.7193 70.5966C56.7301 70.4815 57.0895 70.2235 57.1716 70.1423C57.4095 69.9131 56.8984 69.9221 57.2124 69.7242C57.5279 69.5254 58.1052 69.5178 58.2528 69.2206C57.6919 69.3987 57.1127 69.5711 56.5471 69.7456C56.405 69.2554 56.4235 68.7214 56.2298 68.2477C56.2053 68.1892 55.9282 68.355 55.8942 68.2951C55.818 68.1592 55.8203 68.0113 55.8093 67.8604L55.8199 67.8893C55.8021 67.74 55.7784 67.5948 55.6877 67.4627C55.5364 67.2443 55.1317 67.0876 54.973 66.8727C55.565 66.5165 55.2368 66.242 55.2167 65.9844C55.2092 65.8939 55.3816 65.8424 55.4176 65.7649C55.5484 65.4723 55.0195 65.7668 54.9107 65.7372C54.4457 65.6131 55.7116 65.1509 55.5683 64.8544C55.5611 64.8381 54.8162 64.8956 54.7655 64.8889C54.4306 64.8301 54.9886 64.7727 54.9976 64.649C55.0149 64.427 55.1186 64.2257 54.8319 64.0876C54.7464 64.0454 54.2725 64.0761 54.5332 63.8113C54.5672 63.7764 54.7878 63.6885 54.7947 63.6698C54.8985 63.3362 54.2157 63.6382 53.9264 63.6156C53.6358 63.5904 54.0019 63.167 54.1126 63.0564C54.4025 62.7769 54.3014 63.0685 54.3385 63.059C54.7765 62.9348 54.6311 62.812 54.6068 62.6789C55.2529 62.336 55.1264 62.1829 54.5771 62.5391C54.5173 62.5783 54.6249 62.6404 54.6068 62.6789C53.9121 62.8933 53.7464 62.7691 54.2352 62.2582C54.4644 62.0196 54.8363 61.9372 54.5633 61.7115C54.4405 61.6115 54.0251 61.9014 53.843 61.8543C53.43 61.7515 53.6507 61.1888 53.4321 60.9616C53.3533 60.88 53.1697 61.1119 53.1077 61.0611C52.9404 60.9239 53.0313 60.6726 52.8339 60.5508C52.8158 60.5401 52.5923 60.7279 52.5564 60.6758C52.4713 60.5559 52.4058 60.4271 52.3466 60.2922C52.2097 59.9866 52.1181 59.6695 51.934 59.3571C51.8031 59.1356 51.4334 58.8252 51.3264 58.5793C51.1398 58.1561 51.2222 57.4594 50.9419 57.1738C50.7603 56.9871 50.5369 57.1777 50.3123 57.1805C49.8779 57.1875 50.2893 56.529 50.3573 56.4346C50.3595 56.4313 50.5255 56.5864 50.5973 56.4127C50.8328 56.2022 50.3597 56.436 50.3573 56.4346C50.4011 56.3734 50.2458 55.9658 50.1562 55.9194C50.1073 55.8942 49.8821 56.0513 49.8611 56.0356C49.3661 55.6576 49.0286 55.2042 48.8559 54.6575C48.8557 54.6462 49.1269 54.5042 49.1231 54.4795C49.0751 54.1299 48.6472 54.1435 48.322 54.0366C47.9966 53.9296 47.9536 53.7213 48.314 53.3097C48.1534 53.1796 48.1953 52.8187 48.2221 52.6053C48.2317 52.5301 48.1746 52.5199 48.0962 52.5386C47.95 52.5695 47.7328 52.6985 47.7209 52.6944C47.1377 52.5005 47.2666 52.0787 47.0354 51.631C46.9255 51.4166 46.596 51.0701 46.4005 50.888C46.246 50.7461 46.296 50.5664 46.1196 50.4574C46.0958 50.4426 45.887 50.6077 45.8742 50.6067C45.4941 50.6019 46.0934 50.3361 46.1673 50.2372C46.4362 49.8773 46.5735 49.6765 46.2625 49.5574C46.1911 49.5299 45.3081 49.88 45.2011 49.8134C45.0637 49.7262 45.3758 49.594 45.2252 49.5077C45.2125 49.5001 45.0398 49.6129 44.9966 49.5278C44.7941 49.134 44.6404 48.6634 44.3812 48.2857C44.3464 48.2337 44.111 48.4746 44.0561 48.4021C43.799 48.0619 43.5646 47.6583 43.4796 47.2252C43.4595 47.118 43.6884 47.0533 43.7349 46.9989C44.0157 46.6691 43.4053 46.8162 43.3789 46.7946C42.7393 46.2943 42.9062 45.5196 42.2913 44.9825C42.2571 44.9544 41.5389 44.9965 41.9407 44.5939C41.9673 44.5667 42.3818 44.1608 41.9852 44.2434C41.9605 44.2486 41.7548 44.4714 41.7019 44.3211C41.6498 44.1722 41.3552 44.0482 41.5248 43.7033C41.5773 43.5931 41.987 43.179 41.4969 43.2209C41.4634 43.2254 40.427 43.4462 40.9802 43.0055C41.0714 42.9332 41.7256 42.5908 41.2766 42.5623C41.1897 42.557 41.087 42.7114 40.9371 42.6533C40.7414 42.5789 40.7494 42.337 40.5098 42.2402C40.4696 42.2258 40.4216 42.2154 40.3636 42.2107C40.2947 42.2059 39.7764 42.3027 40.0483 42.0077C40.0907 41.9611 40.3255 41.8765 40.3163 41.8026C40.2749 41.4529 39.9625 41.2301 39.949 40.8569C39.9428 40.7231 40.3209 40.5826 40.3536 40.4228C40.3859 40.2621 40.3534 39.9952 40.1304 39.971C39.9075 39.9471 39.4243 40.3828 39.2856 40.2411C38.6785 39.6185 38.5864 38.7143 38.2074 37.9617C38.1512 37.85 38.0073 38.0536 37.9108 37.8983C37.5538 37.3239 36.7722 36.436 36.8783 35.685C36.9627 35.0815 37.5232 35.4334 37.4695 35.0441C37.4426 34.8564 36.7145 35.0825 36.6731 35.0596C36.2581 34.8366 36.3858 34.4229 36.1057 34.1649C36.0477 34.1118 35.8337 34.3338 35.7873 34.287C35.6263 34.1282 35.6162 33.8621 35.4828 33.6976C35.4224 33.6244 35.2389 33.7618 35.2074 33.6794C35.1296 33.4837 35.1119 33.278 35.1827 32.9922C35.1891 32.9661 35.4956 32.9168 35.4212 32.7819C35.3003 32.5641 35.3091 32.1896 34.9696 32.07C34.8681 32.035 34.43 32.3195 34.6315 31.9695C34.6734 31.8963 35.2237 31.5909 34.6545 31.713C34.5594 31.7323 33.7552 31.843 34.0503 31.4374C34.128 31.3305 34.4885 30.9465 34.3645 30.9071C34.3461 30.9029 34.1444 31.1055 34.0747 31.0512C34.0062 30.9962 33.9452 30.9351 33.8874 30.8712C33.7493 30.7215 33.6248 30.5461 33.4489 30.4051C33.3843 30.355 33.2136 30.6171 33.1249 30.537C32.8758 30.3104 32.6988 29.9361 32.5789 29.6149C32.5363 29.4977 32.7798 29.4241 32.796 29.4017C33.0584 29.0379 32.5422 29.305 32.4874 29.2864C32.1542 29.1688 32.2398 28.8279 32.0202 28.6481C31.9601 28.598 31.7705 28.803 31.7419 28.8053C31.4582 28.8216 31.9234 28.6242 31.9094 28.513C31.8699 28.1987 31.6696 27.9623 31.4755 27.7563C31.4039 27.6809 31.2159 27.9621 31.1546 27.8922C30.786 27.4813 30.4712 26.9992 30.2943 26.4579C30.2617 26.3559 30.4973 26.2638 30.53 26.2139C30.7608 25.8663 30.2028 26.0052 30.1325 25.9946C29.813 25.9487 29.9368 25.7506 29.7875 25.6125C29.0551 24.9407 28.4704 23.8657 28.0158 23.0406C27.4221 21.9647 27.0933 21.0413 26.4195 20.0378C26.377 19.9735 26.1374 20.2071 26.097 20.1534C25.8885 19.8663 25.7095 19.5512 25.542 19.2318C25.3248 18.8151 25.1172 18.3921 24.8402 17.9986C24.8022 17.9437 24.5768 18.1752 24.5067 18.0918C24.3606 17.9212 24.2427 17.6679 24.2241 17.4248C24.2144 17.3065 24.5167 17.3097 24.5023 17.1934C24.4697 16.9225 24.3606 16.671 24.1944 16.4622C24.123 16.3734 23.9227 16.6702 23.8515 16.543C23.3617 15.6808 22.8625 14.8212 22.7886 13.7272C22.7836 13.6521 23.3352 13.3195 23.1611 13.2403C22.9957 13.307 22.807 13.3976 22.6332 13.4752C22.089 12.5133 21.7366 11.464 21.3811 10.4183C21.2722 10.0934 21.1586 9.77018 21.0325 9.44914C21.0108 9.3942 20.7373 9.62013 20.6938 9.51469C20.4444 8.91005 20.1021 8.34921 20.1444 7.5705C20.1481 7.49287 20.7141 7.29776 20.5525 7.14268C20.5231 7.11513 20.3316 6.85663 20.1807 6.82874C20.1585 6.82575 19.921 6.98333 19.8756 6.89197C19.614 6.35267 19.4376 5.71367 19.3981 5.02368C19.3927 4.91297 19.7103 4.93242 19.7093 4.85382C19.7014 4.30283 19.3268 3.74949 19.5031 3.13943C19.6264 2.73925 20.1567 2.80493 20.6365 2.56626C20.7039 2.53324 20.6955 2.32647 20.9886 2.2934C21.7242 2.21259 22.538 2.22391 23.321 2.12512C23.489 2.10438 23.2952 1.94598 23.7114 2.01918C23.7389 2.02464 23.8844 2.13147 24.0261 2.14387C24.1238 2.1525 24.418 2.08933 24.5443 2.11167C24.6704 2.1321 24.426 2.20163 24.578 2.24296C24.732 2.28154 25.0637 2.20421 25.1222 2.3068ZM48.3126 51.6077C48.4607 51.3141 47.575 51.8725 47.8814 51.8813C47.8972 51.881 48.3055 51.6224 48.3126 51.6077ZM57.1694 68.4662C57.5382 68.1197 56.8498 68.2075 56.561 68.4629C56.272 68.7164 57.0576 68.5716 57.1694 68.4662ZM58.1729 70.4062C58.4437 70.0616 57.0208 70.4863 57.386 70.6392C57.4069 70.6484 58.1572 70.4264 58.1729 70.4062ZM20.908 3.34013C20.9208 3.33476 20.9058 3.19204 20.8919 3.19134C20.55 3.17702 20.582 3.47312 20.908 3.34013ZM59.1756 72.3471C59.3437 72.2124 59.0569 72.0737 58.8472 72.239C58.6783 72.3713 58.9661 72.5135 59.1756 72.3471ZM44.7909 43.8922C44.803 43.8821 44.7679 43.7949 44.6929 43.8413C44.4515 43.991 44.5865 44.062 44.7909 43.8922ZM60.5952 73.7819C60.6472 74.3284 59.5036 74.8777 59.5279 74.2794C59.532 74.1702 59.9558 74.4281 60.0382 74.2744C60.1877 73.9912 59.4003 73.9802 59.755 73.6503C59.8201 73.5904 60.5949 73.7501 60.5971 73.7825C60.5964 73.7823 60.5958 73.7821 60.5952 73.7819ZM49.3085 50.8344C49.3182 50.824 49.2584 50.71 49.2452 50.715C48.9296 50.8404 49.0504 51.0709 49.3085 50.8344ZM42.6848 38.8459C42.7076 38.8261 42.5842 38.5516 42.5552 38.5556C42.0056 38.6877 42.2528 39.2419 42.6848 38.8459ZM54.4072 57.8837C54.7649 57.8296 54.885 57.9517 54.5836 58.2639C54.5314 58.1354 54.4608 58.0125 54.4072 57.8837ZM2.9428 29.7215C3.47072 29.6605 4.15492 29.8154 4.65396 30.0041C4.81035 30.0627 4.70893 30.2383 4.81518 30.2873C5.0222 30.3829 5.23262 30.3164 5.43162 30.428C5.49736 30.466 5.37425 30.7466 5.44363 30.7797C5.82258 30.9589 6.20111 30.9364 6.58194 31.0555C8.39275 31.6294 10.0967 32.0281 11.8907 32.4052C11.9428 32.4164 11.9956 32.4277 12.049 32.439C12.6492 32.5658 13.3572 32.9218 14.0086 32.879C14.0835 32.8737 14.0692 32.6124 14.0856 32.5928C14.3418 32.2945 14.21 32.8036 14.3478 32.8888C14.8921 33.2249 15.5313 33.3164 16.0972 33.2735C16.3362 33.2542 16.1516 32.7207 16.3602 33.0307C16.3748 33.0517 16.2875 33.3182 16.3495 33.3538C16.4921 33.4341 16.7732 33.4125 16.8866 33.4453C17.104 33.5098 17.1378 33.5102 17.347 33.5333C17.6308 33.567 17.9575 33.7341 18.2685 33.7001C18.3353 33.6921 18.274 33.4046 18.3829 33.3665C18.4923 33.3285 18.763 33.3768 18.8512 33.451C18.9388 33.5253 18.8796 33.7416 18.8916 33.7935C18.9889 34.2308 19.3598 33.6696 19.4027 33.6586C20.1726 33.4753 20.7857 33.8642 21.4897 33.9198C22.0228 33.9611 22.6045 33.8947 23.111 33.9483C23.7144 34.0131 24.219 34.2027 24.8091 34.2185C24.8716 34.2205 24.822 33.886 24.8983 33.8877C25.704 33.9066 26.4987 33.9963 27.2845 34.2686C27.2878 34.2697 27.291 34.2708 27.2942 34.2719C27.373 34.2998 27.2506 34.5823 27.3283 34.6274C27.8046 34.8974 28.5527 35.5169 28.9209 34.2744C29.2517 34.3437 29.6538 34.4181 29.9382 34.6892C30.1216 34.8636 29.9165 35.1683 30.1611 35.0472C30.2162 35.0202 30.1623 34.7402 30.2437 34.7206C30.5867 34.6385 30.9502 34.7485 31.2916 34.6238C31.361 34.5977 31.3557 34.3493 31.3773 34.3058C31.5577 33.9535 31.7954 34.5643 31.8518 34.6107C32.2814 34.9574 32.6143 34.8468 33.0308 34.8756C33.1273 34.8824 33.0298 34.5443 33.1231 34.5389C33.6075 34.5153 34.1058 34.5681 34.5707 34.738C34.6744 34.7766 34.5642 35.0552 34.6131 35.0881C34.8289 35.2299 34.9021 34.6972 35.1093 34.8227C35.1531 34.8484 35.1165 35.0897 35.1235 35.1167C35.2325 35.5407 35.3709 34.9535 35.4043 34.942C35.8281 34.7824 36.0648 35.4127 36.4727 35.3432C36.5212 35.3342 36.4266 35.0226 36.5622 35.0162C37.4652 34.9715 38.4166 35.0967 39.298 35.3797C39.4344 35.4232 39.3262 35.6496 39.3337 35.6783C39.4553 36.1282 39.5753 35.5373 39.6211 35.5168C39.9835 35.3704 40.2975 35.8833 40.5694 35.1848C41.8257 35.4435 43.1035 35.2498 44.3477 35.595C44.5879 35.6621 44.8337 35.7501 45.0711 35.8655C45.0899 35.8738 45.0411 36.165 45.0785 36.1802C45.5316 36.3678 45.4627 35.9081 45.7972 35.3672C45.8823 35.2314 46.0786 35.9157 46.0966 35.9661C46.1619 36.1516 46.061 36.5831 46.0842 36.6196C46.2763 36.9067 46.322 35.4643 46.6015 35.479C46.6101 35.4819 46.5589 35.745 46.581 35.7727C46.6494 35.8594 46.7276 35.758 46.7943 35.8533C46.9472 36.0736 46.9657 36.7767 47.238 36.3834C47.2728 36.3324 47.2701 35.5125 47.5194 35.5654C47.6178 35.5871 48.0613 35.5987 48.1817 35.659C48.302 35.7191 48.2018 35.9774 48.2099 35.9893C48.5219 36.3571 48.3874 36.4939 48.5235 37.0192C48.6595 37.5426 48.6862 36.3153 48.7624 36.1826C48.8385 36.0504 49.0653 36.3524 49.1194 36.4559C49.1733 36.5594 49.0883 36.7222 49.1382 36.7819C49.468 37.1727 49.3301 36.1836 49.4583 35.9963C49.7616 35.5531 49.9188 36.4744 50.1644 36.5791C50.2309 36.6074 50.1884 36.3971 50.2502 36.3816C50.4947 36.3228 50.6202 36.6152 50.9099 36.3729C50.9571 36.3334 51.2124 35.8016 51.3295 36.2114C51.346 36.2705 51.2739 36.493 51.3728 36.5503C51.5207 36.6362 51.7918 36.7035 51.9608 36.6386C52.0856 36.5906 51.9712 36.2087 52.116 36.3345C52.1803 36.3906 52.0406 36.6005 52.1626 36.6878C52.2838 36.775 52.6079 36.7867 52.7315 36.7874C52.8548 36.7878 52.8064 36.5006 52.8176 36.4822C52.8849 36.3771 53.1298 36.2564 53.1506 36.2581C54.2047 36.2938 55.1408 36.8365 56.1747 36.7492C56.2559 36.7428 56.2229 36.441 56.2355 36.437C56.5192 36.331 56.2477 37.1087 56.4212 37.3872C56.4356 36.7804 56.5401 36.8977 56.7391 36.8448C56.8348 36.8188 56.8001 36.581 56.8103 36.5576C56.9735 36.2114 57.0377 36.6776 57.056 36.7733C57.1232 37.1255 57.2513 36.7238 57.2979 36.9593C57.3444 37.193 57.1772 37.5232 57.3634 37.5317C57.4305 37.3188 57.3319 36.7433 57.4793 36.6614C58.0349 36.3513 58.9972 36.8644 59.4204 36.9401C59.8449 37.0159 59.9845 36.9854 60.2279 37.0809C60.6655 37.2533 60.5325 36.8222 60.8233 36.6491C61.1143 36.4761 60.909 37.5 60.9336 37.7248C60.9581 37.9495 61.0172 37.724 61.058 37.8494C61.0986 37.9748 60.9822 38.1185 61.0943 38.1722C61.2058 38.2259 61.5479 37.8525 61.6049 37.623C61.7244 37.1369 61.619 36.6109 61.9091 36.8129C61.9254 36.8247 61.8529 37.0859 61.913 37.1233L61.9467 37.1266C61.9475 37.1271 61.9482 37.1276 61.949 37.128C62.4436 37.4003 62.9926 37.4687 63.5049 37.6996C63.5757 37.7318 63.484 38.0279 63.5252 38.05C63.9523 38.2808 63.8382 37.7583 64.1231 37.212C64.0092 37.9603 64.1074 38.4321 64.4464 38.4615C64.6495 38.4793 64.6378 38.1477 64.7853 37.9251C64.8299 37.858 64.9566 38.0936 64.9932 37.9406C65.1125 37.4405 65.0169 36.8656 65.3455 37.1135C65.3599 37.1252 65.2939 37.3991 65.3451 37.4192C65.6772 37.5505 65.7503 37.0238 66.1182 36.981C66.4066 36.9475 66.8988 37.298 67.2239 37.3671C67.1731 38.2146 67.4946 38.0362 67.648 37.4577C67.8596 37.4921 68.0907 37.47 68.2927 37.5604C68.3621 37.5913 68.3042 37.8346 68.3119 37.8615C68.4294 38.2841 68.5489 37.7195 68.5956 37.6993C69.1034 37.5054 69.4905 37.9544 69.985 37.5539C70.0026 37.5395 70.0557 36.9516 70.1641 37.3873C70.1711 37.4173 70.0021 37.6785 70.2251 37.709C70.4482 37.7396 70.8567 38.0739 71.1799 37.8147C71.2581 37.7524 71.4701 37.2826 71.6063 37.6632C71.6244 37.7148 71.5945 37.8828 71.6197 37.9781C71.701 38.282 71.7801 37.6889 71.8687 38.1999C71.9454 38.6423 72.1165 38.9937 72.3745 38.8629L72.388 38.8633C72.4266 38.8419 72.4673 38.809 72.5101 38.7629C72.5204 38.753 72.6027 38.282 72.7034 38.2912C72.8569 38.3062 73.0822 38.4081 73.2459 38.4075C73.3255 38.407 73.2789 38.1129 73.2928 38.1078C73.8255 37.9511 74.1974 38.2174 74.7641 38.3382C74.8666 38.3609 75.1744 37.9649 75.3686 38.2838C75.5844 38.6329 75.3416 40.0698 75.8509 39.7337C76.0586 39.5993 76.3452 37.7761 76.6977 38.7282C77.4165 38.5048 78.0678 39.0008 78.7898 38.6812C78.8221 38.667 78.9349 38.1594 79.0109 38.168C79.1237 38.1818 79.1799 38.4215 79.2596 38.439C79.5943 38.5185 79.9074 38.3224 80.2311 38.3628C80.3539 38.3777 80.304 38.6228 80.4506 38.6407C80.5977 38.6584 80.7037 38.3367 80.8985 38.4993C81.0459 38.6233 81.1743 39.2908 81.3704 39.3745C81.3992 38.7209 81.5357 38.7387 81.7846 38.5745C81.8326 38.5426 81.7902 38.3133 81.8133 38.2865C81.9076 38.1723 81.9847 38.3639 82.0749 38.2393C82.0968 38.2093 82.1058 37.9861 82.1242 37.949C82.2812 37.6254 82.5019 38.1367 82.5394 38.2258C82.6833 38.5639 82.7681 38.2765 82.8833 38.4121C82.9982 38.5478 82.8119 38.7039 82.9489 38.789C83.2323 38.965 83.6064 38.9453 83.9004 38.9696C84.0178 38.9779 83.9518 38.6762 83.969 38.6705C84.2165 38.6065 84.4457 38.9359 84.612 38.3497C84.7001 39.8926 84.7666 38.2084 85.0991 38.5348C85.1253 38.5612 85.119 39.2884 85.0083 39.389C84.8977 39.4895 84.7515 39.2541 84.5973 39.4125C84.5606 39.4496 84.3291 40.1192 84.3005 40.1591C84.0754 40.4704 84.0988 39.3849 84.0905 39.3248C83.995 38.6759 83.7184 39.397 83.6531 39.4448C83.3527 39.6635 83.1131 39.5004 82.8636 39.6561C82.7005 39.7566 82.6569 40.4665 82.5339 40.4399C82.1252 40.3522 82.015 39.3557 81.5958 40.2019C81.5061 40.3825 81.5639 41.1618 81.2848 40.5413C81.2673 40.5022 81.0633 39.9364 80.9236 40.2859C80.9061 40.33 80.8998 40.5564 80.8779 40.5748C80.7317 40.6935 80.6424 40.5104 80.4851 40.5924C80.3268 40.6743 80.1379 40.798 79.9627 40.7166C79.8569 40.6679 79.7306 40.2426 79.682 40.1381C79.5458 39.837 79.3772 40.3211 79.2965 39.9587C79.2145 39.5945 79.4042 39.0487 79.1722 38.8092C79.15 39.3973 79.1162 40.0007 79.0888 40.592C78.5703 40.5596 78.0627 40.3592 77.5405 40.3761C77.4758 40.3788 77.5364 40.6962 77.4669 40.7073C77.175 40.7525 76.9238 40.5228 76.6168 40.608C76.3825 40.6751 76.1182 41.0062 75.8713 41.0872C75.7301 40.4118 75.3613 40.6354 75.0971 40.5704C75.0037 40.5479 75.0124 40.3682 74.9469 40.3087C74.7013 40.0885 74.8107 40.685 74.7403 40.7777C74.4392 41.1735 74.4324 39.8265 74.0855 39.8552C74.0694 39.8563 73.8306 40.5711 73.8001 40.6154C73.6005 40.9042 73.7716 40.3651 73.6493 40.3104C73.423 40.2103 73.2687 40.0367 73.0028 40.2428C72.9224 40.3039 72.7319 40.7484 72.5848 40.3996C72.5655 40.3539 72.5808 40.1169 72.565 40.1027C72.4752 40.0286 72.4131 40.0506 72.364 40.1235L72.3151 40.1219C72.2022 40.2789 72.1448 40.683 72.0253 40.8511C71.8515 41.0958 71.6245 40.5702 71.5799 40.4197C71.4636 40.0303 71.6898 40.2605 71.6988 40.2232C71.8044 39.7794 71.6175 39.8481 71.4791 39.804C71.4917 39.0727 71.2934 39.1077 71.3354 39.7612C71.3403 39.8325 71.4525 39.7693 71.4791 39.804C71.3237 40.515 71.1048 40.5971 70.8962 39.917C70.7986 39.5982 70.9202 39.2369 70.5753 39.3559C70.4187 39.4095 70.4561 39.915 70.3143 40.0462C69.9903 40.3454 69.6073 39.8586 69.2832 39.9183C69.1656 39.94 69.2667 40.2203 69.186 40.2446C68.9712 40.3099 68.7943 40.095 68.5768 40.191C68.5571 40.2001 68.591 40.4904 68.5247 40.491C68.0215 40.5015 67.5926 40.2963 67.0671 40.2643C66.8127 40.2491 66.3495 40.3836 66.0861 40.3365C65.63 40.2569 65.0919 39.8029 64.6922 39.8771C64.4303 39.9242 64.4665 40.2158 64.342 40.4039C64.0987 40.7685 63.7707 40.058 63.7301 39.9485C63.7288 39.945 63.9556 39.8948 63.8492 39.7378C63.8054 39.4247 63.7329 39.9474 63.7301 39.9485C63.7013 39.878 63.2627 39.7752 63.1696 39.8217C63.119 39.8474 63.1212 40.1221 63.0952 40.1303C62.5833 40.286 62.0716 40.3165 61.5668 40.2056L61.7029 40.2186C61.6011 40.2013 61.4989 40.1779 61.3963 40.1482C61.3863 40.142 61.4227 39.838 61.3989 39.8272C61.0677 39.6684 60.8235 40.0265 60.5296 40.2289C60.2339 40.431 60.0173 40.3415 59.8876 39.8064C59.6694 39.8575 59.3862 39.6053 59.2196 39.4526C59.0554 39.3 58.9901 39.8921 58.9739 39.9027C58.4683 40.2451 58.2156 39.8861 57.7242 39.7988C57.4893 39.7562 57.0156 39.8098 56.7569 39.8571C56.5519 39.8955 56.4388 39.7479 56.2477 39.8241C56.2218 39.8342 56.2289 40.1003 56.2205 40.11C55.9916 40.412 56.1357 39.7726 56.1009 39.6542C55.9744 39.2237 55.8937 38.9935 55.6149 39.1728C55.5507 39.2138 55.3077 40.132 55.1927 40.1789C55.0432 40.238 55.1207 39.9082 54.9633 39.9786C54.9499 39.9843 54.9385 40.1903 54.8453 40.1748C54.4129 40.1056 53.947 39.9537 53.4935 39.9439C53.4317 39.9418 53.4888 40.2736 53.3992 40.2759C52.9782 40.2865 52.5208 40.2439 52.1235 40.0643C52.0258 40.019 52.1037 39.7946 52.0864 39.7253C51.9797 39.3058 51.751 39.8901 51.719 39.8995C50.9549 40.1376 50.4191 39.561 49.6435 39.7709C49.6016 39.7834 49.2433 40.4035 49.1356 39.8461C49.1281 39.809 49.0227 39.239 48.8746 39.6153C48.8654 39.6389 48.9354 39.9332 48.7844 39.8945C48.6333 39.8558 48.3775 40.0342 48.186 39.7041C48.1253 39.6001 48.0024 39.0308 47.7775 39.4657C47.7624 39.4961 47.3987 40.488 47.3305 39.7852C47.3196 39.6696 47.38 38.9334 47.1216 39.2979C47.0723 39.3686 47.1449 39.5377 47.0203 39.6336C46.8303 39.7817 46.5987 39.5707 46.358 39.887C46.3161 39.943 46.1234 40.4345 46.0105 40.0475C45.9928 39.9869 46.0456 39.7428 45.9768 39.7115C45.651 39.5616 45.2929 39.7082 44.9615 39.5209C44.8445 39.4551 44.9254 39.0601 44.8058 38.9473C44.6879 38.8345 44.4364 38.7196 44.2984 38.8955C44.1861 39.0379 44.2383 39.485 44.1581 39.6724C44.1394 39.7165 44.1135 39.7463 44.0762 39.7542C43.2131 39.9354 42.3758 39.5273 41.5217 39.4369C41.3944 39.4235 41.4913 39.655 41.3016 39.6514C40.6083 39.6394 39.4003 39.8025 38.817 39.2944C38.3515 38.8875 38.9696 38.6189 38.6087 38.4461C38.4347 38.3636 38.2075 39.093 38.165 39.1144C37.7353 39.3324 37.4572 38.993 37.0733 39.0767C36.9945 39.0941 37.0578 39.3964 36.9909 39.4079C36.7622 39.4499 36.5271 39.3058 36.3099 39.3205C36.2119 39.3278 36.2196 39.557 36.1304 39.5353C35.9157 39.4861 35.7329 39.3816 35.5321 39.158C35.5138 39.1376 35.6558 38.8595 35.4969 38.8416C35.2417 38.8137 34.9302 38.5877 34.6258 38.7919C34.535 38.8534 34.507 39.3751 34.3348 39.0057C34.2988 38.9286 34.3784 38.3043 34.1336 38.8353C34.0931 38.9236 33.6867 39.636 33.5289 39.1565C33.4871 39.0303 33.3903 38.5116 33.2806 38.587C33.2657 38.5991 33.3093 38.8822 33.2203 38.9052C32.9071 38.9815 32.5848 38.9353 32.2636 39.0069C32.1777 39.0266 32.289 39.3231 32.1613 39.3431C31.8096 39.3985 31.3797 39.3019 31.0447 39.1929C30.9213 39.1521 31.0208 38.9166 31.0131 38.89C30.8896 38.4569 30.7718 39.0261 30.7212 39.0569C30.4075 39.2407 30.1918 38.9583 29.9087 39.0139C29.8306 39.0285 29.8698 39.3052 29.853 39.3287C29.6803 39.558 29.8268 39.0734 29.7292 39.0136C29.4559 38.8441 29.1402 38.8478 28.853 38.8658C28.7474 38.8729 28.8464 39.197 28.7517 39.1996C28.1911 39.2211 27.6128 39.1547 27.0798 38.9445C26.9796 38.9044 27.0599 38.6644 27.0422 38.6072C27.0313 38.5715 27.0195 38.543 27.0068 38.521C26.8775 38.2965 26.6662 38.7297 26.6181 38.7729C26.3784 38.9895 26.3049 38.7677 26.1036 38.7947C25.1202 38.9302 23.9305 38.7019 23.0217 38.5448C21.836 38.3415 20.9302 38.0361 19.7858 38.0005C19.7133 37.9979 19.7587 38.3284 19.6958 38.3304C18.8837 38.3404 18.0995 38.1434 17.2812 38.1614C17.2141 38.1623 17.2812 38.4784 17.1725 38.4902C16.9517 38.5167 16.6718 38.4731 16.4613 38.3537C16.3571 38.2959 16.5285 38.0466 16.4232 37.9938C16.1799 37.8704 15.9096 37.8215 15.6465 37.8446C15.5337 37.8551 15.6699 38.186 15.5242 38.1749C14.539 38.1062 13.5622 38.0547 12.6103 37.5267C12.5442 37.4903 12.5619 36.8463 12.4028 36.9504C12.3698 37.1257 12.3444 37.3335 12.316 37.5217C11.9393 37.501 11.5668 37.4571 11.1944 37.3972C10.1399 37.2273 9.11181 36.9417 8.06668 36.7523C8.0072 36.7417 8.05778 37.0935 7.94257 37.0746C7.28029 36.9661 6.62506 36.9569 6.02102 36.5246C5.96075 36.4822 6.08161 35.8957 5.87708 35.9568C5.83962 35.9679 5.5409 36.0051 5.44876 36.1233C5.43609 36.1413 5.44872 36.4249 5.35624 36.4201C4.81829 36.3872 4.28647 36.2565 3.7882 36.0358C3.70772 35.9997 3.82571 35.7127 3.76818 35.6844C3.35611 35.4854 2.87982 35.6759 2.48662 35.384C2.22087 35.1878 2.35012 34.6805 2.22226 34.1681C2.20286 34.0957 2.0288 34.0769 2.03049 33.7827C2.03546 33.0425 2.15786 32.2368 2.15319 31.4474C2.15272 31.2772 1.88752 31.4503 2.05597 31.0459C2.0679 31.0188 2.26032 30.8902 2.3122 30.7533C2.34867 30.6586 2.30324 30.357 2.37558 30.2369C2.44878 30.117 2.51044 30.371 2.62762 30.232C2.74552 30.0916 2.71636 29.7487 2.9428 29.7215ZM58.4791 38.7703C58.3376 38.4739 58.2411 39.5166 58.433 39.2789C58.4424 39.2661 58.4864 38.7848 58.4791 38.7703ZM78.0808 39.5702C77.8779 39.1046 77.7226 39.7808 77.8638 40.14C78.005 40.4989 78.1425 39.7114 78.0808 39.5702ZM80.2729 39.2833C80.0366 38.9127 79.9594 40.3957 80.2294 40.1027C80.2451 40.0862 80.2867 39.3048 80.2729 39.2833ZM2.93355 34.0639C2.93247 34.0499 2.80608 34.0281 2.80202 34.0417C2.71404 34.3692 2.96418 34.4123 2.93355 34.0639ZM82.4535 38.987C82.384 38.7833 82.1538 39.0067 82.2401 39.2598C82.3093 39.4634 82.5396 39.2402 82.4535 38.987ZM50.1392 37.0895C50.1376 37.0738 50.0449 37.0539 50.0412 37.142C50.0299 37.4259 50.1651 37.354 50.1392 37.0895ZM86.1372 39.1568C85.5991 39.066 85.3378 37.8226 85.9276 37.9973C86.034 38.029 85.6706 38.3731 85.8012 38.4919C86.0382 38.7085 86.2569 37.9511 86.4853 38.3801C86.5261 38.4585 86.1674 39.1645 86.1361 39.1584C86.1364 39.1579 86.1368 39.1573 86.1372 39.1568ZM58.4734 37.5095C58.4711 37.4954 58.3423 37.4733 58.3381 37.4868C58.2448 37.8134 58.5045 37.8582 58.4734 37.5095ZM44.7096 36.1344C44.7035 36.1045 44.4035 36.0627 44.3928 36.0894C44.2106 36.6248 44.8153 36.711 44.7096 36.1344ZM67.2279 37.39C67.3853 37.0633 67.556 37.0324 67.6474 37.4572C67.5089 37.4281 67.3671 37.4177 67.2279 37.39Z" fill="#4C422C"/>
</g>
<defs>
<filter id="filter0_g_8_5295" x="0" y="0" width="88.4885" height="76.9009" filterUnits="userSpaceOnUse" color-interpolation-filters="sRGB">
<feFlood flood-opacity="0" result="BackgroundImageFix"/>
<feBlend mode="normal" in="SourceGraphic" in2="BackgroundImageFix" result="shape"/>
<feTurbulence type="fractalNoise" baseFrequency="0.5 0.5" numOctaves="3" seed="5566" />
<feDisplacementMap in="shape" scale="4" xChannelSelector="R" yChannelSelector="G" result="displacedImage" width="100%" height="100%" />
<feMerge result="effect1_texture_8_5295">
<feMergeNode in="displacedImage"/>
</feMerge>
</filter>
</defs>
</svg>
