<svg width="67" height="69" viewBox="0 0 67 69" fill="none" xmlns="http://www.w3.org/2000/svg">
<g filter="url(#filter0_g_8_5292)">
<path d="M33.1904 8.37469C32.1807 8.43725 30.8457 8.34144 29.835 8.23968C29.5175 8.20814 29.6721 8.01753 29.452 7.98828C29.0219 7.93206 28.6304 8.04232 28.2086 7.98274C28.0685 7.96225 28.2222 7.65787 28.0749 7.64329C27.2934 7.56921 26.5716 7.70182 25.8241 7.75124C25.8027 7.75241 25.7812 7.75354 25.7595 7.75463C24.6827 7.80302 23.4495 8.13886 22.1149 8.54009C20.6382 8.97663 19.1506 9.64559 17.8132 10.4655C16.8811 11.0439 15.9991 11.5806 15.1747 12.1614C14.2423 12.81 13.0842 13.5578 12.2019 14.4766C12.0868 14.5965 11.9845 14.7172 11.8914 14.8439C11.8098 14.9569 12.0585 15.0652 12.0572 15.0988C12.0491 15.61 11.7364 15.1744 11.5163 15.3445C10.6968 15.9857 10.2677 16.9453 9.90736 18.2112C9.88043 18.2987 9.85234 18.3903 9.82687 18.4759C9.66682 19.0096 10.3455 18.6775 9.87445 19.093C9.84235 19.1216 9.63828 18.892 9.55613 19.0211C9.36987 19.316 9.17594 19.9314 9.05802 20.1658C8.82968 20.6173 8.80097 20.6951 8.62118 21.1337C8.37395 21.731 7.962 22.3934 7.78265 23.0472C7.74555 23.1865 8.07451 23.1078 8.0404 23.3367C8.0056 23.5595 7.80301 24.0746 7.70024 24.2166C7.69691 24.221 7.69362 24.2252 7.69036 24.2291C7.58285 24.3649 7.38847 24.2433 7.33175 24.2582C6.84584 24.3986 7.29646 25.1903 7.30014 25.272C7.2833 26.6954 6.93503 27.9878 6.64969 29.4271C6.61779 29.5799 6.59141 29.7397 6.5719 29.9049C6.44361 31.0006 6.53897 32.2487 6.5614 33.3469C6.59289 34.6424 6.5322 35.844 6.787 36.9449C6.81418 37.0495 7.10794 36.8597 7.13844 36.9677C7.14679 36.9963 7.15446 37.0205 7.16069 37.0385C7.68748 38.6904 8.21737 40.3788 8.56925 42.1413C8.6053 42.3228 8.2559 42.189 8.27537 42.3755C8.31087 42.6992 8.33738 43.0826 8.38787 43.4702C8.505 44.4214 8.83586 45.4115 9.84608 45.5204C10.0634 46.2277 10.3558 47.0838 10.3796 47.7999C10.3958 48.2626 9.94175 47.9971 10.273 48.4367C10.3473 48.5353 10.5408 48.2828 10.6339 48.4411C10.8494 48.8073 11.0222 49.2154 11.2073 49.632C11.3495 49.9527 11.4961 50.2539 11.6835 50.5076C11.7696 50.6225 11.9778 50.4818 12.0346 50.4979C12.4936 50.6321 12.2068 51.3473 12.2347 51.4722C12.3433 52.0701 12.6224 52.4504 12.9487 52.7486C13.1376 52.9219 13.3431 53.0881 13.5682 53.2819C13.7253 53.4166 13.7525 53.0049 13.9106 53.1241C14.7392 53.7435 15.6704 54.5228 16.3898 55.3653C16.552 55.5546 16.1949 55.6164 16.261 55.7162C16.5532 56.1545 17.0007 55.8383 17.2839 56.2591C17.3426 56.3463 17.1348 56.4843 17.1303 56.5165C17.0602 57.0236 17.6516 56.7683 17.716 56.8117C17.7992 56.8657 17.875 56.9246 17.9449 56.9874C17.9802 57.0191 18.0136 57.0516 18.0454 57.0847C18.5433 57.6031 18.6368 58.2928 19.2382 58.7444C19.3234 58.807 19.3562 58.4218 19.5812 58.6093C20.3334 59.2324 21.043 59.7988 21.8015 60.2052C22.5247 60.6019 23.4271 60.8696 24.3739 61.1119C24.6693 61.1867 24.4273 61.3892 24.4422 61.4197C24.7022 61.8991 24.9781 61.3296 25.081 61.3187C25.2319 61.3055 25.3804 61.3145 25.527 61.3351C26.176 61.426 26.7287 61.7341 27.2507 61.2229C28.323 61.4569 29.3613 61.5906 30.4301 61.6621C32.6703 61.8091 34.9583 61.7598 37.2472 62.1456C37.2906 62.152 37.2195 62.4469 37.3059 62.4584C38.3416 62.5985 38.1334 62.1468 38.7927 61.5679C38.9565 61.4226 39.5015 62.0749 39.5516 62.1219C39.726 62.2965 39.5714 62.7397 39.6287 62.7725C40.1111 63.028 39.967 61.5915 40.5875 61.5583C40.6076 61.5596 40.5385 61.8293 40.5935 61.8527C40.7616 61.9265 40.9154 61.8117 41.0779 61.8927C41.2892 62.0006 41.4463 62.273 41.6311 62.3993C41.7675 62.4926 41.9336 62.5029 42.1367 62.2971C42.1955 62.2325 41.976 61.4478 42.4744 61.3926C42.6748 61.3778 43.5635 61.1364 43.832 61.1033C44.0996 61.077 44.0044 61.3818 44.0253 61.3874C44.8231 61.5008 44.6065 61.7195 45.1293 62.0879C45.6594 62.4474 45.149 61.3255 45.2431 61.1463C45.337 60.9683 45.9433 61.0464 46.1056 61.0891C46.2669 61.1334 46.1723 61.3505 46.3043 61.3595C47.1831 61.4073 46.4008 60.6651 46.5677 60.3875C46.6287 60.284 46.6999 60.2128 46.7775 60.1663C47.191 59.9179 47.8293 60.3573 48.2957 60.2306C48.4449 60.19 48.2462 60.0522 48.362 59.9787C48.8194 59.6902 49.2335 59.8107 49.6767 59.3129C49.7497 59.2316 49.96 58.5251 50.4238 58.7472C50.4899 58.7797 50.4715 59.0401 50.7013 58.986C50.8064 58.9612 50.9333 58.9232 51.0678 58.8757C51.3609 58.7749 51.6891 58.6025 51.8775 58.43C52.0771 58.2459 51.6258 58.0815 51.9671 58.0101C52.1195 57.9768 52.0006 58.3078 52.2804 58.2269C52.5611 58.1483 53.1549 57.7343 53.373 57.5662C53.592 57.3998 53.3038 57.2575 53.3109 57.2291C53.3559 57.0634 53.6932 56.6434 53.7296 56.6154C54.3403 56.142 54.9629 55.7018 55.5998 55.2753C56.8036 54.4652 58.0497 53.5499 58.7018 52.2933C58.7719 52.1483 58.4583 52.0935 58.4664 52.0698C58.4736 52.0443 58.4812 52.0223 58.4895 52.0033C58.6915 51.5597 59.1321 52.2767 59.5504 52.034C58.9865 51.8014 59.2063 51.629 59.3475 51.2154C59.4145 51.016 59.1536 51.0087 59.141 50.9808C58.9634 50.5481 59.4656 50.5694 59.5751 50.5601C59.9764 50.5292 59.6992 50.155 59.9656 50.1278C60.232 50.095 60.4115 50.5318 60.5783 50.1434C60.4246 49.9518 59.7856 50.0012 59.8209 49.6861C59.8631 49.2818 60.0123 48.8177 60.1546 48.34C60.1616 48.3161 60.1687 48.2923 60.1758 48.2684C60.4888 47.25 60.9278 46.2156 61.0545 45.6202C61.2551 44.7018 61.2402 44.3923 61.3759 43.8521C61.6069 42.8693 61.1539 43.1954 61.0043 42.57C60.8486 41.9421 61.8643 42.2992 62.0919 42.2216C62.3189 42.1439 62.0952 42.0331 62.2227 41.9293C62.3501 41.8238 62.4899 42.0732 62.5481 41.8116C62.568 41.7206 62.5381 41.5803 62.4807 41.4212C62.3703 41.1255 62.1563 40.7854 62.0049 40.722C61.5168 40.5156 60.9925 40.8189 61.19 40.1415C61.2016 40.1019 61.4711 40.2371 61.5018 40.0848C61.7357 38.8929 61.7539 37.6368 61.9367 36.4345C61.9623 36.2691 62.2655 36.4163 62.2838 36.3198C62.4739 35.314 61.9643 35.6752 61.3935 35.1297C62.1493 35.2479 62.6099 34.9403 62.6068 34.1766C62.6049 33.7182 62.2759 33.7999 62.04 33.5071C61.9689 33.4183 62.1911 33.0927 62.0352 33.0352C61.5254 32.8482 60.9628 33.1616 61.1769 32.3746C61.1871 32.3402 61.4663 32.4449 61.4812 32.3263C61.5786 31.5561 61.0469 31.473 60.9657 30.6453C60.9234 30.2171 61.0388 29.5583 61.1291 28.9535C61.1753 28.6424 61.2123 28.351 61.2179 28.1058C62.0682 28.0862 61.8339 27.3796 61.2267 27.1556C61.2138 26.6853 61.1282 26.1857 61.1462 25.7275C61.1516 25.5671 61.4093 25.6353 61.4328 25.6119C61.802 25.2492 61.2037 25.1314 61.1647 25.0372C60.7649 24.0117 60.9327 23.0483 60.1491 22.2139C60.1209 22.1832 59.5513 22.3464 59.8452 21.9169C59.8661 21.8884 60.2471 22.1272 60.0795 21.6397C60.0226 21.4713 59.9776 21.2355 59.9363 20.9678C59.8839 20.5262 59.7151 19.9858 59.3382 19.7008C59.1978 19.5876 58.5952 19.5273 58.711 19.0541C58.7266 18.9892 58.8916 18.9283 58.9297 18.8211C59.0438 18.4716 58.5061 18.7498 58.7457 18.2416C58.9853 17.7336 58.9001 17.0451 58.1378 16.7754C58.1359 16.7747 58.1311 16.7754 58.1239 16.7773C58.0414 16.7977 57.6488 16.9674 57.5076 16.8229C57.2619 16.569 56.9517 16.1589 56.6647 15.9214C56.5275 15.8079 56.426 16.106 56.399 16.0903C55.5419 15.5583 55.0404 14.978 54.29 14.3249C54.155 14.2084 54.0122 14.0896 53.8586 13.9689C53.673 13.8217 52.8922 13.796 52.6761 13.2877C52.4362 12.73 53.6376 11.7784 52.468 11.4603C51.9931 11.3304 50.5523 12.5917 50.3195 11.3557C50.153 11.2876 49.9923 11.2134 49.8359 11.1348C48.5755 10.5 47.6545 9.45364 46.2654 8.94172C46.1957 8.91591 45.7321 9.22929 45.5921 9.13727C45.3829 8.9987 45.3843 8.72395 45.2338 8.6204C45.053 8.4942 44.8631 8.39392 44.6692 8.31143C44.1896 8.10712 43.6992 7.96776 43.2451 7.70974C43.0023 7.57207 43.2016 7.39775 42.9138 7.23322C42.6267 7.06864 42.2792 7.25348 41.9559 6.90293C41.7121 6.63658 41.7336 5.89358 41.3874 5.61014C41.052 6.1716 40.7901 6.01163 40.2292 5.88156C40.121 5.8565 40.1029 6.11035 40.0456 6.10851C39.809 6.1048 39.7438 5.84514 39.5113 5.8524C39.4549 5.85374 39.3359 6.04287 39.2828 6.05441C39.0772 6.10197 38.9224 5.98075 38.8143 5.82222C38.6951 5.63705 38.6303 5.39675 38.6121 5.33005C38.4805 4.86672 38.1919 5.0409 38.0183 4.80203C37.8387 4.56251 38.2747 4.60204 38.0262 4.38613C37.5056 3.93624 36.6822 3.63603 36.0253 3.43682C35.7619 3.35842 35.8617 3.69733 35.822 3.69272C35.5365 3.65327 35.271 3.52364 35.0181 3.48854C34.785 3.46831 34.5692 3.50945 34.387 3.77261C34.2111 2.21592 34.0429 3.83685 33.3296 3.51537C33.3232 3.51262 33.3167 3.50971 33.3102 3.50666C33.2595 3.48204 33.2188 2.9246 33.3773 2.72053C33.4011 2.69045 33.4292 2.66814 33.4617 2.6565C33.7196 2.56594 34.0761 2.82593 34.4375 2.70755C34.5244 2.67856 35.081 2.07352 35.1225 2.03662C35.1521 2.01895 35.178 2.00696 35.2003 1.99995L35.2848 2.0128C35.7849 1.9695 35.6274 2.91776 35.6383 2.97554C35.775 3.66557 36.5094 3.1278 36.6845 3.13773C37.4345 3.1539 37.9266 3.54379 38.5253 3.66406C38.9163 3.7469 39.2949 3.14523 39.564 3.32341C39.7938 3.4776 39.9471 3.66664 40.068 3.85514C40.3396 4.34559 40.4422 4.85363 41.3097 4.62197C41.5614 4.5548 41.7862 3.79115 42.0517 4.64253C42.067 4.69581 42.2255 5.42304 42.6458 5.24717C42.6985 5.22493 42.8049 5.02499 42.855 5.03033C43.1894 5.07022 43.2906 5.32791 43.6367 5.41124C43.9828 5.49442 44.4115 5.56994 44.7306 5.81808C44.9232 5.9675 45.0087 6.48311 45.0656 6.62735C45.13 6.79537 45.2558 6.8483 45.3853 6.88069C45.6014 6.94166 45.813 6.96052 45.8263 7.21198C45.8405 7.63527 45.2128 7.91132 45.5749 8.38695C45.887 7.88765 46.2324 7.38982 46.562 6.89706C47.6575 7.56701 48.5107 8.37066 49.5057 8.96164C49.6285 9.03404 49.673 8.68878 49.8084 8.75889C50.192 8.95807 50.4755 9.23764 50.8022 9.46853C50.9787 9.59078 51.1647 9.70457 51.3773 9.79613C51.8828 10.0124 52.5672 10.0334 53.0982 10.2596C53.0439 11.0152 53.879 11.2631 54.3662 11.6467C54.5364 11.7803 54.4279 11.9245 54.5253 12.0566C54.8939 12.5523 54.9898 11.9066 55.175 11.9149C55.4829 11.9311 55.5706 12.1169 55.5995 12.3607C55.6542 12.7545 55.5538 13.287 55.9761 13.5649C56.0103 13.5863 56.8727 13.3301 56.9623 13.3436C57.523 13.4051 56.8747 13.5903 57.0789 13.8151C57.4501 14.2294 57.6287 14.595 58.2522 14.8635C58.4323 14.9388 59.0814 14.9237 59.112 15.439C59.1158 15.5061 58.9301 15.6564 58.9484 15.6938C58.9813 15.7571 59.0157 15.8101 59.0513 15.8538C59.3821 16.2652 59.8735 15.8687 60.3055 16.0041C60.788 16.1573 60.8239 17.0263 60.7819 17.2222C60.6898 17.7376 60.4874 17.1047 60.4439 17.1155C59.956 17.2237 60.3125 17.539 60.4919 17.8575C59.9315 18.3258 60.2325 18.6941 60.6767 18.1883C60.7245 18.1304 60.5075 17.9349 60.4919 17.8575C61.2552 17.6891 61.7078 18.1936 61.4126 19.0932C61.2619 19.5119 60.8339 19.3936 61.2899 20.1673C61.4076 20.3839 61.6036 20.3651 61.799 20.3835C61.9238 20.3783 62.0436 20.3807 62.1273 20.4552C62.5956 20.8527 62.5764 21.9902 62.8682 22.7404C62.9775 23.0157 63.1607 22.6609 63.2445 22.8502C63.4674 23.3612 63.3719 23.8698 63.575 24.3741C63.5935 24.4192 63.8556 24.2504 63.8893 24.4127C64.1474 25.6672 64.0575 26.7392 64.1168 27.9827C64.1277 28.2224 64.1652 28.5324 64.2026 28.868C64.2582 29.3429 64.3201 29.8555 64.3088 30.2113C64.2784 31.243 63.8799 32.5125 63.9925 33.3874C64.0646 33.9586 64.3514 33.8307 64.5507 34.0737C64.937 34.5444 64.2604 35.3898 64.1551 35.5029C64.1517 35.5064 64.0805 35.0137 63.9341 35.2778C63.6265 35.4326 64.1537 35.4973 64.1551 35.5029C64.0877 35.5774 64.026 36.5624 64.0807 36.759C64.111 36.8652 64.3843 36.8056 64.3948 36.861C64.6394 38.1817 64.7015 39.5117 64.535 40.8771C64.5288 40.9014 64.2243 40.8557 64.2134 40.9128C64.1714 41.1201 64.1643 41.3125 64.1803 41.488C64.2245 41.9861 64.4501 42.4029 64.5814 42.9079C64.7596 43.5905 64.6333 44.1409 64.0675 44.484C64.079 45.0061 63.7418 45.7206 63.5264 46.1159C63.3124 46.5107 63.8817 46.6831 63.8862 46.7237C63.9944 47.7605 63.6547 48.3285 63.3559 49.0883C63.3468 49.1114 63.3377 49.1347 63.3286 49.1582C63.2648 49.338 63.1973 49.5231 63.1276 49.7173C62.9101 50.3611 62.4927 51.525 62.2625 52.1125C62.0842 52.5845 61.8233 52.7766 61.6955 53.2032C61.678 53.2607 61.9395 53.334 61.9399 53.3547C61.9882 53.932 61.5297 53.4176 61.3808 53.4497C61.3221 53.4619 61.2663 53.4737 61.2132 53.4859C60.7124 53.696 60.4366 53.8439 60.1831 54.4664C60.1236 54.621 60.5258 55.5997 60.3514 55.8715C60.1313 56.2151 59.9896 55.8773 59.7657 56.2271C59.7461 56.2564 59.8994 56.3965 59.7147 56.5685C59.1309 57.1112 58.4769 57.603 57.8134 58.0858C57.5513 58.2735 57.2851 58.4751 57.0271 58.6865C56.9152 58.777 57.2628 58.92 57.104 59.0553C56.3571 59.6911 55.4469 60.368 54.4754 60.8238C54.2351 60.9349 54.2475 60.6528 54.1631 60.6268C53.6572 60.4668 53.5414 61.2332 53.467 61.2882C53.1708 61.5211 52.8553 61.7195 52.5171 61.89C51.3735 62.4747 50.1907 62.6912 48.9129 63.4752C48.8601 63.5084 48.665 63.8682 48.3904 64.0424C48.228 64.1464 48.0366 64.1833 47.8394 64.04C47.8024 64.0155 47.2823 63.6192 47.1406 64.0863C47.1311 64.1156 47.4373 64.3081 47.0757 64.4157C46.7165 64.5222 46.2003 64.9174 45.5898 64.7824C45.3934 64.7411 44.8599 64.3263 44.4879 64.8943C44.4801 64.9326 43.9104 66.1262 43.4466 65.5048C43.3697 65.4007 43.2882 64.6761 42.7049 65.1601C42.5874 65.2526 42.8511 65.3798 42.52 65.533C42.3466 65.6116 42.1403 65.6497 41.9149 65.6755C41.5423 65.7198 41.1672 65.7294 40.8238 65.9666C40.7345 66.0301 40.3609 66.5515 40.0293 66.1853C39.9771 66.1279 40.0608 65.8775 39.8918 65.8573C39.1032 65.7591 38.2868 65.95 37.4927 65.7974C37.21 65.7437 37.3448 65.3423 37.0521 65.2413C36.7578 65.1406 36.1715 65.0465 35.8682 65.2312C35.5644 65.4161 35.904 66.0487 35.4443 66.1027C33.6954 66.3035 31.9573 66.0268 30.1509 65.803C29.8857 65.7695 29.6195 65.737 29.3521 65.7069C29.0422 65.6712 29.28 65.9219 28.82 65.8821C27.7279 65.7946 26.1739 65.6344 25.0485 65.4423C24.39 65.3334 23.6157 65.1663 23.0629 64.8936C21.8331 64.2723 23.5117 64.2924 22.5693 63.9474C22.1315 63.7818 21.3929 64.332 21.2492 64.3078C20.7938 64.2476 20.388 64.1003 20.0174 63.9074C19.3765 63.5706 18.8886 63.1313 18.2879 62.7706C18.0974 62.6549 18.0935 63.0256 17.9316 62.9218C17.3772 62.5662 16.9919 62.05 16.5796 61.7073C16.3944 61.5536 16.2711 61.7506 16.1238 61.5897C15.7709 61.2065 15.5198 60.8315 15.3267 60.3486C15.309 60.3046 15.7165 60.3021 15.464 60.0444C15.4203 59.9998 15.3766 59.9521 15.3325 59.902C15.3022 59.8674 15.2717 59.8317 15.2412 59.7952C14.9264 59.4161 14.5969 58.9583 14.0946 58.743C13.9111 58.6657 13.5583 59.0495 13.5003 58.5156C13.4885 58.4053 13.9815 58.0013 13.2735 58.1038C13.1524 58.1162 12.0977 58.1786 12.0947 57.5695C12.0936 57.408 12.2127 56.8428 11.9767 56.7555C11.9436 56.7452 11.8669 57.0444 11.6969 56.9417C11.201 56.636 10.6775 56.2067 10.1012 55.7176C9.96086 55.5958 9.82518 55.473 9.69244 55.3501C9.4832 55.1535 9.55329 55.6697 9.24601 55.3608C8.39454 54.4972 7.81605 53.2785 7.5272 52.4214C7.4197 52.1038 7.73466 52.2146 7.74815 52.1813C7.98049 51.6613 7.37423 51.6984 7.29596 51.6C7.22373 51.508 7.16415 51.4161 7.11518 51.3282C6.86647 50.8963 6.85045 50.3949 6.5861 49.9229C6.49965 49.7666 6.29596 49.9889 6.25976 49.9659C5.89785 49.7209 6.45724 49.7821 6.4179 49.5478C6.30847 48.8884 6.01319 48.2232 5.73728 47.6133C5.63557 47.3891 5.44 47.7624 5.35202 47.5589C4.96805 46.68 4.62968 45.7383 4.39262 44.7694C4.31635 44.4465 4.24834 44.1218 4.19124 43.7979C4.15182 43.5712 4.42902 43.6306 4.46722 43.568C4.73588 43.1344 4.07785 42.8437 3.99466 42.754C3.61551 42.3465 3.75887 42.0911 3.57977 41.6761C3.16175 40.71 2.77947 39.5976 2.4518 38.4324C1.9817 36.4729 2.04479 35.3741 2.00089 34.1339C1.98819 32.2106 2.12038 30.6067 2.45945 28.7557C2.60614 28.0428 2.71447 27.2386 2.80832 26.3391C2.8261 26.173 2.48174 26.2988 2.49308 26.1544C2.59039 25.149 2.70667 24.1731 3.08901 22.8516C3.42962 21.7819 3.74456 21.0407 4.02703 20.196C4.07669 20.0518 3.70878 20.1418 3.77888 19.9067C3.92093 19.4232 4.17058 18.8502 4.44571 18.4308C4.57926 18.2262 4.70473 18.6235 4.83425 18.4152C5.13568 17.9317 5.37805 17.3856 5.52939 16.854C5.59185 16.63 5.17271 16.8428 5.27629 16.5611C5.28661 16.5326 5.29676 16.5044 5.30673 16.4767C5.70193 15.059 6.95598 12.3101 8.70988 10.9759C9.07641 10.6786 9.46215 10.3934 9.86933 10.1268C10.0102 10.0352 10.5492 10.4097 10.7272 10.0865C10.6286 9.93606 10.4887 9.78029 10.3714 9.63003C11.8011 8.26451 13.5433 7.14586 15.0073 6.25086C16.3827 5.39156 17.8003 4.70708 19.283 4.10782C19.4258 4.05066 19.0492 3.83744 19.3277 3.72491C19.6446 3.59793 19.9627 3.47401 20.287 3.35684C21.4241 2.94909 22.6895 2.47647 24.2722 2.43857C24.4671 2.43645 24.4778 3.03505 25.0039 2.86072C25.0238 2.85426 25.0755 2.84019 25.1474 2.82123C25.3844 2.75363 25.8649 2.62485 26.0028 2.50776C26.0266 2.48556 25.8618 2.22242 26.0986 2.18903C27.4759 2.00236 28.8919 1.99665 30.2251 2.13928C30.4398 2.16307 30.2172 2.46465 30.3705 2.48427C31.4496 2.62166 32.6184 2.40329 33.6435 2.70619C34.3315 2.91223 34.0536 3.41672 34.3942 3.93841C34.4381 4.01121 34.8647 4.04767 34.8704 4.34414C34.8703 5.08564 34.6211 5.88048 34.6457 6.67248C34.6499 6.75781 34.7802 6.76353 34.8465 6.79661C34.9152 6.83005 34.9327 6.88899 34.8157 7.0839C34.8132 7.10971 34.4485 7.2211 34.353 7.35631C34.2843 7.44901 34.3813 7.75379 34.2473 7.8701C34.1183 7.98672 33.9831 7.72922 33.7636 7.86568C33.5388 8.00431 33.624 8.34678 33.1904 8.37469ZM62.5154 47.8245C62.148 48.1173 63.149 48.4287 63.0051 47.9711C62.9969 47.9485 62.5337 47.809 62.5154 47.8245ZM48.0756 9.01945C48.2289 9.66584 48.8658 9.26581 48.7763 8.78625C48.6872 8.307 48.0284 8.82305 48.0756 9.01945ZM43.5306 6.82327C43.8598 7.40112 44.6087 6.11654 43.948 6.11551C43.9098 6.11496 43.5115 6.7897 43.5306 6.82327ZM32.7223 4.02909C32.7294 4.04295 33.0251 4.06228 33.0341 4.04887C33.2017 3.71967 32.6005 3.68086 32.7223 4.02909ZM39.1148 4.74083C39.1357 4.8531 39.2468 4.93019 39.3644 4.95906C39.5197 4.99538 39.6871 4.93759 39.6603 4.75093C39.6526 4.6971 39.6237 4.65156 39.5831 4.61587C39.4123 4.46852 39.064 4.47903 39.1148 4.74083ZM48.5189 60.6905C48.5072 60.6788 48.3078 60.7524 48.3474 60.8312C48.4761 61.085 48.7144 60.8904 48.5189 60.6905ZM30.8953 2.90167C32.1389 2.95994 32.8532 4.20246 31.528 4.04778C31.2862 4.02086 32.0518 3.66105 31.7453 3.54786C31.1807 3.34172 30.8042 4.1121 30.2265 3.6994C30.1218 3.62386 30.8243 2.89545 30.8975 2.89996C30.8968 2.90053 30.8961 2.9011 30.8953 2.90167ZM61.2438 47.7274C61.2288 47.7311 61.144 48.0119 61.1555 48.022C61.4384 48.2585 61.6098 47.6909 61.2438 47.7274ZM36.4723 62.446C36.4556 62.4172 35.7785 62.3978 35.7566 62.4247C35.4068 62.9724 36.7822 63.0135 36.4723 62.446ZM61.24 28.0934C60.8907 27.7949 60.8275 27.4348 61.2263 27.1571C61.2283 27.4646 61.2449 27.7781 61.24 28.0934ZM23.932 18.1724C24.3573 18.3686 24.5937 18.7143 24.7193 19.0175C24.7576 19.1114 24.5954 19.213 24.615 19.2834C24.6505 19.4182 24.7943 19.4333 24.8134 19.5762C24.819 19.624 24.5753 19.7949 24.5854 19.8399C24.64 20.0833 24.828 20.1774 24.9202 20.3777C25.0903 20.7496 25.2581 21.1027 25.4239 21.4541C25.6471 21.9639 25.8894 22.445 26.12 22.9341C26.2438 23.1955 26.2114 23.6272 26.4691 23.8057C26.4993 23.8263 26.7034 23.6672 26.7247 23.6609C27.0522 23.5662 26.5991 23.825 26.5777 23.9183C26.4939 24.2876 26.6323 24.5428 26.8527 24.6993C26.947 24.7653 27.3184 24.3965 27.1358 24.6434C27.1236 24.6602 26.879 24.7866 26.8704 24.827C26.8514 24.9185 26.9609 24.9976 26.9706 25.0525C26.988 25.1591 26.9992 25.1713 27.0473 25.2517C27.111 25.3629 27.0786 25.5642 27.2048 25.6461C27.2325 25.6632 27.4479 25.4789 27.5134 25.4925C27.5788 25.5062 27.6255 25.6232 27.5921 25.6938C27.5587 25.7645 27.3632 25.8685 27.3246 25.902C26.9976 26.1832 27.5727 25.985 27.5949 25.9927C27.9855 26.1416 27.8545 26.5638 28.0236 26.8287C28.1518 27.0283 28.3827 27.1853 28.4897 27.3833C28.6183 27.6229 28.6097 27.8943 28.7722 28.1026C28.7889 28.1245 29.0509 27.921 29.0718 27.9473C29.2951 28.2288 29.4535 28.5468 29.4543 28.9628C29.4538 29.0042 29.1853 29.1224 29.1702 29.173C29.0856 29.4838 28.7923 30.0856 29.9186 29.5019C29.9287 29.5419 29.9394 29.5828 29.9462 29.6252C29.9609 29.734 29.9566 29.8652 29.8536 30.0418C29.7635 30.1986 29.462 30.319 29.628 30.3203C29.6651 30.3206 29.8741 30.1373 29.9123 30.1493C30.0721 30.1989 30.0882 30.3712 30.2827 30.3896C30.3227 30.3929 30.5144 30.2356 30.5543 30.2142C30.8775 30.0417 30.4718 30.4919 30.4535 30.5384C30.3129 30.8811 30.4987 30.9057 30.6026 31.0399C30.6267 31.0712 30.8497 30.8198 30.8816 30.8417C31.044 30.958 31.1553 31.1263 31.1774 31.3688C31.1819 31.4234 30.9462 31.5859 30.9378 31.622C30.9046 31.7799 31.3105 31.4299 31.2857 31.5726C31.281 31.6024 31.0971 31.761 31.08 31.7817C30.8123 32.108 31.2758 31.735 31.2944 31.7356C31.542 31.7362 31.1757 32.2474 31.3592 32.3085C31.3814 32.3151 31.5675 32.0666 31.6164 32.0982C31.9427 32.3069 32.1717 32.6441 32.2849 33.0848C32.3029 33.1531 32.1147 33.2932 32.0981 33.3165C31.8411 33.6844 32.2752 33.2747 32.3045 33.2712C32.5261 33.2561 32.2973 33.7231 32.8508 33.2674C33.1688 33.8867 33.9222 34.0113 34.0102 34.9201C34.0118 34.9311 33.8104 35.1448 33.8144 35.1658C33.8612 35.4216 34.127 35.0494 34.5885 34.7098C34.7044 34.6245 34.3473 35.2039 34.3225 35.2475C34.2304 35.4077 33.9226 35.7188 33.9083 35.7528C33.7999 36.0231 34.7196 34.9114 34.8138 34.9902C34.8151 34.9946 34.6315 35.1871 34.6224 35.2139C34.5934 35.298 34.6856 35.2377 34.6509 35.3279C34.5696 35.5361 34.1373 36.0887 34.4844 35.8476C34.5292 35.8162 35.0402 35.1765 35.0998 35.2773C35.1233 35.3181 35.2807 35.4326 35.2886 35.5087C35.2963 35.5845 35.0975 35.7618 35.0931 35.773C34.9806 36.1344 34.8447 36.2089 34.5676 36.6506C34.2914 37.0907 35.068 36.1408 35.1794 36.0557C35.2907 35.9709 35.1874 36.2604 35.1428 36.3538C35.0983 36.4472 34.9648 36.5538 34.9461 36.6121C34.8254 36.9949 35.3922 36.192 35.5576 36.077C35.8235 35.8921 35.6707 36.181 35.5529 36.4288C35.4974 36.546 35.4499 36.6542 35.4585 36.6991C35.4657 36.7369 35.5816 36.5634 35.6145 36.566C35.743 36.5785 35.6074 36.836 35.8682 36.7167C35.9104 36.6971 36.3416 36.3463 36.1278 36.692C36.0969 36.7417 35.9298 36.897 35.9309 36.965C35.932 37.0664 35.9924 37.1839 36.0965 37.1737C36.1736 37.1662 36.3713 36.8433 36.3468 36.9755C36.3356 37.0344 36.1505 37.1632 36.1415 37.26C36.1322 37.3566 36.2463 37.4428 36.2926 37.473C36.3387 37.5028 36.5021 37.2694 36.518 37.2579C36.6098 37.1928 36.7783 37.1583 36.7853 37.1649C37.1611 37.4465 37.1675 38.0889 37.6112 38.2733C37.6458 38.2882 37.8273 38.0495 37.8346 38.0495C38.0093 38.0378 37.4077 38.5657 37.2934 38.8202C37.6888 38.3603 37.6533 38.4759 37.7616 38.4838C37.8141 38.4873 37.9544 38.2976 37.9732 38.2822C38.2574 38.0581 37.9814 38.4295 37.9264 38.5068C37.7246 38.7916 38.0318 38.5171 37.897 38.7076C37.7632 38.8966 37.4878 39.1072 37.5513 39.1588C37.7141 39.0134 38.0491 38.5514 38.1574 38.5255C38.5671 38.4268 38.5947 39.0555 38.7022 39.2183C38.81 39.381 38.8821 39.3936 38.9098 39.5266C38.9586 39.7665 39.1929 39.4094 39.4159 39.3546C39.6391 39.3002 38.8845 40.012 38.7448 40.1862C38.6048 40.3601 38.7758 40.2066 38.7076 40.3104C38.6393 40.414 38.5015 40.4921 38.5066 40.5602C38.5115 40.6278 38.8844 40.436 39.0581 40.28C39.4258 39.9493 39.7368 39.5306 39.7103 39.7566C39.7085 39.7698 39.502 39.9492 39.5047 39.9898C39.5315 40.3054 39.6995 40.4859 39.7385 40.7837C39.7436 40.8249 39.5108 41.0209 39.5113 41.0473C39.5144 41.3221 39.8229 40.9091 40.2991 40.582C39.7508 41.1017 39.4682 41.4717 39.5691 41.5785C39.5815 41.5917 39.6006 41.5919 39.6251 41.5829C39.7214 41.5493 39.8949 41.3746 40.0575 41.2755C40.1189 41.2377 40.0052 41.4434 40.1217 41.3405C40.5024 41.0034 40.8565 40.5566 40.8037 40.8197C40.8009 40.8319 40.5938 41.0178 40.5983 41.0454C40.6265 41.2245 41.0046 40.8522 41.1573 40.9058C41.278 40.9489 41.2191 41.3299 41.2909 41.4609C40.7331 42.101 40.9654 42.0442 41.3834 41.6308C41.4367 41.7071 41.5329 41.7437 41.5493 41.8614C41.5551 41.9017 41.3848 42.08 41.371 42.103C41.1549 42.4642 41.5448 42.0469 41.5736 42.0414C41.8739 42.0039 41.7486 42.4524 42.1674 42.2401C42.1825 42.2324 42.5457 41.7678 42.3306 42.1446C42.3158 42.1706 42.1004 42.3446 42.1654 42.4191C42.2295 42.4931 42.1909 42.8574 42.4617 42.7163C42.5271 42.6825 42.8742 42.3428 42.7092 42.6849C42.6868 42.7313 42.58 42.8629 42.5354 42.9467C42.3941 43.2145 42.7604 42.7438 42.5049 43.1837C42.2495 43.6236 42.113 43.9923 42.4288 43.7885C42.4384 43.7829 42.7394 43.4174 42.7705 43.4487C42.8199 43.4991 42.8428 43.6364 42.9036 43.6761C42.9329 43.695 43.0855 43.4435 43.0935 43.4427C43.3796 43.4454 43.3634 43.7557 43.4979 43.9953C43.5218 44.0393 43.8673 43.7973 43.7498 44.1045C43.6203 44.4403 42.6766 45.5319 43.0528 45.3866C43.2005 45.3267 44.4115 43.9528 43.9561 44.799C44.3388 44.8094 44.2656 45.3381 44.6801 45.3157C44.6945 45.3182 44.7056 45.3172 44.717 45.3157C44.7374 45.3134 45.0966 44.9486 45.1181 44.9754C45.1493 45.0159 45.0181 45.2166 45.0355 45.2514C45.104 45.4013 45.3385 45.3308 45.4283 45.446C45.4627 45.4893 45.2916 45.6676 45.3327 45.7193C45.3745 45.7712 45.6133 45.5474 45.5818 45.724C45.5574 45.8583 45.191 46.4152 45.2139 46.5328C45.6265 46.0251 45.6656 46.074 45.8573 46.0055C45.8941 45.9919 46.0182 45.7997 46.0428 45.784C46.1464 45.7163 46.0577 45.8866 46.1658 45.8089C46.1918 45.7902 46.3293 45.6141 46.3581 45.5888C46.6072 45.3658 46.3794 45.824 46.3418 45.9051C46.1962 46.2114 46.3955 45.9974 46.3594 46.133C46.3249 46.2697 46.1646 46.3555 46.1688 46.4566C46.1793 46.6669 46.3453 46.737 46.4618 46.8184C46.5091 46.8498 46.6275 46.5731 46.6378 46.5717C46.7082 46.5659 46.7236 46.6585 46.7778 46.6667L46.7817 46.6696L46.7973 46.6691C46.8458 46.6442 46.8454 46.5357 46.6535 46.3404C47.1957 46.8865 47.2467 46.7713 47.1009 46.6427C46.9689 46.4964 46.6744 46.3204 46.8376 46.3329C46.8622 46.3383 47.5431 46.5962 47.6081 46.7108C47.6643 46.835 47.4285 46.8235 47.4209 47.0746C47.4179 47.1043 47.4929 47.2944 47.4627 47.5324C47.4428 47.7689 47.2778 48.0268 47.2255 48.06C47.1912 48.0851 47.1559 48.1062 47.1204 48.1232L46.3081 48.1504L46.1069 47.9966C45.8854 48.0999 46.3577 47.2228 46.3804 47.1708C46.6409 46.58 46.1708 47.1513 46.1086 47.1715C45.8517 47.2827 45.8338 47.0834 45.6397 47.1475C45.5132 47.1878 45.0831 47.754 45.0435 47.6973C44.9107 47.5072 45.4744 46.6881 44.7942 47.2465C44.6489 47.3652 44.1937 47.9966 44.4637 47.4296C44.4802 47.3935 44.7507 46.8933 44.4818 47.1303C44.4479 47.1601 44.305 47.3359 44.2852 47.3443C44.1555 47.3974 44.2355 47.2297 44.1256 47.2513C44.0154 47.2725 43.8677 47.3178 43.8547 47.2073C43.8468 47.1413 44.0683 46.7768 44.1167 46.6827C44.2566 46.4122 43.8925 46.7443 44.0919 46.4415C44.2921 46.137 44.7032 45.7632 44.7713 45.5158C44.3932 45.9668 44.0014 46.4265 43.6195 46.8785C43.5784 46.8377 43.5447 46.789 43.5139 46.7368L43.479 46.7074C43.4026 46.5607 43.3511 46.3851 43.2173 46.3008C43.1949 46.2874 43.0151 46.549 42.9862 46.5412C42.8665 46.5084 42.9277 46.2686 42.7763 46.2638C42.6589 46.2615 42.3725 46.4634 42.2451 46.4723C42.6058 45.9005 42.3484 45.9925 42.2983 45.8788C42.2806 45.8391 42.3896 45.696 42.4023 45.6325C42.4474 45.396 42.1337 45.9041 42.0555 45.9628C41.7227 46.2143 42.5084 45.1203 42.3685 45.0599C42.3611 45.0562 41.8633 45.5822 41.8268 45.6111C41.5889 45.799 41.9617 45.4003 41.9499 45.3265C41.9283 45.1916 41.9731 45.0128 41.7574 45.1171C41.6941 45.1484 41.3683 45.4656 41.5158 45.1457C41.535 45.1037 41.6768 44.9134 41.6792 44.898C41.7108 44.636 41.2746 45.2406 41.0679 45.4033C40.8611 45.5658 41.0673 45.0802 41.1351 44.9462C41.3097 44.599 41.2688 44.8404 41.2935 44.8117C41.5862 44.4702 41.4739 44.4845 41.4444 44.4165C41.8644 43.8181 41.7675 43.8022 41.412 44.3484C41.3734 44.4082 41.4536 44.382 41.4444 44.4165C40.9799 44.9659 40.8432 44.9805 41.1492 44.374C41.2929 44.0899 41.5484 43.8232 41.3447 43.8398C41.2522 43.8467 40.9749 44.2677 40.8422 44.3402C40.5378 44.5043 40.6664 44.0131 40.5022 43.9795C40.4418 43.9668 40.3162 44.2179 40.2687 44.2164C40.142 44.2128 40.1986 43.9943 40.0524 44.0132C40.0389 44.0151 39.877 44.255 39.8493 44.2375C39.6343 44.1084 39.5845 43.8274 39.3918 43.6545C39.298 43.5708 39.0236 43.5401 38.9477 43.4272C38.814 43.233 38.9033 42.7387 38.6991 42.68C38.6018 42.6504 38.4778 42.7593 38.3494 42.86C38.3017 42.899 38.2535 42.937 38.2067 42.9665C37.8766 43.1753 38.2476 42.5822 38.3062 42.4917C38.3082 42.4887 38.4214 42.5049 38.4906 42.3652C38.6871 42.1255 38.3078 42.4914 38.3062 42.4917C38.3442 42.4332 38.2593 42.2578 38.1944 42.2716C38.1592 42.2794 37.976 42.4826 37.9613 42.483C37.6155 42.4871 37.3924 42.3687 37.3003 42.1047C37.3009 42.0976 37.5164 41.8807 37.5153 41.8669C37.5036 41.6683 37.1786 41.8759 36.9404 41.9567C36.7015 42.0367 36.6848 41.9193 36.9904 41.4867C36.8798 41.4738 36.9423 41.2153 36.9828 41.061C37.0231 40.9065 36.6117 41.3368 36.599 41.3411C36.1937 41.4797 36.3371 41.1492 36.2151 40.9664C36.1579 40.8789 35.951 40.808 35.8257 40.7828C35.7263 40.7639 35.7807 40.6253 35.6613 40.6381C35.6453 40.6397 35.4766 40.8444 35.4673 40.8498C35.1898 41.0268 35.6536 40.5726 35.7171 40.4741C35.9479 40.116 36.0653 39.9204 35.848 39.9919C35.798 40.008 35.1201 40.6535 35.0484 40.6628C34.956 40.6733 35.1954 40.4388 35.0927 40.456C35.0841 40.4572 34.9483 40.6124 34.924 40.5788C34.8105 40.4256 34.7356 40.1998 34.5755 40.0871C34.554 40.0711 34.3643 40.3398 34.3299 40.3207C34.1689 40.2314 34.0277 40.0925 33.9949 39.8615C33.9875 39.8039 34.158 39.6485 34.1954 39.5909C34.4209 39.2417 33.9671 39.64 33.9497 39.64C33.5346 39.6465 33.6704 39.1183 33.3093 39.0608C33.2949 39.0586 33.2797 39.0571 33.2636 39.0565C33.2401 39.0564 32.7208 39.4562 33.0293 38.9971C33.0497 38.9664 33.3671 38.498 33.0772 38.7565C33.0591 38.7726 32.901 39.0182 32.8693 38.9528C32.8376 38.8873 32.6307 38.9655 32.7658 38.6632C32.8082 38.5679 33.1171 38.0943 32.7618 38.3798C32.7374 38.4 31.9823 39.0862 32.3949 38.5214C32.463 38.4286 32.9451 37.8692 32.6209 38.091C32.5582 38.1342 32.4799 38.2836 32.3732 38.3282C32.2092 38.3973 32.2539 38.1762 31.9653 38.3631C31.9144 38.3964 31.534 38.7311 31.7335 38.4017C31.7648 38.3501 31.9375 38.1733 31.9311 38.1318C31.9016 37.9336 31.6736 37.9566 31.6665 37.7267C31.6637 37.6456 31.9431 37.3601 31.969 37.2419C31.9947 37.1237 31.9744 36.9714 31.8107 37.071C31.6468 37.1707 31.284 37.6961 31.1823 37.676C30.7397 37.5877 30.6846 37.047 30.4213 36.741C30.3821 36.6955 30.2684 36.8984 30.1996 36.8431C29.9466 36.642 29.3781 36.4123 29.4976 35.8611C29.5953 35.4222 30.0064 35.4045 29.9881 35.1712C29.9795 35.0599 29.4049 35.5323 29.3736 35.5345C29.0646 35.566 29.1904 35.2324 28.9903 35.1762C28.9487 35.1644 28.7651 35.4037 28.7318 35.3911C28.6159 35.3497 28.6275 35.1724 28.5348 35.1136C28.4928 35.0877 28.3364 35.2545 28.3176 35.2104C28.2712 35.1068 28.2734 34.9713 28.356 34.7481C28.3636 34.7279 28.6121 34.576 28.5659 34.5127C28.4904 34.4107 28.537 34.1525 28.2786 34.1947C28.2011 34.2077 27.8154 34.5603 28.0169 34.2463C28.0589 34.1805 28.5393 33.7765 28.0653 34.0609C27.9877 34.1097 27.3161 34.4566 27.6068 34.0735C27.6832 33.9727 28.0287 33.5883 27.9335 33.6018C27.919 33.6048 27.7267 33.8112 27.6768 33.7956C27.5044 33.737 27.4201 33.5916 27.2476 33.5209C27.201 33.5022 27.0192 33.7381 26.9564 33.7037C26.7827 33.6085 26.6948 33.3796 26.6554 33.1789C26.6414 33.1048 26.8607 32.9954 26.8784 32.9755C27.1699 32.656 26.6855 32.968 26.6423 32.9663C26.3828 32.955 26.5268 32.6944 26.3804 32.6118C26.3405 32.5884 26.1342 32.7711 26.1094 32.7784C25.8629 32.8432 26.3033 32.6138 26.3159 32.5373C26.35 32.3431 26.2583 32.2176 26.1549 32.1114C26.1458 32.1028 26.1365 32.0943 26.1271 32.0859C26.0894 32.0525 25.8535 32.2723 25.8225 32.2399C25.632 32.0482 25.5157 31.8102 25.5315 31.5092C25.5355 31.4531 25.7571 31.3456 25.7992 31.3076C26.0945 31.0436 25.5928 31.2484 25.5377 31.2564C25.2876 31.2954 25.4508 31.1487 25.3687 31.0946C24.9669 30.8364 24.8089 30.3173 24.6694 29.9306C24.4865 29.4277 24.4679 28.9631 24.1516 28.5783C24.1317 28.5538 23.8741 28.7552 23.8535 28.7363C23.5998 28.4838 23.5225 28.1267 23.2553 27.885C23.2339 27.8649 22.9966 28.0663 22.9535 28.0397C22.8633 27.9862 22.8132 27.8776 22.8446 27.7447C22.8595 27.6802 23.1155 27.5885 23.1258 27.5265C23.1504 27.3817 23.1055 27.272 23.0036 27.2059C22.9597 27.1782 22.7339 27.4098 22.6974 27.3604C22.4436 27.0273 22.1755 26.7181 22.2844 26.1446C22.2921 26.1056 22.8114 25.7282 22.675 25.7455C22.5244 25.8406 22.3505 25.9572 22.1913 26.0613C21.773 25.6205 21.6263 25.0117 21.3183 24.525C21.3055 24.5049 21.0538 24.7368 21.0278 24.6992C21.0184 24.6857 21.0088 24.6725 20.999 24.6595C20.8831 24.5083 20.7245 24.4081 20.8363 24.0515C20.8476 24.0139 21.3085 23.6327 21.1959 23.641C21.1755 23.6425 21.0493 23.6203 20.9363 23.6892C20.9197 23.7 20.7241 23.8997 20.6981 23.8832C20.5496 23.7829 20.4744 23.6158 20.4768 23.386C20.4776 23.3485 20.6987 23.1481 20.7001 23.1188C20.7068 22.9101 20.4529 22.9962 20.5981 22.7704C20.7054 22.6236 20.9878 22.1938 21.2356 21.753C21.2599 21.6859 21.3104 21.6974 21.4276 21.4262C21.648 20.7184 22.0384 20.0014 22.2885 19.2522C22.3085 19.1715 22.1853 19.1115 21.9252 19.0354C21.7799 18.9938 21.5978 18.9703 21.5666 18.9286C21.5276 18.8889 21.7004 18.8043 22.0023 18.7558C22.0379 18.7446 22.3251 18.7752 22.4645 18.7768C22.6258 18.7817 22.7454 18.7675 22.8086 18.7214C22.9009 18.6612 22.9498 18.3485 23.1113 18.2949C23.2749 18.2438 23.2297 18.509 23.406 18.4506C23.5793 18.3897 23.7412 18.0861 23.932 18.1724ZM37.1591 40.3681C37.3003 40.1098 36.5863 40.8754 36.8109 40.7414C36.8226 40.734 37.1523 40.3808 37.1591 40.3681ZM43.9028 45.8094C44.1302 45.3976 43.6511 45.8827 43.4703 46.1959C43.2878 46.5073 43.833 45.9336 43.9028 45.8094ZM44.8665 46.1739C45.0138 45.8234 44.0548 46.9567 44.3373 46.8008C44.3535 46.7921 44.8581 46.1943 44.8665 46.1739ZM21.459 21.7349C21.467 21.7234 21.4402 21.6859 21.4311 21.6964C21.2155 21.9501 21.2602 22.0179 21.459 21.7349ZM45.8614 46.4996C45.955 46.3187 45.7346 46.4416 45.6167 46.666C45.5226 46.8471 45.7464 46.7258 45.8614 46.4996ZM35.129 37.0896C35.1382 37.077 35.1159 37.0395 35.0593 37.1072C34.8771 37.325 34.9728 37.3013 35.129 37.0896ZM47.5109 46.049C47.3881 46.2997 46.1826 46.0351 46.3743 45.874C46.4099 45.8394 46.7265 46.0664 46.8475 46.0444C47.071 45.9932 46.3417 45.7346 46.769 45.727C46.8472 45.7254 47.5207 46.0352 47.5124 46.0499C47.5119 46.0496 47.5114 46.0493 47.5109 46.049ZM37.9783 39.4132C37.9866 39.4021 37.9532 39.3537 37.9429 39.3629C37.6959 39.5874 37.7627 39.6846 37.9783 39.4132ZM33.7086 35.0393C33.7253 35.0148 33.6429 34.9082 33.622 34.926C33.2162 35.2942 33.383 35.512 33.7086 35.0393ZM41.2778 41.4795C41.5413 41.2653 41.6173 41.2783 41.3835 41.6303C41.3521 41.5747 41.3094 41.5339 41.2778 41.4795ZM45.1076 24.5096C45.1401 24.5999 44.918 24.6728 44.708 24.6921C44.6421 24.6986 44.531 24.5477 44.479 24.547C44.3755 24.5478 44.3927 24.6592 44.278 24.6527C44.24 24.6493 44.0528 24.4207 44.0176 24.4221C43.8224 24.4346 43.7794 24.5858 43.6282 24.6526C42.8856 24.9795 42.2825 25.473 41.6542 25.9699C41.4464 26.1348 41.0366 26.1929 40.9426 26.4744C40.9322 26.507 41.1375 26.6644 41.1494 26.6829C41.3307 26.969 40.9619 26.6 40.8692 26.6002C40.8088 26.6006 40.7527 26.6063 40.7008 26.6166C40.4369 26.6696 40.2866 26.8352 40.2166 27.0398C40.1814 27.1446 40.6328 27.4077 40.3495 27.2938C40.3303 27.2863 40.1422 27.0855 40.1018 27.087C40.0107 27.0908 39.9682 27.2128 39.9196 27.2349C39.8249 27.2767 39.8172 27.2897 39.7553 27.3549C39.6692 27.4422 39.4712 27.4606 39.4315 27.5992C39.4236 27.6293 39.6583 27.7878 39.6648 27.8526C39.6716 27.917 39.5748 27.9905 39.4989 27.9763C39.423 27.9623 39.2688 27.8034 39.2263 27.7752C38.8679 27.5359 39.2209 28.0295 39.2203 28.0522C39.1951 28.457 38.7627 28.4376 38.5634 28.6648C38.4142 28.836 38.3357 29.0931 38.1815 29.2449C37.9969 29.4251 37.7375 29.4893 37.5916 29.6945C37.5758 29.7161 37.8442 29.9109 37.8255 29.9377C37.6274 30.2208 37.3759 30.4522 36.9826 30.5623C36.9429 30.5732 36.7543 30.3486 36.7017 30.3481C36.385 30.3476 35.7345 30.2215 36.6026 31.1459C36.4736 31.2183 36.3192 31.3173 36.0452 31.2442C35.8685 31.1976 35.6826 30.9304 35.7185 31.0941C35.7263 31.1308 35.954 31.2905 35.9496 31.3322C35.9305 31.5079 35.7602 31.5663 35.7758 31.7657C35.779 31.8072 35.971 31.9641 35.9992 31.9996C36.2261 32.2894 35.7007 31.9829 35.6517 31.9731C35.2847 31.9017 35.2878 32.0922 35.1671 32.2191C35.139 32.2484 35.4218 32.4305 35.4038 32.4665C35.3056 32.6523 35.1475 32.7911 34.9037 32.8474C34.849 32.8591 34.6613 32.6427 34.6242 32.6388C34.4634 32.624 34.8552 32.9896 34.7097 32.9811C34.6795 32.9798 34.5026 32.8133 34.4802 32.7985C34.1287 32.5652 34.5458 32.9895 34.5468 33.0084C34.5665 33.2597 34.0268 32.9378 33.9807 33.1262C33.9759 33.1489 34.2389 33.3141 34.2111 33.3655C34.028 33.7093 33.7064 33.9567 33.2756 34.0867C33.2098 34.1062 33.0597 33.9262 33.0356 33.9107C32.6583 33.6688 33.0869 34.0843 33.0921 34.1129C33.1188 34.3321 32.6467 34.1183 33.1257 34.6513C32.5748 34.9553 32.4589 35.6163 31.7599 35.7692C31.7057 35.785 31.6483 35.798 31.5873 35.8076C31.5764 35.8098 31.3506 35.6221 31.3301 35.6272C31.0798 35.6858 31.4666 35.9296 31.8272 36.3756C31.9168 36.4889 31.3213 36.1588 31.2773 36.1349C31.1139 36.0489 30.7902 35.7545 30.7558 35.7414C30.4843 35.6399 31.629 36.5184 31.5515 36.6173C31.5473 36.6189 31.3491 36.4413 31.322 36.4331C31.2371 36.4067 31.3 36.4972 31.2087 36.4651C30.9977 36.3902 30.4374 35.9685 30.6868 36.3087C30.7192 36.3528 31.3681 36.8523 31.2672 36.9145C31.2272 36.9384 31.1117 37.0996 31.0354 37.1076C30.9593 37.1157 30.782 36.9167 30.7707 36.9124C30.4102 36.7988 30.336 36.6625 29.8971 36.3815C29.4611 36.1 30.4047 36.8841 30.4891 36.996C30.5731 37.1078 30.2856 37.0001 30.1934 36.9535C30.1011 36.9071 29.996 36.7726 29.9384 36.7524C29.5618 36.6206 30.3519 37.2044 30.4641 37.3716C30.7277 37.7694 29.9858 37.2338 29.8484 37.2523C29.8109 37.2577 29.9803 37.3795 29.9768 37.4121C29.9604 37.5397 29.7105 37.392 29.8198 37.6562C29.8381 37.6987 30.169 38.1454 29.8343 37.9148C29.7863 37.8813 29.639 37.7072 29.5718 37.7041C29.4712 37.6994 29.3536 37.7501 29.3586 37.8535C29.3622 37.9302 29.6718 38.1478 29.5423 38.1144C29.4846 38.0992 29.3664 37.9076 29.2714 37.8914C29.177 37.875 29.0861 37.9805 29.054 38.0231C29.0222 38.0659 29.2429 38.2459 29.2534 38.2624C29.3123 38.3582 29.3354 38.5278 29.3286 38.534C29.0236 38.8842 28.3911 38.8235 28.1767 39.2358C28.1594 39.2679 28.3786 39.4724 28.378 39.4795C28.3753 39.652 27.9067 39.0037 27.6668 38.8628C28.0851 39.302 27.9754 39.2537 27.9589 39.3588C27.9513 39.4097 28.1256 39.5686 28.1391 39.5888C28.3354 39.8924 27.9946 39.5797 27.9234 39.517C27.6613 39.2869 27.9051 39.6187 27.7297 39.4649C27.5557 39.3123 27.3718 39.0189 27.3164 39.0749C27.4457 39.2507 27.8701 39.6317 27.8871 39.7403C27.9183 39.9403 27.7892 40.0318 27.6291 40.0831C27.4589 40.1384 27.2551 40.1471 27.1689 40.1918C27.0012 40.2785 26.9829 40.3477 26.8512 40.3588C26.6127 40.3788 26.9431 40.6491 26.9781 40.8739C27.0127 41.0988 26.3797 40.2771 26.221 40.12C26.0628 39.9627 26.1988 40.1478 26.1031 40.0689C26.0075 39.9898 25.9425 39.846 25.8757 39.843C25.8092 39.8398 25.9666 40.2264 26.1044 40.4148C26.397 40.8134 26.7797 41.1673 26.5616 41.1143C26.5489 41.111 26.3909 40.8879 26.3511 40.8856C26.0412 40.8743 25.8515 41.0168 25.5583 41.0191C25.5178 41.0191 25.3459 40.7681 25.3201 40.7654C25.0518 40.7359 25.4295 41.0863 25.7089 41.5912C25.2475 40.993 24.9104 40.6723 24.798 40.7582C24.7302 40.8097 24.9499 41.0561 25.0531 41.2717C25.0842 41.3367 24.8944 41.199 24.9834 41.3265C25.2736 41.7438 25.6755 42.1488 25.4165 42.0672C25.4047 42.0629 25.247 41.8336 25.2189 41.8347C25.0364 41.8401 25.3538 42.2653 25.2686 42.415C25.2019 42.5325 24.827 42.4159 24.6835 42.4608C24.1641 41.7893 24.1805 42.0227 24.495 42.5193C24.4078 42.5563 24.3492 42.643 24.2298 42.6324C24.1889 42.6289 24.0557 42.4214 24.0366 42.4026C23.7375 42.1067 24.0511 42.5836 24.0487 42.6134C24.0088 42.9161 23.6112 42.6748 23.6987 43.135C23.702 43.1514 24.0433 43.6325 23.7431 43.319C23.7227 43.2972 23.6173 43.0415 23.5278 43.0818C23.4377 43.1225 23.1062 42.9737 23.1592 43.2727C23.1655 43.3089 23.2227 43.4364 23.2437 43.5213C23.2667 43.6041 23.2557 43.6439 23.1206 43.5117C23.0839 43.4757 22.9906 43.3344 22.925 43.2659C22.7143 43.0488 23.055 43.5383 22.7134 43.1617C22.3722 42.7849 22.054 42.5505 22.1627 42.9103C22.1654 42.9212 22.4348 43.3105 22.3981 43.3304C22.3389 43.3621 22.2033 43.3458 22.1516 43.3929C22.1269 43.4156 22.3311 43.6273 22.3301 43.6351C22.2674 43.9017 21.9797 43.8049 21.7241 43.8793C21.6766 43.8927 21.8493 44.2746 21.5751 44.0958C21.2743 43.9006 20.383 42.7651 20.4505 43.1663C20.4772 43.3269 21.6204 44.7566 20.8704 44.1582C20.8016 44.5358 20.2759 44.3556 20.2664 44.8025C20.266 44.8223 20.5615 45.2402 20.5315 45.2562C20.4868 45.2788 20.3142 45.1123 20.278 45.1219C20.1227 45.1569 20.1478 45.398 20.0173 45.4587C19.9682 45.4819 19.833 45.2751 19.7757 45.3014C19.719 45.3273 19.8791 45.6129 19.7174 45.5369C19.6343 45.497 19.4049 45.2521 19.2347 45.0921L19.1978 45.1205C19.1091 45.0542 19.0328 45.0077 18.9933 45.0089C19.4148 45.5094 19.3593 45.5383 19.3974 45.7362C19.4052 45.7744 19.5734 45.9293 19.5851 45.9559C19.6372 46.067 19.4847 45.9509 19.5463 46.0681C19.5611 46.0963 19.7136 46.2595 19.7347 46.2915C19.9215 46.5671 19.5091 46.2675 19.434 46.2189C19.1542 46.0285 19.3389 46.2553 19.2113 46.199C19.0822 46.1445 19.017 45.9762 18.9178 45.9649C18.711 45.9434 18.6246 46.0934 18.5329 46.1873C18.5301 46.1903 18.529 46.194 18.5295 46.1984C18.5349 46.2504 18.7493 46.3899 18.7495 46.3991C18.7435 46.5243 18.4261 46.4156 18.8646 46.8205C17.5967 45.9506 18.9459 46.9588 18.6168 46.8891C18.5903 46.8833 17.9898 46.4741 17.9316 46.3725C17.874 46.2702 18.0999 46.3461 18.0081 46.1921C17.9853 46.1574 17.5063 45.6639 17.4842 45.6255C17.3024 45.3356 18.157 46.0062 18.2057 46.0406C18.4147 46.1806 18.4655 46.1847 18.4503 46.1322C18.4259 46.0506 18.2414 45.8272 18.2306 45.7924C18.1482 45.533 18.3435 45.5463 18.3054 45.3467C18.2819 45.2168 17.7811 44.7121 17.8448 44.6788C18.0627 44.5644 18.7803 45.2513 18.3581 44.4751C18.2702 44.3085 17.7257 43.7508 18.2555 44.1018C18.2709 44.1123 18.3785 44.1926 18.4704 44.245L18.5771 44.1631C18.6644 44.2404 18.7345 44.2781 18.6432 44.111C18.6216 44.0716 18.4885 43.8883 18.4831 43.8687C18.4493 43.7411 18.5823 43.8672 18.5735 43.7658C18.5644 43.6644 18.5357 43.5241 18.6313 43.5467C18.6884 43.5604 18.9895 43.86 19.0694 43.9284C19.2984 44.1263 19.0362 43.7106 19.2906 43.968C19.5483 44.225 19.8417 44.696 20.0666 44.8138C19.694 44.3584 19.3145 43.8884 18.9403 43.4299C19.0996 43.3246 19.3733 43.3391 19.5127 43.1807C19.5296 43.1607 19.2998 42.9416 19.3123 42.9142C19.3657 42.7995 19.5937 42.8979 19.6275 42.7465C19.6528 42.6285 19.509 42.3069 19.5315 42.1729C20.0307 42.6294 19.9958 42.3531 20.1257 42.3196C20.1709 42.3078 20.2885 42.4439 20.3496 42.4681C20.5771 42.5562 20.1432 42.1458 20.1043 42.0551C19.9413 41.6659 20.8395 42.6693 20.9345 42.5427C20.9392 42.5368 20.5491 41.9253 20.532 41.8812C20.4136 41.599 20.706 42.0612 20.7842 42.0642C20.9277 42.0696 21.0922 42.1553 21.0553 41.9134C21.0433 41.8426 20.8321 41.4375 21.1063 41.6614C21.1421 41.6908 21.2861 41.8795 21.3007 41.8856C21.5514 41.9822 21.0933 41.3943 21.0053 41.1429C20.9185 40.8907 21.3351 41.2214 21.4434 41.3258C21.7265 41.5935 21.5003 41.488 21.52 41.5204C21.7562 41.9036 21.7811 41.7881 21.8582 41.7784C22.3001 42.3608 22.3458 42.2731 21.9365 41.7661C21.8914 41.7109 21.8888 41.7972 21.8582 41.7784C21.6944 41.5128 21.6093 41.3354 21.6055 41.2582C21.5915 41.1639 21.7127 41.2429 21.9812 41.5171C22.2034 41.7439 22.384 42.0656 22.4188 41.8741C22.4346 41.7875 22.1169 41.3963 22.0805 41.2527C21.9969 40.9255 22.4086 41.2048 22.4699 41.0664C22.4919 41.0164 22.2896 40.8236 22.2988 40.7819C22.3225 40.6707 22.5073 40.7903 22.5123 40.6536C22.5125 40.641 22.3231 40.4226 22.3421 40.4036C22.4825 40.255 22.7344 40.2945 22.9047 40.1686C22.9869 40.1077 23.0321 39.87 23.1345 39.8297C23.3108 39.7588 23.7502 39.944 23.8088 39.7653C23.8475 39.6498 23.6478 39.4403 23.5575 39.2604C23.3815 38.9123 23.9286 39.3462 24.012 39.4144C24.0148 39.4166 23.9896 39.5254 24.1201 39.6097C24.3375 39.8305 24.0121 39.416 24.012 39.4144C24.0654 39.4589 24.2436 39.3965 24.2351 39.3317C24.2305 39.2964 24.0475 39.0931 24.0483 39.0786C24.0722 38.7406 24.2047 38.5378 24.4681 38.4804C24.4749 38.4819 24.669 38.7182 24.6824 38.7188C24.8761 38.7318 24.6994 38.3902 24.6391 38.1485C24.579 37.9068 24.6946 37.9044 25.0913 38.2546C25.1123 38.1483 25.3582 38.2408 25.5054 38.2984C25.6525 38.3561 25.2644 37.9048 25.2612 37.8919C25.1991 37.648 25.2821 37.6128 25.3998 37.6034C25.482 37.5955 25.5793 37.601 25.6563 37.5606C25.7471 37.5141 25.8325 37.3204 25.8662 37.2016C25.8919 37.1074 26.0228 37.1767 26.0184 37.0598C26.0179 37.0442 25.8313 36.8557 25.8267 36.8461C25.674 36.5559 26.0824 37.0604 26.1735 37.1339C26.5046 37.4009 26.6858 37.5388 26.6312 37.3196C26.6191 37.2691 26.037 36.5367 26.0318 36.467C26.0266 36.3772 26.239 36.6363 26.2277 36.536C26.2269 36.5276 26.0851 36.3779 26.1182 36.3592C26.2699 36.271 26.4868 36.2301 26.5976 36.0935C26.6132 36.0755 26.3634 35.8621 26.382 35.8324C26.4691 35.6934 26.599 35.5815 26.8152 35.5802C26.8693 35.5806 27.016 35.7581 27.0702 35.7999C27.3998 36.0518 27.023 35.5817 27.0225 35.5658C27.0088 35.1672 27.5484 35.3828 27.5483 34.9981C27.5484 34.9754 27.1458 34.4639 27.5922 34.7888C27.6216 34.8107 28.0793 35.1422 27.8204 34.8539C27.8041 34.836 27.5647 34.6699 27.6239 34.6469C27.6833 34.6235 27.5947 34.4301 27.8871 34.5772C27.9788 34.6241 28.4472 34.9392 28.1521 34.5948C28.1323 34.5699 27.4246 33.8391 27.9882 34.2521C28.081 34.32 28.6478 34.7936 28.4115 34.4843C28.3653 34.4248 28.2181 34.3447 28.1664 34.2453C28.0856 34.0933 28.2969 34.146 28.0904 33.8768C28.054 33.829 27.6972 33.4722 28.0269 33.668C28.0786 33.6986 28.2638 33.8619 28.3016 33.8584C28.4829 33.841 28.432 33.6362 28.6452 33.6364C28.7205 33.636 29.0253 33.8938 29.14 33.9187C29.1846 33.9283 29.2334 33.9314 29.2696 33.9225C29.3322 33.9007 29.3651 33.8488 29.3008 33.7494C29.1953 33.5869 28.6474 33.2581 28.6658 33.1501C28.7516 32.6752 29.2889 32.6037 29.574 32.3419C29.6168 32.3027 29.4124 32.1934 29.4611 32.1274C29.6458 31.8758 29.8204 31.3356 30.3574 31.4488C30.7892 31.5371 30.8423 31.9304 31.0667 31.9088C31.1743 31.8979 30.6631 31.3591 30.6578 31.3294C30.5962 31.0371 30.9259 31.1545 30.9558 30.965C30.962 30.9257 30.7128 30.7566 30.7207 30.7252C30.747 30.6146 30.9122 30.627 30.9551 30.5395C30.9736 30.5 30.7951 30.357 30.8338 30.339C30.9254 30.2931 31.0497 30.2959 31.2706 30.3676C31.2907 30.3742 31.4704 30.6013 31.5227 30.5568C31.607 30.4839 31.8567 30.5178 31.7732 30.2806C31.748 30.2094 31.3535 29.8668 31.6795 30.0414C31.7477 30.0777 32.2079 30.5047 31.86 30.0783C31.8028 30.0067 31.3515 29.411 31.7588 29.6606C31.8659 29.7264 32.2879 30.0233 32.2567 29.9361C32.251 29.923 32.0229 29.7578 32.0269 29.7114C32.0445 29.5514 32.1555 29.4693 32.1788 29.3085C32.1846 29.2653 31.9299 29.1156 31.9455 29.0572C31.9871 28.8975 32.1628 28.8084 32.3277 28.7576C32.3882 28.7401 32.5454 28.9258 32.5677 28.9401C32.9289 29.1737 32.5199 28.7683 32.5082 28.7308C32.441 28.5027 32.7096 28.6055 32.7338 28.4693C32.7408 28.4324 32.5194 28.2693 32.5052 28.2484C32.3695 28.0409 32.7072 28.4024 32.7759 28.4062C32.9696 28.418 33.0412 28.3028 33.095 28.1882C33.1139 28.1464 32.8424 27.9742 32.8622 27.9391C32.9749 27.7273 33.161 27.5613 33.4434 27.5052C33.4972 27.4947 33.6631 27.6767 33.711 27.7067C34.0458 27.918 33.7057 27.4971 33.6815 27.4477C33.5696 27.2237 33.7564 27.3389 33.7815 27.2492C33.9032 26.8062 34.3432 26.5233 34.6673 26.2896C35.0851 25.9881 35.5209 25.8463 35.7922 25.4479C35.8098 25.4226 35.5455 25.2302 35.5575 25.2057C35.724 24.8988 36.0413 24.7319 36.1958 24.4153C36.2089 24.3896 35.9511 24.2154 35.9645 24.1673C35.9903 24.0672 36.0807 23.9904 36.2156 23.9866C36.2811 23.9842 36.4392 24.2051 36.5011 24.1991C36.6457 24.1855 36.7376 24.1147 36.7732 23.9998C36.7878 23.9505 36.5049 23.7941 36.5423 23.7463C36.6652 23.584 36.7823 23.4199 36.9407 23.289C37.1066 23.1508 37.3134 23.0509 37.6101 23.0292C37.6507 23.0259 38.1461 23.4341 38.0957 23.306C37.9661 23.1838 37.81 23.0444 37.6696 22.9159C38.0009 22.3922 38.5776 22.0876 39.0267 21.655C39.0457 21.6366 38.7657 21.4386 38.8013 21.4017C39.0067 21.1885 39.1383 20.9112 39.5966 20.9214C39.6416 20.9222 40.062 21.3475 40.0582 21.2211C40.0578 21.1977 40.095 21.0445 40.0258 20.9297C40.0152 20.9125 39.7972 20.7364 39.8231 20.6981C39.9732 20.4832 40.2153 20.3294 40.5335 20.2587C40.5845 20.2483 40.7575 20.4945 40.7955 20.4891C41.0692 20.4452 41.0912 20.1113 41.5078 20.1167C41.797 20.1176 42.0556 20.5693 42.4428 20.9124C42.4885 20.9644 42.6628 20.869 42.8163 21.1251C43.1396 21.7908 43.5399 22.4951 43.9053 23.194C43.9371 23.2683 43.8906 23.3145 43.6184 23.4248C43.4612 23.4878 43.2036 23.5252 43.1586 23.5652C43.0973 23.6054 43.3786 23.6916 43.7254 23.6947C43.7889 23.6949 44.0435 23.6384 44.1398 23.6435C44.256 23.6427 44.324 23.6781 44.3768 23.7271C44.4498 23.794 44.5785 24.0682 44.6917 24.1403C44.8011 24.2143 44.6746 23.9952 44.7707 24.1038C44.867 24.2146 45.0859 24.4751 45.1076 24.5096ZM26.166 38.5526C26.407 38.7203 25.7145 37.9352 25.8283 38.1696C25.8347 38.1818 26.154 38.5444 26.166 38.5526ZM19.893 43.9325C20.2619 44.2234 19.8578 43.6745 19.5773 43.4462C19.2986 43.217 19.7818 43.8437 19.893 43.9325ZM19.4349 44.7473C19.7368 44.9741 18.8327 43.7966 18.9415 44.0919C18.9475 44.1086 19.4175 44.7339 19.4349 44.7473ZM42.2126 21.2832C42.2215 21.2937 42.2803 21.2603 42.2723 21.2491C42.0823 20.9736 41.9613 21.0436 42.2126 21.2832ZM18.9141 45.6587C19.0788 45.7781 18.9891 45.543 18.7853 45.3925C18.6193 45.2731 18.7068 45.5123 18.9141 45.6587ZM29.4686 36.9104C29.4809 36.9202 29.5178 36.9004 29.4519 36.8418C29.2398 36.653 29.2628 36.7468 29.4686 36.9104ZM17.8984 46.9488C18.0785 46.7803 19.1624 47.3697 18.9137 47.4884C18.8681 47.5111 18.6435 47.1902 18.5204 47.1747C18.2942 47.1494 18.8956 47.6353 18.4925 47.4963C18.4187 47.4707 17.8857 46.957 17.8972 46.9475C17.8976 46.9479 17.898 46.9483 17.8984 46.9488ZM27.035 39.4622C27.0398 39.4666 27.0535 39.4629 27.0658 39.4565C27.0794 39.4495 27.0912 39.4392 27.0869 39.4333C26.9795 39.29 26.9009 39.2393 26.8894 39.2604C26.8796 39.2785 26.9199 39.3502 27.035 39.4622ZM31.447 35.5168C31.4716 35.5329 31.567 35.4519 31.5487 35.4313C31.1557 35.0496 30.9545 35.2217 31.447 35.5168ZM24.6678 42.4443C24.8249 42.7456 24.7906 42.822 24.4955 42.5195C24.5571 42.5 24.607 42.4655 24.6678 42.4443Z" fill="#4C422C"/>
</g>
<defs>
<filter id="filter0_g_8_5292" x="0" y="0" width="66.6687" height="68.3146" filterUnits="userSpaceOnUse" color-interpolation-filters="sRGB">
<feFlood flood-opacity="0" result="BackgroundImageFix"/>
<feBlend mode="normal" in="SourceGraphic" in2="BackgroundImageFix" result="shape"/>
<feTurbulence type="fractalNoise" baseFrequency="0.5 0.5" numOctaves="3" seed="5566" />
<feDisplacementMap in="shape" scale="4" xChannelSelector="R" yChannelSelector="G" result="displacedImage" width="100%" height="100%" />
<feMerge result="effect1_texture_8_5292">
<feMergeNode in="displacedImage"/>
</feMerge>
</filter>
</defs>
</svg>
