<svg width="22" height="19" viewBox="0 0 22 19" fill="none" xmlns="http://www.w3.org/2000/svg">
<g filter="url(#filter0_g_8_5301)">
<path d="M6.35105 6.43442C6.5439 7.22901 7.70006 8.16358 8.218 8.23724C8.77283 8.38924 8.95035 8.30631 9.06007 8.25565C9.07412 8.24774 9.08643 8.23948 9.09729 8.231C9.14586 8.18845 9.11557 8.00353 9.13614 7.9657C9.16592 7.89192 9.17801 7.9812 9.16282 7.89669C9.15621 7.86792 9.12143 7.57607 9.11326 7.55288C9.06213 7.42879 9.01518 7.51331 8.93565 7.46839C8.5967 7.29111 8.18536 7.32799 7.91502 7.38066C7.85295 7.39148 7.79173 7.40627 7.73003 7.42469C7.62817 7.45058 7.33124 7.37187 7.34225 7.54778C7.34432 7.56769 7.5534 7.71905 7.56859 7.73414C7.80594 7.9595 7.39878 7.63466 7.3258 7.61707C7.03815 7.54655 6.93054 7.6786 6.96542 7.83554C6.9808 7.90275 7.46574 8.07628 7.18486 7.99763C7.16564 7.99288 6.92306 7.86487 6.89018 7.86632C6.81561 7.87054 6.83351 7.95289 6.80326 7.97029C6.74306 8.00441 6.74216 8.01459 6.72129 8.06272C6.69602 8.11642 6.58318 8.15507 6.56721 8.22417C6.56407 8.23779 6.56493 8.25246 6.57136 8.26833C6.58043 8.28837 6.85682 8.34219 6.89639 8.37878C6.93585 8.41492 6.89726 8.47133 6.82774 8.47904C6.75811 8.48643 6.54493 8.4287 6.49464 8.42169C6.06879 8.36785 6.63005 8.57767 6.64359 8.58645C6.85514 8.81417 6.50457 8.93293 6.49818 9.13319C6.49479 9.28064 6.61031 9.43145 6.60619 9.56559C6.60014 9.72522 6.46959 9.88676 6.52767 10.0398C6.53345 10.0555 6.85275 9.96951 6.86019 9.98713C6.88774 10.052 6.90809 10.1165 6.91697 10.1837C6.93345 10.3075 6.89988 10.4069 6.80355 10.5405C6.78888 10.562 6.5207 10.6736 6.49175 10.7052C6.29828 10.8726 6.00858 11.4482 6.98673 10.6423C6.9716 10.6996 6.96335 10.7637 6.84535 10.9953C6.77222 11.1462 6.54799 11.3721 6.67403 11.2987C6.70183 11.282 6.85503 11.0513 6.88198 11.0412C6.9909 10.9959 7.00786 11.1124 7.14135 11.0223C7.16818 11.003 7.28153 10.7826 7.30565 10.7449C7.4952 10.4367 7.27081 10.9918 7.27052 11.0395C7.23145 11.3782 7.37307 11.2977 7.47708 11.3422C7.50169 11.3528 7.58091 11.028 7.60704 11.0264C7.73994 11.0213 7.85961 11.0852 7.96212 11.2621C7.9843 11.3021 7.89002 11.571 7.89779 11.6043C7.92877 11.722 8.02561 11.398 8.07957 11.3439C8.09146 11.3317 8.10137 11.3332 8.1085 11.3564C8.11687 11.3825 8.05869 11.6182 8.0556 11.6448C8.00988 12.063 8.16712 11.4898 8.17888 11.4788C8.33938 11.3284 8.31669 11.9529 8.47032 11.8888C8.48792 11.8803 8.50046 11.5714 8.5463 11.566C8.85364 11.5281 9.16243 11.6479 9.45391 11.9188C9.49924 11.9605 9.44567 12.1876 9.44627 12.2162C9.46101 12.6633 9.54225 12.0724 9.55948 12.0512C9.69562 11.8999 9.78463 12.406 9.9119 11.703C10.4326 11.9798 10.9636 11.5914 11.5063 12.2173C11.5133 12.2245 11.5061 12.518 11.5202 12.5311C11.6909 12.6924 11.6503 12.2372 11.7408 11.6772C11.7628 11.5365 11.8667 12.2064 11.8765 12.2554C11.91 12.4361 11.8972 12.8731 11.9076 12.908C11.9951 13.1814 11.9282 11.7402 12.0256 11.7357C12.0288 11.7379 12.0272 12.0038 12.0367 12.0298C12.0663 12.1115 12.0873 12.005 12.1169 12.0951C12.1842 12.3036 12.243 13.0027 12.3128 12.5903C12.3212 12.5368 12.2593 11.7207 12.3482 11.7542C12.3842 11.7684 12.5372 11.7443 12.5839 11.7939C12.6311 11.8436 12.6206 12.1088 12.6245 12.12C12.7696 12.4588 12.7355 12.6063 12.8381 13.1161C12.9426 13.6236 12.8244 12.4024 12.8371 12.2639C12.8499 12.1259 12.962 12.4048 12.9931 12.5023C13.024 12.6 13.0124 12.7693 13.0371 12.8239C13.203 13.1798 13.0357 12.2123 13.0579 12.0146C13.1062 11.5464 13.2753 12.4432 13.3787 12.5209C13.4059 12.542 13.3619 12.3385 13.381 12.3167C13.4558 12.2333 13.546 12.5081 13.6067 12.2372C13.6182 12.1928 13.6164 11.6408 13.7227 12.0308C13.7382 12.087 13.7514 12.3142 13.7948 12.3591C13.86 12.4264 13.9672 12.4595 14.0117 12.375C14.0453 12.3123 13.9332 11.9526 14.0055 12.0578C14.038 12.1047 14.0318 12.3277 14.0905 12.3977C14.1487 12.4678 14.2627 12.4365 14.3041 12.4202C14.3455 12.404 14.2651 12.1311 14.2649 12.1117C14.2643 12.0759 14.2691 12.0362 14.2759 11.9986C14.2912 11.9193 14.3144 11.8499 14.319 11.8491C14.6367 11.744 15.0934 12.1062 15.3326 11.8216C15.3501 11.8 15.2069 11.5372 15.2082 11.5311C15.2217 11.3854 15.5125 12.1278 15.6932 12.3347C15.4098 11.7984 15.4939 11.8794 15.5135 11.7927C15.5226 11.7504 15.3938 11.5533 15.3845 11.531C15.2388 11.2038 15.489 11.5906 15.5463 11.666C15.7518 11.9468 15.5594 11.5837 15.7 11.7685C15.8446 11.9485 15.9881 12.2628 16.0452 12.2191C15.9367 12.0304 15.5845 11.584 15.5638 11.4867C15.4646 11.138 15.8882 11.3408 16.0035 11.2552C16.1017 11.1921 16.0818 11.1406 16.1814 11.1162C16.3625 11.0604 15.9578 10.9322 15.7975 10.8127C15.6332 10.6986 16.6079 11.0477 16.8228 11.1073C17.0392 11.1612 16.8262 11.0753 16.9486 11.0931C17.0716 11.1088 17.2032 11.1969 17.2618 11.1611C17.3225 11.1203 16.9708 10.8928 16.745 10.8327C16.2696 10.6979 15.7557 10.629 15.9493 10.5885C15.9609 10.5855 16.2251 10.6534 16.2559 10.6388C16.3337 10.5995 16.3899 10.5503 16.4368 10.4967L16.4336 10.58C16.5072 10.4471 16.5441 10.3136 16.655 10.1725C16.6781 10.1434 16.9819 10.137 16.9987 10.1193C17.1736 9.93089 16.6718 10.0438 16.0986 10.0294C16.8503 9.95648 17.3035 9.84995 17.289 9.71592C17.2805 9.63654 16.9562 9.69844 16.7191 9.68597C16.6477 9.68281 16.8628 9.59408 16.7081 9.60966C16.2028 9.66239 15.6514 9.80218 15.8542 9.65062C15.8639 9.6436 16.14 9.61119 16.1533 9.59032C16.24 9.45327 15.7167 9.53981 15.6296 9.43752C15.5616 9.35868 15.8376 9.12106 15.8588 8.99776C16.6804 8.78357 16.4611 8.71781 15.8867 8.83885C15.8895 8.76193 15.8353 8.69706 15.8909 8.60508C15.9098 8.57343 16.1487 8.51375 16.1731 8.50275C16.5544 8.32744 16.0022 8.47165 15.9763 8.46458C15.717 8.37337 16.071 8.08706 15.6173 8.08958C15.6009 8.0894 15.0519 8.30453 15.4342 8.10236C15.4604 8.08797 15.7293 8.03597 15.7188 7.95657C15.7093 7.87919 15.9368 7.61078 15.642 7.62679C15.5706 7.62955 15.1129 7.78182 15.4258 7.57103C15.4682 7.54224 15.6233 7.47416 15.7029 7.42304C15.9559 7.25815 15.4157 7.51071 15.8488 7.24542C16.282 6.98035 16.5721 6.71541 16.2057 6.77453C16.1948 6.77568 15.7679 6.9798 15.757 6.9452C15.7396 6.88906 15.783 6.76775 15.7487 6.71648C15.7322 6.69216 15.4904 6.85931 15.4832 6.85774C15.2454 6.78218 15.3959 6.53282 15.3677 6.29444C15.3619 6.24889 14.9769 6.39857 15.1869 6.15199C15.4132 5.87787 16.6162 5.07786 16.2064 5.11086C16.0358 5.11692 14.5706 6.2101 15.2031 5.49449C14.8519 5.44699 15.0184 4.92256 14.5816 4.97527C14.5618 4.97728 14.1907 5.32896 14.1762 5.30661C14.1544 5.27195 14.2953 5.07847 14.283 5.04692C14.2655 4.99589 14.223 4.97537 14.1737 4.96517C14.0954 4.96055 13.9974 4.98301 13.9454 4.92752C13.9136 4.89438 14.0558 4.69238 14.0151 4.65171C13.9734 4.61098 13.7796 4.87336 13.7939 4.70132C13.806 4.57095 14.0724 3.96033 14.0327 3.85194C13.7245 4.42912 13.6837 4.39196 13.5247 4.5055C13.4942 4.52775 13.4091 4.73977 13.3896 4.76088C13.3091 4.85189 13.3652 4.66924 13.2821 4.77104C13.2622 4.79549 13.1652 4.9968 13.1438 5.02831C12.9595 5.30476 13.0997 4.81615 13.1206 4.72964C13.2056 4.40339 13.0626 4.658 13.0754 4.52093C13.0866 4.3833 13.2128 4.25949 13.1955 4.16564C13.1579 3.97073 13.0089 3.94955 12.9075 3.89982C12.8663 3.88117 12.7888 4.17085 12.7804 4.17464C12.67 4.21341 12.6907 3.8833 12.4424 4.42534C12.9019 2.95829 12.3411 4.54702 12.3242 4.21538C12.323 4.18865 12.5481 3.49787 12.6216 3.41054C12.6954 3.32342 12.6778 3.55795 12.7873 3.42063C12.8123 3.3881 13.1194 2.77544 13.1451 2.74101C13.3406 2.46957 12.9721 3.49096 12.9547 3.54807C12.7735 4.16719 13.1214 3.51544 13.1659 3.47857C13.3613 3.30591 13.3986 3.48641 13.557 3.37418C13.6603 3.30217 13.9539 2.65459 13.9983 2.69821C14.1515 2.8466 13.7664 3.76194 14.31 3.07273C14.4272 2.92684 14.7505 2.2183 14.5985 2.82884C14.5907 2.86819 14.4152 3.40844 14.6393 3.12881C14.6677 3.09365 14.7782 2.89592 14.7967 2.8845C14.9195 2.8124 14.8706 2.99243 14.9811 2.95742C15.0914 2.92233 15.2419 2.8634 15.2774 2.97718C15.2998 3.04584 15.1258 3.4364 15.0882 3.53546C15.0651 3.59705 15.0621 3.62828 15.0701 3.6428L15.1976 3.73838C15.22 3.79287 15.4156 3.64497 15.2556 3.88048C15.0481 4.17996 14.6337 4.54847 14.5508 4.78676C14.9419 4.34708 15.3478 3.89978 15.745 3.46108C15.9255 3.64834 15.9708 3.957 16.1604 4.11871C16.1845 4.1386 16.392 3.89763 16.4245 3.91413C16.5617 3.98655 16.478 4.23037 16.6418 4.28297C16.7695 4.32278 17.1098 4.20843 17.2548 4.25518C16.7751 4.73334 17.0602 4.72841 17.0875 4.87039C17.0968 4.91921 16.9495 5.02247 16.92 5.08183C16.8109 5.30226 17.2643 4.91352 17.36 4.88664C17.7724 4.77895 16.6694 5.55167 16.7794 5.6577C16.7841 5.66215 17.4429 5.3588 17.4896 5.34907C17.7865 5.27301 17.287 5.49612 17.2728 5.57303C17.2465 5.71395 17.135 5.8604 17.3775 5.85837C17.4485 5.85626 17.8816 5.71158 17.6141 5.9428C17.579 5.97289 17.3693 6.08397 17.3606 6.09701C17.2199 6.32131 17.8759 5.96792 18.1371 5.92115C18.3989 5.87583 17.9975 6.22206 17.8745 6.30809C17.5589 6.53514 17.7067 6.33921 17.6713 6.35312C17.2544 6.52184 17.3604 6.55984 17.3538 6.63225C16.7023 6.96392 16.7763 7.01586 17.3493 6.70583C17.4118 6.67157 17.3293 6.65807 17.3538 6.63225C18.0206 6.3626 18.1535 6.42612 17.5894 6.80407C17.3243 6.98011 16.9725 7.08981 17.1527 7.16506C17.2341 7.2001 17.6855 6.97575 17.8358 6.97802C18.1808 6.98752 17.8147 7.33632 17.9325 7.44103C17.9759 7.48064 18.2164 7.33667 18.2552 7.36126C18.3595 7.42807 18.1929 7.57713 18.3243 7.63485C18.3366 7.64017 18.6027 7.52673 18.6162 7.55519C18.7236 7.77017 18.6063 8.02076 18.6635 8.25494C18.6917 8.36805 18.8963 8.53576 18.8913 8.66357C18.886 8.88675 18.5195 9.21174 18.6466 9.36573C18.7286 9.4688 19.0098 9.40125 19.2118 9.42363C19.6041 9.47113 18.9492 9.73611 18.8462 9.7674C18.8428 9.76821 18.7634 9.67842 18.6228 9.74843C18.32 9.81491 18.8447 9.76614 18.8462 9.7674C18.7806 9.79062 18.7363 9.99305 18.7943 10.0267C18.8263 10.0451 19.0974 10.0083 19.1089 10.0187C19.2475 10.1473 19.3371 10.2846 19.3744 10.4273L19.3567 10.8795C19.3622 11.052 19.3158 11.2334 19.2118 11.4108C19.2049 11.4164 18.9092 11.338 18.8967 11.3514C18.7142 11.5322 19.0333 11.7722 19.1635 12.0651C19.2936 12.355 19.1296 12.5299 18.6026 12.4061C18.5844 12.5896 18.2536 12.6845 18.064 12.7066C17.876 12.7286 18.3375 13.1017 18.3385 13.1204C18.3772 13.6809 17.9346 13.6428 17.614 13.8378C17.4577 13.9344 17.2263 14.1983 17.1034 14.3435C17.0057 14.4618 16.8687 14.3771 16.7992 14.513C16.7894 14.5314 16.9247 14.7598 16.9247 14.7713C16.9379 15.1192 16.713 14.5072 16.6375 14.4155C16.3645 14.0798 16.2333 13.8946 16.1745 14.1348C16.1647 14.1883 16.4188 15.0922 16.3671 15.1702C16.3068 15.2672 16.2222 14.9419 16.1649 15.049C16.1598 15.0579 16.2314 15.2515 16.1738 15.2622C15.9111 15.3126 15.6249 15.2709 15.3987 15.3491C15.3677 15.359 15.4882 15.6661 15.4434 15.6858C15.3224 15.7383 15.1968 15.7727 15.0642 15.773C14.9669 15.7722 14.8647 15.7515 14.768 15.7016C14.7133 15.6723 14.702 15.4414 14.6795 15.3764C14.5453 14.9827 14.5618 15.5865 14.5475 15.6005C14.2419 15.9428 13.9121 15.4406 13.6108 15.7332C13.5955 15.7502 13.5191 16.4028 13.4016 15.8617C13.393 15.8258 13.2798 15.2716 13.2622 15.6594C13.2609 15.6837 13.3256 15.9686 13.2561 15.9452C13.1871 15.9219 13.0942 16.1238 12.979 15.8135C12.9421 15.7159 12.8345 15.1614 12.7828 15.6132C12.7813 15.6447 12.7127 16.6628 12.6217 15.9691C12.6069 15.8549 12.5711 15.1175 12.4941 15.5011C12.4791 15.5754 12.5232 15.738 12.4782 15.8435C12.4082 16.006 12.2962 15.8136 12.2146 16.1463C12.201 16.2052 12.1477 16.7091 12.0756 16.3311C12.0644 16.2719 12.0722 16.0249 12.0412 15.9984C11.8941 15.8714 11.7495 16.0403 11.6015 15.8725C11.5495 15.8135 11.5683 15.4146 11.5146 15.3087C11.4608 15.2028 11.3563 15.1014 11.3035 15.2838C11.2502 15.4664 11.3148 16.1012 11.2311 16.1524C10.8641 16.3748 10.5038 15.9962 10.1438 15.9278C10.0901 15.9175 10.1261 16.1465 10.0456 16.1475C9.7517 16.1535 9.20908 16.3311 8.98853 15.8246C8.81648 15.4201 9.10304 15.1512 8.96271 14.9799C8.89797 14.8983 8.73917 15.6241 8.71736 15.6452C8.5089 15.8604 8.4174 15.5199 8.23606 15.597C8.19833 15.6129 8.19262 15.9141 8.16048 15.9243C8.05097 15.9618 7.95737 15.813 7.85447 15.8215C7.80796 15.8259 7.77919 16.0528 7.73911 16.0284C7.64248 15.9724 7.56838 15.8619 7.50627 15.6324C7.5011 15.6116 7.61324 15.3433 7.54107 15.319C7.45093 15.289 7.36169 15.1364 7.24103 15.1585C7.20615 15.1644 7.16845 15.1838 7.12644 15.2228C7.06966 15.2771 6.94667 15.7851 6.93645 15.4114C6.93354 15.333 7.11133 14.7312 6.86979 15.2291C6.83493 15.3136 6.44199 15.9656 6.47368 15.4831C6.48256 15.3564 6.56626 14.8457 6.49022 14.9064C6.47884 14.9163 6.42528 15.1936 6.37089 15.2052C6.17838 15.2404 6.00957 15.1498 5.79643 15.1596C5.7378 15.1621 5.70523 15.4619 5.619 15.4558C5.38138 15.4394 5.13336 15.2434 4.95725 15.0432C4.89401 14.9697 5.06536 14.7893 5.07182 14.763C5.19027 14.3422 4.85439 14.8108 4.8038 14.8198C4.5009 14.8722 4.49664 14.5449 4.2749 14.4677C4.21341 14.4449 4.08272 14.6897 4.05784 14.7015C3.80257 14.8059 4.1849 14.4798 4.15232 14.3851C4.06601 14.1204 3.85962 13.9625 3.66318 13.8048C3.59098 13.7469 3.42985 14.0402 3.36546 13.9828C2.9725 13.6403 2.67697 13.1401 2.63209 12.6549C2.62408 12.5637 2.86745 12.5034 2.90981 12.4631C3.21177 12.1928 2.66507 12.2735 2.60174 12.2535C2.32082 12.1829 2.49858 12.0401 2.41372 11.9228C2.31857 11.7908 2.24536 11.6496 2.19109 11.5109C2.00643 11.0442 2.01588 10.5036 2.04463 10.0883C2.09346 9.37918 2.33749 8.8737 2.35527 8.22978C2.3571 8.18837 2.0289 8.18785 2.02655 8.15047C2.01495 7.74781 2.16979 7.3716 2.25944 6.97234C2.27797 6.88977 2.29375 6.80579 2.30512 6.71883C2.31129 6.67718 1.99903 6.6388 1.99991 6.56666C1.99981 6.41754 2.07915 6.24915 2.22494 6.15085C2.29529 6.10325 2.50594 6.28873 2.57106 6.24079C2.72294 6.13096 2.81076 5.98785 2.83923 5.81737C2.85124 5.74388 2.51977 5.70224 2.55898 5.61497C2.81757 5.02209 3.18383 4.38734 3.94895 4.16782C4.00214 4.15212 4.4922 4.56688 4.46567 4.41847C4.34378 4.28858 4.19472 4.14154 4.06176 4.00542C4.35106 3.64406 4.73137 3.36486 5.1313 3.15274C5.57495 2.91848 6.00414 2.78113 6.40772 2.63044C6.44031 2.61828 6.25268 2.32836 6.31674 2.30267C6.68442 2.15588 7.02802 1.94091 7.50562 2.16496C7.55219 2.18714 7.68239 2.77039 7.76638 2.65665C7.78105 2.63563 7.92833 2.52013 7.94795 2.38408C7.95049 2.36358 7.8599 2.0973 7.91765 2.07712C8.22996 1.97782 8.56833 1.96339 9.10671 2.09935C9.1629 2.11337 9.21595 2.12914 9.27702 2.14738C9.38541 2.18149 9.25302 2.47148 9.32587 2.49855C9.58323 2.60392 9.92745 2.59458 10.5148 2.88355C11.1171 3.13154 11.7688 4.07798 11.712 4.59487C11.7024 4.93766 11.5172 4.99396 11.3125 5.06015C11.103 5.11739 10.8514 5.16038 10.6027 5.23412C10.5334 5.25953 10.5243 5.36512 10.2297 5.36681C9.49005 5.37868 8.67982 5.36198 7.89145 5.38038C7.72169 5.3723 7.90466 5.44926 7.49421 5.40317C7.46683 5.39284 7.33011 5.37508 7.19172 5.40547C7.09601 5.42081 6.79595 5.40734 6.67424 5.44396C6.55422 5.49153 6.80323 5.51464 6.68247 5.68175C6.62324 5.77256 6.51068 5.82745 6.41797 5.90938C6.33007 5.996 6.242 6.10013 6.35105 6.43442ZM17.2378 12.7227C16.9686 12.5891 17.6879 13.3501 17.6002 13.0823C17.5951 13.0685 17.2515 12.7287 17.2378 12.7227ZM15.4098 4.51765C15.146 4.90646 15.6741 4.47614 15.8818 4.17849C16.0849 3.87707 15.4875 4.39764 15.4098 4.51765ZM14.4057 4.13166C14.2979 4.49311 15.11 3.25028 14.8435 3.43784C14.8281 3.44832 14.4116 4.11044 14.4057 4.13166ZM10.1663 4.47198C10.1622 4.48215 10.2657 4.65004 10.2757 4.64798C10.6402 4.59015 10.3669 4.15551 10.1663 4.47198ZM13.4556 4.04277C13.399 4.23751 13.5751 4.06403 13.647 3.822C13.7029 3.62622 13.5236 3.79926 13.4556 4.04277ZM13.4405 13.0282C13.4378 13.0128 13.4013 13.0029 13.412 13.0904C13.4468 13.3723 13.4872 13.2869 13.4405 13.0282ZM12.1243 3.5583C12.3024 3.67677 12.0213 4.8765 11.8604 4.67611C11.8308 4.63974 12.066 4.3327 12.0535 4.21185C12.0293 3.99119 11.727 4.70199 11.7672 4.28051C11.7747 4.20341 12.1149 3.54893 12.1252 3.55679C12.1249 3.5573 12.1246 3.5578 12.1243 3.5583ZM16.3077 11.8753C16.2969 11.8667 16.2538 11.8905 16.2623 11.9012C16.4698 12.163 16.5695 12.103 16.3077 11.8753ZM11.385 12.5054C11.3819 12.476 11.2722 12.4495 11.2689 12.4766C11.214 13.0206 11.4417 13.0759 11.385 12.5054ZM15.8802 8.99024C15.5448 9.02979 15.4934 8.99211 15.8863 8.83918C15.8781 8.89153 15.8877 8.93854 15.8802 8.99024Z" fill="#4C422C"/>
</g>
<defs>
<filter id="filter0_g_8_5301" x="0" y="0" width="21.3745" height="18.4705" filterUnits="userSpaceOnUse" color-interpolation-filters="sRGB">
<feFlood flood-opacity="0" result="BackgroundImageFix"/>
<feBlend mode="normal" in="SourceGraphic" in2="BackgroundImageFix" result="shape"/>
<feTurbulence type="fractalNoise" baseFrequency="0.5 0.5" numOctaves="3" seed="5566" />
<feDisplacementMap in="shape" scale="4" xChannelSelector="R" yChannelSelector="G" result="displacedImage" width="100%" height="100%" />
<feMerge result="effect1_texture_8_5301">
<feMergeNode in="displacedImage"/>
</feMerge>
</filter>
</defs>
</svg>
