<svg width="12" height="15" viewBox="0 0 12 15" fill="none" xmlns="http://www.w3.org/2000/svg">
<g filter="url(#filter0_g_8_5330)">
<path d="M9.19134 6.25209C9.23084 6.34173 9.14614 6.28921 9.04302 6.2036C9.01091 6.17718 8.87589 6.04993 8.84728 6.02637C8.79125 5.98071 8.85689 6.04379 8.79168 5.9878C8.76923 5.96882 8.55058 5.77245 8.53171 5.75743C8.42897 5.67753 8.48189 5.73085 8.43119 5.69418C8.17952 5.5151 8.05517 5.49543 7.89272 5.51731C7.87773 5.51948 7.84706 5.51419 7.81199 5.50855C7.7225 5.4922 7.60498 5.47161 7.67057 5.53066C7.68149 5.54021 7.91784 5.64358 7.93692 5.65299C8.22989 5.79513 7.75571 5.57986 7.68891 5.55987C7.42545 5.48027 7.385 5.51637 7.46527 5.58562C7.50009 5.61543 7.98499 5.7816 7.71072 5.69397C7.69212 5.68822 7.43686 5.58878 7.40793 5.58274C7.34282 5.56925 7.38213 5.60446 7.35898 5.60481C7.31307 5.60499 7.31479 5.60845 7.30689 5.6218C7.29402 5.6388 7.15643 5.62114 7.20839 5.66258C7.22031 5.67152 7.48982 5.75057 7.53318 5.77192C7.5765 5.79311 7.54811 5.80428 7.48289 5.79131C7.41759 5.7784 7.20716 5.71178 7.15839 5.69829C6.74628 5.58583 7.30537 5.78072 7.31898 5.78637C7.54285 5.90902 7.20558 5.86639 7.19177 5.92585C7.18238 5.96974 7.27981 6.04193 7.25588 6.07999C7.22608 6.12608 7.06791 6.13989 7.08351 6.19693C7.08485 6.20286 7.41024 6.2591 7.41258 6.26622C7.43734 6.34096 7.3901 6.40172 7.15841 6.4383C7.13487 6.44205 6.85024 6.38631 6.80957 6.38752C6.56705 6.39447 5.98842 6.39442 7.23388 6.60099C7.18073 6.6243 7.12505 6.65526 6.86914 6.64972C6.70436 6.64669 6.3937 6.58703 6.5242 6.62817C6.55327 6.63736 6.82838 6.66646 6.85127 6.67735C6.94736 6.72337 6.85382 6.74679 6.99173 6.79654C7.02044 6.80667 7.26668 6.83454 7.31076 6.8417C7.66775 6.89978 7.07161 6.85417 7.0278 6.85517C6.70129 6.86059 6.82407 6.90914 6.81195 6.94816C6.80898 6.95739 7.14115 6.98154 7.1502 6.99152C7.19271 7.04308 7.15952 7.08722 7.00807 7.11967C6.97358 7.12687 6.69222 7.09047 6.66129 7.09262C6.52831 7.10293 7.06107 7.15752 6.94396 7.16741C6.91996 7.16963 6.67846 7.1451 6.65184 7.14348C6.23392 7.11846 6.82343 7.18317 6.8362 7.18742C6.93769 7.22064 6.77073 7.2251 6.62974 7.2335C6.5284 7.23902 6.4405 7.24645 6.47563 7.2666C6.4863 7.27236 6.79329 7.28665 6.80459 7.30118C6.88165 7.39908 6.79063 7.4869 6.53942 7.56261C6.50077 7.57451 6.27124 7.54903 6.2428 7.54803C5.79838 7.53388 6.39189 7.58269 6.41397 7.58875C6.57267 7.63573 6.07214 7.63971 6.7785 7.70797C6.52337 7.84992 6.91324 8.02499 6.27162 8.15469C6.26418 8.15641 5.97137 8.13996 5.95779 8.14346C5.79119 8.18486 6.24693 8.19539 6.80252 8.25022C6.94204 8.26385 6.26863 8.26069 6.21925 8.26102C6.0373 8.26165 5.60172 8.23567 5.56643 8.23694C5.28931 8.24838 6.73107 8.30271 6.73038 8.33189C6.72794 8.33271 6.46273 8.31846 6.43625 8.31988C6.35312 8.32428 6.45827 8.33598 6.36664 8.33995C6.15461 8.3489 5.4538 8.3287 5.86052 8.37086C5.91331 8.37621 6.73133 8.40165 6.69173 8.42647C6.67525 8.43632 6.68758 8.48367 6.63414 8.49451C6.58075 8.50559 6.31749 8.48753 6.30604 8.48804C5.95629 8.51116 5.81231 8.49286 5.29569 8.49325C4.78101 8.49401 6.00728 8.53034 6.14388 8.54216C6.2801 8.55394 5.99167 8.57048 5.89148 8.57375C5.79126 8.57696 5.62402 8.56342 5.56724 8.56736C5.19621 8.59389 6.17532 8.60381 6.36953 8.62247C6.82942 8.66581 5.91938 8.65991 5.82945 8.68443C5.80516 8.691 6.01246 8.69129 6.03163 8.69836C6.10484 8.72619 5.82062 8.73346 6.07996 8.7704C6.12221 8.77648 6.66833 8.81507 6.26665 8.819C6.20873 8.81955 5.98227 8.80712 5.9312 8.81663C5.85456 8.83083 5.80422 8.8591 5.87951 8.8788C5.93522 8.89333 6.30906 8.88823 6.19262 8.90154C6.14063 8.90747 5.92251 8.88822 5.84306 8.8999C5.76362 8.9116 5.77234 8.94668 5.77955 8.96001C5.78694 8.97339 6.07041 8.9732 6.08946 8.97474C6.19863 8.98388 6.33462 9.01235 6.33423 9.01457C6.36609 9.1277 5.88632 9.22142 6.04228 9.33449C6.05411 9.34333 6.35299 9.34329 6.35787 9.3447C6.4825 9.37648 5.68857 9.3382 5.42229 9.35399C6.02865 9.36233 5.91864 9.37249 5.98475 9.39462C6.0171 9.40529 6.25196 9.40407 6.27598 9.40543C6.63229 9.42675 6.17153 9.42881 6.07727 9.42985C5.7305 9.43367 6.13983 9.45151 5.90805 9.45414C5.678 9.45684 5.33739 9.43542 5.34141 9.45556C5.55836 9.4649 6.1258 9.45994 6.21746 9.47661C6.56417 9.53915 6.11747 9.63885 6.07059 9.68409C6.02373 9.72933 6.06358 9.74482 5.98477 9.77065C5.84228 9.81728 6.26336 9.80502 6.4556 9.8374C6.64782 9.86978 5.61254 9.84203 5.38988 9.84351C5.16733 9.84496 5.39631 9.85254 5.27393 9.85632C5.15158 9.8601 5.00037 9.84667 4.9543 9.85862C4.90826 9.87062 5.30368 9.9098 5.53639 9.91699C6.02938 9.93226 6.5471 9.9231 6.36486 9.9538C6.35405 9.95557 6.08184 9.94622 6.05424 9.95316C5.84396 10.0081 5.83032 10.0676 5.64435 10.1236C5.61835 10.1313 5.31552 10.1211 5.29696 10.1256C5.10274 10.1719 5.61365 10.1596 6.18076 10.1912C5.42578 10.1782 4.9637 10.1883 4.9589 10.225C4.95576 10.247 5.28556 10.2461 5.51785 10.2624C5.58788 10.2673 5.36131 10.2809 5.51637 10.285C6.02324 10.2987 6.59086 10.289 6.36458 10.3245C6.35382 10.3261 6.07637 10.3185 6.05952 10.3241C5.94921 10.3598 6.47944 10.3685 6.54335 10.4084C6.5935 10.4397 6.26974 10.4928 6.21691 10.5278C5.36801 10.5212 5.56217 10.5561 6.14739 10.5735C6.12328 10.5963 6.15621 10.6213 6.07518 10.6431C6.04755 10.6506 5.8018 10.6441 5.77524 10.6449C5.35855 10.6573 5.92793 10.6707 5.95023 10.6758C6.16693 10.7309 5.7351 10.7723 6.15664 10.8259C6.17182 10.8278 6.76149 10.8336 6.33087 10.8453C6.30118 10.846 6.03297 10.8277 6.01211 10.8519C5.9912 10.8761 5.67488 10.9201 5.94799 10.9549C6.01374 10.9633 6.49236 10.9858 6.11827 11.0008C6.06748 11.0028 5.89836 10.9997 5.80424 11.0025C5.50432 11.0116 6.10033 11.0195 5.59393 11.0297C5.08755 11.0399 4.70825 11.0639 5.05748 11.099C5.06764 11.1002 5.54001 11.1098 5.53251 11.1204C5.52012 11.1374 5.42163 11.1613 5.42466 11.1791C5.42627 11.1877 5.71963 11.1831 5.72499 11.1846C5.8892 11.2424 5.62758 11.2824 5.51393 11.3434C5.49252 11.3547 5.89246 11.3879 5.57616 11.409C5.22991 11.4322 3.78983 11.4046 4.13282 11.4606C4.27001 11.4832 6.09703 11.5144 5.15035 11.5527C5.38479 11.6306 4.90023 11.7013 5.23508 11.7794C5.24991 11.7829 5.75982 11.7944 5.75288 11.8026C5.74158 11.8148 5.50324 11.8213 5.48753 11.83C5.41571 11.8663 5.61959 11.8997 5.58785 11.9348C5.57632 11.9481 5.3299 11.9433 5.31611 11.9592C5.30256 11.9751 5.62705 11.9858 5.47032 12.0073C5.35085 12.0236 4.68757 12.0395 4.61025 12.061C5.26449 12.0621 5.25101 12.0769 5.42371 12.1033C5.45721 12.1084 5.68493 12.1031 5.71252 12.1055C5.82988 12.1153 5.64116 12.1242 5.76891 12.1335C5.79959 12.1358 6.02302 12.136 6.06072 12.1378C6.38975 12.1536 5.88717 12.1792 5.79966 12.1836C5.46732 12.2005 5.75791 12.2085 5.62704 12.2215C5.49619 12.2345 5.33261 12.215 5.2532 12.2302C5.08895 12.2616 5.12503 12.3021 5.11476 12.3341C5.11204 12.3468 5.41028 12.3381 5.41682 12.34C5.49246 12.3664 5.17521 12.393 5.76929 12.4077C4.23322 12.4259 5.91828 12.4236 5.61078 12.4613C5.58591 12.4643 4.85951 12.468 4.75287 12.4566C4.64633 12.4452 4.87339 12.4279 4.70716 12.4121C4.66815 12.4084 3.98747 12.3868 3.94624 12.3839C3.624 12.3609 4.70949 12.3577 4.76911 12.3565C5.41252 12.3428 4.67923 12.3165 4.62856 12.3096C4.39639 12.2779 4.54905 12.2511 4.38333 12.2246C4.27623 12.2073 3.56519 12.2054 3.58695 12.1918C3.6589 12.1465 4.65082 12.1311 3.79078 12.0882C3.60736 12.079 2.8302 12.0878 3.44131 12.0553C3.47984 12.0532 4.03889 12.0293 3.68529 12.015C3.6407 12.0132 3.41422 12.0131 3.39519 12.0108C3.27213 11.9951 3.45257 11.9848 3.36616 11.9677C3.27975 11.9506 3.15094 11.9301 3.22777 11.9107C3.27371 11.899 3.69571 11.8843 3.79902 11.8788C4.09665 11.8633 3.6087 11.8459 3.9691 11.8365C4.33131 11.8269 4.88136 11.8467 5.11541 11.821C4.52698 11.8195 3.92301 11.8168 3.33124 11.8147C3.35201 11.7578 3.54235 11.702 3.51643 11.645C3.51263 11.638 3.19627 11.6448 3.18404 11.6372C3.13383 11.605 3.35939 11.5773 3.26963 11.5439C3.19895 11.5181 2.86406 11.4893 2.77973 11.4622C3.45309 11.4472 3.22459 11.4066 3.28619 11.3777C3.30748 11.3676 3.48731 11.3687 3.54599 11.3616C3.76304 11.3348 3.16799 11.3462 3.07437 11.3385C2.6748 11.3054 4.0216 11.306 3.98842 11.2682C3.98712 11.2663 3.26929 11.2398 3.2246 11.2363C2.93314 11.2139 3.47448 11.2334 3.52756 11.2201C3.62456 11.1958 3.79606 11.1794 3.58588 11.1499C3.52362 11.1414 3.07623 11.1198 3.42239 11.1046C3.46772 11.1027 3.705 11.1046 3.7189 11.103C3.95065 11.0726 3.20506 11.0693 2.95261 11.0504C2.70021 11.0315 3.21501 11.0057 3.36338 11.0007C3.74719 10.9875 3.52734 11.0126 3.56499 11.0136C4.01311 11.0246 3.93603 11.0042 3.97396 10.989C4.70504 10.9896 4.66124 10.9681 4.01034 10.9732C3.93924 10.9738 4.00737 10.986 3.97396 10.989C3.25674 10.9727 3.16497 10.9485 3.83537 10.9253C4.14957 10.9145 4.51581 10.9276 4.38197 10.8901C4.32156 10.8731 3.81816 10.8774 3.68099 10.8618C3.36802 10.8262 3.8378 10.7843 3.764 10.749C3.73721 10.7361 3.4616 10.7471 3.4338 10.7382C3.35914 10.7147 3.566 10.6957 3.46023 10.6718C3.45029 10.6696 3.16183 10.6731 3.15819 10.6659C3.12501 10.6107 3.31006 10.564 3.31557 10.507C3.3181 10.4795 3.15938 10.4286 3.19158 10.4001C3.24568 10.3507 3.66561 10.2933 3.5641 10.2498C3.49912 10.2215 3.21058 10.225 3.01413 10.2113C2.63332 10.1848 3.31619 10.1505 3.42192 10.1461C3.42542 10.146 3.4932 10.1704 3.64141 10.1591C3.95005 10.1547 3.42325 10.1464 3.42192 10.1461C3.49022 10.1432 3.55618 10.0962 3.50113 10.0861C3.47105 10.0806 3.19769 10.0807 3.18717 10.0779C2.94323 10.0111 2.87447 9.94671 3.00305 9.88256C3.00859 9.88148 3.31429 9.88689 3.32349 9.88431C3.45988 9.84831 3.08619 9.81966 2.86455 9.78564C2.64301 9.75174 2.71768 9.72771 3.24277 9.71646C3.17701 9.69198 3.40952 9.66156 3.55058 9.64436C3.69165 9.62717 3.0966 9.61563 3.08486 9.61374C2.70911 9.5551 3.05023 9.52875 3.10415 9.47438C3.1308 9.44839 3.04538 9.3952 2.98083 9.36509C2.92882 9.34141 3.06852 9.3303 2.97974 9.30777C2.96789 9.30473 2.70289 9.30263 2.6927 9.30157C2.37615 9.27221 3.02364 9.29567 3.13941 9.29305C3.56041 9.28363 3.78465 9.27743 3.58734 9.24409C3.54215 9.23645 2.60996 9.19803 2.55568 9.18402C2.48682 9.16608 2.82097 9.17915 2.74035 9.16026C2.73376 9.15865 2.52753 9.15469 2.53685 9.14421C2.57738 9.09536 2.69853 9.04504 2.67906 8.9928C2.6772 8.9857 2.3499 8.98717 2.34182 8.97675C2.30417 8.92779 2.31756 8.87572 2.47184 8.83305C2.51085 8.82248 2.73966 8.83564 2.80772 8.83489C3.21952 8.83027 2.62233 8.79303 2.61104 8.78906C2.32607 8.69567 2.86887 8.64548 2.61403 8.55048C2.59905 8.54536 1.95949 8.48848 2.50952 8.4894C2.54611 8.48937 3.10882 8.49131 2.72492 8.46442C2.7009 8.46272 2.41115 8.46347 2.44123 8.44662C2.47125 8.42985 2.27894 8.39456 2.59776 8.38116C2.69819 8.37681 3.25955 8.3785 2.81337 8.34005C2.78221 8.33774 1.77283 8.26505 2.47061 8.27756C2.58547 8.27966 3.32329 8.30891 2.94597 8.26759C2.87282 8.25961 2.70788 8.26303 2.60563 8.24531C2.44803 8.21801 2.64672 8.19752 2.31907 8.15854C2.26105 8.15192 1.76106 8.11189 2.14179 8.11116C2.20142 8.11107 2.44754 8.12568 2.47545 8.11845C2.60927 8.08426 2.44625 8.03604 2.61838 8.00357C2.67887 7.99209 3.07669 8.01659 3.18403 8.00658C3.29134 7.9965 3.39525 7.97178 3.21402 7.94818C3.03273 7.92447 2.39747 7.91231 2.34778 7.88652C2.13202 7.77402 2.50932 7.6902 2.56951 7.58962C2.57849 7.57475 2.35086 7.57478 2.34783 7.55183C2.33553 7.46821 2.13213 7.30576 2.61914 7.26361C3.00904 7.23151 3.29782 7.32474 3.45787 7.29167C3.5342 7.27624 2.79925 7.20115 2.77647 7.19383C2.54467 7.1246 2.87359 7.11257 2.77708 7.05887C2.75707 7.04756 2.45794 7.03397 2.44422 7.02439C2.39474 6.99125 2.53034 6.97149 2.50824 6.94211C2.49764 6.92885 2.26964 6.91227 2.28818 6.90227C2.30854 6.8905 2.34226 6.88066 2.39653 6.87278C2.45348 6.86418 2.53304 6.85775 2.64351 6.85363C2.66316 6.85296 2.94503 6.8938 2.95731 6.87479C2.9764 6.84368 3.19038 6.82411 2.9765 6.76708C2.91216 6.74994 2.3921 6.70014 2.75358 6.71003C2.82909 6.71205 3.4529 6.77854 2.91604 6.69888C2.82677 6.68609 2.10393 6.56612 2.57522 6.58987C2.69927 6.59593 3.21155 6.63248 3.13266 6.61101C3.12005 6.60785 2.84015 6.58639 2.81409 6.57231C2.72715 6.52281 2.76124 6.48565 2.67853 6.4341C2.6559 6.42026 2.36543 6.40492 2.34094 6.3851C2.27322 6.33009 2.35328 6.28175 2.44915 6.24625C2.48501 6.23352 2.72238 6.2742 2.74851 6.27611C3.17348 6.3085 2.60444 6.2274 2.57202 6.2166C2.37788 6.15167 2.6497 6.15427 2.58377 6.10763C2.56631 6.09477 2.29367 6.06635 2.26972 6.06109C2.03593 6.00791 2.52164 6.08868 2.57721 6.08226C2.73445 6.06505 2.7184 6.01997 2.68923 5.97628C2.67812 5.9602 2.36125 5.93161 2.35495 5.91747C2.31159 5.8335 2.35423 5.75476 2.53956 5.70542C2.57502 5.6963 2.81511 5.7443 2.87076 5.75021C3.25991 5.79269 2.73836 5.67786 2.68947 5.66223C2.4659 5.59266 2.68155 5.61512 2.64654 5.58036C2.47202 5.40774 2.64742 5.2539 2.7636 5.13591C2.9142 4.97896 3.17355 4.89644 3.16317 4.70497C3.16285 4.69279 2.84588 4.61788 2.84167 4.60598C2.80255 4.45289 2.96402 4.35738 2.92076 4.18968C2.91783 4.17592 2.61948 4.09517 2.60514 4.06923C2.5735 4.0158 2.60755 3.96844 2.71435 3.96214C2.76602 3.95849 3.00628 4.07309 3.05304 4.06808C3.16239 4.05695 3.19945 4.0198 3.17055 3.95654C3.15763 3.92941 2.85136 3.84694 2.85785 3.81966C2.89556 3.63273 2.92845 3.4179 3.38158 3.4186C3.41283 3.41839 3.99463 3.68843 3.89522 3.61178C3.73624 3.53169 3.54821 3.43957 3.37781 3.35495C3.3805 3.32933 3.3854 3.30504 3.39214 3.28201C3.46455 3.03657 3.76221 2.89392 3.94552 2.6798C3.95407 2.66966 3.65973 2.49816 3.6755 2.47664C3.76558 2.35323 3.78799 2.165 4.14843 2.25576C4.1837 2.26465 4.64441 2.64558 4.59923 2.55793C4.59087 2.54196 4.56782 2.44485 4.47932 2.34864C4.46587 2.33424 4.24496 2.16329 4.25237 2.14196C4.29897 2.02135 4.43057 1.97129 4.62273 2.01635C4.65407 2.02404 4.85828 2.24058 4.8822 2.24813C5.04859 2.30189 4.93925 2.09099 5.1704 2.24118C5.32511 2.34327 5.67921 2.71568 6.04977 3.06016C6.10205 3.10876 6.12431 3.10248 6.33304 3.3098C6.858 3.83101 7.42419 4.41039 7.98457 4.96514C8.10515 5.08475 7.99431 4.93689 8.27356 5.23807C8.29215 5.25832 8.37541 5.3677 8.47095 5.46907C8.53694 5.53922 8.75237 5.7469 8.83531 5.83823C8.91825 5.9294 8.73616 5.75682 8.83231 5.86544C8.93001 5.97505 9.1735 6.21287 9.19134 6.25209ZM4.18115 9.56736C4.46722 9.55404 3.42056 9.53478 3.67068 9.55818C3.68401 9.55933 4.16712 9.56806 4.18115 9.56736ZM4.33197 11.7033C4.79372 11.681 4.11482 11.6644 3.7582 11.6802C3.40197 11.6959 4.19199 11.7102 4.33197 11.7033ZM4.66885 11.9414C5.03291 11.9149 3.54847 11.9096 3.84854 11.9386C3.8655 11.9403 4.64771 11.943 4.66885 11.9414ZM6.0925 3.22146C6.10261 3.231 6.12317 3.22946 6.11362 3.21953C5.88327 2.97963 5.84152 2.98367 6.0925 3.22146ZM5.03575 12.1773C5.23655 12.169 5.00475 12.1449 4.75505 12.1552C4.55417 12.1635 4.78595 12.1876 5.03575 12.1773ZM5.31867 8.66973C5.33427 8.66993 5.34862 8.66019 5.26048 8.65772C4.97658 8.64977 5.05627 8.66645 5.31867 8.66973ZM5.0528 12.5776C5.10867 12.5184 6.3349 12.4826 6.19653 12.547C6.1715 12.5586 5.8055 12.5218 5.69495 12.5367C5.49354 12.5638 6.26346 12.5819 5.85089 12.6096C5.77538 12.6146 5.04688 12.581 5.05109 12.5775C5.05166 12.5775 5.05223 12.5775 5.0528 12.5776ZM5.43854 9.57692C5.45239 9.57679 5.46573 9.5629 5.45202 9.56235C5.11984 9.54938 5.09276 9.57747 5.43854 9.57692ZM5.98729 8.10493C6.01679 8.10545 6.0458 8.07459 6.01871 8.07232C5.47658 8.03041 5.41626 8.09387 5.98729 8.10493ZM6.19426 10.5282C6.52849 10.5457 6.56773 10.564 6.14782 10.5734C6.17021 10.5584 6.17359 10.5432 6.19426 10.5282Z" fill="#4C422C"/>
</g>
<defs>
<filter id="filter0_g_8_5330" x="0" y="0" width="11.2012" height="14.6101" filterUnits="userSpaceOnUse" color-interpolation-filters="sRGB">
<feFlood flood-opacity="0" result="BackgroundImageFix"/>
<feBlend mode="normal" in="SourceGraphic" in2="BackgroundImageFix" result="shape"/>
<feTurbulence type="fractalNoise" baseFrequency="0.5 0.5" numOctaves="3" seed="5566" />
<feDisplacementMap in="shape" scale="4" xChannelSelector="R" yChannelSelector="G" result="displacedImage" width="100%" height="100%" />
<feMerge result="effect1_texture_8_5330">
<feMergeNode in="displacedImage"/>
</feMerge>
</filter>
</defs>
</svg>
