<svg width="157" height="72" viewBox="0 0 157 72" fill="none" xmlns="http://www.w3.org/2000/svg">
<g filter="url(#filter0_g_82_542)">
<path d="M20.2293 72.6938C25.4494 72.319 30.6427 71.9978 35.8628 71.5962C44.8306 70.8734 53.7717 70.0971 62.7396 69.4011C64.8008 69.2405 66.8889 69.4011 68.9501 69.5082C69.8335 69.5617 70.7437 69.7491 71.52 70.0703C72.912 70.6593 73.0191 71.9978 71.6806 72.7473C70.5028 73.4166 69.1643 73.9252 67.8258 74.1661C63.73 74.8622 59.6343 75.5314 55.5117 75.9597C44.2149 77.1376 32.9182 78.2084 21.1127 79.3863C22.0765 79.9484 22.7457 80.35 23.4417 80.7248C24.8069 81.5011 26.2793 82.1436 27.5107 83.0805C28.0193 83.4553 28.5012 84.5797 28.3138 85.0883C28.0461 85.7575 27.1359 86.5874 26.4667 86.6409C24.5125 86.748 22.4512 86.8016 20.6041 86.2929C15.6517 84.9277 10.8064 83.2679 5.9343 81.6885C5.29183 81.4743 4.64932 81.1531 4.06039 80.8051C1.78497 79.3863 1.35672 77.1911 2.96291 75.0228C3.41799 74.4071 4.00688 73.8181 4.67612 73.4166C9.89621 70.2577 15.0895 66.965 20.9788 65.0911C22.1835 64.7163 23.4684 64.4486 24.7266 64.4219C25.3691 64.4219 26.3863 64.9305 26.6005 65.4659C26.8147 66.0013 26.4934 67.0989 26.0384 67.5272C24.7534 68.7318 23.2543 69.7223 21.8355 70.7664C21.2466 71.2214 20.6041 71.623 19.9884 72.0513C20.0687 72.2655 20.1223 72.5064 20.2026 72.7206" fill="#4C422C"/>
</g>
<g filter="url(#filter1_g_82_542)">
<path d="M35.0594 25.0701C35.7822 25.7126 36.5318 26.3283 37.2545 26.9975C47.5609 36.3403 57.8671 45.683 68.1467 55.0524C69.0836 55.9091 70.0206 56.8728 70.6363 57.9704C71.0646 58.7199 71.3323 59.9781 70.9843 60.6474C70.3686 61.7717 69.0301 61.4772 68.0932 60.8615C66.0319 59.4963 63.9974 58.1042 62.1235 56.5516C58.5631 53.5801 55.1366 50.448 51.603 47.4498C45.2051 42.0155 38.7804 36.6347 32.3556 31.2272C31.6329 30.6383 30.8565 30.1029 29.5181 29.1391C30.5621 31.8697 31.3919 33.9577 32.1682 36.0458C32.4359 36.7953 32.7036 37.5181 32.9446 38.2677C33.2658 39.2582 33.3729 40.2754 32.3556 40.8911C31.3116 41.5336 30.3747 40.9179 29.7055 40.1951C28.715 39.1243 27.6977 37.9732 27.0017 36.715C25.1814 33.342 23.5217 29.8619 21.7817 26.4354C20.8983 24.6686 19.881 22.982 19.1582 21.1349C17.7394 17.4942 19.4526 15.3794 23.3878 15.7542C23.6822 15.7809 23.9768 15.8077 24.2712 15.888C29.9464 17.5745 35.6216 19.2343 41.2432 21.0278C42.5281 21.4294 43.706 22.286 44.7768 23.1159C45.2051 23.4371 45.4728 24.3205 45.3657 24.9095C45.3122 25.2843 44.4823 25.7661 44.0005 25.7929C42.5281 25.8464 41.029 25.7929 39.5835 25.6323C38.1379 25.4449 36.7191 25.0433 35.2735 24.7489C35.1932 24.8827 35.1129 24.9898 35.0326 25.1236" fill="#4C422C"/>
</g>
<g filter="url(#filter2_g_82_542)">
<path d="M138.31 62.6015C136.169 61.3701 134.536 60.4867 132.956 59.4962C131.805 58.7466 130.52 57.9435 130.842 56.2838C131.056 55.1059 132.608 54.5437 134.643 54.8918C135.794 55.0791 136.999 55.3468 138.069 55.8019C142.513 57.6758 146.957 59.5765 151.347 61.6378C152.445 62.1464 153.489 63.1101 154.158 64.1274C155.55 66.269 155.175 68.357 153.114 69.8562C148.376 73.2827 143.37 76.2274 137.695 77.8871C135.366 78.5564 133.92 78.2887 133.438 77.084C132.715 75.2369 134.081 74.1393 135.259 73.1221C136.651 71.9442 138.176 70.927 139.461 69.3208C136.249 69.4546 133.037 69.5885 129.824 69.7491C119.572 70.2845 109.292 70.8466 99.0392 71.3553C97.5668 71.4356 96.041 71.3553 94.6222 71.034C93.8994 70.8734 93.3104 70.0703 92.668 69.5617C93.2034 68.946 93.6049 67.9287 94.2742 67.7413C96.8173 67.0185 99.4407 66.3761 102.064 66.0013C113.629 64.3951 125.22 63.2975 136.892 62.9495C137.159 62.9495 137.427 62.8157 138.31 62.6015Z" fill="#4C422C"/>
</g>
<g filter="url(#filter3_g_82_542)">
<path d="M85.4667 17.8957C84.262 23.8386 84.5298 29.728 84.6636 35.5906C84.8242 43.0594 84.8777 50.5283 84.8777 58.0238C84.8777 59.4694 84.5565 60.9685 84.155 62.3606C83.9944 62.896 83.2716 63.5652 82.763 63.6188C82.2544 63.6723 81.3442 63.1369 81.1568 62.6283C80.5143 60.8882 79.8718 59.0946 79.6309 57.2743C79.2026 54.0619 78.8546 50.8227 78.801 47.5836C78.5869 38.5353 78.5066 29.4871 78.3727 20.4388C78.3727 19.6893 78.3727 18.9129 77.9444 18.0028C77.5428 18.5917 77.1146 19.1806 76.7398 19.7963C76.0706 20.8671 75.4548 22.0182 74.7053 23.0355C74.1431 23.8118 73.4471 24.7756 72.296 24.2669C71.1717 23.7583 71.3055 22.6875 71.5732 21.697C71.7874 20.9475 71.948 20.1711 72.2157 19.4216C74.1967 14.3888 76.1241 9.32929 78.2121 4.35008C79.3097 1.75339 82.7362 1.21799 84.8777 3.19897C85.306 3.60052 85.6541 4.08238 85.9486 4.59101C88.7059 9.4096 90.7938 14.4959 92.2394 19.8231C92.6409 21.2955 93.3102 23.2497 91.5434 24.0795C89.6428 24.9897 88.8932 22.9552 87.983 21.7773C87.0193 20.5459 86.2698 19.1806 85.4132 17.8689" fill="#4C422C"/>
</g>
<g filter="url(#filter4_g_82_542)">
<path d="M118.876 22.6607C117.671 23.0087 116.466 23.3835 115.235 23.6779C114.486 23.8653 113.682 24.0795 112.906 24.0527C111.246 23.9992 110.524 22.7678 111.514 21.456C112.264 20.4656 113.281 19.5018 114.378 18.9664C117.939 17.2799 121.526 15.6202 125.247 14.2817C129.503 12.7558 132.689 15.1651 132.314 19.6357C131.912 24.5614 130.815 29.3799 128.138 33.6631C127.496 34.6804 126.907 36.2598 125.3 35.778C123.801 35.3229 123.989 33.7167 123.908 32.4853C123.828 31.12 124.016 29.7547 124.096 27.7737C123.212 28.6839 122.623 29.2193 122.115 29.8618C117.029 36.1527 112.049 42.524 106.856 48.7079C103.831 52.3218 100.538 55.7484 97.2725 59.1481C96.4695 59.978 95.3986 60.6205 94.3279 61.0488C92.8288 61.6377 91.6509 60.6473 92.0792 59.0946C92.454 57.7026 93.1233 56.3105 93.9799 55.1326C97.8348 49.8857 101.716 44.6656 105.759 39.5793C109.56 34.7875 113.575 30.183 117.457 25.4715C118.073 24.722 118.635 23.9456 119.224 23.1693C119.117 22.9819 118.983 22.8213 118.876 22.6339" fill="#4C422C"/>
</g>
<defs>
<filter id="filter0_g_82_542" x="0" y="62.4219" width="74.627" height="26.2903" filterUnits="userSpaceOnUse" color-interpolation-filters="sRGB">
<feFlood flood-opacity="0" result="BackgroundImageFix"/>
<feBlend mode="normal" in="SourceGraphic" in2="BackgroundImageFix" result="shape"/>
<feTurbulence type="fractalNoise" baseFrequency="0.5 0.5" numOctaves="3" seed="5566" />
<feDisplacementMap in="shape" scale="4" xChannelSelector="R" yChannelSelector="G" result="displacedImage" width="100%" height="100%" />
<feMerge result="effect1_texture_82_542">
<feMergeNode in="displacedImage"/>
</feMerge>
</filter>
<filter id="filter1_g_82_542" x="16.665" y="13.7114" width="56.4795" height="49.6958" filterUnits="userSpaceOnUse" color-interpolation-filters="sRGB">
<feFlood flood-opacity="0" result="BackgroundImageFix"/>
<feBlend mode="normal" in="SourceGraphic" in2="BackgroundImageFix" result="shape"/>
<feTurbulence type="fractalNoise" baseFrequency="0.5 0.5" numOctaves="3" seed="5566" />
<feDisplacementMap in="shape" scale="4" xChannelSelector="R" yChannelSelector="G" result="displacedImage" width="100%" height="100%" />
<feMerge result="effect1_texture_82_542">
<feMergeNode in="displacedImage"/>
</feMerge>
</filter>
<filter id="filter2_g_82_542" x="90.668" y="52.7898" width="66.3174" height="27.4558" filterUnits="userSpaceOnUse" color-interpolation-filters="sRGB">
<feFlood flood-opacity="0" result="BackgroundImageFix"/>
<feBlend mode="normal" in="SourceGraphic" in2="BackgroundImageFix" result="shape"/>
<feTurbulence type="fractalNoise" baseFrequency="0.5 0.5" numOctaves="3" seed="5566" />
<feDisplacementMap in="shape" scale="4" xChannelSelector="R" yChannelSelector="G" result="displacedImage" width="100%" height="100%" />
<feMerge result="effect1_texture_82_542">
<feMergeNode in="displacedImage"/>
</feMerge>
</filter>
<filter id="filter3_g_82_542" x="69.3877" y="0" width="25.3164" height="65.6226" filterUnits="userSpaceOnUse" color-interpolation-filters="sRGB">
<feFlood flood-opacity="0" result="BackgroundImageFix"/>
<feBlend mode="normal" in="SourceGraphic" in2="BackgroundImageFix" result="shape"/>
<feTurbulence type="fractalNoise" baseFrequency="0.5 0.5" numOctaves="3" seed="5566" />
<feDisplacementMap in="shape" scale="4" xChannelSelector="R" yChannelSelector="G" result="displacedImage" width="100%" height="100%" />
<feMerge result="effect1_texture_82_542">
<feMergeNode in="displacedImage"/>
</feMerge>
</filter>
<filter id="filter4_g_82_542" x="89.9902" y="11.8232" width="44.3535" height="51.3975" filterUnits="userSpaceOnUse" color-interpolation-filters="sRGB">
<feFlood flood-opacity="0" result="BackgroundImageFix"/>
<feBlend mode="normal" in="SourceGraphic" in2="BackgroundImageFix" result="shape"/>
<feTurbulence type="fractalNoise" baseFrequency="0.5 0.5" numOctaves="3" seed="5566" />
<feDisplacementMap in="shape" scale="4" xChannelSelector="R" yChannelSelector="G" result="displacedImage" width="100%" height="100%" />
<feMerge result="effect1_texture_82_542">
<feMergeNode in="displacedImage"/>
</feMerge>
</filter>
</defs>
</svg>
